<svg width="2728" height="177" viewBox="0 0 2728 177" fill="none" xmlns="http://www.w3.org/2000/svg">
<g clip-path="url(#clip0)">
<path fill-rule="evenodd" clip-rule="evenodd" d="M-3 39.5H15C51.4933 39.5 132.412 72.7909 200.837 81.475C271.542 90.1591 342.248 107.527 412.954 122.001C481.379 136.474 552.085 148.053 622.791 130.685C693.497 113.317 761.922 67.0015 832.627 40.9493C903.333 14.897 974.039 9.10763 1044.74 20.6864C1113.17 32.2652 1183.88 61.2122 1254.58 64.1069C1325.29 67.0015 1393.71 43.844 1464.42 52.5281C1535.12 61.2122 1605.83 101.738 1674.25 107.527C1744.96 113.317 1815.67 84.3697 1886.37 61.2122C1957.08 38.0546 2025.5 20.6864 2096.21 32.2652C2166.91 43.844 2237.62 84.3697 2306.05 98.8432C2376.75 113.317 2447.46 101.738 2518.16 87.2644C2586.59 72.7909 2657.29 53.4228 2693.79 44.7387C2693.79 44.7387 2709 41 2729 39.5C2749 38 2728 177 2728 177H2693.79C2657.29 177 2586.59 177 2518.16 177C2447.46 177 2376.75 177 2306.05 177C2237.62 177 2166.91 177 2096.21 177C2025.5 177 1957.08 177 1886.37 177C1815.67 177 1744.96 177 1674.25 177C1605.83 177 1535.12 177 1464.42 177C1393.71 177 1325.29 177 1254.58 177C1183.88 177 1113.17 177 1044.74 177C974.039 177 903.333 177 832.627 177C761.922 177 693.497 177 622.791 177C552.085 177 481.379 177 412.954 177C342.248 177 271.542 177 200.837 177C132.412 177 61.7058 177 25.2125 177H-9L-3 39.5Z" fill="#ED1C24"/>
</g>
<defs>
<clipPath id="clip0">
<rect width="2728" height="177" fill="white"/>
</clipPath>
</defs>
</svg>
