<svg width="248" height="257" viewBox="0 0 248 257" fill="none" xmlns="http://www.w3.org/2000/svg">
<g clip-path="url(#clip0_385_12158)">
<g opacity="0.9">
<g opacity="0.9">
<path opacity="0.9" fill-rule="evenodd" clip-rule="evenodd" d="M73.1629 233.565C73.4108 231.734 73.6987 229.902 75.1763 228.002C79.5763 234.063 83.9258 240.045 88.4874 246.335C86.47 246.738 84.4825 247.121 82.4083 246.485C77.6568 243.246 74.5784 238.946 73.1629 233.565Z" fill="#AA519E"/>
<path opacity="0.9" fill-rule="evenodd" clip-rule="evenodd" d="M136.359 202.458C138.942 199.881 141.515 197.314 144.665 194.173C146.399 199.342 147.939 203.972 149.602 208.931C146.164 209.294 143.476 208.031 140.72 207.05C139.602 205.917 137.739 207.029 136.622 205.867C135.765 204.792 135.757 203.652 136.359 202.458Z" fill="#245D2F"/>
<path opacity="0.9" fill-rule="evenodd" clip-rule="evenodd" d="M73.1628 233.565C76.2412 237.865 79.3297 242.175 82.4082 246.485C79.4385 246.544 76.4589 246.614 73.4893 246.674C71.2451 246.058 68.325 246.048 69.172 242.552C70.2616 239.455 70.6194 236.082 73.1628 233.565Z" fill="#B0529E"/>
<path opacity="0.9" fill-rule="evenodd" clip-rule="evenodd" d="M136.359 202.458C136.586 203.467 136.813 204.475 137.039 205.484C138.594 210.814 137.629 216.15 136.905 221.485C136.125 221.57 135.346 221.655 134.566 221.74C130.734 218.346 130.195 213.949 130.464 209.307C131.776 206.529 131.007 202.163 136.359 202.458Z" fill="#198140"/>
<path opacity="0.9" fill-rule="evenodd" clip-rule="evenodd" d="M136.905 221.485C135.519 216.154 136.664 210.816 137.039 205.484C138.272 205.986 139.999 205.474 140.719 207.04C140.152 207.423 137.978 206.878 139.629 208.547C141.411 210.345 143.382 211.982 144.607 214.224C144.666 218.584 141.536 220.244 137.784 221.389C137.505 221.531 137.215 221.563 136.905 221.485Z" fill="#1E5E2F"/>
<path opacity="0.9" fill-rule="evenodd" clip-rule="evenodd" d="M130.464 209.307C131.832 213.448 133.199 217.599 134.566 221.74C131.439 222.181 128.312 222.622 124.435 223.167C126.622 218.133 128.543 213.72 130.464 209.307Z" fill="#45B54D"/>
<path opacity="0.9" fill-rule="evenodd" clip-rule="evenodd" d="M137.784 221.399C140.652 219.51 142.735 216.967 144.607 214.234C146.657 215.791 148.558 217.468 150.095 219.998C145.902 221.106 141.854 221.312 137.784 221.399Z" fill="#3FB251"/>
<path opacity="0.9" fill-rule="evenodd" clip-rule="evenodd" d="M143.809 232.67C144.188 229.497 144.852 227.113 146.404 224.452C148.578 226.578 150.551 228.525 153.027 230.959C149.662 231.591 146.945 232.089 143.809 232.67Z" fill="#84C44C"/>
<path opacity="0.9" fill-rule="evenodd" clip-rule="evenodd" d="M69.1719 242.542C69.3189 245.121 72.0302 245.313 73.4891 246.664C71.5799 246.786 69.6806 246.899 67.3415 247.044C67.3587 245.104 67.9898 243.75 69.1719 242.542Z" fill="#BC5DA2"/>
</g>
<g opacity="0.9">
<path opacity="0.9" fill-rule="evenodd" clip-rule="evenodd" d="M107.408 220.659C102.2 219.414 98.8594 220.836 97.6649 226.214C97.0919 228.808 95.698 231.257 94.4285 234.365C89.261 228.689 84.426 223.391 79.5405 218.023C80.9077 216.084 83.1703 216.469 84.9156 215.748C86.0942 215.53 88.2585 216.176 86.9023 213.734C85.83 210.341 89.5597 210.287 91.0502 208.847C93.6637 206.33 96.9412 204.418 99.9469 202.248C100.754 201.873 101.645 201.917 102.069 202.604C105.193 207.634 107.737 212.917 109.005 218.669C109.222 219.617 108.657 220.511 107.408 220.659Z" fill="#42B54A"/>
<path opacity="0.9" fill-rule="evenodd" clip-rule="evenodd" d="M174.005 165.319C173.616 165.452 173.227 165.584 172.828 165.717C170.277 165.544 168.169 167.418 165.597 167.195C158.819 169.029 152.226 171.603 144.62 172.173C145.945 166.884 147.742 161.962 150.011 157.167C152.642 154.36 155.869 155.419 158.992 155.838C163.211 157.15 167.045 159.235 170.918 161.19C172.553 162.009 174.828 162.714 174.005 165.319Z" fill="#D94096"/>
<path opacity="0.9" fill-rule="evenodd" clip-rule="evenodd" d="M167.969 105.258C169.807 104.926 171.548 105.164 173.164 106.043C174.029 106.698 174.755 107.713 173.85 108.459C169.783 111.846 173.919 111.259 174.26 111.426C173.017 110.995 171.849 109.732 175.17 108.41C177.215 107.587 179.609 108.241 181.838 108.056L181.918 108.036C182.537 109.422 183.7 108.384 184.601 108.548C186.56 108.335 189.087 107.909 189.939 109.663C190.679 111.198 188.276 112.354 187.174 113.571C184.444 116.599 181.533 119.489 178.693 122.437C176.801 122.25 175.207 123.2 173.501 123.732C172.063 124.111 170.86 123.559 169.666 122.947C169.492 122.368 169.308 121.789 169.124 121.21C166.933 117.945 166.227 114.129 165.044 110.517C164.268 108.152 164.723 105.899 167.969 105.258Z" fill="#9E1F63"/>
<path opacity="0.9" fill-rule="evenodd" clip-rule="evenodd" d="M28.0812 215.252C33.2067 214.558 38.3193 214.925 43.4413 215.211C43.7761 215.939 44.1208 216.657 44.4656 217.384C43.6952 218.849 41.69 219.583 42.7664 222.066C43.7209 224.259 42.8781 226.865 40.3684 228.442C34.8389 228.528 29.4329 227.644 24.027 226.759C22.7349 221.908 24.296 217.507 28.0812 215.252Z" fill="#C2559F"/>
<path opacity="0.9" fill-rule="evenodd" clip-rule="evenodd" d="M150.004 124.267C153.981 126.79 157.947 129.314 162.617 132.284C155.152 136.013 148.068 138.55 140.253 140.841C140.318 135.511 141.356 130.594 142.523 125.676C144.731 123.791 147.507 124.763 150.004 124.267Z" fill="#6D4F9F"/>
<path opacity="0.9" fill-rule="evenodd" clip-rule="evenodd" d="M174.005 165.319C170.275 160.754 163.802 160.336 159.379 156.825C156.731 155.613 153.312 155.785 151.504 153.047C150.494 151.544 149.484 150.041 148.272 148.258C150.118 147.676 151.765 147.155 153.412 146.635C158.967 148.918 163.453 152.959 169.177 154.951C171.42 157.036 173.605 159.182 175.918 161.196C179.609 164.392 176.842 164.841 174.005 165.319Z" fill="#BF6EAC"/>
<path opacity="0.9" fill-rule="evenodd" clip-rule="evenodd" d="M175.036 232.154C172.177 233.883 169.308 235.612 165.135 238.119C168.319 229.698 171.003 222.63 173.696 215.502C176.881 216.191 176.587 218.753 177.668 220.396C179.508 224.824 177.322 228.499 175.036 232.154Z" fill="#ED438E"/>
<path opacity="0.9" fill-rule="evenodd" clip-rule="evenodd" d="M36.4416 157.646L36.0891 157.268L36.1458 156.768C35.1783 155.634 34.9389 154.206 34.51 152.859C40.8221 151.637 43.3654 144.55 50.0411 143.876C52.0233 144.203 54.2175 143.318 55.997 144.757C55.1384 149.512 50.0668 150.806 47.3883 154.074C46.6416 154.589 45.8444 155.004 45.0068 155.379C44.1794 155.775 43.3316 156.11 42.5143 156.526C40.5896 157.339 38.8002 158.94 36.4416 157.646Z" fill="#225E31"/>
<path opacity="0.9" fill-rule="evenodd" clip-rule="evenodd" d="M50.051 143.866C48.2146 145.928 45.3294 146.667 43.5045 148.959C41.5903 151.362 38.9651 153.619 35.1258 152.224C33.1098 151.328 33.556 149.225 32.7163 147.76C33.5397 143.715 37.3165 143.22 40.4683 141.969C43.7889 142.047 46.9638 142.786 50.051 143.866Z" fill="#166635"/>
<path opacity="0.9" fill-rule="evenodd" clip-rule="evenodd" d="M36.4416 157.646C38.4157 156.753 40.3899 155.86 42.364 154.967C47.4363 158.323 53.531 160.533 56.5384 166.204C56.3405 166.515 56.0512 166.627 55.6806 166.529C54.1092 167.84 52.0505 168.043 50.1947 168.685C48.2052 168.779 46.1099 167.982 45.7197 166.425C44.6413 162.122 40.6179 161.618 37.4668 159.949C37.1317 159.171 36.7866 158.404 36.4416 157.646Z" fill="#EF5256"/>
<path opacity="0.9" fill-rule="evenodd" clip-rule="evenodd" d="M173.408 141.463C174.305 144.067 175.202 146.671 176.13 149.375C173.664 150.031 171.641 149.484 169.645 148.678C167.793 148.33 166.186 147.21 164.216 147.253C163.655 147.147 163.164 146.93 162.731 146.583C161.369 144.712 158.731 143.519 159.222 140.656C161.261 138.973 163.42 138.838 165.887 139.832C168.253 140.787 170.758 141.46 173.408 141.463Z" fill="#A968AA"/>
<path opacity="0.9" fill-rule="evenodd" clip-rule="evenodd" d="M40.3585 228.452C40.8405 225.728 42.5541 223.237 41.194 220.186C39.9455 217.384 43.4124 218.421 44.4557 217.394C46.6207 221.19 48.7857 224.976 51.3555 229.489C47.1072 229.747 43.7051 229.45 40.3585 228.452Z" fill="#BC5CA2"/>
<path opacity="0.9" fill-rule="evenodd" clip-rule="evenodd" d="M169.187 154.951C164.697 154.99 156.398 150.615 153.422 146.635C153.945 145.641 154.479 144.658 155.002 143.664C158.471 143.481 160.817 145.976 163.843 146.876C164.525 147.101 164.677 147.5 164.301 148.093C164.572 151.251 168.468 152.085 169.187 154.951Z" fill="#B96EAC"/>
<path opacity="0.9" fill-rule="evenodd" clip-rule="evenodd" d="M159.565 139.564C162.471 135.915 165.377 132.275 168.759 128.033C169.881 131.276 170.666 133.581 171.461 135.885C168.56 140.285 163.782 139.096 159.565 139.564Z" fill="#6F4F9F"/>
<path opacity="0.9" fill-rule="evenodd" clip-rule="evenodd" d="M159.565 139.564C163.527 138.338 167.489 137.112 171.451 135.885C172.103 137.741 172.746 139.607 173.398 141.463C172.442 142.119 173.24 144.814 170.26 143.253C166.988 141.535 163.493 139.208 159.225 141.036C158.634 140.86 158.501 140.521 158.848 140.029C158.996 139.728 159.225 139.576 159.565 139.564Z" fill="#9E60A6"/>
<path opacity="0.9" fill-rule="evenodd" clip-rule="evenodd" d="M170.74 181.251C171.359 178.047 171.978 174.843 172.684 171.188C176.266 172.984 178.523 175.54 180.809 178.075C178.007 180.753 174.654 181.795 170.74 181.251Z" fill="#E14397"/>
<path opacity="0.9" fill-rule="evenodd" clip-rule="evenodd" d="M37.4667 159.939C44.3903 158.944 45.4237 165.537 49.5014 168.2C47.4734 170.033 45.0478 170.709 42.3066 170.528C41.4591 167.883 43.2127 165.381 42.8928 162.374C38.7255 165.831 37.8687 163.277 37.4667 159.939Z" fill="#EF545E"/>
<path opacity="0.9" fill-rule="evenodd" clip-rule="evenodd" d="M181.848 108.056C179.639 109.771 176.763 108.86 174.209 109.737C175.702 111.687 178.761 110.127 180.31 112.987C175.786 113.856 172.177 112.57 168.013 110.448C169.912 108.775 174.169 109.737 173.174 106.053C176.098 106.594 179.149 106.664 181.848 108.056Z" fill="#9E1F63"/>
<path opacity="0.9" fill-rule="evenodd" clip-rule="evenodd" d="M175.036 232.154C175.91 228.238 176.794 224.312 177.668 220.396C178.192 220.943 178.855 221.408 179.209 222.036C183.125 228.91 183.105 228.921 175.036 232.154Z" fill="#BF69A9"/>
<path opacity="0.9" fill-rule="evenodd" clip-rule="evenodd" d="M33.11 146.808C33.7819 148.613 34.4538 150.419 35.1258 152.224C35.4758 153.742 35.8157 155.25 36.1657 156.758C32.9822 151.699 31.7542 145.927 29.437 140.292C31.6114 139.447 33.3465 140.206 35.0811 140.895C36.6684 143.514 33.226 144.687 33.11 146.808Z" fill="#0E753C"/>
<path opacity="0.9" fill-rule="evenodd" clip-rule="evenodd" d="M158.858 140.029C158.97 140.368 159.103 140.707 159.235 141.036C160.967 142.845 163.256 144.25 163.833 146.876C159.813 148.372 157.831 144.985 154.992 143.664C154.654 140.916 157.948 141.595 158.858 140.029Z" fill="#B26DAC"/>
<path opacity="0.9" fill-rule="evenodd" clip-rule="evenodd" d="M167.969 105.258C164.707 107.919 165.557 110.964 166.808 114.136C167.713 116.44 168.359 118.845 169.114 121.21C165.711 116.183 164.752 110.259 162.196 104.836C164.498 103.541 166.224 104.499 167.969 105.258Z" fill="#2F66B0"/>
<path opacity="0.9" fill-rule="evenodd" clip-rule="evenodd" d="M150.004 124.267C147.807 126.221 145.155 125.909 142.523 125.676C142.751 123.844 142.969 122.003 143.254 119.701C146.032 120.983 148.251 122.298 150.004 124.267Z" fill="#386DB4"/>
<path opacity="0.9" fill-rule="evenodd" clip-rule="evenodd" d="M169.666 122.947C171.016 122.978 172.366 123.009 173.716 123.04C175.12 122.021 176.502 122.372 177.887 123.053C176.08 125.065 174.283 127.087 172.357 129.229C170.683 127.03 169.97 125.065 169.666 122.947Z" fill="#664A9D"/>
<path opacity="0.9" fill-rule="evenodd" clip-rule="evenodd" d="M170.74 181.251C174.093 180.189 177.446 179.137 180.799 178.075C181.081 178.333 181.654 178.699 181.594 178.839C180.403 181.707 173.273 183.264 170.74 181.251Z" fill="#EC298D"/>
<path opacity="0.9" fill-rule="evenodd" clip-rule="evenodd" d="M33.11 146.808C31.7432 144.257 34.7247 142.957 35.0811 140.895C36.9903 140.772 38.7926 141.11 40.4782 141.959C39.0482 144.998 35.5797 145.231 33.11 146.808Z" fill="#1A703B"/>
<path opacity="0.9" fill-rule="evenodd" clip-rule="evenodd" d="M50.4183 152.544C49.2387 152.611 48.0592 152.689 46.8896 152.757C49.9522 150.107 53.8304 148.301 56.007 144.747C57.0179 144.88 58.3899 145.181 57.3576 146.348C55.3227 148.651 53.7616 151.522 50.4183 152.544Z" fill="#9FC03C"/>
<path opacity="0.9" fill-rule="evenodd" clip-rule="evenodd" d="M151.504 153.047C154.438 153.758 157.126 154.88 159.379 156.825C156.272 157.386 153.102 155.887 150.011 157.157C150.071 155.647 150.462 154.244 151.504 153.047Z" fill="#D24798"/>
<path opacity="0.9" fill-rule="evenodd" clip-rule="evenodd" d="M42.3066 170.518C44.7015 169.742 47.1065 168.966 49.5015 168.2C51.5578 167.637 53.6242 167.083 55.6805 166.519C51.6171 169.046 47.1065 170.486 42.3822 171.367C42.3223 171.377 42.1509 171.169 42.1502 171.059C42.1491 170.889 42.2478 170.698 42.3066 170.518Z" fill="#EF5164"/>
<path opacity="0.9" fill-rule="evenodd" clip-rule="evenodd" d="M184.601 108.548C183.385 109.076 184.021 111.622 182.117 111.005C180.734 110.564 181.874 109.066 181.918 108.036C182.896 107.849 183.846 107.793 184.601 108.548Z" fill="#9E1F63"/>
<path opacity="0.9" fill-rule="evenodd" clip-rule="evenodd" d="M177.887 123.053C176.497 123.052 175.106 123.041 173.726 123.04C175.079 120.391 176.854 121.18 178.703 122.427C178.535 122.768 178.266 122.98 177.887 123.053Z" fill="#3C479C"/>
<path opacity="0.9" fill-rule="evenodd" clip-rule="evenodd" d="M164.301 148.093C164.149 147.684 163.996 147.285 163.843 146.876C166.229 146.22 168.006 147.258 169.645 148.688C167.864 148.489 166.083 148.291 164.301 148.093Z" fill="#B26DAC"/>
<path opacity="0.9" fill-rule="evenodd" clip-rule="evenodd" d="M165.607 167.185C167.942 166.379 170.142 164.885 172.838 165.707C170.514 166.642 168.22 167.657 165.607 167.185Z" fill="#BF6EAC"/>
<path opacity="0.9" fill-rule="evenodd" clip-rule="evenodd" d="M86.9225 213.734C88.0018 213.637 89.516 214.267 89.1301 214.88C88.2792 216.265 86.5293 216.297 84.9257 215.748C85.5913 215.073 86.9207 214.984 86.9225 213.734Z" fill="#A8D6A7"/>
<path opacity="0.9" fill-rule="evenodd" clip-rule="evenodd" d="M172.113 114.931C171.918 115.662 171.932 116.262 171.634 116.624C171.168 117.187 170.556 116.881 170.392 116.342C170.259 115.893 170.335 115.272 170.582 114.861C170.681 114.7 171.463 114.895 172.113 114.931Z" fill="#2F66B0"/>
</g>
</g>
<g opacity="0.3">
<g opacity="0.3">
<path opacity="0.3" fill-rule="evenodd" clip-rule="evenodd" d="M177.1 84.1171C177.23 84.1562 177.361 84.2054 177.481 84.2746C177.67 85.6534 177.218 86.8864 176.456 88.0414C175.679 88.4966 174.623 89.0735 175.112 87.4703C175.474 86.2679 176.417 85.2216 177.1 84.1171Z" fill="#1AAAD2"/>
<path opacity="0.3" fill-rule="evenodd" clip-rule="evenodd" d="M176.446 88.0415C176.467 86.7113 176.839 85.4589 177.481 84.2646C178.43 85.6184 177.468 86.8747 177.217 88.1664C176.966 88.1281 176.706 88.0798 176.446 88.0415Z" fill="#2D328A"/>
</g>
<g opacity="0.3">
<path opacity="0.3" fill-rule="evenodd" clip-rule="evenodd" d="M125.469 244.971C125.558 244.72 125.736 244.459 125.714 244.209C125.163 237.983 125.163 237.983 132.037 240.008C129.959 241.941 128.021 243.744 126.083 245.557C125.872 245.368 125.67 245.17 125.469 244.971Z" fill="#AED039"/>
<path opacity="0.3" fill-rule="evenodd" clip-rule="evenodd" d="M142.491 134.476C142.603 134.776 142.725 135.075 142.837 135.384C142.107 138.439 139.351 139.087 136.777 139.934C133.894 139.433 131.01 138.922 127.496 138.305C130.239 135.747 132.366 133.763 134.493 131.779C136.426 130.736 137.646 132.248 139.12 132.859C140.074 133.352 141.037 133.816 142.039 134.229C142.18 134.298 142.341 134.387 142.491 134.476Z" fill="#63C2A5"/>
<path opacity="0.3" fill-rule="evenodd" clip-rule="evenodd" d="M165.996 179.182C162.806 182.153 160.222 184.571 157.151 187.431C156.156 183.697 155.264 180.363 154.167 176.27C158.424 177.312 161.96 178.189 165.996 179.182Z" fill="#6FBD46"/>
<path opacity="0.3" fill-rule="evenodd" clip-rule="evenodd" d="M172.825 188.028C174.44 190.387 175.433 192.23 176.823 193.761C180.046 197.29 177.598 197.536 174.517 197.507C172.097 197.483 169.651 198.119 166.976 197.336C168.876 194.304 170.687 191.422 172.825 188.028Z" fill="#5EBA57"/>
<path opacity="0.3" fill-rule="evenodd" clip-rule="evenodd" d="M142.001 169.39C139.65 170.676 137.054 171.273 134.416 171.7C131.977 168.806 127.727 168.774 124.941 166.423C124.764 165.324 124.677 164.244 125.742 163.427C126.008 162.896 126.515 162.422 127.056 162.579C132.397 164.143 138.33 164.604 142.001 169.39Z" fill="#C0D730"/>
<path opacity="0.3" fill-rule="evenodd" clip-rule="evenodd" d="M168.69 119.033L168.542 119.364L168.183 119.497C167.709 120.46 166.813 121.056 166.038 121.761C163.235 118.339 157.62 119.106 155.085 115.293C154.686 113.986 153.409 112.944 153.829 111.401C157.333 110.368 159.79 113.012 162.844 113.572C163.426 113.858 163.958 114.204 164.471 114.591C164.993 114.968 165.486 115.364 166.028 115.731C167.194 116.623 168.838 117.182 168.69 119.033Z" fill="#225E31"/>
<path opacity="0.3" fill-rule="evenodd" clip-rule="evenodd" d="M155.085 115.293C157.058 115.73 158.468 117.231 160.59 117.597C162.813 117.972 165.168 118.827 165.427 121.605C165.447 123.115 163.879 123.525 163.136 124.52C160.131 125.34 158.617 123.21 156.777 121.712C155.794 119.678 155.31 117.522 155.085 115.293Z" fill="#166635"/>
<path opacity="0.3" fill-rule="evenodd" clip-rule="evenodd" d="M142.001 169.39C137.159 166.032 131.48 164.66 125.742 163.427C125.584 162.338 126.008 161.386 126.532 160.462C128.789 158.477 130.697 159.735 132.596 160.992C133.952 161.893 134.593 163.639 136.455 163.957C138.804 165.311 140.945 166.887 142.529 169.057C142.559 169.097 142.491 169.287 142.421 169.318C142.301 169.378 142.141 169.369 142.001 169.39Z" fill="#CBDB2F"/>
<path opacity="0.3" fill-rule="evenodd" clip-rule="evenodd" d="M168.69 119.033C167.464 118.131 166.248 117.229 165.022 116.327C165.725 112.163 165.325 107.755 168.241 104.086C168.511 104.104 168.682 104.243 168.724 104.503C170.108 105.024 170.885 106.208 171.901 107.122C172.589 108.297 172.699 109.827 171.764 110.563C169.168 112.62 170.085 115.214 169.931 117.675C169.514 118.128 169.107 118.581 168.69 119.033Z" fill="#EF5256"/>
<path opacity="0.3" fill-rule="evenodd" clip-rule="evenodd" d="M125.965 74.484C131.067 76.3104 131.087 76.3203 128.534 80.3872C127.525 81.9939 126.455 83.561 125.218 85.4492C124.053 83.3168 124.021 81.357 123.828 79.4282C124.046 77.6067 123.963 75.6472 125.965 74.484Z" fill="#86C345"/>
<path opacity="0.3" fill-rule="evenodd" clip-rule="evenodd" d="M163.754 115.186C163.212 114.889 162.66 114.593 162.119 114.307C161.664 113.639 160.502 113.357 160.875 112.245C162.625 109.253 162.943 105.921 163.592 102.657C163.853 101.345 164.083 99.8532 165.746 101.832C167.213 105.793 165.399 109.765 165.605 113.744C165.63 114.453 164.815 115.209 163.754 115.186Z" fill="#F37B65"/>
<path opacity="0.3" fill-rule="evenodd" clip-rule="evenodd" d="M124.941 166.423C128.029 166.122 134.252 169.581 134.416 171.7C133.889 172.134 133.352 172.517 132.6 172.252C129.499 172.053 126.583 171.292 123.943 169.709C123.965 168.539 124.188 167.408 124.941 166.423Z" fill="#B3D236"/>
<path opacity="0.3" fill-rule="evenodd" clip-rule="evenodd" d="M123.943 169.709C127.152 169.608 129.92 170.79 132.6 172.252C129.317 173.324 126.044 174.406 122.581 175.538C122.636 173.278 123.165 171.465 123.943 169.709Z" fill="#42B14C"/>
<path opacity="0.3" fill-rule="evenodd" clip-rule="evenodd" d="M172.708 162.748C171.383 168.087 168.288 168.807 160.956 165.475C161.455 163.772 163.671 164.717 164.443 163.462C166.38 163.049 168.475 163.816 170.308 162.684C171.126 162.438 171.935 162.303 172.708 162.748Z" fill="#5EBA47"/>
<path opacity="0.3" fill-rule="evenodd" clip-rule="evenodd" d="M151.513 157.487C150.146 157.886 148.778 158.295 146.882 158.858C148.023 156 147.462 152.754 149.862 151.288C151.575 150.247 152.623 152.97 153.931 154.071C153.52 155.454 152.366 156.372 151.513 157.487Z" fill="#9E1F63"/>
<path opacity="0.3" fill-rule="evenodd" clip-rule="evenodd" d="M182.579 152.232C180.727 150.405 178.556 148.809 177.52 146.356C177.93 146.263 178.33 146.27 178.74 146.358C182.092 148.136 185.699 149.202 189.512 149.687C189.703 149.755 189.883 149.834 190.074 149.913C189.894 151.444 189.183 152.769 188.231 153.995C185.394 156.044 184.63 152.369 182.579 152.232Z" fill="#FBB33B"/>
<path opacity="0.3" fill-rule="evenodd" clip-rule="evenodd" d="M138.703 133.311C137.33 132.73 136.133 131.708 134.483 131.769C136.203 130.158 137.932 128.556 139.84 126.774C141.287 129.314 142.034 131.849 142.491 134.476L142.302 134.648C141.011 134.416 139.887 133.803 138.703 133.311Z" fill="#6ECCE2"/>
<path opacity="0.3" fill-rule="evenodd" clip-rule="evenodd" d="M163.754 115.186C166.063 111.9 164.007 108.064 165.385 104.645C165.729 103.782 165.633 102.773 165.736 101.832C166.571 102.587 167.406 103.331 168.251 104.086C167.178 108.163 167.337 112.522 165.032 116.327C164.599 115.95 164.177 115.563 163.754 115.186Z" fill="#F0635A"/>
<path opacity="0.3" fill-rule="evenodd" clip-rule="evenodd" d="M154.882 83.0635C157.308 82.4075 159.734 81.7415 162.399 81.0239C162.078 83.8261 161.142 86.0623 160.107 88.2692C157.232 87.5581 155.401 85.8902 154.882 83.0635Z" fill="#ED488B"/>
<path opacity="0.3" fill-rule="evenodd" clip-rule="evenodd" d="M169.931 117.665C167.095 113.794 171.257 111.026 171.805 107.683C173.679 108.31 174.908 109.562 175.629 111.277C174.088 112.658 171.846 112.402 169.904 113.585C173.553 114.981 172.082 116.341 169.931 117.665Z" fill="#EF545E"/>
<path opacity="0.3" fill-rule="evenodd" clip-rule="evenodd" d="M136.767 139.924C138.283 137.814 141.119 137.255 142.827 135.374C143.23 137.292 145.436 139.777 143.754 140.938C141.962 142.17 139.092 140.619 136.767 139.924Z" fill="#64C3AB"/>
<path opacity="0.3" fill-rule="evenodd" clip-rule="evenodd" d="M178.374 146.89C178.093 146.712 177.801 146.534 177.52 146.356C175.889 143.106 179.497 145.903 179.649 144.702C181.132 145.082 182.662 145.062 184.163 145.242C184.543 145.299 184.924 145.397 185.285 145.514C187.151 146.402 189.421 146.497 190.922 148.087C191.077 148.866 190.621 149.399 190.084 149.903L189.914 149.904C185.636 150.272 182.152 148.095 178.374 146.89Z" fill="#F89D3A"/>
<path opacity="0.3" fill-rule="evenodd" clip-rule="evenodd" d="M142.763 90.7036C143.962 92.1957 144.624 93.9114 145.156 95.7179C143.889 96.2163 142.816 95.7533 141.714 95.5306C139.57 94.8047 137.712 93.6369 135.923 92.3487C136.095 91.0676 137.09 90.331 138.025 89.5448C139.48 90.3652 141.033 90.825 142.763 90.7036Z" fill="#A6D06A"/>
<path opacity="0.3" fill-rule="evenodd" clip-rule="evenodd" d="M161.598 144.521C164.427 144.372 167.246 144.223 170.815 144.03C169.237 145.91 168.175 147.177 167.114 148.444C164.184 148.484 162.167 147.397 161.598 144.521Z" fill="#64489C"/>
<path opacity="0.3" fill-rule="evenodd" clip-rule="evenodd" d="M185.069 126.365C185.127 127.605 185.185 128.845 185.243 130.084C185.066 130.566 184.717 130.728 184.206 130.571C182.448 129.353 179.926 128.949 179.27 126.534C180.683 125.604 182.087 124.675 183.501 123.736C184.027 124.612 184.543 125.489 185.069 126.365Z" fill="#9E1F63"/>
<path opacity="0.3" fill-rule="evenodd" clip-rule="evenodd" d="M161.598 144.521C162.96 146.422 165.176 147.257 167.114 148.444C166.29 149.39 165.608 150.594 164.03 149.345C162.27 147.966 160.422 146.698 158.573 145.341C159.424 143.945 160.547 144.358 161.598 144.521Z" fill="#B677B1"/>
<path opacity="0.3" fill-rule="evenodd" clip-rule="evenodd" d="M185.224 143.885C187.812 143.498 190.409 143.101 193.046 142.703C193.305 144.052 192.821 144.975 192.027 145.8C191.487 147.384 190.279 147.572 189.033 146.8C187.618 145.919 185.99 146.25 184.527 145.799C183.42 144.737 184.136 144.252 185.224 143.885Z" fill="#F48437"/>
<path opacity="0.3" fill-rule="evenodd" clip-rule="evenodd" d="M136.455 163.957C133.079 162.949 130.824 159.204 126.522 160.452C126.534 159.202 126.554 157.672 127.74 157.134C129.176 156.485 129.946 158.07 130.852 158.844C132.782 160.481 134.594 162.249 136.455 163.957Z" fill="#DAE03B"/>
<path opacity="0.3" fill-rule="evenodd" clip-rule="evenodd" d="M135.923 92.3487C139.335 91.0362 139.758 94.5135 141.714 95.5306C140.144 95.521 138.574 95.5513 137.014 95.5016C133.663 95.4037 133.696 94.2135 135.923 92.3487Z" fill="#6ABD51"/>
<path opacity="0.3" fill-rule="evenodd" clip-rule="evenodd" d="M162.366 124.595C163.39 123.598 164.403 122.602 165.427 121.605C166.342 120.899 167.268 120.203 168.183 119.497C165.736 123.073 162.194 125.696 159.085 128.937C157.838 127.895 157.809 126.595 157.731 125.326C159.009 123.507 160.88 125.215 162.366 124.595Z" fill="#0E753C"/>
<path opacity="0.3" fill-rule="evenodd" clip-rule="evenodd" d="M159.691 88.9619C159.621 90.4024 159.552 92.1429 157.53 90.2362C155.96 88.7666 153.962 87.5497 153.327 85.3338C154.392 86.0068 155.288 83.9609 156.396 85.1336C157.455 86.4466 159.23 87.195 159.691 88.9619Z" fill="#FBE692"/>
<path opacity="0.3" fill-rule="evenodd" clip-rule="evenodd" d="M179.27 126.534C181.247 127.661 183.274 128.727 184.577 130.629C184.649 130.988 184.48 131.119 184.109 131.052C181.348 130.79 179.009 129.525 176.591 128.321C176.972 126.949 178.323 127.01 179.27 126.534Z" fill="#9E1F63"/>
<path opacity="0.3" fill-rule="evenodd" clip-rule="evenodd" d="M172.708 162.748C172.01 162.962 171.301 163.177 170.602 163.392C169.034 163.712 167.803 163.51 167.571 161.712C167.965 160.749 169.087 161.022 169.714 160.587C173.497 158.002 172.844 160.667 172.708 162.748Z" fill="#91C741"/>
<path opacity="0.3" fill-rule="evenodd" clip-rule="evenodd" d="M182.579 152.232C184.876 151.687 186.082 154.139 188.231 153.995C188.258 155.155 187.564 156.02 186.782 157.175C184.863 155.857 183.632 154.116 182.579 152.232Z" fill="#FFCE4C"/>
<path opacity="0.3" fill-rule="evenodd" clip-rule="evenodd" d="M162.366 124.595C161.057 126.254 159.238 124.876 157.731 125.336C157.054 124.22 156.716 123.022 156.777 121.722C159.277 121.585 160.52 123.607 162.366 124.595Z" fill="#1A703B"/>
<path opacity="0.3" fill-rule="evenodd" clip-rule="evenodd" d="M160.865 112.245C161.279 112.932 161.694 113.619 162.109 114.307C159.352 113.315 156.91 111.561 153.819 111.401C153.595 110.743 153.379 109.814 154.48 110.057C156.694 110.542 159.124 110.546 160.865 112.245Z" fill="#9FC03C"/>
<path opacity="0.3" fill-rule="evenodd" clip-rule="evenodd" d="M184.517 145.8C186.195 145.478 187.865 144.037 189.429 146.187C190.146 147.182 191.211 146.365 192.017 145.8C192.043 146.74 191.568 147.453 190.912 148.107C188.669 147.602 186.248 147.538 184.517 145.8Z" fill="#F6913A"/>
<path opacity="0.3" fill-rule="evenodd" clip-rule="evenodd" d="M151.513 157.487C151.09 155.58 152.947 155.088 153.93 154.061C154.605 154.707 155.279 155.352 156.014 156.048C154.54 157.027 153.073 157.407 151.513 157.487Z" fill="#9E1F63"/>
<path opacity="0.3" fill-rule="evenodd" clip-rule="evenodd" d="M185.224 143.885C184.738 144.438 184.271 145.011 184.517 145.8C182.65 146.362 180.969 146.233 179.649 144.712C181.403 143.77 183.303 143.737 185.224 143.885Z" fill="#F6913A"/>
<path opacity="0.3" fill-rule="evenodd" clip-rule="evenodd" d="M167.581 161.722C168.377 162.626 169.45 163.079 170.612 163.402C168.555 165.295 166.508 164.239 164.453 163.472C164.983 162.059 166.859 162.826 167.581 161.722Z" fill="#7AC049"/>
<path opacity="0.3" fill-rule="evenodd" clip-rule="evenodd" d="M175.619 111.287C174.341 110.086 173.073 108.884 171.795 107.693C170.768 106.629 169.751 105.566 168.724 104.503C171.715 106.133 174.1 108.397 176.167 110.964C176.197 110.994 176.108 111.174 176.028 111.205C175.919 111.265 175.769 111.266 175.619 111.287Z" fill="#EF5164"/>
<path opacity="0.3" fill-rule="evenodd" clip-rule="evenodd" d="M155.314 84.8407C155.228 85.3513 155.151 85.8618 155.074 86.3723C154.492 86.0261 153.92 85.6799 153.337 85.3437C152.974 84.8261 152.21 84.2011 152.337 83.8303C152.553 83.1989 153.434 83.2531 154.115 83.4386C154.896 83.6034 155.369 84.0203 155.314 84.8407Z" fill="#DDE57C"/>
<path opacity="0.3" fill-rule="evenodd" clip-rule="evenodd" d="M186.528 132.356C189.186 130.558 189.832 132.864 190.951 134.237C189.269 134.028 187.835 133.337 186.528 132.356Z" fill="#9E1F63"/>
<path opacity="0.3" fill-rule="evenodd" clip-rule="evenodd" d="M184.109 131.052C184.269 130.911 184.418 130.77 184.577 130.629C184.795 130.447 185.024 130.266 185.243 130.084C186.024 130.259 186.703 130.115 187.26 129.541C187.549 129.529 187.71 129.608 187.731 129.768C187.752 129.918 187.733 130.028 187.663 130.088C187.017 130.733 186.231 131.308 186.528 132.366C185.369 132.524 184.744 131.778 184.109 131.052Z" fill="#9E1F63"/>
<path opacity="0.3" fill-rule="evenodd" clip-rule="evenodd" d="M138.703 133.311C140.064 133.402 141.346 133.644 142.312 134.658C140.676 135.208 139.621 134.415 138.703 133.311Z" fill="#64C3AB"/>
<path opacity="0.3" fill-rule="evenodd" clip-rule="evenodd" d="M187.673 130.088C187.582 129.879 187.451 129.69 187.26 129.541C186.956 129.013 186.112 128.419 187.309 127.991C187.978 127.756 188.728 127.771 189.447 127.667C189.241 128.288 189.035 128.909 188.819 129.521C188.451 129.713 188.062 129.896 187.673 130.088Z" fill="#9E1F63"/>
<path opacity="0.3" fill-rule="evenodd" clip-rule="evenodd" d="M178.374 146.89C182.22 147.895 186.057 148.899 189.904 149.914C185.382 151.124 181.858 149.087 178.374 146.89Z" fill="#F9A53E"/>
</g>
</g>
<g opacity="0.9">
<g opacity="0.9">
<path opacity="0.9" fill-rule="evenodd" clip-rule="evenodd" d="M157.356 101.788C155.649 103.819 153.953 105.86 151.939 108.273C150.198 103.605 148.559 99.2256 146.625 94.0482C150.833 95.2305 154.576 95.7058 158.058 97.4629C158.286 98.6914 157.963 99.7836 157.41 100.807C157.352 101.128 157.334 101.458 157.356 101.788Z" fill="#5D3B96"/>
<path opacity="0.9" fill-rule="evenodd" clip-rule="evenodd" d="M124.619 106.904C125.978 106.745 127.327 106.626 128.942 107.335C125.39 111.589 121.878 115.782 118.187 120.196C117.537 118.821 116.919 117.465 117.008 115.864C118.492 111.874 121.022 108.887 124.619 106.904Z" fill="#AA519E"/>
<path opacity="0.9" fill-rule="evenodd" clip-rule="evenodd" d="M124.619 106.904C122.089 109.89 119.558 112.877 117.018 115.864C116.454 113.748 115.88 111.631 115.316 109.505C115.365 107.785 114.851 105.698 117.501 105.66C119.902 105.885 122.37 105.528 124.619 106.904Z" fill="#B0529E"/>
<path opacity="0.9" fill-rule="evenodd" clip-rule="evenodd" d="M117.511 105.66C115.694 106.232 116.038 108.21 115.326 109.505C114.907 108.158 114.488 106.82 113.977 105.174C115.355 104.835 116.437 105.037 117.511 105.66Z" fill="#BC5DA2"/>
<path opacity="0.9" fill-rule="evenodd" clip-rule="evenodd" d="M157.356 101.788C157.236 101.708 157.125 101.629 157.024 101.53C157.124 100.019 157.797 98.8247 158.76 97.7783C159.598 97.4828 160.715 97.1354 159.926 98.7006C159.334 99.8945 158.229 100.772 157.356 101.788Z" fill="#1AAAD2"/>
<path opacity="0.9" fill-rule="evenodd" clip-rule="evenodd" d="M158.77 97.7883C158.479 99.1902 157.877 100.434 157.034 101.53C156.403 99.8739 157.566 98.7662 158.068 97.4629C158.298 97.5713 158.529 97.6798 158.77 97.7883Z" fill="#2D328A"/>
</g>
<g opacity="0.9">
<path opacity="0.9" fill-rule="evenodd" clip-rule="evenodd" d="M139.856 129.094C139.83 125.134 138.225 123.004 134.176 123.121C132.216 123.184 130.233 122.627 127.79 122.283C130.929 117.552 133.87 113.133 136.841 108.653C138.475 109.282 138.586 110.972 139.404 112.096C139.769 112.904 139.69 114.574 141.191 113.154C143.421 111.77 144.119 114.425 145.404 115.237C147.664 116.652 149.607 118.659 151.679 120.415C152.092 120.933 152.206 121.572 151.799 122.005C148.75 125.155 145.438 127.937 141.541 129.883C140.923 130.197 140.191 129.961 139.856 129.094Z" fill="#42B54A"/>
<path opacity="0.9" fill-rule="evenodd" clip-rule="evenodd" d="M128.86 63.1047C133.764 65.1524 138.658 67.2502 143.591 69.2377C145.566 70.0347 145.763 71.0434 144.222 72.3636C140.334 75.6893 136.405 78.9753 132.497 82.2811C129.886 79.1283 130.199 75.0361 129.025 71.4138C129.367 68.6515 126.258 65.8419 128.86 63.1047Z" fill="#ED4488"/>
<path opacity="0.9" fill-rule="evenodd" clip-rule="evenodd" d="M208.903 183.14C213.517 185.139 218.12 187.149 222.733 189.149C222.612 190.519 221.577 191.196 220.793 192.071C220.504 192.333 220.176 192.556 219.827 192.718C219.119 192.982 218.359 193.107 217.62 193.272C216.162 193.552 214.988 194.5 213.612 194.989C212.394 195.297 211.56 196.262 210.554 196.929C209.957 197.263 209.298 197.437 208.679 197.701C207.912 198.046 207.346 198.72 206.588 199.085C205.9 199.31 205.229 199.214 204.577 198.878C204.269 196.21 203.962 193.542 203.644 190.884C204.985 187.986 205.331 184.323 208.903 183.14Z" fill="#4B4199"/>
<path opacity="0.9" fill-rule="evenodd" clip-rule="evenodd" d="M232.936 151.551C233.494 152.807 233.633 154.096 233.281 155.418C232.966 156.15 232.371 156.864 231.677 156.349C228.542 154.05 229.691 156.902 229.633 157.182C229.716 156.212 230.419 155.147 231.954 157.287C232.902 158.611 232.854 160.441 233.385 161.998L233.415 162.048C232.529 162.743 233.484 163.387 233.518 164.057C234.007 165.424 234.759 167.159 233.655 168.086C232.69 168.903 231.44 167.381 230.376 166.808C227.727 165.395 225.157 163.842 222.547 162.339C222.347 160.951 221.391 159.977 220.714 158.851C220.187 157.895 220.371 156.933 220.595 155.962C220.973 155.729 221.361 155.497 221.74 155.254C223.686 153.092 226.288 151.904 228.658 150.389C230.222 149.418 231.901 149.337 232.936 151.551Z" fill="#9E1F63"/>
<path opacity="0.9" fill-rule="evenodd" clip-rule="evenodd" d="M129.764 71.2789C131.158 74.8298 131.802 78.5556 132.497 82.2711C132.039 82.6442 131.582 83.0272 131.124 83.4002C129.942 83.108 129.064 81.8138 127.482 83.0342C126.079 84.1135 124.078 83.9766 122.508 82.477C121.472 78.5337 121.155 74.4957 120.829 70.4678C124.077 68.6663 127.499 68.9838 129.764 71.2789Z" fill="#C2559F"/>
<path opacity="0.9" fill-rule="evenodd" clip-rule="evenodd" d="M216.203 142.121C215.095 145.428 213.997 148.725 212.692 152.614C208.711 147.94 205.661 143.33 202.647 138.14C206.461 137.215 210.16 137.07 213.879 137.016C215.618 138.254 215.412 140.426 216.203 142.121Z" fill="#6D4F9F"/>
<path opacity="0.9" fill-rule="evenodd" clip-rule="evenodd" d="M102.459 49.2884C100.983 48.3881 99.4969 47.4979 97.2981 46.1624C101.726 44.2831 105.12 41.8407 109.183 40.7439C111.505 41.0886 113.016 42.7387 114.477 44.4791C114.861 45.0466 115.135 45.6548 115.359 46.3033C116.36 50.9668 116.36 50.9268 112.204 50.0942C108.97 49.4455 105.657 50.5374 102.459 49.2884Z" fill="#E04D9A"/>
<path opacity="0.9" fill-rule="evenodd" clip-rule="evenodd" d="M129.764 71.2788C126.837 70.1481 123.846 70.0678 120.829 70.4577C120.206 66.9818 119.593 63.5058 118.97 60.0298C121.148 58.2854 123.714 59.1485 126.124 59.1826C127.365 59.1944 128.061 60.2299 127.881 61.6511C127.378 62.7444 128.607 62.5663 128.87 63.1046C127.769 65.9519 130.786 68.4421 129.764 71.2788Z" fill="#CA549E"/>
<path opacity="0.9" fill-rule="evenodd" clip-rule="evenodd" d="M215.022 79.7371C215.011 78.1071 215.211 76.5357 216.268 74.5887C221.052 79.7773 225.675 84.7969 230.671 90.2141C228.894 90.6658 227.69 91.5438 226.118 91.2542C223.449 91.3918 221.711 90.2032 220.294 87.6425C218.756 84.8926 215.167 83.5662 215.022 79.7371Z" fill="#9E1F63"/>
<path opacity="0.9" fill-rule="evenodd" clip-rule="evenodd" d="M163.592 125.377C163.15 122.15 162.709 118.923 162.1 114.457C166.461 117.658 170.166 119.914 173.315 122.833C175.951 125.276 172.418 126.339 171.649 128.024C168.456 129.025 165.867 127.762 163.592 125.377Z" fill="#ED3087"/>
<path opacity="0.9" fill-rule="evenodd" clip-rule="evenodd" d="M215.022 79.737C218.4 83.9148 221.38 88.5153 226.108 91.2542C223.366 92.4523 220.511 93.2611 217.523 93.5708C216.968 91.2644 214.971 90.2075 213.58 88.6267C213.17 85.4793 214.271 82.652 215.022 79.737Z" fill="#9E1F63"/>
<path opacity="0.9" fill-rule="evenodd" clip-rule="evenodd" d="M115.676 57.8615C113.235 56.2576 110.784 54.6537 108.344 53.0497C109.966 50.309 112.63 50.9414 115.08 51.0053C116.571 51.0454 118.227 51.9245 119.133 49.9085C119.272 49.7576 119.411 49.6167 119.55 49.4758C119.889 49.2535 120.258 49.1611 120.659 49.2084C122.816 50.2542 124.349 52.2542 126.397 53.4807C126.729 53.7186 127.01 54.0067 127.283 54.3249C127.535 54.6532 127.737 55.0219 127.92 55.4007C128.286 56.3883 128.543 57.3967 128.67 58.4458C128.683 58.8758 128.575 59.2665 128.347 59.618C127.999 59.8503 127.629 59.8627 127.258 59.6352C123.799 55.3879 119.719 56.8548 115.676 57.8615Z" fill="#D64F9C"/>
<path opacity="0.9" fill-rule="evenodd" clip-rule="evenodd" d="M154.652 81.3951C151.929 84.1131 149.605 86.4284 146.733 89.2874C145.706 85.1041 144.802 81.45 143.805 77.4065C147.601 78.3715 150.949 79.5194 154.652 81.3951Z" fill="#EE498A"/>
<path opacity="0.9" fill-rule="evenodd" clip-rule="evenodd" d="M159.209 58.2745C157.094 58.9785 155.01 59.8522 152.833 60.3466C151.275 60.7069 149.447 62.489 148.218 61.197C146.919 59.8456 147.604 57.561 148.312 55.7463C151.512 54.1052 154.543 51.2951 158.434 54.4995C159.382 55.6233 159.52 56.9124 159.209 58.2745Z" fill="#9E1F63"/>
<path opacity="0.9" fill-rule="evenodd" clip-rule="evenodd" d="M172.386 66.8278L172.594 66.5065L172.963 66.454C173.607 65.5498 174.585 65.1333 175.461 64.5775C177.44 68.8846 182.953 69.4182 184.614 74.0774C184.734 75.5566 185.743 76.97 185.033 78.5047C181.485 78.7481 179.672 75.36 176.863 74.0285C176.37 73.5817 175.927 73.0846 175.514 72.5573C175.09 72.0401 174.697 71.4927 174.263 70.9756C173.335 69.7516 171.879 68.7512 172.386 66.8278Z" fill="#225E31"/>
<path opacity="0.9" fill-rule="evenodd" clip-rule="evenodd" d="M184.614 74.0774C182.818 73.1392 181.785 71.206 179.829 70.3088C177.783 69.3723 175.703 67.906 176.023 64.9038C176.313 63.3019 177.892 63.2415 178.787 62.3755C181.816 62.2256 182.833 64.8489 184.286 66.8794C184.812 69.266 184.848 71.6658 184.614 74.0774Z" fill="#166635"/>
<path opacity="0.9" fill-rule="evenodd" clip-rule="evenodd" d="M119.693 49.9549C119.809 52.2741 118.796 53.4208 116.68 52.4248C113.67 51.0146 111.058 52.2518 108.344 53.0397C106.375 51.7827 104.417 50.5256 102.459 49.2784C106.668 49.1907 110.897 47.4328 115.054 50.0054C115.586 48.7719 114.009 47.7823 114.731 46.6175C117.061 46.5821 117.72 49.3878 119.693 49.9549Z" fill="#DB4E9B"/>
<path opacity="0.9" fill-rule="evenodd" clip-rule="evenodd" d="M172.386 66.8278C173.374 68.0814 174.352 69.3349 175.341 70.5784C173.829 74.8185 173.33 79.5919 169.811 82.7652C169.55 82.6769 169.429 82.4977 169.427 82.2077C168.211 81.3157 167.712 79.8889 166.924 78.6741C166.505 77.2668 166.704 75.6155 167.75 75.0586C170.63 73.5096 170.28 70.5318 170.923 67.9675C171.421 67.5942 171.898 67.2111 172.386 66.8278Z" fill="#EF5256"/>
<path opacity="0.9" fill-rule="evenodd" clip-rule="evenodd" d="M204.577 198.888C205.197 198.804 205.816 198.72 206.436 198.636C208.253 198.204 209.566 198.766 209.8 200.884C210.088 203.512 210.846 206.217 209.362 208.697C208.669 209.772 207.946 210.816 206.189 211.318C205.651 207.112 205.114 202.995 204.577 198.888Z" fill="#107D9C"/>
<path opacity="0.9" fill-rule="evenodd" clip-rule="evenodd" d="M209.372 208.687C209.236 206.258 208.94 203.81 209.004 201.389C209.06 199.319 207.609 199.208 206.445 198.626C207.022 198.062 207.598 197.498 208.164 196.925C209.589 197.575 211.129 197.635 212.602 198.066C215.331 199.378 215.455 201.577 214.622 204.102C213.205 206.062 211.414 207.534 209.372 208.687Z" fill="#0A82A3"/>
<path opacity="0.9" fill-rule="evenodd" clip-rule="evenodd" d="M208.034 162.005C206.331 163.116 204.629 164.227 202.856 165.389C201.955 163.745 201.985 162.195 202.215 160.613C202.136 159.224 202.657 157.87 202.277 156.463C202.255 156.043 202.322 155.652 202.5 155.281C203.601 153.964 203.987 151.861 206.116 151.697C207.684 152.857 208.154 154.374 207.877 156.326C207.609 158.188 207.572 160.108 208.034 162.005Z" fill="#A968AA"/>
<path opacity="0.9" fill-rule="evenodd" clip-rule="evenodd" d="M122.508 82.4669C124.537 82.3236 126.612 83.0999 128.552 81.5671C130.333 80.1653 130.2 82.8362 131.124 83.3901C128.799 85.6255 126.463 87.861 123.701 90.5293C122.771 87.5353 122.375 85.0479 122.508 82.4669Z" fill="#BC5CA2"/>
<path opacity="0.9" fill-rule="evenodd" clip-rule="evenodd" d="M115.675 57.8615C117.489 56.8095 119.302 55.7675 121.115 54.7155C122.749 53.7647 123.381 55.5706 124.315 56.2345C125.601 57.146 126.59 58.5095 127.718 59.6821C128.479 59.9371 128.733 60.4954 128.628 61.2861C128.42 61.4975 128.181 61.6191 127.881 61.6511C125.251 58.6084 121.886 61.0006 118.97 60.0398C117.875 59.307 116.78 58.5842 115.675 57.8615Z" fill="#D2509C"/>
<path opacity="0.9" fill-rule="evenodd" clip-rule="evenodd" d="M127.137 55.0359C126.795 54.6981 126.453 54.3603 126.1 54.0227C124.516 51.7731 124.298 49.0444 123.531 46.5094C123.428 46.1001 123.375 45.6904 123.343 45.2707C123.338 44.6207 123.474 44.0197 123.791 43.4676C124.208 42.9749 124.696 42.6817 125.367 42.8972C126.498 46.0799 130.595 47.1629 130.731 51.0521C130.617 53.4729 129.466 54.8405 127.137 55.0359Z" fill="#A8C93E"/>
<path opacity="0.9" fill-rule="evenodd" clip-rule="evenodd" d="M197.66 161.433C196.839 158.229 198.505 151.487 200.826 148.632C201.627 148.827 202.428 149.032 203.22 149.226C203.956 151.682 202.59 153.811 202.485 156.141C202.449 156.672 202.18 156.853 201.699 156.697C199.494 157.451 199.573 160.391 197.66 161.433Z" fill="#B96EAC"/>
<path opacity="0.9" fill-rule="evenodd" clip-rule="evenodd" d="M204.206 124.319C199.705 121.149 199.695 121.139 202.94 117.447C204.221 115.989 205.561 114.59 207.12 112.89C207.797 115.425 207.441 117.508 207.235 119.599C206.657 121.493 206.351 123.575 204.206 124.319Z" fill="#86C345"/>
<path opacity="0.9" fill-rule="evenodd" clip-rule="evenodd" d="M219.514 192.26C219.723 192.088 219.911 191.907 220.1 191.706C221.174 190.709 222.247 189.742 223.746 189.502C224.574 189.216 225.028 189.783 225.471 190.371C226.913 192.101 225.132 193.453 225.112 195.003C223.493 196.684 222.025 198.553 219.872 199.558C217.286 197.185 218.03 194.73 219.514 192.26Z" fill="#1596B6"/>
<path opacity="0.9" fill-rule="evenodd" clip-rule="evenodd" d="M124.152 43.7053C124.065 44.1659 123.969 44.6265 123.882 45.0871C121.129 44.7152 118.301 45.0239 115.623 43.8415C114.791 43.477 114.785 44.167 114.679 44.7177C114.461 45.0692 114.172 45.1911 113.791 45.0436C112.252 43.6137 110.702 42.1839 109.163 40.754C110.327 39.8163 111.47 38.8388 113.091 38.9181C116.343 40.7467 120.431 39.0197 123.441 41.9199C123.934 42.4067 124.168 43.0052 124.152 43.7053Z" fill="#7C55A2"/>
<path opacity="0.9" fill-rule="evenodd" clip-rule="evenodd" d="M176.331 72.1019C176.794 72.5489 177.257 72.9858 177.72 73.4328C178.025 74.2508 179.069 74.8339 178.496 75.9277C176.224 78.6728 175.257 82.1292 173.979 85.4277C173.467 86.7511 172.947 88.2746 171.761 85.7823C171.161 81.2362 173.686 77.4595 174.288 73.2054C174.383 72.4248 175.309 71.8187 176.331 72.1019Z" fill="#F37B65"/>
<path opacity="0.9" fill-rule="evenodd" clip-rule="evenodd" d="M133.682 52.7027C136.039 53.7971 136.329 56.8053 138.747 58.0794C137.005 59.2809 135.519 59.8707 133.839 59.9218C132.308 59.6419 131.012 58.8104 129.746 57.8987C129.254 57.5519 128.811 57.1648 128.488 56.627C128.303 55.9882 128.47 55.4471 128.857 54.9745C130.218 53.6755 132.351 54.0915 133.682 52.7027Z" fill="#F498AB"/>
<path opacity="0.9" fill-rule="evenodd" clip-rule="evenodd" d="M219.514 192.26C219.64 194.699 218.606 197.156 219.872 199.568C218.721 200.895 217.66 202.342 216.015 203.063C215.695 199.965 214.325 196.964 214.954 193.77C215.84 193.284 216.534 192.36 217.695 192.502C218.305 192.418 218.904 192.344 219.514 192.26Z" fill="#068CAE"/>
<path opacity="0.9" fill-rule="evenodd" clip-rule="evenodd" d="M214.819 194.511C216.736 197.178 216.915 200.047 216.005 203.063C215.537 203.406 215.07 203.759 214.602 204.113C213.998 202.056 214.382 199.554 212.053 198.289C211.162 198.055 210.28 197.811 210.172 196.602C211.279 196.134 211.054 193.766 212.988 194.473C213.611 194.919 214.205 193.935 214.819 194.511Z" fill="#0585A7"/>
<path opacity="0.9" fill-rule="evenodd" clip-rule="evenodd" d="M208.903 183.14C206.799 185.454 206.322 189.007 203.654 190.884C202.887 188.269 202.57 185.601 202.542 182.892C203.7 181.184 205.228 182.274 206.639 182.415C207.39 182.66 208.142 182.905 208.903 183.14Z" fill="#52459B"/>
<path opacity="0.9" fill-rule="evenodd" clip-rule="evenodd" d="M206.956 151.742C210.066 153.161 213.185 154.581 216.806 156.237C214.685 157.631 213.182 158.611 211.678 159.591C208.03 158.315 208.036 154.685 206.956 151.742Z" fill="#6F4F9F"/>
<path opacity="0.9" fill-rule="evenodd" clip-rule="evenodd" d="M148.444 51.4653C150.871 52.5593 153.044 51.395 155.28 50.8602C155.83 52.2666 156.355 51.5332 156.88 50.8797C157.567 50.3951 158.246 50.1407 158.911 50.9863C159.461 52.5327 159.641 53.9916 158.228 55.1109C155.63 53.808 153.145 53.0743 151.003 55.8885C150.25 56.8835 149.206 56.3204 148.302 55.7563C148.363 54.3259 148.404 52.8956 148.444 51.4653Z" fill="#9E1F63"/>
<path opacity="0.9" fill-rule="evenodd" clip-rule="evenodd" d="M176.331 72.1019C173.47 75.0208 174.66 79.5831 172.662 82.8763C172.157 83.6997 172.044 84.8005 171.761 85.7724C171.114 84.7766 170.468 83.7808 169.821 82.7751C171.664 78.7128 172.384 74.058 175.351 70.5884C175.674 71.0862 175.997 71.5941 176.331 72.1019Z" fill="#F0635A"/>
<path opacity="0.9" fill-rule="evenodd" clip-rule="evenodd" d="M206.956 151.742C208.534 154.361 210.101 156.971 211.678 159.591C210.463 160.389 209.249 161.197 208.034 161.995C207.4 161.429 205.607 162.491 206.211 160.067C206.864 157.412 207.915 154.486 205.856 151.759C205.883 151.299 206.102 151.147 206.514 151.305C206.734 151.363 206.885 151.502 206.956 151.742Z" fill="#9E60A6"/>
<path opacity="0.9" fill-rule="evenodd" clip-rule="evenodd" d="M178.339 108.259C175.89 108.376 173.45 108.482 170.751 108.61C171.622 105.724 172.968 103.585 174.384 101.485C177.004 102.938 178.409 105.139 178.339 108.259Z" fill="#ED488B"/>
<path opacity="0.9" fill-rule="evenodd" clip-rule="evenodd" d="M149.757 129.288C151.322 127.038 153.611 125.243 153.77 122.102C155.756 122.959 157.246 124.499 159.087 126.257C155.815 127.408 152.964 128.867 149.757 129.288Z" fill="#92C445"/>
<path opacity="0.9" fill-rule="evenodd" clip-rule="evenodd" d="M170.933 67.9774C172.865 72.7548 168.338 74.6946 167.15 78.0925C165.483 76.9735 164.572 75.3595 164.229 73.3617C165.972 72.2702 168.057 73.0765 170.152 72.3026C166.936 69.9538 168.619 68.8727 170.933 67.9774Z" fill="#EF545E"/>
<path opacity="0.9" fill-rule="evenodd" clip-rule="evenodd" d="M233.375 161.988C231.756 160.718 231.911 158.497 230.83 156.814C229.7 158.242 231.352 160.141 229.583 161.773C228.173 158.682 228.454 155.87 229.232 152.505C230.759 153.565 230.82 156.785 233.281 155.398C233.406 157.608 233.9 159.804 233.375 161.988Z" fill="#9E1F63"/>
<path opacity="0.9" fill-rule="evenodd" clip-rule="evenodd" d="M191.435 103.103C190.593 101.229 190.31 99.2503 190.167 97.2112C191.475 96.9926 192.41 97.7465 193.403 98.2399C195.302 99.5174 196.843 101.207 198.285 103.008C197.864 104.321 196.767 104.868 195.721 105.465C194.493 104.243 193.097 103.392 191.435 103.103Z" fill="#A6D06A"/>
<path opacity="0.9" fill-rule="evenodd" clip-rule="evenodd" d="M213.581 88.6367C215.488 89.7641 218.947 89.5413 217.523 93.5808C211.77 94.6488 211.77 94.6488 213.581 88.6367Z" fill="#9E1F63"/>
<path opacity="0.9" fill-rule="evenodd" clip-rule="evenodd" d="M122.655 39.5951C122.881 40.4636 123.926 41.1667 123.203 42.2215C119.991 40.5427 116.087 41.4184 113.101 38.9081C114.107 38.3714 115.114 37.8348 116.11 37.3082C118.442 37.5728 120.94 37.2364 122.655 39.5951Z" fill="#8155A2"/>
<path opacity="0.9" fill-rule="evenodd" clip-rule="evenodd" d="M158.228 55.1209C158.42 53.7896 158.621 52.4683 158.812 51.137C159.079 50.6652 159.439 50.5828 159.9 50.8698C161.332 52.5904 163.659 53.6151 163.797 56.3342C162.261 56.9843 160.735 57.6244 159.199 58.2746C158.882 57.2266 158.555 56.1687 158.228 55.1209Z" fill="#9E1F63"/>
<path opacity="0.9" fill-rule="evenodd" clip-rule="evenodd" d="M198.285 103.008C194.759 103.571 195.064 99.789 193.403 98.24C194.896 98.6201 196.398 98.9802 197.881 99.4005C201.057 100.31 200.786 101.571 198.285 103.008Z" fill="#6ABD51"/>
<path opacity="0.9" fill-rule="evenodd" clip-rule="evenodd" d="M179.537 62.4706C178.363 63.2784 177.198 64.0861 176.023 64.8938C175.007 65.4205 173.98 65.9373 172.963 66.454C176.022 63.2538 179.92 61.328 183.542 58.6441C184.521 60.0477 184.291 61.4292 184.11 62.8005C182.52 64.431 181.075 62.1705 179.537 62.4706Z" fill="#0E753C"/>
<path opacity="0.9" fill-rule="evenodd" clip-rule="evenodd" d="M206.504 151.325C206.285 151.466 206.066 151.618 205.847 151.779C204.857 153.346 204.259 155.25 202.485 156.131C200.708 153.523 202.775 151.489 203.22 149.216C205.125 148.474 205.221 150.953 206.504 151.325Z" fill="#B26DAC"/>
<path opacity="0.9" fill-rule="evenodd" clip-rule="evenodd" d="M232.936 151.551C230.463 149.697 228.441 150.86 226.391 152.334C224.898 153.404 223.304 154.294 221.75 155.274C224.738 151.925 228.806 150.168 232.228 147.355C233.557 148.746 233.167 150.159 232.936 151.551Z" fill="#2F66B0"/>
<path opacity="0.9" fill-rule="evenodd" clip-rule="evenodd" d="M133.682 52.7026C133.898 56.6813 130.31 53.9349 129.14 55.4526C128.529 55.3067 127.974 56.0703 127.34 55.5245C127.229 55.3752 127.158 55.2157 127.147 55.0258C128.348 53.6978 129.55 52.3799 130.741 51.052C132.366 50.2613 132.827 51.8883 133.682 52.7026Z" fill="#EF512F"/>
<path opacity="0.9" fill-rule="evenodd" clip-rule="evenodd" d="M174.93 100.862C175.28 99.3494 175.708 97.5366 177.245 100.027C178.438 101.969 180.109 103.728 180.276 106.227C179.389 105.252 178.132 107.211 177.312 105.696C176.571 104.061 175.023 102.831 174.93 100.862Z" fill="#FBE692"/>
<path opacity="0.9" fill-rule="evenodd" clip-rule="evenodd" d="M122.655 39.5951C120.412 39.0399 118.031 38.9756 116.12 37.2981C117.691 35.8777 119.769 35.624 121.583 34.762C122.433 36.2665 122.614 37.9153 122.655 39.5951Z" fill="#8A5BA4"/>
<path opacity="0.9" fill-rule="evenodd" clip-rule="evenodd" d="M204.206 124.319C205.336 122.832 205.029 120.304 207.245 119.599C208.581 122.1 207.428 124.648 207.936 127.415C206.121 126.667 204.945 125.774 204.206 124.319Z" fill="#7858A2"/>
<path opacity="0.9" fill-rule="evenodd" clip-rule="evenodd" d="M163.797 56.3442C162.136 54.6751 160.415 53.0565 159.559 50.722C159.567 50.322 159.746 50.2208 160.087 50.3786C162.673 51.3315 164.646 53.2286 166.718 55.0849C166.077 56.4492 164.795 56.0576 163.797 56.3442Z" fill="#9E1F63"/>
<path opacity="0.9" fill-rule="evenodd" clip-rule="evenodd" d="M191.435 103.103C193.66 102.218 195.637 101.855 195.721 105.465C194.877 106.38 194.043 107.306 192.991 108.443C191.57 106.752 192.914 104.453 191.435 103.103Z" fill="#99CA45"/>
<path opacity="0.9" fill-rule="evenodd" clip-rule="evenodd" d="M216.203 142.121C214.415 140.902 214.182 138.944 213.879 137.016C215.228 136.847 216.577 136.668 218.276 136.457C217.841 138.68 217.303 140.503 216.203 142.121Z" fill="#386DB4"/>
<path opacity="0.9" fill-rule="evenodd" clip-rule="evenodd" d="M220.605 155.972C220.821 156.95 221.037 157.919 221.254 158.898C222.229 159.721 222.216 160.771 221.974 161.883C220.217 160.955 218.461 160.026 216.585 159.038C217.864 157.43 219.148 156.571 220.605 155.972Z" fill="#664A9D"/>
<path opacity="0.9" fill-rule="evenodd" clip-rule="evenodd" d="M130.041 57.0667C131.307 58.0184 132.573 58.9701 133.839 59.9117C132.174 60.6527 130.489 61.2939 128.618 61.2762C128.315 60.7382 128.011 60.2102 127.708 59.6722C127.917 59.5108 128.126 59.3494 128.325 59.1881C128.89 58.4743 128.872 57.2444 130.041 57.0667Z" fill="#EE5089"/>
<path opacity="0.9" fill-rule="evenodd" clip-rule="evenodd" d="M179.537 62.4706C181.118 61.0302 182.57 62.9206 184.11 62.8105C184.529 64.1577 184.607 65.5072 184.296 66.8693C181.873 66.4053 181.097 63.9604 179.537 62.4706Z" fill="#1A703B"/>
<path opacity="0.9" fill-rule="evenodd" clip-rule="evenodd" d="M178.486 75.9178C178.23 75.0895 177.975 74.2512 177.709 73.4229C180.141 75.1369 182.117 77.5939 185.033 78.5047C185.118 79.2542 185.135 80.2841 184.131 79.7607C182.125 78.7239 179.811 78.1292 178.486 75.9178Z" fill="#9FC03C"/>
<path opacity="0.9" fill-rule="evenodd" clip-rule="evenodd" d="M225.112 195.013C223.34 193.245 225.562 191.95 225.472 190.381C226.582 190.493 228.234 190.682 228.31 191.682C228.474 193.711 226.436 194.134 225.112 195.013Z" fill="#13A4C0"/>
<path opacity="0.9" fill-rule="evenodd" clip-rule="evenodd" d="M164.219 73.3618C165.189 74.9354 166.17 76.519 167.14 78.0926C167.899 79.4676 168.668 80.8426 169.427 82.2176C166.911 79.7642 165.081 76.7962 163.62 73.5758C163.6 73.5359 163.719 73.3751 163.799 73.3546C163.938 73.3136 164.079 73.3527 164.219 73.3618Z" fill="#EF5164"/>
<path opacity="0.9" fill-rule="evenodd" clip-rule="evenodd" d="M178.286 106.28C178.463 105.759 178.649 105.237 178.826 104.716C179.309 105.223 179.792 105.73 180.276 106.227C180.52 106.855 181.116 107.711 180.928 108.072C180.602 108.685 179.77 108.42 179.148 108.064C178.435 107.689 178.072 107.131 178.286 106.28Z" fill="#DDE57C"/>
<path opacity="0.9" fill-rule="evenodd" clip-rule="evenodd" d="M206.629 182.415C205.27 182.574 203.901 182.733 202.532 182.892C202.773 180.12 202.833 180.11 206.629 182.415Z" fill="#9066AA"/>
<path opacity="0.9" fill-rule="evenodd" clip-rule="evenodd" d="M178.286 106.28C178.57 106.878 178.854 107.466 179.148 108.064C178.909 108.246 178.639 108.308 178.339 108.259C177.024 105.998 175.709 103.747 174.394 101.485C174.513 101.215 174.691 101.013 174.94 100.862C176.052 102.664 177.174 104.477 178.286 106.28Z" fill="#EE4852"/>
<path opacity="0.9" fill-rule="evenodd" clip-rule="evenodd" d="M160.097 50.3785C159.918 50.4897 159.749 50.6108 159.569 50.7219C159.32 50.8636 159.071 50.9952 158.822 51.1369C158.11 50.7616 157.43 50.756 156.783 51.2303C156.502 51.1722 156.362 51.0531 156.37 50.873C156.379 50.703 156.419 50.6027 156.498 50.5522C157.245 50.0273 158.112 49.6015 158.034 48.422C159.195 48.5144 159.631 49.4615 160.097 50.3785Z" fill="#9E1F63"/>
<path opacity="0.9" fill-rule="evenodd" clip-rule="evenodd" d="M233.518 164.057C232.933 163.281 231.219 164.202 231.319 162.721C231.392 161.651 232.666 162.192 233.405 162.048C233.709 162.706 233.924 163.374 233.518 164.057Z" fill="#9E1F63"/>
<path opacity="0.9" fill-rule="evenodd" clip-rule="evenodd" d="M221.964 161.873C221.717 160.875 221.48 159.886 221.244 158.888C223.367 159.374 223.126 160.795 222.557 162.339C222.286 162.291 222.085 162.142 221.964 161.873Z" fill="#3C479C"/>
<path opacity="0.9" fill-rule="evenodd" clip-rule="evenodd" d="M201.699 156.687C201.958 156.505 202.226 156.323 202.485 156.131C203.376 157.725 202.945 159.188 202.215 160.613C202.036 159.304 201.867 157.995 201.699 156.687Z" fill="#B26DAC"/>
<path opacity="0.9" fill-rule="evenodd" clip-rule="evenodd" d="M223.756 189.502C222.541 190.24 221.325 190.968 220.11 191.706C220.41 190.194 221.798 189.935 222.743 189.159C223.074 189.266 223.415 189.384 223.756 189.502Z" fill="#2F3884"/>
<path opacity="0.9" fill-rule="evenodd" clip-rule="evenodd" d="M141.201 113.154C141.456 113.913 141.273 115.104 140.772 114.947C139.63 114.595 139.302 113.347 139.414 112.096C140.006 112.442 140.312 113.38 141.201 113.154Z" fill="#A8D6A7"/>
<path opacity="0.9" fill-rule="evenodd" clip-rule="evenodd" d="M210.182 196.601C210.806 197.167 211.44 197.723 212.063 198.289C210.33 199.351 209.145 198.478 208.154 196.935C208.834 196.82 209.513 196.706 210.182 196.601Z" fill="#01779F"/>
<path opacity="0.9" fill-rule="evenodd" clip-rule="evenodd" d="M214.819 194.511C214.21 194.675 213.602 194.999 212.998 194.473C214.533 193.733 215.621 191.906 217.695 192.502C216.74 193.178 215.784 193.844 214.819 194.511Z" fill="#243E82"/>
<path opacity="0.9" fill-rule="evenodd" clip-rule="evenodd" d="M226.757 156.271C226.197 156.265 225.777 156.388 225.456 156.23C224.975 156.003 225.082 155.502 225.44 155.29C225.739 155.108 226.199 155.055 226.529 155.153C226.67 155.202 226.664 155.792 226.757 156.271Z" fill="#2F66B0"/>
<path opacity="0.9" fill-rule="evenodd" clip-rule="evenodd" d="M113.801 45.0335C114.05 44.9219 114.289 44.8203 114.539 44.7186C116.995 45.6025 119.421 46.5165 119.713 49.8347L119.693 49.9548C119.031 49.5092 118.503 52.8527 117.774 49.9874C117.332 48.2603 115.093 48.3951 114.731 46.6274C114.418 46.0995 114.114 45.5715 113.801 45.0335Z" fill="#D64F9C"/>
<path opacity="0.9" fill-rule="evenodd" clip-rule="evenodd" d="M124.137 45.8454C125.054 48.5094 126.131 51.1324 126.11 54.0226C123.666 53.3687 122.094 51.469 120.471 49.6196C119.153 48.4183 118.343 46.8136 119.684 45.5047C120.916 44.3166 122.715 44.0947 124.137 45.8454Z" fill="#7251A1"/>
<path opacity="0.9" fill-rule="evenodd" clip-rule="evenodd" d="M124.137 45.8454C121.444 45.5331 118.47 44.9027 120.471 49.6196C120.212 49.6714 119.962 49.743 119.713 49.8247C117.991 48.116 116.26 46.4174 114.539 44.7087C114.083 43.8117 113.617 42.9147 113.161 42.0177C116.381 44.9665 120.852 42.077 123.881 45.0671C124.023 45.3261 124.105 45.5756 124.137 45.8454Z" fill="#7553A1"/>
<path opacity="0.9" fill-rule="evenodd" clip-rule="evenodd" d="M130.041 57.0668C129.264 57.5819 130.077 59.5366 128.335 59.1981C128.213 58.9488 128.091 58.6996 127.96 58.4505C128.105 57.7395 127.788 56.7416 128.948 56.6839C129.319 56.8115 129.68 56.9391 130.041 57.0668Z" fill="#EE487C"/>
<path opacity="0.9" fill-rule="evenodd" clip-rule="evenodd" d="M128.948 56.6839C128.622 57.2761 128.286 57.8683 127.96 58.4505C127.753 57.4818 127.537 56.5032 127.33 55.5246C127.93 55.5006 128.53 55.4767 129.13 55.4527C129.073 55.8631 129.015 56.2735 128.948 56.6839Z" fill="#EE4A88"/>
<path opacity="0.9" fill-rule="evenodd" clip-rule="evenodd" d="M156.498 50.5422C156.54 50.7919 156.641 51.0212 156.783 51.2203C156.967 51.8491 157.652 52.6846 156.423 52.8427C155.744 52.9272 155.023 52.732 154.322 52.6666C154.648 52.0644 154.964 51.4523 155.29 50.8502C155.69 50.7575 156.089 50.6549 156.498 50.5422Z" fill="#9E1F63"/>
</g>
</g>
<g opacity="0.3">
<g opacity="0.3">
<path opacity="0.3" fill-rule="evenodd" clip-rule="evenodd" d="M76.5323 19.5787C76.6825 19.6077 76.8329 19.6567 76.9732 19.7058C77.3431 21.2134 76.9825 22.6258 76.2714 23.9905C75.4553 24.5859 74.3602 25.3232 74.7182 23.5008C74.9892 22.1389 75.9109 20.8828 76.5323 19.5787Z" fill="#1AAAD2"/>
<path opacity="0.3" fill-rule="evenodd" clip-rule="evenodd" d="M76.2714 23.9905C76.1416 22.5114 76.4022 21.0896 76.9731 19.7058C78.1823 21.0979 77.2722 22.5939 77.1417 24.0448C76.8516 24.0267 76.5615 24.0086 76.2714 23.9905Z" fill="#2D328A"/>
</g>
<g opacity="0.3">
<path opacity="0.3" fill-rule="evenodd" clip-rule="evenodd" d="M38.0408 203.026C38.1089 202.736 38.2769 202.425 38.2151 202.155C36.88 195.324 36.8801 195.334 44.7302 196.832C42.6557 199.196 40.7202 201.399 38.7847 203.612C38.5434 203.413 38.2922 203.225 38.0408 203.026Z" fill="#AED039"/>
<path opacity="0.3" fill-rule="evenodd" clip-rule="evenodd" d="M16.1045 0.396606C12.2694 2.67194 8.30907 4.14807 4.30812 5.53448Z" fill="#6D4F9F"/>
<path opacity="0.3" fill-rule="evenodd" clip-rule="evenodd" d="M21.0997 61.845C21.6202 63.4316 21.9108 65.0397 21.3757 67.3133C14.5635 63.9681 7.98213 60.7414 0.878946 57.2482C2.66192 56.1764 3.69339 54.8796 5.4815 54.5878C8.32439 53.499 10.5779 54.0242 12.9211 56.0187C15.4353 58.1622 19.7354 58.1639 21.0997 61.845Z" fill="#9E1F63"/>
<path opacity="0.3" fill-rule="evenodd" clip-rule="evenodd" d="M44.0533 78.9941C44.2154 79.313 44.3775 79.6319 44.5397 79.9609C44.0824 83.414 41.109 84.4236 38.347 85.6418C35.0953 85.3933 31.8336 85.1448 27.8715 84.8409C30.611 81.7227 32.7351 79.2987 34.8591 76.8746C36.8702 75.5113 38.4104 77.0512 40.1138 77.57C41.2268 78.0127 42.3495 78.4253 43.5018 78.7677C43.6923 78.8365 43.8728 78.9152 44.0533 78.9941Z" fill="#63C2A5"/>
<path opacity="0.3" fill-rule="evenodd" clip-rule="evenodd" d="M21.0997 61.845C16.1308 58.9877 11.4581 55.5585 5.48156 54.5878C8.0674 52.4308 10.9055 50.612 14.0365 49.2413C15.36 51.2926 17.8522 51.6062 19.8591 52.643C21.2884 55.5737 20.9892 58.7357 21.0997 61.845Z" fill="#9E1F63"/>
<path opacity="0.3" fill-rule="evenodd" clip-rule="evenodd" d="M75.2931 125.899C72.107 129.53 69.5164 132.477 66.4593 135.968C64.9228 131.948 63.5391 128.357 61.85 123.948C66.6847 124.656 70.6987 125.239 75.2931 125.899Z" fill="#6FBD46"/>
<path opacity="0.3" fill-rule="evenodd" clip-rule="evenodd" d="M83.8831 134.953C85.9491 137.379 87.262 139.32 88.9721 140.859C92.9457 144.413 90.2692 144.951 86.851 145.243C84.1624 145.471 81.5288 146.438 78.4849 145.868C80.2416 142.317 81.9093 138.936 83.8831 134.953Z" fill="#5EBA57"/>
<path opacity="0.3" fill-rule="evenodd" clip-rule="evenodd" d="M85.8772 38.4975C87.9733 34.8636 89.7629 31.7717 91.9678 27.9471C94.4022 31.6511 96.5337 34.9071 98.8774 38.4917C94.4602 38.9209 90.4806 38.9971 85.8772 38.4975Z" fill="#EE498A"/>
<path opacity="0.3" fill-rule="evenodd" clip-rule="evenodd" d="M47.5683 117.662C45.1093 119.338 42.3054 120.276 39.4303 121.035C36.4009 118.095 31.6836 118.516 28.3283 116.219C28.0004 115.021 27.7826 113.832 28.8659 112.815C29.0918 112.193 29.598 111.61 30.2288 111.736C36.3166 112.896 42.9459 112.762 47.5683 117.662Z" fill="#C0D730"/>
<path opacity="0.3" fill-rule="evenodd" clip-rule="evenodd" d="M88.2369 62.7024C90.3073 61.2487 92.2869 59.6557 94.4785 58.3812C96.0526 57.4708 97.4669 55.0814 99.2022 55.89C101.028 56.748 101.014 59.2181 100.818 61.2395C97.8756 63.9889 95.4708 67.8248 90.2593 66.0992C88.8843 65.3482 88.3264 64.1519 88.2369 62.7024Z" fill="#9E1F63"/>
<path opacity="0.3" fill-rule="evenodd" clip-rule="evenodd" d="M10.4661 91.6657C9.88605 81.0493 9.88605 81.0493 21.027 79.6359C17.4636 83.6894 14.1385 87.4714 10.4661 91.6657Z" fill="#7FCFD9"/>
<path opacity="0.3" fill-rule="evenodd" clip-rule="evenodd" d="M115.156 98.9258C111.586 98.9593 108.007 99.0529 104.436 98.9764C103.656 98.9616 103.731 98.1711 104.047 97.539C104.53 96.5657 104.763 95.4142 105.458 94.6096C106.827 93.0405 106.562 89.1922 109.187 89.9649C111.912 90.777 113.742 93.755 115.08 96.4762C115.283 96.8949 115.555 97.2231 115.037 97.5965C115.06 98.0564 115.113 98.496 115.156 98.9258Z" fill="#55B84A"/>
<path opacity="0.3" fill-rule="evenodd" clip-rule="evenodd" d="M71.2828 59.1041L71.1553 59.495L70.7665 59.6776C70.3539 60.7903 69.4389 61.5564 68.6545 62.4115C65.1515 58.9246 59.021 60.385 55.7649 56.4364C55.1756 55.0402 53.6289 54.0204 53.9173 52.2685C57.6774 50.7537 60.705 53.4138 64.157 53.701C64.8387 53.9565 65.4709 54.2824 66.0733 54.6484C66.6956 55.0043 67.2883 55.4004 67.9305 55.7362C69.3362 56.5969 71.2291 57.0344 71.2828 59.1041Z" fill="#225E31"/>
<path opacity="0.3" fill-rule="evenodd" clip-rule="evenodd" d="M55.7748 56.4263C58.0166 56.7016 59.7466 58.2102 62.1478 58.3844C64.6591 58.5678 67.3636 59.25 67.9637 62.2961C68.1647 63.9648 66.4688 64.596 65.7665 65.7607C62.5346 66.992 60.6001 64.8047 58.4004 63.3392C57.0762 61.1978 56.2808 58.863 55.7748 56.4263Z" fill="#166635"/>
<path opacity="0.3" fill-rule="evenodd" clip-rule="evenodd" d="M102.025 65.4716C102.227 67.2703 102.539 69.0683 102.591 70.868C102.63 72.2977 104.093 74.2681 102.378 75.0194C101.032 75.6083 99.0065 74.7517 97.7082 73.5002C96.0635 72.791 94.7333 71.2398 92.5975 71.8939L92.6176 71.9037C90.8704 70.8152 92.2245 69.9163 92.8683 68.972C93.4149 68.4584 94.0623 68.0641 94.6292 67.5904C96.8187 65.9959 98.7935 63.6728 102.025 65.4716Z" fill="#9E1F63"/>
<path opacity="0.3" fill-rule="evenodd" clip-rule="evenodd" d="M47.5682 117.662C41.817 114.47 35.361 113.572 28.8659 112.825C28.5682 111.647 28.9209 110.545 29.3937 109.451C31.6677 107.016 33.9256 108.201 36.1734 109.387C37.7891 110.236 38.6913 112.09 40.7924 112.246C43.5606 113.488 46.1107 115.011 48.1154 117.238C48.1558 117.288 48.0972 117.498 48.0274 117.539C47.898 117.62 47.718 117.621 47.5682 117.662Z" fill="#CBDB2F"/>
<path opacity="0.3" fill-rule="evenodd" clip-rule="evenodd" d="M71.2827 59.1041C69.827 58.2337 68.3613 57.3733 66.9055 56.5029C67.1946 51.8209 66.2427 46.9871 69.054 42.6184C69.3639 42.6064 69.5548 42.7451 69.6367 43.0246C71.2296 43.4541 72.2276 44.6776 73.4536 45.5795C74.3517 46.8036 74.6528 48.4817 73.6989 49.408C71.0656 51.9554 72.374 54.7368 72.492 57.4661C72.0955 58.0087 71.6891 58.5514 71.2827 59.1041Z" fill="#EF5256"/>
<path opacity="0.3" fill-rule="evenodd" clip-rule="evenodd" d="M2.20841 123.901C5.94855 125.426 9.67868 126.952 13.6395 128.576C11.8926 130.567 10.364 132.307 8.59722 134.319C6.14505 130.965 3.84422 127.81 1.54337 124.655C1.76172 124.404 1.99006 124.152 2.20841 123.901Z" fill="#9E1F63"/>
<path opacity="0.3" fill-rule="evenodd" clip-rule="evenodd" d="M135.447 47.4409C133.818 49.1216 132.179 50.7925 130.55 52.4733C129.08 53.983 127.83 52.4512 126.618 52.1392C124.945 51.7102 123.439 50.7401 121.854 50.0005C120.954 50.0165 120.491 49.5695 120.366 48.7603C120.524 48.4793 120.752 48.2678 121.052 48.1358C124.855 50.1608 127.742 46.6117 131.201 46.5088C132.623 46.8195 134.035 47.1302 135.447 47.4409Z" fill="#D2509C"/>
<path opacity="0.3" fill-rule="evenodd" clip-rule="evenodd" d="M123.942 54.3269C124.424 54.5337 124.895 54.7406 125.376 54.9374C127.797 56.5615 128.894 59.1443 130.519 61.3437C130.761 61.7021 130.954 62.0908 131.106 62.4898C131.32 63.1184 131.355 63.7582 131.189 64.4093C130.893 65.0413 130.456 65.5042 129.666 65.5294C127.439 62.834 122.671 63.2454 121.296 59.4944C120.671 57.1085 121.489 55.3531 123.942 54.3269Z" fill="#A8C93E"/>
<path opacity="0.3" fill-rule="evenodd" clip-rule="evenodd" d="M18.7671 14.4394C24.637 15.9107 24.647 15.9206 22.2985 20.6962C21.3709 22.5824 20.363 24.4291 19.2076 26.6467C17.6729 24.4168 17.4086 22.2485 16.9647 20.1414C17.0112 18.091 16.677 15.9432 18.7671 14.4394Z" fill="#86C345"/>
<path opacity="0.3" fill-rule="evenodd" clip-rule="evenodd" d="M130.738 64.3123C130.695 63.8325 130.642 63.3529 130.599 62.8731C133.695 62.2427 136.656 60.9232 139.918 61.1217C140.928 61.185 140.723 60.5063 140.67 59.9267C140.787 59.5059 141.065 59.2841 141.526 59.291C143.641 60.1371 145.767 60.9731 147.882 61.8192C146.921 63.1455 145.98 64.5218 144.213 65.0234C140.119 64.4104 136.24 67.5661 132.068 65.8135C131.386 65.498 130.943 64.9909 130.738 64.3123Z" fill="#7C55A2"/>
<path opacity="0.3" fill-rule="evenodd" clip-rule="evenodd" d="M65.3581 55.3831C64.7163 55.1174 64.0846 54.8515 63.4428 54.5857C62.8583 53.8996 61.537 53.7083 61.8286 52.4363C63.4156 48.9458 63.381 45.2159 63.7168 41.5437C63.8471 40.0628 63.9361 38.3921 66.0093 40.3985C68.0872 44.6249 66.5474 49.2052 67.2363 53.5807C67.3614 54.3599 66.5475 55.2853 65.3581 55.3831Z" fill="#F37B65"/>
<path opacity="0.3" fill-rule="evenodd" clip-rule="evenodd" d="M28.3284 116.219C31.714 115.546 39.005 118.708 39.4304 121.035C38.9039 121.569 38.3471 122.053 37.4756 121.838C34.0163 121.951 30.6928 121.423 27.5931 119.963C27.4944 118.654 27.6161 117.393 28.3284 116.219Z" fill="#B3D236"/>
<path opacity="0.3" fill-rule="evenodd" clip-rule="evenodd" d="M27.593 119.963C31.1301 119.51 34.3368 120.509 37.4756 121.838C33.9657 123.382 30.4658 124.925 26.7564 126.549C26.5699 124.04 26.9364 121.988 27.593 119.963Z" fill="#42B14C"/>
<path opacity="0.3" fill-rule="evenodd" clip-rule="evenodd" d="M80.8188 107.012C79.9687 113.058 76.6261 114.19 68.1168 111.296C68.474 109.354 71.0394 110.167 71.7497 108.692C73.8454 108.028 76.2596 108.652 78.16 107.2C79.0276 106.834 79.9062 106.608 80.8188 107.012Z" fill="#5EBA47"/>
<path opacity="0.3" fill-rule="evenodd" clip-rule="evenodd" d="M117.603 58.9588C114.711 58.7379 113.453 55.9061 110.43 55.536C111.938 53.736 113.361 52.6266 115.157 51.9748C116.905 51.6932 118.567 52.0423 120.23 52.4813C120.871 52.6371 121.473 52.8631 121.995 53.2697C122.399 53.8271 122.383 54.4172 122.117 55.0189C121.038 56.7561 118.601 57.1222 117.603 58.9588Z" fill="#F498AB"/>
<path opacity="0.3" fill-rule="evenodd" clip-rule="evenodd" d="M56.7249 103.471C55.2587 104.061 53.7926 104.65 51.748 105.484C52.6764 102.208 51.6831 98.6742 54.1707 96.7878C55.9519 95.446 57.4312 98.3563 58.9982 99.426C58.7187 101.008 57.5362 102.156 56.7249 103.471Z" fill="#9E1F63"/>
<path opacity="0.3" fill-rule="evenodd" clip-rule="evenodd" d="M90.5253 94.3181C88.2532 92.493 85.6731 90.97 84.2359 88.3594C84.6749 88.2065 85.1247 88.1735 85.585 88.2305C89.5057 89.8347 93.631 90.6275 97.9119 90.7493C98.1323 90.8078 98.3427 90.8665 98.5631 90.935C98.5444 92.6452 97.9046 94.1894 96.9942 95.6454C94.0912 98.2346 92.8148 94.243 90.5253 94.3181Z" fill="#FBB33B"/>
<path opacity="0.3" fill-rule="evenodd" clip-rule="evenodd" d="M39.7173 78.1126C38.1241 77.6231 36.6775 76.6227 34.869 76.8646C36.5861 74.9032 38.3132 72.9418 40.2289 70.7591C42.1264 73.4167 43.2544 76.1393 44.0632 78.994L43.8746 79.2053C42.4038 79.085 41.0801 78.5337 39.7173 78.1126Z" fill="#6ECCE2"/>
<path opacity="0.3" fill-rule="evenodd" clip-rule="evenodd" d="M102.025 65.4716C99.0641 65.2811 97.0767 67.1943 94.8154 68.5292C93.7777 67.356 93.4436 68.2582 93.069 69.0807C92.4738 69.8047 91.817 70.299 90.8431 69.7054C89.7645 68.4025 89.1055 67.0368 90.285 65.439C93.5072 65.7677 96.4262 65.5985 97.853 62.079C98.3548 60.8357 99.666 61.0071 100.818 61.2395C101.217 62.6569 101.616 64.0643 102.025 65.4716Z" fill="#9E1F63"/>
<path opacity="0.3" fill-rule="evenodd" clip-rule="evenodd" d="M65.3581 55.3831C67.5326 51.5087 64.8161 47.4865 65.9401 43.549C66.2236 42.5571 65.9963 41.4486 66.0094 40.3985C67.0243 41.1418 68.0392 41.8752 69.0541 42.6185C68.3445 47.2433 69.0262 52.0489 66.9056 56.5029C66.3931 56.1263 65.8706 55.7498 65.3581 55.3831Z" fill="#F0635A"/>
<path opacity="0.3" fill-rule="evenodd" clip-rule="evenodd" d="M51.7999 20.8117C54.4134 19.8245 57.0169 18.8273 59.8898 17.7383C59.8604 20.8686 59.0774 23.4438 58.1942 25.9997C54.921 25.5213 52.7101 23.8858 51.7999 20.8117Z" fill="#ED488B"/>
<path opacity="0.3" fill-rule="evenodd" clip-rule="evenodd" d="M130.738 64.3123C131.241 64.679 131.743 65.0557 132.236 65.4225C133.189 65.9462 133.974 66.6411 134.55 67.5473C135.459 68.9613 136.478 70.3246 136.34 72.1156C135.437 73.1515 134.524 74.1776 133.422 75.4449C131.231 72.2192 130.718 68.7826 129.667 65.5494C130.024 65.1271 130.381 64.7147 130.738 64.3123Z" fill="#A3C941"/>
<path opacity="0.3" fill-rule="evenodd" clip-rule="evenodd" d="M72.4919 57.4561C68.8956 53.4898 73.1825 49.9714 73.3978 46.2199C75.5511 46.7157 77.0493 47.9559 78.0514 49.7893C76.5126 51.4795 73.9923 51.4461 71.9722 52.9595C76.1898 54.0917 74.7207 55.7514 72.4919 57.4561Z" fill="#EF545E"/>
<path opacity="0.3" fill-rule="evenodd" clip-rule="evenodd" d="M38.347 85.6418C39.7805 83.1423 42.8545 82.222 44.5396 79.9609C45.2133 82.0365 47.94 84.5486 46.2096 86.01C44.3597 87.5623 41.0004 86.1544 38.347 85.6418Z" fill="#64C3AB"/>
<path opacity="0.3" fill-rule="evenodd" clip-rule="evenodd" d="M85.2493 88.8627C84.9182 88.6949 84.5771 88.5271 84.2459 88.3593C82.0634 84.9436 86.3813 87.6452 86.4124 86.305C88.0942 86.5639 89.793 86.3727 91.4833 86.4216C91.9134 86.4387 92.3339 86.506 92.7545 86.6032C94.9197 87.3789 97.4588 87.2422 99.2994 88.8401C99.565 89.6884 99.1193 90.3313 98.5832 90.9349L98.3933 90.9461C93.6889 91.8172 89.5754 89.7842 85.2493 88.8627Z" fill="#F89D3A"/>
<path opacity="0.3" fill-rule="evenodd" clip-rule="evenodd" d="M39.2638 30.5546C40.7639 32.0847 41.696 33.9086 42.4888 35.8434C41.1433 36.5323 39.9006 36.1305 38.6598 36.0087C36.206 35.4449 34.0087 34.3493 31.8805 33.1133C31.921 31.673 32.935 30.7563 33.8787 29.7901C35.5836 30.5389 37.3659 30.8771 39.2638 30.5546Z" fill="#A6D06A"/>
<path opacity="0.3" fill-rule="evenodd" clip-rule="evenodd" d="M19.8591 52.643C17.4363 52.2289 13.7658 53.6932 14.0365 49.2413C19.9161 46.1325 19.9161 46.1325 19.8591 52.643Z" fill="#9E1F63"/>
<path opacity="0.3" fill-rule="evenodd" clip-rule="evenodd" d="M133.661 67.7831C133.146 67.0165 131.794 66.7054 132.246 65.4224C136.249 65.906 140.194 63.6499 144.213 65.0135C143.299 65.8995 142.375 66.7856 141.461 67.6617C138.854 68.2389 136.262 69.466 133.661 67.7831Z" fill="#8155A2"/>
<path opacity="0.3" fill-rule="evenodd" clip-rule="evenodd" d="M66.3835 88.0471C69.5005 87.5765 72.6074 87.106 76.5336 86.5101C75.0084 88.7602 73.9784 90.2771 72.9483 91.7939C69.7106 92.1552 67.3541 91.1707 66.3835 88.0471Z" fill="#64489C"/>
<path opacity="0.3" fill-rule="evenodd" clip-rule="evenodd" d="M90.285 65.439C90.494 66.8076 90.703 68.1663 90.912 69.5349C90.7656 70.0859 90.4071 70.3083 89.8162 70.1822C87.7185 69.026 84.8874 68.8546 83.8802 66.2512C85.3324 65.0716 86.7847 63.892 88.2369 62.7024C88.9129 63.618 89.5989 64.5235 90.285 65.439Z" fill="#9E1F63"/>
<path opacity="0.3" fill-rule="evenodd" clip-rule="evenodd" d="M66.3834 88.0471C68.1163 89.9957 70.6709 90.6889 72.9483 91.7939C72.1457 92.9292 71.5349 94.3233 69.637 93.1257C67.5281 91.7896 65.3401 90.584 63.1215 89.2886C63.9107 87.6434 65.2029 87.9749 66.3834 88.0471Z" fill="#B677B1"/>
<path opacity="0.3" fill-rule="evenodd" clip-rule="evenodd" d="M92.4926 84.7948C95.318 84.0862 98.1433 83.3676 101.019 82.6386C101.468 84.1057 101.025 85.1686 100.242 86.1738C99.8237 87.9766 98.506 88.3253 97.0412 87.5949C95.3757 86.7759 93.6092 87.3075 91.937 86.9785C90.59 85.9274 91.3261 85.3225 92.4926 84.7948Z" fill="#F48437"/>
<path opacity="0.3" fill-rule="evenodd" clip-rule="evenodd" d="M40.7924 112.246C36.9374 111.502 33.9916 107.591 29.3837 109.441C29.2446 108.062 29.0934 106.363 30.3486 105.635C31.8529 104.765 32.904 106.438 33.989 107.191C36.3297 108.806 38.5313 110.561 40.7924 112.246Z" fill="#DAE03B"/>
<path opacity="0.3" fill-rule="evenodd" clip-rule="evenodd" d="M31.8806 33.1133C35.5087 31.2993 36.3737 35.0937 38.6598 36.0087C36.9209 36.1701 35.1821 36.3716 33.4428 36.4831C29.7245 36.7476 29.6257 35.4182 31.8806 33.1133Z" fill="#6ABD51"/>
<path opacity="0.3" fill-rule="evenodd" clip-rule="evenodd" d="M64.9176 65.9262C65.9297 64.7195 66.9417 63.5029 67.9537 62.2962C68.888 61.42 69.8322 60.5437 70.7665 59.6675C68.4743 63.8927 64.8459 67.1767 61.7816 71.097C60.2749 70.0769 60.0955 68.6481 59.8662 67.2396C61.082 65.0915 63.3532 66.7766 64.9176 65.9262Z" fill="#0E753C"/>
<path opacity="0.3" fill-rule="evenodd" clip-rule="evenodd" d="M117.603 58.9588C116.118 55.1585 120.867 56.5472 121.654 54.642C122.364 54.5673 122.718 53.615 123.58 53.9193C123.75 54.0182 123.871 54.1574 123.952 54.3268C123.074 56.0527 122.195 57.7785 121.307 59.5044C119.795 60.8644 118.776 59.4411 117.603 58.9588Z" fill="#EF512F"/>
<path opacity="0.3" fill-rule="evenodd" clip-rule="evenodd" d="M57.8196 26.8022C57.9101 28.4016 58.0328 30.3309 55.5803 28.447C53.6707 26.9896 51.3132 25.8651 50.3575 23.4813C51.6217 24.113 52.3661 21.748 53.7339 22.929C55.0428 24.2704 57.0971 24.9169 57.8196 26.8022Z" fill="#FBE692"/>
<path opacity="0.3" fill-rule="evenodd" clip-rule="evenodd" d="M133.661 67.7831C136.26 67.5159 138.854 66.7188 141.461 67.6716C140.214 69.6199 138.04 70.6243 136.35 72.1154C134.942 70.9447 134.232 69.4093 133.661 67.7831Z" fill="#8A5BA4"/>
<path opacity="0.3" fill-rule="evenodd" clip-rule="evenodd" d="M18.7671 14.4393C18.0093 16.2944 19.1349 18.657 16.9747 20.1413C14.7417 18.176 15.1826 15.283 13.766 12.7623C15.9565 12.8378 17.4995 13.2877 18.7671 14.4393Z" fill="#7858A2"/>
<path opacity="0.3" fill-rule="evenodd" clip-rule="evenodd" d="M83.8701 66.2513C86.187 67.2861 88.5633 68.2404 90.2263 70.2095C90.3489 70.5987 90.18 70.7698 89.7598 70.7326C86.6697 70.733 83.9321 69.591 81.105 68.5296C81.3747 66.9578 82.8843 66.8878 83.8701 66.2513Z" fill="#9E1F63"/>
<path opacity="0.3" fill-rule="evenodd" clip-rule="evenodd" d="M39.2639 30.5546C37.1348 32.2187 35.1118 33.292 33.8787 29.7901C34.5009 28.5959 35.1229 27.3918 35.8931 25.8967C37.9607 27.0431 37.2287 29.768 39.2639 30.5546Z" fill="#99CA45"/>
<path opacity="0.3" fill-rule="evenodd" clip-rule="evenodd" d="M4.29822 5.53455C2.89253 6.19383 1.48679 6.84311 -0.277835 7.66476Z" fill="#386DB4"/>
<path opacity="0.3" fill-rule="evenodd" clip-rule="evenodd" d="M80.8188 107.012C80.0708 107.327 79.3129 107.642 78.5649 107.957C76.8683 108.478 75.4777 108.388 75.0148 106.431C75.3375 105.328 76.6087 105.5 77.2551 104.956C81.1336 101.68 80.7235 104.693 80.8188 107.012Z" fill="#91C741"/>
<path opacity="0.3" fill-rule="evenodd" clip-rule="evenodd" d="M90.5253 94.318C92.9998 93.4717 94.6268 96.041 96.9943 95.6554C97.1627 96.9343 96.4895 97.9688 95.7584 99.3236C93.4801 98.0686 91.9183 96.2789 90.5253 94.318Z" fill="#FFCE4C"/>
<path opacity="0.3" fill-rule="evenodd" clip-rule="evenodd" d="M120.166 53.3817C118.503 52.9127 116.83 52.4437 115.167 51.9646C116.738 50.6442 118.36 49.4135 120.376 48.7502C120.868 49.167 121.371 49.5737 121.864 49.9905C121.685 50.2216 121.517 50.4528 121.338 50.6839C120.974 51.5964 121.372 52.8038 120.166 53.3817Z" fill="#EE5089"/>
<path opacity="0.3" fill-rule="evenodd" clip-rule="evenodd" d="M64.9176 65.9262C63.6606 67.8945 61.4919 66.5788 59.8662 67.2395C58.9885 66.0753 58.48 64.7886 58.3905 63.3492C61.1478 62.931 62.7617 65.0304 64.9176 65.9262Z" fill="#1A703B"/>
<path opacity="0.3" fill-rule="evenodd" clip-rule="evenodd" d="M61.8286 52.4263C62.3633 53.1428 62.908 53.8592 63.4428 54.5757C60.2774 53.7765 57.3663 52.0957 53.9273 52.2584C53.6026 51.5505 53.246 50.5528 54.5071 50.7045C56.999 50.9981 59.6975 50.7503 61.8286 52.4263Z" fill="#9FC03C"/>
<path opacity="0.3" fill-rule="evenodd" clip-rule="evenodd" d="M91.927 86.9886C93.7435 86.4466 95.4319 84.6755 97.4164 86.8824C98.3332 87.8964 99.4065 86.8793 100.242 86.1738C100.379 87.2029 99.9442 88.0558 99.2894 88.8401C96.7373 88.5369 94.0486 88.7347 91.927 86.9886Z" fill="#F6913A"/>
<path opacity="0.3" fill-rule="evenodd" clip-rule="evenodd" d="M56.7249 103.471C56.0313 101.406 58.0365 100.662 59.0083 99.4159C59.8325 100.06 60.6567 100.695 61.5513 101.389C60.0195 102.639 58.4433 103.22 56.7249 103.471Z" fill="#9E1F63"/>
<path opacity="0.3" fill-rule="evenodd" clip-rule="evenodd" d="M92.4926 84.7949C92.017 85.468 91.5714 86.141 91.927 86.9886C89.9224 87.8119 88.0426 87.8543 86.4024 86.305C88.2344 85.0829 90.3429 84.849 92.4926 84.7949Z" fill="#F6913A"/>
<path opacity="0.3" fill-rule="evenodd" clip-rule="evenodd" d="M75.0148 106.421C76.0008 107.334 77.2434 107.716 78.5649 107.947C76.5102 110.271 74.1138 109.307 71.7496 108.682C72.1791 107.079 74.3534 107.725 75.0148 106.421Z" fill="#7AC049"/>
<path opacity="0.3" fill-rule="evenodd" clip-rule="evenodd" d="M78.0615 49.7892C76.5136 48.5994 74.9558 47.4097 73.4079 46.2198C72.1509 45.1581 70.8938 44.0864 69.6367 43.0246C73.1366 44.5116 76.0415 46.7525 78.6388 49.3754C78.669 49.4052 78.5903 49.6057 78.5207 49.6562C78.3811 49.7271 78.2112 49.7383 78.0615 49.7892Z" fill="#EF5164"/>
<path opacity="0.3" fill-rule="evenodd" clip-rule="evenodd" d="M52.4825 22.7173C52.4462 23.2875 52.42 23.8677 52.3938 24.4379C51.7117 24.1224 51.0295 23.7969 50.3475 23.4814C49.884 22.9544 48.9699 22.3404 49.0671 21.9098C49.2323 21.1887 50.2121 21.1522 50.993 21.2871C51.8838 21.4012 52.4465 21.8075 52.4825 22.7173Z" fill="#DDE57C"/>
<path opacity="0.3" fill-rule="evenodd" clip-rule="evenodd" d="M52.4825 22.7173C51.9793 22.2406 51.4861 21.7638 50.993 21.2871C51.1913 21.0258 51.4602 20.864 51.7998 20.8018C53.9312 22.5277 56.0727 24.2637 58.2042 25.9896C58.1561 26.29 58.0279 26.5608 57.8194 26.7922C56.0405 25.4439 54.2615 24.0856 52.4825 22.7173Z" fill="#EE4852"/>
<path opacity="0.3" fill-rule="evenodd" clip-rule="evenodd" d="M92.5976 71.9039C95.3327 69.6358 96.3191 72.1194 97.7083 73.5103C95.8279 73.4626 94.1439 72.8537 92.5976 71.9039Z" fill="#9E1F63"/>
<path opacity="0.3" fill-rule="evenodd" clip-rule="evenodd" d="M89.7597 70.7325C89.9186 70.5615 90.0674 70.3805 90.2263 70.2095C90.4549 69.9879 90.6733 69.7565 90.9019 69.535C91.7826 69.6392 92.5211 69.4043 93.0765 68.7106C93.3962 68.6585 93.5867 68.7373 93.6279 68.917C93.669 69.0867 93.6597 69.1968 93.5902 69.2773C92.9554 70.0615 92.1501 70.7768 92.5976 71.9139C91.3196 72.2223 90.5545 71.4573 89.7597 70.7325Z" fill="#9E1F63"/>
<path opacity="0.3" fill-rule="evenodd" clip-rule="evenodd" d="M141.525 59.2811C141.297 59.4726 141.058 59.6642 140.819 59.8558C137.889 59.8751 134.979 59.8543 133.618 56.7332L133.598 56.6033C134.459 56.7976 133.976 53.3507 135.663 55.8797C136.683 57.413 139.067 56.4672 140.007 58.0611C140.52 58.4677 141.023 58.8744 141.525 59.2811Z" fill="#D64F9C"/>
<path opacity="0.3" fill-rule="evenodd" clip-rule="evenodd" d="M39.7174 78.1126C41.2271 78.0627 42.688 78.193 43.8648 79.2153C42.1199 79.9968 40.8649 79.2351 39.7174 78.1126Z" fill="#64C3AB"/>
<path opacity="0.3" fill-rule="evenodd" clip-rule="evenodd" d="M130.084 62.2066C128.259 59.9386 126.255 57.7617 125.376 54.9374C128.225 54.6887 130.533 55.9835 132.862 57.1981C134.656 57.8963 136.045 59.1672 135.006 60.9341C134.047 62.5404 132.172 63.4128 130.084 62.2066Z" fill="#7251A1"/>
<path opacity="0.3" fill-rule="evenodd" clip-rule="evenodd" d="M130.084 62.2066C133.09 61.5468 136.517 61.0841 132.862 57.2082C133.121 57.0664 133.37 56.9048 133.618 56.7332C136.015 57.7774 138.422 58.8215 140.819 59.8557C141.594 60.5706 142.379 61.2755 143.153 61.9804C138.742 60.2595 134.811 64.6955 130.589 62.8632C130.368 62.6847 130.206 62.4658 130.084 62.2066Z" fill="#7553A1"/>
<path opacity="0.3" fill-rule="evenodd" clip-rule="evenodd" d="M120.166 53.3818C120.851 52.5972 119.35 50.9871 121.338 50.694C121.55 50.8926 121.761 51.0912 121.972 51.2898C122.037 52.0294 122.693 52.8951 121.456 53.3733C121.036 53.376 120.596 53.3789 120.166 53.3818Z" fill="#EE487C"/>
<path opacity="0.3" fill-rule="evenodd" clip-rule="evenodd" d="M121.466 53.3732C121.641 52.682 121.807 51.9809 121.982 51.2898C122.518 52.1663 123.044 53.0428 123.58 53.9093C122.941 54.1535 122.293 54.3978 121.654 54.632C121.592 54.2124 121.529 53.7928 121.466 53.3732Z" fill="#EE4A88"/>
<path opacity="0.3" fill-rule="evenodd" clip-rule="evenodd" d="M93.6003 69.2772C93.4788 69.048 93.2975 68.8592 93.0765 68.7107C92.6829 68.1632 91.6691 67.5899 92.9552 66.9914C93.6631 66.6667 94.5026 66.5912 95.2814 66.4061C95.1261 67.1171 94.9707 67.8182 94.8054 68.5293C94.407 68.7819 94.0086 69.0245 93.6003 69.2772Z" fill="#9E1F63"/>
<path opacity="0.3" fill-rule="evenodd" clip-rule="evenodd" d="M85.2493 88.8627C89.624 89.5639 93.9987 90.2651 98.3734 90.9563C93.5054 92.7884 89.3629 90.9157 85.2493 88.8627Z" fill="#F9A53E"/>
</g>
</g>
</g>
<defs>
<clipPath id="clip0_385_12158">
<rect width="248" height="257" fill="white"/>
</clipPath>
</defs>
</svg>
