<svg width="374" height="213" viewBox="0 0 374 213" fill="none" xmlns="http://www.w3.org/2000/svg">
<g clip-path="url(#clip0_385_12160)">
<path fill-rule="evenodd" clip-rule="evenodd" d="M16.9104 63.1606C17.0803 63.1495 17.2604 63.1483 17.4305 63.1672C18.3504 64.6612 18.451 66.2805 18.1521 67.9626C17.4779 68.847 16.5553 69.9731 16.3118 67.9247C16.1315 66.3658 16.6808 64.7422 16.9104 63.1606Z" fill="#1AAAD2"/>
<path fill-rule="evenodd" clip-rule="evenodd" d="M18.152 67.9525C17.5019 66.4168 17.2913 64.8181 17.4304 63.1572C19.2177 64.2654 18.7501 66.1485 19.1106 67.7462C18.791 67.8083 18.4716 67.8804 18.152 67.9525Z" fill="#2D328A"/>
<path fill-rule="evenodd" clip-rule="evenodd" d="M75.1534 198.42C75.132 198.21 75.1803 197.959 75.0792 197.79C72.6299 193.356 72.6299 193.356 78.4166 192.838C77.5 194.874 76.6526 196.78 75.8051 198.675C75.5945 198.587 75.374 198.508 75.1534 198.42Z" fill="#AED039"/>
<path fill-rule="evenodd" clip-rule="evenodd" d="M96.98 74.963C92.7966 75.9806 88.6031 76.9783 84.42 78.0459C82.7428 78.477 82.1793 77.9507 82.6394 76.4376C83.7942 72.6099 84.9991 68.8019 86.184 64.984C89.3087 65.6934 90.8861 68.3331 93.2571 69.9875C94.2192 71.8212 97.5311 72.0993 96.98 74.963Z" fill="#ED4488"/>
<path fill-rule="evenodd" clip-rule="evenodd" d="M92.8098 70.4004C90.3298 68.8867 88.2667 66.9103 86.1839 64.974C86.331 64.533 86.4681 64.0921 86.6152 63.6511C87.5328 63.285 88.6854 63.6674 89.2157 62.1939C89.6871 60.8908 91.0915 60.0415 92.8028 60.2302C95.2155 62.1544 97.1908 64.4614 99.166 66.7684C97.763 69.3577 95.3322 70.7538 92.8098 70.4004Z" fill="#C2559F"/>
<path fill-rule="evenodd" clip-rule="evenodd" d="M120.715 71.1565C122.095 71.0174 123.484 70.8783 125.542 70.6747C123.393 73.8589 122.174 76.927 119.93 79.4719C118.216 80.3432 116.494 80.0346 114.751 79.646C114.25 79.4793 113.799 79.2323 113.367 78.9451C110.661 76.5729 110.671 76.5929 113.832 75.172C116.275 74.0759 118.02 71.8743 120.715 71.1565Z" fill="#E04D9A"/>
<path fill-rule="evenodd" clip-rule="evenodd" d="M92.8098 70.4004C95.2655 69.7342 97.3067 68.4007 99.166 66.7684C101.098 68.5957 103.03 70.423 104.962 72.2503C104.266 74.315 102.16 74.9789 100.537 76.0696C99.7011 76.6351 98.7891 76.3311 98.2828 75.3844C98.1369 74.4854 97.3913 75.1603 96.9899 74.9529C96.4653 72.7264 93.3644 72.6068 92.8098 70.4004Z" fill="#CA549E"/>
<path fill-rule="evenodd" clip-rule="evenodd" d="M51.6927 111.922C51.8739 112.111 52.0652 112.3 52.2464 112.489C52.7027 114.956 50.8611 116.238 49.2202 117.629C46.9033 118.104 44.5864 118.579 41.7701 119.158C42.9724 116.47 43.9087 114.384 44.8449 112.288C45.9361 110.95 47.3511 111.701 48.6513 111.722C49.5218 111.807 50.3923 111.871 51.2723 111.875C51.4024 111.884 51.5426 111.903 51.6927 111.922Z" fill="#63C2A5"/>
<path fill-rule="evenodd" clip-rule="evenodd" d="M108.111 72.0596C110.45 71.9042 112.789 71.7488 115.128 71.5933C115.234 74.0127 113.17 74.8663 111.497 75.9474C110.481 76.6141 108.983 76.844 109.253 78.4922C109.224 78.6424 109.195 78.7926 109.166 78.9428C109.038 79.2337 108.82 79.4551 108.531 79.617C106.623 79.9796 104.73 79.4621 102.821 79.6746C102.491 79.6768 102.171 79.6389 101.86 79.571C101.55 79.483 101.249 79.365 100.968 79.2068C100.285 78.7813 99.6819 78.2753 99.138 77.6989C98.9363 77.4402 98.8344 77.1509 98.8423 76.8308C98.9803 76.5299 99.2191 76.3483 99.5689 76.316C103.736 77.3186 105.837 74.5347 108.111 72.0596Z" fill="#D64F9C"/>
<path fill-rule="evenodd" clip-rule="evenodd" d="M83.8251 137.971C82.4257 141.1 81.2825 143.648 79.9323 146.657C77.966 144.2 76.2115 142.001 74.0536 139.296C77.5706 138.822 80.488 138.433 83.8251 137.971Z" fill="#6FBD46"/>
<path fill-rule="evenodd" clip-rule="evenodd" d="M91.805 142.489C93.7833 143.746 95.1305 144.827 96.6552 145.537C100.206 147.193 98.4721 148.095 96.1579 148.98C94.3424 149.672 92.7302 150.863 90.4815 151.068C90.9231 148.275 91.3256 145.622 91.805 142.489Z" fill="#5EBA57"/>
<path fill-rule="evenodd" clip-rule="evenodd" d="M71.6947 75.7598C72.3455 72.8454 72.8892 70.3618 73.569 67.2972C76.0827 69.3607 78.2847 71.1762 80.7179 73.1703C77.7455 74.3399 75.001 75.178 71.6947 75.7598Z" fill="#EE498A"/>
<path fill-rule="evenodd" clip-rule="evenodd" d="M62.7435 137.81C61.4144 139.459 59.6722 140.65 57.8494 141.752C55.09 140.331 51.9081 141.562 49.072 140.65C48.577 139.894 48.1618 139.116 48.6858 138.203C48.7027 137.733 48.9294 137.231 49.3891 137.188C53.8765 136.769 58.4473 135.358 62.7435 137.81Z" fill="#C0D730"/>
<path fill-rule="evenodd" clip-rule="evenodd" d="M78.7315 91.9338C79.8422 90.5264 80.8624 89.0296 82.1038 87.7214C82.9976 86.7755 83.4449 84.8525 84.8264 85.0734C86.2879 85.3038 86.8291 87.0003 87.1386 88.4383C85.7049 90.9178 84.8955 94.0332 80.8944 93.8795C79.7627 93.627 79.1179 92.9112 78.7315 91.9338Z" fill="#9E1F63"/>
<path fill-rule="evenodd" clip-rule="evenodd" d="M31.2036 127.308C28.4261 120.116 28.4261 120.116 35.8453 116.937C34.2783 120.427 32.8198 123.697 31.2036 127.308Z" fill="#7FCFD9"/>
<path fill-rule="evenodd" clip-rule="evenodd" d="M105.491 111.498C103.016 112.234 100.551 113 98.0552 113.667C97.5062 113.81 97.3825 113.251 97.4592 112.761C97.5742 111.99 97.4786 111.151 97.7841 110.469C98.3852 109.115 97.3481 106.521 99.3382 106.538C101.408 106.555 103.35 108.242 104.88 109.852C105.112 110.1 105.373 110.279 105.095 110.63C105.237 110.919 105.359 111.209 105.491 111.498Z" fill="#55B84A"/>
<path fill-rule="evenodd" clip-rule="evenodd" d="M66.1571 92.8266L66.159 93.1166L65.9303 93.3181C65.896 94.1684 65.4206 94.8715 65.0755 95.6238C61.8742 93.9249 57.9388 96.1409 54.7951 94.0716C54.0695 93.2263 52.7769 92.8348 52.5885 91.5661C54.8568 89.7811 57.5549 91.0033 60.0117 90.5171C60.542 90.5536 61.0526 90.6502 61.5536 90.7869C62.0643 90.9036 62.5654 91.0603 63.0861 91.1669C64.2482 91.4892 65.6578 91.4199 66.1571 92.8266Z" fill="#225E31"/>
<path fill-rule="evenodd" clip-rule="evenodd" d="M54.795 94.0716C56.4134 93.8109 57.948 94.5108 59.6457 94.1496C61.4332 93.7778 63.4628 93.7044 64.5558 95.6773C65.0631 96.784 64.0282 97.5508 63.8045 98.5023C61.8343 99.9953 60.0068 98.8673 58.1531 98.3095C56.755 97.0887 55.6854 95.6458 54.795 94.0716Z" fill="#166635"/>
<path fill-rule="evenodd" clip-rule="evenodd" d="M88.9162 91.0966C89.4541 92.2931 90.0719 93.469 90.51 94.6961C90.8564 95.6739 92.3035 96.7344 91.2891 97.5911C90.4835 98.2664 88.8922 98.0769 87.7082 97.4747C86.4072 97.3133 85.1418 96.5116 83.7976 97.3904L83.8076 97.3904C82.3549 96.9899 83.0891 96.1051 83.3239 95.3235C83.5909 94.8617 83.9483 94.4694 84.2354 94.0175C85.4154 92.4997 86.2723 90.504 88.9162 91.0966Z" fill="#9E1F63"/>
<path fill-rule="evenodd" clip-rule="evenodd" d="M108.865 78.7248C107.766 77.362 107.958 76.2007 109.806 75.8285C112.442 75.2911 113.65 73.3331 115.128 71.5933C116.997 71.451 118.856 71.3088 120.715 71.1665C117.929 73.1649 115.859 76.1986 111.951 76.5444C112.127 77.5432 113.616 77.4134 113.633 78.4533C112.091 79.5635 110.431 78.1644 108.865 78.7248Z" fill="#DB4E9B"/>
<path fill-rule="evenodd" clip-rule="evenodd" d="M62.7435 137.81C58.0364 136.751 53.3607 137.422 48.6858 138.203C48.2108 137.446 48.2154 136.626 48.2998 135.785C49.3358 133.658 51.1683 134.026 52.9908 134.394C54.3025 134.656 55.3398 135.759 56.8378 135.449C59.0299 135.755 61.1435 136.291 63.031 137.428C63.0711 137.448 63.0822 137.608 63.0424 137.648C62.9629 137.719 62.8432 137.759 62.7435 137.81Z" fill="#CBDB2F"/>
<path fill-rule="evenodd" clip-rule="evenodd" d="M66.1571 92.8266C64.955 92.5245 63.743 92.2125 62.541 91.9104C61.6994 88.6359 59.9586 85.4973 60.9351 81.9308C61.1447 81.8594 61.315 81.9183 61.4262 82.0976C62.6261 82.0797 63.5904 82.7133 64.6429 83.0964C65.5373 83.7605 66.1245 84.8567 65.6699 85.6797C64.4149 87.958 65.9458 89.608 66.6281 91.4635C66.4711 91.9145 66.314 92.3656 66.1571 92.8266Z" fill="#EF5256"/>
<path fill-rule="evenodd" clip-rule="evenodd" d="M32.6506 151.119C35.5828 151.429 38.5149 151.74 41.6271 152.06C40.8584 153.775 40.1883 155.279 39.4097 157.014C36.9576 155.19 34.6563 153.486 32.355 151.771C32.4535 151.55 32.552 151.329 32.6506 151.119Z" fill="#9E1F63"/>
<path fill-rule="evenodd" clip-rule="evenodd" d="M92.8027 60.2303C91.5095 61.2588 89.7727 61.7503 89.1347 63.5745C88.5558 65.2584 87.4746 63.5655 86.6151 63.6512C87.1991 61.2172 87.783 58.7734 88.4839 55.8687C90.4131 57.266 91.752 58.6072 92.8027 60.2303Z" fill="#BC5CA2"/>
<path fill-rule="evenodd" clip-rule="evenodd" d="M108.111 72.0596C107.351 73.5347 106.591 75.0097 105.83 76.4947C105.149 77.8293 103.934 77.0173 103.024 77.0433C101.764 77.0816 100.502 76.7099 99.2403 76.5182C98.6216 76.7123 98.2001 76.4851 97.9366 75.9668C97.9851 75.7365 98.0939 75.5557 98.2729 75.4046C101.367 76.0442 102.577 73.0261 104.952 72.2705C106.002 72.1935 107.052 72.1266 108.111 72.0596Z" fill="#D2509C"/>
<path fill-rule="evenodd" clip-rule="evenodd" d="M101.647 79.0823C102.028 79.1298 102.408 79.1773 102.778 79.2149C104.822 79.8514 106.163 81.4126 107.781 82.602C108.032 82.8003 108.243 83.0289 108.445 83.2676C108.728 83.6558 108.9 84.0946 108.924 84.5745C108.857 85.0649 108.659 85.4663 108.111 85.6499C105.961 84.234 102.739 85.4753 100.954 83.167C99.994 81.6333 100.175 80.2721 101.647 79.0823Z" fill="#A8C93E"/>
<path fill-rule="evenodd" clip-rule="evenodd" d="M108.594 84.5967C108.452 84.2776 108.309 83.9485 108.167 83.6295C110.18 82.5762 111.941 81.0845 114.247 80.5693C114.966 80.4146 114.673 79.9865 114.501 79.5976C114.489 79.2877 114.628 79.0768 114.947 78.9947C116.608 79.1537 118.259 79.3129 119.92 79.4719C119.547 80.5744 119.205 81.7067 118.09 82.4041C115.112 82.7937 113.121 85.7369 109.839 85.3585C109.308 85.282 108.887 85.0248 108.594 84.5967Z" fill="#7C55A2"/>
<path fill-rule="evenodd" clip-rule="evenodd" d="M61.2178 91.4392C60.7175 91.3825 60.2171 91.3258 59.7067 91.2691C59.1443 90.9128 58.1852 91.0492 58.099 90.1097C58.4211 87.3875 57.5742 84.8331 56.9871 82.2369C56.7503 81.1984 56.4325 80.0205 58.319 80.9981C60.7054 83.4824 60.6582 86.9528 62.1072 89.8233C62.3806 90.3415 62.0159 91.1439 61.2178 91.4392Z" fill="#F37B65"/>
<path fill-rule="evenodd" clip-rule="evenodd" d="M49.062 140.65C51.2645 139.516 57.0294 140.238 57.8394 141.752C57.5925 142.224 57.3154 142.666 56.6656 142.69C54.2905 143.456 51.8725 143.752 49.3898 143.358C49.0241 142.491 48.8282 141.592 49.062 140.65Z" fill="#B3D236"/>
<path fill-rule="evenodd" clip-rule="evenodd" d="M49.3899 143.368C51.7433 142.353 54.1937 142.407 56.6657 142.7C54.5772 144.454 52.4888 146.218 50.2709 148.073C49.5897 146.377 49.3899 144.888 49.3899 143.368Z" fill="#42B14C"/>
<path fill-rule="evenodd" clip-rule="evenodd" d="M83.4522 123.883C84.2107 128.208 82.1402 129.652 75.5881 129.355C75.4088 127.946 77.3692 128.003 77.5315 126.842C78.8358 125.964 80.6455 125.922 81.6465 124.545C82.1736 124.112 82.7315 123.788 83.4522 123.883Z" fill="#5EBA47"/>
<path fill-rule="evenodd" clip-rule="evenodd" d="M98.2765 83.5247C96.2192 83.9483 94.718 82.2481 92.5302 82.5926C93.1801 81.0582 93.9133 80.0134 95.018 79.2061C96.1644 78.6685 97.4039 78.5803 98.6437 78.5422C99.1235 78.519 99.5938 78.5559 100.045 78.7329C100.447 79.0303 100.57 79.4395 100.523 79.9098C100.172 81.3322 98.5668 82.0628 98.2765 83.5247Z" fill="#F498AB"/>
<path fill-rule="evenodd" clip-rule="evenodd" d="M65.9374 126.239C65.0519 126.935 64.1666 127.641 62.9329 128.609C62.8468 126.169 61.3721 123.939 62.6804 122.15C63.612 120.874 65.2833 122.583 66.6161 123.004C66.7736 124.143 66.2103 125.167 65.9374 126.239Z" fill="#9E1F63"/>
<path fill-rule="evenodd" clip-rule="evenodd" d="M87.372 113.227C85.3867 112.42 83.2531 111.884 81.6731 110.385C81.9419 110.193 82.2512 110.081 82.5808 110.029C85.6631 110.358 88.7013 110.078 91.6963 109.309C91.8563 109.308 92.0263 109.306 92.1863 109.305C92.554 110.483 92.4519 111.674 92.1497 112.856C90.7151 115.205 88.9387 112.717 87.372 113.227Z" fill="#FBB33B"/>
<path fill-rule="evenodd" clip-rule="evenodd" d="M88.9162 91.0966C86.8192 91.5504 85.8605 93.2668 84.5894 94.6252C83.6054 94.0217 83.5699 94.7119 83.5042 95.3524C83.2582 95.964 82.9113 96.4363 82.0999 96.2216C81.0553 95.5385 80.3 94.7335 80.7612 93.4004C83.0685 92.9852 85.054 92.2921 85.2662 89.5906C85.3399 88.6401 86.289 88.4938 87.1386 88.4282C87.7245 89.3244 88.3204 90.2105 88.9162 91.0966Z" fill="#9E1F63"/>
<path fill-rule="evenodd" clip-rule="evenodd" d="M61.2179 91.4392C61.8674 88.3348 59.0727 86.1132 58.9834 83.1837C58.9585 82.4439 58.5538 81.7265 58.329 81.008C59.2011 81.3122 60.0632 81.6266 60.9352 81.9308C61.4771 85.2573 63.0181 88.4272 62.541 91.9105C62.1 91.7534 61.6589 91.5962 61.2179 91.4392Z" fill="#F0635A"/>
<path fill-rule="evenodd" clip-rule="evenodd" d="M44.0985 70.3616C45.6906 69.1611 47.2827 67.9605 49.034 66.639C49.7083 68.8046 49.7409 70.7244 49.7037 72.6547C47.3158 72.9804 45.4212 72.2929 44.0985 70.3616Z" fill="#ED488B"/>
<path fill-rule="evenodd" clip-rule="evenodd" d="M108.594 84.5967C109.025 84.7538 109.456 84.911 109.887 85.0582C110.668 85.233 111.37 85.5484 111.963 86.0545C112.909 86.8483 113.924 87.5816 114.222 88.8397C113.828 89.7323 113.424 90.625 112.941 91.7082C110.699 89.9229 109.584 87.6602 108.131 85.6398C108.278 85.2988 108.436 84.9477 108.594 84.5967Z" fill="#A3C941"/>
<path fill-rule="evenodd" clip-rule="evenodd" d="M66.6381 91.4534C63.2547 89.4357 65.4532 86.1711 64.7659 83.5456C66.3754 83.455 67.6891 84.0163 68.7861 85.0791C68.0957 86.5437 66.3389 87.0253 65.2783 88.4623C68.448 88.4014 67.7975 89.8357 66.6381 91.4534Z" fill="#EF545E"/>
<path fill-rule="evenodd" clip-rule="evenodd" d="M49.2101 117.619C49.6469 115.616 51.5788 114.373 52.2363 112.479C53.1649 113.773 55.6227 114.957 54.7416 116.312C53.8111 117.749 51.169 117.446 49.2101 117.619Z" fill="#64C3AB"/>
<path fill-rule="evenodd" clip-rule="evenodd" d="M82.4841 110.519C82.2137 110.471 81.9434 110.423 81.6731 110.375C79.3904 108.46 82.9971 109.456 82.7209 108.528C83.9399 108.37 85.0768 107.902 86.2649 107.604C86.5644 107.532 86.8741 107.49 87.1841 107.478C88.8648 107.577 90.5909 106.986 92.2258 107.715C92.5992 108.243 92.4327 108.774 92.1962 109.295L92.0665 109.346C89.0065 110.876 85.6927 110.298 82.4841 110.519Z" fill="#F89D3A"/>
<path fill-rule="evenodd" clip-rule="evenodd" d="M37.5689 79.5548C38.9539 80.3057 40.001 81.3788 40.9888 82.5523C40.2037 83.2975 39.2534 83.2638 38.3645 83.4297C36.5351 83.5317 34.763 83.2134 33.0101 82.7849C32.7235 81.7868 33.2181 80.9535 33.6625 80.1006C35.0136 80.2717 36.3228 80.1531 37.5689 79.5548Z" fill="#A6D06A"/>
<path fill-rule="evenodd" clip-rule="evenodd" d="M111.396 86.3983C110.863 85.9718 109.863 86.0284 109.887 85.0582C112.774 84.5892 115.009 82.2544 118.11 82.404C117.665 83.1969 117.23 83.9798 116.785 84.7727C115.101 85.6839 113.57 87.044 111.396 86.3983Z" fill="#8155A2"/>
<path fill-rule="evenodd" clip-rule="evenodd" d="M69.2048 113.707C71.2586 112.763 73.3124 111.82 75.9047 110.633C75.3469 112.486 74.9651 113.729 74.5933 114.981C72.4391 115.866 70.5777 115.658 69.2048 113.707Z" fill="#64489C"/>
<path fill-rule="evenodd" clip-rule="evenodd" d="M80.7613 93.4104C81.2072 94.3074 81.6531 95.2045 82.109 96.1015C82.1317 96.5114 81.9332 96.7327 81.4934 96.7656C79.7809 96.3869 77.7737 96.8301 76.4932 95.2385C77.236 94.1336 77.9888 93.0386 78.7315 91.9337C79.4048 92.4293 80.078 92.9148 80.7613 93.4104Z" fill="#9E1F63"/>
<path fill-rule="evenodd" clip-rule="evenodd" d="M69.2048 113.707C70.8415 114.706 72.7613 114.674 74.5934 114.981C74.2896 115.924 74.1767 117.004 72.5837 116.555C70.8304 116.056 69.0277 115.658 67.2047 115.21C67.4062 113.919 68.376 113.892 69.2048 113.707Z" fill="#B677B1"/>
<path fill-rule="evenodd" clip-rule="evenodd" d="M86.6062 106.292C88.4094 105.24 90.2124 104.188 92.0454 103.116C92.6815 104.032 92.6169 104.852 92.2925 105.705C92.4013 107.034 91.5745 107.529 90.3831 107.317C89.0415 107.086 87.9362 107.803 86.6969 107.912C85.5438 107.439 85.9201 106.877 86.6062 106.292Z" fill="#F48437"/>
<path fill-rule="evenodd" clip-rule="evenodd" d="M56.8379 135.439C53.9994 135.688 51.0855 133.587 48.2998 135.775C47.8937 134.848 47.4063 133.721 48.1214 132.966C48.9755 132.071 50.0717 133.014 50.9937 133.307C52.968 133.954 54.8931 134.722 56.8379 135.439Z" fill="#DAE03B"/>
<path fill-rule="evenodd" clip-rule="evenodd" d="M33.0102 82.7849C35.1272 80.8109 36.5734 83.2515 38.3646 83.4296C37.1976 83.8873 36.0307 84.365 34.8535 84.7928C32.3294 85.7095 31.9635 84.8119 33.0102 82.7849Z" fill="#6ABD51"/>
<path fill-rule="evenodd" clip-rule="evenodd" d="M63.2663 98.7858C63.6995 97.7529 64.1327 96.7201 64.5659 95.6872C65.0207 94.8942 65.4755 94.1111 65.9303 93.3181C65.2725 96.6825 63.492 99.6543 62.2438 102.963C60.9711 102.561 60.5248 101.614 60.0488 100.697C60.4074 98.9746 62.3621 99.6718 63.2663 98.7858Z" fill="#0E753C"/>
<path fill-rule="evenodd" clip-rule="evenodd" d="M98.2765 83.5247C96.3911 81.2071 100.001 81.2133 100.122 79.7525C100.6 79.5593 100.626 78.8391 101.296 78.8747C101.436 78.9138 101.557 78.983 101.647 79.0824C101.416 80.4439 101.195 81.8054 100.964 83.167C100.222 84.4019 99.2071 83.6186 98.2765 83.5247Z" fill="#EF512F"/>
<path fill-rule="evenodd" clip-rule="evenodd" d="M49.6079 73.2853C50.025 74.3626 50.5436 75.6692 48.4182 74.8632C46.7741 74.234 44.8821 73.9365 43.6825 72.4843C44.7037 72.6676 44.692 70.8976 45.9056 71.4297C47.1199 72.0917 48.6902 72.1313 49.6079 73.2853Z" fill="#FBE692"/>
<path fill-rule="evenodd" clip-rule="evenodd" d="M111.396 86.3983C113.141 85.6967 114.764 84.636 116.785 84.7727C116.356 86.3656 115.073 87.4841 114.222 88.8497C112.988 88.3278 112.152 87.4033 111.396 86.3983Z" fill="#8A5BA4"/>
<path fill-rule="evenodd" clip-rule="evenodd" d="M76.4932 95.2386C78.3348 95.4864 80.1961 95.6742 81.793 96.7037C81.9646 96.9525 81.8855 97.0931 81.5859 97.155C79.4399 97.7692 77.2883 97.5334 75.0871 97.3579C74.9197 96.229 75.9473 95.8722 76.4932 95.2386Z" fill="#9E1F63"/>
<path fill-rule="evenodd" clip-rule="evenodd" d="M37.5689 79.5548C36.4592 81.1221 35.2967 82.2598 33.6625 80.1005C33.8262 79.1494 33.99 78.2083 34.1922 77.027C35.8847 77.3958 35.978 79.4153 37.5689 79.5548Z" fill="#99CA45"/>
<path fill-rule="evenodd" clip-rule="evenodd" d="M83.4521 123.883C83.0045 124.246 82.5469 124.609 82.0893 124.972C81.0339 125.669 80.0452 125.876 79.287 124.631C79.2615 123.801 80.1907 123.675 80.5174 123.173C82.4875 120.15 82.8717 122.307 83.4521 123.883Z" fill="#91C741"/>
<path fill-rule="evenodd" clip-rule="evenodd" d="M87.372 113.227C88.905 112.157 90.6045 113.596 92.1597 112.866C92.5553 113.713 92.3208 114.555 92.118 115.636C90.2452 115.218 88.7691 114.298 87.372 113.227Z" fill="#FFCE4C"/>
<path fill-rule="evenodd" clip-rule="evenodd" d="M98.8178 79.181C97.5578 79.1893 96.2879 79.1977 95.0279 79.206C95.8199 77.9808 96.6722 76.8151 97.9266 75.9668C98.3678 76.1539 98.7991 76.3411 99.2303 76.5182C99.1615 76.7087 99.0928 76.8991 99.0241 77.0996C98.9786 77.7899 99.5236 78.5364 98.8178 79.181Z" fill="#EE5089"/>
<path fill-rule="evenodd" clip-rule="evenodd" d="M63.2663 98.7858C62.8268 100.389 61.0336 99.9106 60.0488 100.697C59.1747 100.073 58.5395 99.287 58.1531 98.3095C59.9776 97.4775 61.565 98.597 63.2663 98.7858Z" fill="#1A703B"/>
<path fill-rule="evenodd" clip-rule="evenodd" d="M58.109 90.1097C58.6415 90.4962 59.1741 90.8827 59.7167 91.2691C57.3372 91.3548 54.9433 90.7705 52.5885 91.5661C52.2057 91.1486 51.7416 90.5316 52.6407 90.3857C54.4388 90.0939 56.2541 89.3819 58.109 90.1097Z" fill="#9FC03C"/>
<path fill-rule="evenodd" clip-rule="evenodd" d="M86.7069 107.901C87.8421 107.174 88.6218 105.609 90.4993 106.736C91.3627 107.251 91.8767 106.337 92.3024 105.695C92.6269 106.372 92.5113 107.043 92.2358 107.715C90.3877 108.007 88.562 108.679 86.7069 107.901Z" fill="#F6913A"/>
<path fill-rule="evenodd" clip-rule="evenodd" d="M65.9373 126.239C64.9988 124.955 66.2229 124.047 66.616 122.994C67.3278 123.27 68.0496 123.545 68.8217 123.85C68.0393 125.005 67.0739 125.721 65.9373 126.239Z" fill="#9E1F63"/>
<path fill-rule="evenodd" clip-rule="evenodd" d="M86.6063 106.292C86.4299 106.843 86.2636 107.394 86.707 107.911C85.5033 108.879 84.2059 109.278 82.721 108.538C83.723 107.321 85.1292 106.742 86.6063 106.292Z" fill="#F6913A"/>
<path fill-rule="evenodd" clip-rule="evenodd" d="M79.297 124.631C80.1798 125.065 81.13 125.079 82.0994 124.982C81.1926 126.988 79.3113 126.801 77.5315 126.842C77.4736 125.643 79.1238 125.662 79.297 124.631Z" fill="#7AC049"/>
<path fill-rule="evenodd" clip-rule="evenodd" d="M68.786 85.0691C67.4426 84.558 66.0992 84.0468 64.7658 83.5356C63.6526 83.0529 62.5494 82.5702 61.4362 82.0875C64.1985 82.4193 66.7148 83.3727 69.0934 84.6671C69.1235 84.6869 69.1145 84.8369 69.0748 84.8872C68.9954 84.9677 68.8856 85.0085 68.786 85.0691Z" fill="#EF5164"/>
<path fill-rule="evenodd" clip-rule="evenodd" d="M44.9963 71.5357C45.0989 71.935 45.2116 72.3342 45.3142 72.7336C44.7736 72.6471 44.2231 72.5708 43.6826 72.4843C43.2407 72.2072 42.4691 71.9723 42.4471 71.6625C42.4036 71.1327 43.0722 70.9183 43.6417 70.8446C44.2911 70.7503 44.7722 70.9171 44.9963 71.5357Z" fill="#DDE57C"/>
<path fill-rule="evenodd" clip-rule="evenodd" d="M44.9963 71.5357C44.5448 71.3086 44.0933 71.0816 43.6417 70.8446C43.7203 70.6241 43.8792 70.463 44.0985 70.3516C45.9636 71.1193 47.8286 71.877 49.7037 72.6446C49.7351 72.8644 49.7066 73.0746 49.6179 73.2752C48.0741 72.7054 46.5302 72.1256 44.9963 71.5357Z" fill="#EE4852"/>
<path fill-rule="evenodd" clip-rule="evenodd" d="M83.8076 97.3904C85.1937 95.2812 86.4437 96.793 87.7182 97.4746C86.3905 97.8234 85.0899 97.7319 83.8076 97.3904Z" fill="#9E1F63"/>
<path fill-rule="evenodd" clip-rule="evenodd" d="M81.576 97.1551C81.645 97.0046 81.714 96.8542 81.783 96.7037C81.8917 96.503 81.9904 96.3024 82.099 96.1016C82.7384 95.9974 83.1964 95.6944 83.4225 95.1029C83.6318 95.0015 83.7819 95.0205 83.8526 95.1301C83.9234 95.2396 83.9439 95.3195 83.9143 95.3797C83.6487 96.0414 83.243 96.7041 83.8176 97.3903C82.9907 97.8658 82.2883 97.5004 81.576 97.1551Z" fill="#9E1F63"/>
<path fill-rule="evenodd" clip-rule="evenodd" d="M114.957 78.9946C114.838 79.1754 114.719 79.3562 114.6 79.5269C112.564 80.1304 110.548 80.6937 108.906 78.8045C108.906 78.8045 108.865 78.7248 108.865 78.7148C109.505 78.6805 108.4 76.4078 110.139 77.8063C111.195 78.6594 112.637 77.5398 113.643 78.4432C114.085 78.6303 114.516 78.8175 114.957 78.9946Z" fill="#D64F9C"/>
<path fill-rule="evenodd" clip-rule="evenodd" d="M48.4842 112.174C49.522 111.837 50.5607 111.64 51.6138 112.103C50.5696 112.99 49.5278 112.717 48.4842 112.174Z" fill="#64C3AB"/>
<path fill-rule="evenodd" clip-rule="evenodd" d="M107.675 83.2827C105.897 82.0844 104.03 80.9867 102.788 79.2249C104.713 78.4922 106.596 78.9197 108.489 79.2973C109.89 79.418 111.144 80.0198 110.803 81.4421C110.501 82.7241 109.388 83.6914 107.675 83.2827Z" fill="#7251A1"/>
<path fill-rule="evenodd" clip-rule="evenodd" d="M107.675 83.2828C109.618 82.2299 111.892 81.2349 108.489 79.2873C108.638 79.1363 108.777 78.9754 108.906 78.8145C110.807 79.052 112.709 79.2995 114.6 79.537C115.303 79.8724 115.995 80.2078 116.697 80.5332C113.255 80.2259 111.51 84.0575 108.177 83.6294C107.977 83.5508 107.806 83.4319 107.675 83.2828Z" fill="#7553A1"/>
<path fill-rule="evenodd" clip-rule="evenodd" d="M98.8179 79.181C99.1134 78.4991 97.7181 77.6982 99.0342 77.0995C99.2248 77.1983 99.4154 77.287 99.6061 77.3858C99.8194 77.8844 100.462 78.3502 99.7162 78.9251C99.4167 79.0071 99.1173 79.089 98.8179 79.181Z" fill="#EE487C"/>
<path fill-rule="evenodd" clip-rule="evenodd" d="M99.7161 78.9151C99.6827 78.4053 99.6394 77.8956 99.6059 77.3758C100.169 77.8721 100.733 78.3684 101.306 78.8646C100.918 79.1572 100.52 79.4498 100.132 79.7424C99.9897 79.4733 99.8579 79.1942 99.7161 78.9151Z" fill="#EE4A88"/>
<path fill-rule="evenodd" clip-rule="evenodd" d="M83.9243 95.3896C83.7835 95.2605 83.6228 95.1616 83.4324 95.1028C83.0305 94.8055 82.2092 94.6109 82.9648 93.9459C83.3824 93.5831 83.951 93.3593 84.4491 93.0761C84.5025 93.5957 84.546 94.1154 84.5894 94.6352C84.371 94.8866 84.1427 95.1381 83.9243 95.3896Z" fill="#9E1F63"/>
<path fill-rule="evenodd" clip-rule="evenodd" d="M82.4841 110.519C85.6816 110.128 88.8692 109.747 92.0667 109.356C89.0912 111.576 85.7981 111.118 82.4841 110.519Z" fill="#F9A53E"/>
<g opacity="0.9">
<g opacity="0.9">
<path opacity="0.9" fill-rule="evenodd" clip-rule="evenodd" d="M286.719 93.9026C285.141 95.7831 283.574 97.6734 281.698 99.9058C280.08 95.5864 278.573 91.5363 276.782 86.748C280.679 87.8423 284.132 88.2796 287.363 89.9083C287.58 91.0469 287.277 92.0489 286.763 93.0023C286.705 93.3027 286.687 93.6028 286.719 93.9026Z" fill="#5D3B96"/>
<path opacity="0.9" fill-rule="evenodd" clip-rule="evenodd" d="M256.429 98.6324C257.679 98.4941 258.938 98.3758 260.432 99.036C257.138 102.968 253.894 106.849 250.48 110.932C249.882 109.666 249.314 108.41 249.394 106.929C250.76 103.24 253.102 100.474 256.429 98.6324Z" fill="#AA519E"/>
<path opacity="0.9" fill-rule="evenodd" clip-rule="evenodd" d="M256.429 98.6324C254.088 101.398 251.746 104.163 249.404 106.929C248.881 104.972 248.348 103.006 247.825 101.049C247.865 99.4589 247.392 97.522 249.852 97.4958C252.063 97.7012 254.351 97.3661 256.429 98.6324Z" fill="#B0529E"/>
<path opacity="0.9" fill-rule="evenodd" clip-rule="evenodd" d="M249.842 97.4958C248.165 98.0269 248.477 99.8548 247.815 101.049C247.427 99.8018 247.039 98.5643 246.569 97.0373C247.857 96.7189 248.858 96.9123 249.842 97.4958Z" fill="#BC5DA2"/>
<path opacity="0.9" fill-rule="evenodd" clip-rule="evenodd" d="M286.719 93.9026C286.609 93.8334 286.508 93.754 286.407 93.6647C286.498 92.2741 287.121 91.1599 288.015 90.194C288.793 89.9189 289.821 89.5921 289.09 91.0469C288.547 92.1505 287.523 92.9673 286.719 93.9026Z" fill="#1AAAD2"/>
<path opacity="0.9" fill-rule="evenodd" clip-rule="evenodd" d="M288.015 90.204C287.743 91.5058 287.191 92.6495 286.407 93.6647C285.817 92.1285 286.901 91.1113 287.363 89.8983C287.573 90.0069 287.794 90.1054 288.015 90.204Z" fill="#2D328A"/>
</g>
<g opacity="0.9">
<path opacity="0.9" fill-rule="evenodd" clip-rule="evenodd" d="M270.525 119.16C270.501 115.5 269.018 113.52 265.269 113.634C263.459 113.686 261.615 113.179 259.363 112.853C262.274 108.474 264.988 104.386 267.74 100.248C269.244 100.828 269.355 102.397 270.111 103.432C270.446 104.18 270.376 105.721 271.768 104.411C273.839 103.128 274.476 105.594 275.671 106.336C277.759 107.652 279.562 109.5 281.472 111.128C281.845 111.605 281.959 112.194 281.582 112.597C278.761 115.516 275.688 118.086 272.1 119.89C271.512 120.183 270.83 119.968 270.525 119.16Z" fill="#42B54A"/>
<path opacity="0.9" fill-rule="evenodd" clip-rule="evenodd" d="M260.352 58.1157C264.895 60.0158 269.418 61.946 273.98 63.7859C275.815 64.5239 275.991 65.4527 274.559 66.6722C270.959 69.756 267.329 72.79 263.709 75.8439C261.3 72.9297 261.585 69.1378 260.493 65.7949C260.816 63.2427 257.939 60.6516 260.352 58.1157Z" fill="#ED4488"/>
<path opacity="0.9" fill-rule="evenodd" clip-rule="evenodd" d="M334.396 169.17C338.658 171.022 342.931 172.874 347.193 174.726C347.081 175.996 346.116 176.623 345.401 177.438C345.132 177.679 344.834 177.881 344.505 178.034C343.846 178.278 343.147 178.392 342.468 178.547C341.12 178.806 340.026 179.683 338.769 180.131C337.64 180.419 336.866 181.304 335.94 181.93C335.392 182.234 334.773 182.398 334.205 182.641C333.497 182.966 332.971 183.59 332.273 183.924C331.635 184.128 331.014 184.043 330.412 183.727C330.126 181.258 329.839 178.79 329.553 176.322C330.776 173.654 331.093 170.262 334.396 169.17Z" fill="#4B4199"/>
<path opacity="0.9" fill-rule="evenodd" clip-rule="evenodd" d="M356.634 139.943C357.152 141.109 357.279 142.299 356.958 143.521C356.662 144.203 356.116 144.856 355.473 144.38C352.569 142.26 353.637 144.893 353.578 145.153C353.662 144.252 354.306 143.278 355.719 145.249C356.597 146.473 356.548 148.163 357.038 149.61L357.068 149.66C356.252 150.305 357.126 150.9 357.17 151.519C357.629 152.786 358.319 154.392 357.305 155.239C356.41 155.985 355.26 154.582 354.277 154.059C351.828 152.755 349.449 151.31 347.04 149.926C346.861 148.637 345.965 147.743 345.338 146.697C344.852 145.811 345.026 144.919 345.231 144.028C345.579 143.816 345.938 143.593 346.286 143.381C348.093 141.379 350.496 140.273 352.687 138.889C354.121 137.969 355.68 137.889 356.634 139.943Z" fill="#9E1F63"/>
<path opacity="0.9" fill-rule="evenodd" clip-rule="evenodd" d="M261.182 65.6804C262.474 68.9619 263.067 72.4081 263.709 75.8539C263.292 76.1967 262.864 76.5495 262.436 76.8923C261.344 76.6195 260.527 75.4249 259.064 76.5546C257.77 77.5531 255.91 77.4354 254.46 76.0349C253.506 72.3811 253.212 68.6529 252.907 64.9249C255.916 63.265 259.088 63.5541 261.182 65.6804Z" fill="#C2559F"/>
<path opacity="0.9" fill-rule="evenodd" clip-rule="evenodd" d="M341.146 131.215C340.126 134.271 339.106 137.328 337.9 140.916C334.221 136.59 331.393 132.329 328.602 127.527C332.136 126.674 335.555 126.541 338.995 126.489C340.603 127.648 340.416 129.649 341.146 131.215Z" fill="#6D4F9F"/>
<path opacity="0.9" fill-rule="evenodd" clip-rule="evenodd" d="M235.918 45.3365C234.552 44.5055 233.177 43.6845 231.139 42.4479C235.227 40.7109 238.382 38.4501 242.126 37.4354C244.278 37.7512 245.678 39.282 247.029 40.8932C247.382 41.4109 247.646 41.9791 247.84 42.5779C248.768 46.8918 248.768 46.8618 244.923 46.0872C241.949 45.4868 238.885 46.497 235.918 45.3365Z" fill="#E04D9A"/>
<path opacity="0.9" fill-rule="evenodd" clip-rule="evenodd" d="M261.182 65.6804C258.475 64.6282 255.705 64.5565 252.917 64.9149C252.346 61.6986 251.775 58.4823 251.193 55.266C253.213 53.6527 255.588 54.457 257.808 54.4824C258.949 54.4949 259.595 55.4506 259.433 56.7617C258.97 57.7748 260.109 57.6073 260.342 58.1058C259.34 60.7524 262.125 63.0541 261.182 65.6804Z" fill="#CA549E"/>
<path opacity="0.9" fill-rule="evenodd" clip-rule="evenodd" d="M340.056 73.5106C340.046 72.0006 340.226 70.5494 341.204 68.7529C345.636 73.5538 349.907 78.1958 354.53 83.2054C352.893 83.6162 351.768 84.4336 350.316 84.1732C347.847 84.2995 346.24 83.2001 344.924 80.8287C343.517 78.2779 340.199 77.0397 340.056 73.5106Z" fill="#9E1F63"/>
<path opacity="0.9" fill-rule="evenodd" clip-rule="evenodd" d="M292.473 115.725C292.063 112.738 291.664 109.75 291.096 105.624C295.136 108.587 298.56 110.665 301.468 113.376C303.903 115.64 300.639 116.621 299.929 118.176C296.975 119.106 294.588 117.931 292.473 115.725Z" fill="#ED3087"/>
<path opacity="0.9" fill-rule="evenodd" clip-rule="evenodd" d="M340.056 73.5106C343.181 77.3701 345.939 81.632 350.316 84.1732C347.773 85.28 345.138 86.0374 342.37 86.3156C341.856 84.179 340.01 83.2011 338.72 81.7396C338.341 78.822 339.373 76.1952 340.056 73.5106Z" fill="#9E1F63"/>
<path opacity="0.9" fill-rule="evenodd" clip-rule="evenodd" d="M248.15 53.266C245.89 51.7809 243.63 50.2958 241.361 48.8107C242.864 46.2807 245.328 46.8545 247.598 46.9195C248.979 46.9604 250.504 47.7704 251.352 45.9047C251.481 45.7639 251.61 45.643 251.729 45.5023C252.048 45.3001 252.387 45.2179 252.757 45.2555C254.754 46.2223 256.166 48.0731 258.064 49.2006C258.365 49.4286 258.637 49.6868 258.879 49.9852C259.111 50.2937 259.303 50.6224 259.465 50.9814C259.811 51.8891 260.038 52.8276 260.164 53.7968C260.177 54.1968 260.079 54.5574 259.861 54.8788C259.532 55.091 259.203 55.1132 258.851 54.8955C255.665 50.9864 251.884 52.3314 248.15 53.266Z" fill="#D64F9C"/>
<path opacity="0.9" fill-rule="evenodd" clip-rule="evenodd" d="M284.214 75.0387C281.691 77.5454 279.545 79.6896 276.882 82.3372C275.927 78.4734 275.095 75.0788 274.17 71.3449C277.686 72.2417 280.783 73.3113 284.214 75.0387Z" fill="#EE498A"/>
<path opacity="0.9" fill-rule="evenodd" clip-rule="evenodd" d="M288.424 53.6506C286.458 54.3035 284.533 55.1062 282.526 55.5695C281.078 55.909 279.399 57.5501 278.261 56.3576C277.063 55.1055 277.689 52.9913 278.348 51.3169C281.308 49.8074 284.121 47.1988 287.711 50.1552C288.587 51.1994 288.715 52.3886 288.424 53.6506Z" fill="#9E1F63"/>
<path opacity="0.9" fill-rule="evenodd" clip-rule="evenodd" d="M300.616 61.5603L300.814 61.269L301.154 61.2268C301.748 60.3929 302.656 59.9969 303.472 59.4915C305.309 63.4694 310.402 63.9659 311.931 68.2759C312.04 69.6452 312.978 70.9491 312.318 72.3734C309.039 72.6051 307.358 69.4661 304.76 68.2332C304.297 67.8262 303.894 67.3588 303.511 66.8713C303.118 66.3939 302.755 65.8863 302.351 65.409C301.494 64.2646 300.138 63.3435 300.616 61.5603Z" fill="#225E31"/>
<path opacity="0.9" fill-rule="evenodd" clip-rule="evenodd" d="M311.93 68.2659C310.265 67.3969 309.313 65.6131 307.497 64.7751C305.602 63.9075 303.683 62.5502 303.974 59.7682C304.235 58.2864 305.704 58.2267 306.539 57.4212C309.348 57.2827 310.284 59.7066 311.626 61.5878C312.111 63.8146 312.146 66.0444 311.93 68.2659Z" fill="#166635"/>
<path opacity="0.9" fill-rule="evenodd" clip-rule="evenodd" d="M251.862 45.9514C251.976 48.1007 251.023 49.157 249.077 48.2398C246.288 46.9381 243.876 48.0841 241.371 48.8106C239.553 47.6526 237.735 46.4845 235.918 45.3265C239.807 45.2508 243.726 43.6149 247.572 45.9996C248.065 44.8664 246.609 43.9459 247.282 42.8715C249.441 42.8273 250.049 45.4233 251.862 45.9514Z" fill="#DB4E9B"/>
<path opacity="0.9" fill-rule="evenodd" clip-rule="evenodd" d="M300.616 61.5603C301.524 62.7144 302.441 63.8784 303.349 65.0324C301.955 68.9517 301.494 73.3648 298.233 76.3064C297.993 76.228 297.872 76.0587 297.88 75.7887C296.754 74.9661 296.296 73.6391 295.568 72.5139C295.179 71.2064 295.369 69.6851 296.336 69.1687C299.007 67.7311 298.679 64.9832 299.273 62.6092C299.721 62.2763 300.168 61.9233 300.616 61.5603Z" fill="#EF5256"/>
<path opacity="0.9" fill-rule="evenodd" clip-rule="evenodd" d="M330.392 183.737C330.962 183.653 331.541 183.579 332.111 183.495C333.788 183.094 335.011 183.616 335.224 185.575C335.49 188.013 336.197 190.509 334.822 192.798C334.179 193.792 333.515 194.766 331.888 195.217C331.392 191.34 330.887 187.533 330.392 183.737Z" fill="#107D9C"/>
<path opacity="0.9" fill-rule="evenodd" clip-rule="evenodd" d="M334.832 192.808C334.707 190.558 334.432 188.3 334.488 186.06C334.535 184.149 333.194 184.048 332.121 183.495C332.657 182.972 333.184 182.448 333.71 181.925C335.024 182.526 336.455 182.587 337.817 182.978C340.345 184.191 340.459 186.22 339.684 188.556C338.376 190.364 336.715 191.735 334.832 192.808Z" fill="#0A82A3"/>
<path opacity="0.9" fill-rule="evenodd" clip-rule="evenodd" d="M333.587 149.615C332.014 150.645 330.441 151.676 328.798 152.746C327.968 151.222 327.988 149.792 328.199 148.33C328.13 147.051 328.602 145.788 328.253 144.49C328.231 144.1 328.298 143.74 328.456 143.399C329.468 142.182 329.825 140.229 331.804 140.076C333.251 141.147 333.691 142.554 333.433 144.356C333.204 146.087 333.166 147.858 333.587 149.615Z" fill="#A968AA"/>
<path opacity="0.9" fill-rule="evenodd" clip-rule="evenodd" d="M254.47 76.0349C256.35 75.9025 258.274 76.6198 260.065 75.208C261.717 73.9071 261.593 76.3879 262.446 76.9023C260.29 78.9766 258.133 81.0408 255.58 83.5077C254.711 80.7234 254.356 78.4157 254.47 76.0349Z" fill="#BC5CA2"/>
<path opacity="0.9" fill-rule="evenodd" clip-rule="evenodd" d="M248.15 53.266C249.834 52.2949 251.507 51.3239 253.181 50.3528C254.695 49.4728 255.276 51.149 256.14 51.7633C257.326 52.6055 258.244 53.8695 259.282 54.9527C259.983 55.188 260.227 55.7065 260.121 56.4372C259.933 56.6384 259.703 56.7499 259.434 56.7717C256.995 53.9577 253.889 56.1683 251.194 55.276C250.189 54.6026 249.165 53.9394 248.15 53.266Z" fill="#D2509C"/>
<path opacity="0.9" fill-rule="evenodd" clip-rule="evenodd" d="M258.763 50.656C258.441 50.3481 258.129 50.0302 257.807 49.7223C256.343 47.6419 256.137 45.1232 255.431 42.7678C255.339 42.3884 255.286 42.0087 255.254 41.6189C255.25 41.019 255.376 40.4581 255.673 39.9561C256.06 39.5036 256.508 39.2306 257.129 39.4365C258.179 42.3797 261.965 43.3847 262.089 46.984C261.974 49.2048 260.912 50.4718 258.763 50.656Z" fill="#A8C93E"/>
<path opacity="0.9" fill-rule="evenodd" clip-rule="evenodd" d="M323.993 149.078C323.234 146.113 324.773 139.873 326.925 137.228C327.667 137.414 328.408 137.589 329.149 137.774C329.834 140.039 328.567 142.018 328.461 144.169C328.424 144.659 328.186 144.83 327.735 144.673C325.689 145.397 325.767 148.116 323.993 149.078Z" fill="#B96EAC"/>
<path opacity="0.9" fill-rule="evenodd" clip-rule="evenodd" d="M330.047 114.757C325.878 111.825 325.878 111.815 328.885 108.395C330.067 107.047 331.308 105.749 332.748 104.179C333.373 106.525 333.046 108.458 332.859 110.389C332.32 112.132 332.033 114.064 330.047 114.757Z" fill="#86C345"/>
<path opacity="0.9" fill-rule="evenodd" clip-rule="evenodd" d="M344.212 177.605C344.401 177.444 344.58 177.273 344.759 177.092C345.753 176.175 346.747 175.269 348.135 175.049C348.903 174.784 349.317 175.312 349.731 175.859C351.061 177.46 349.419 178.711 349.399 180.151C347.899 181.701 346.54 183.43 344.547 184.363C342.152 182.159 342.847 179.894 344.212 177.605Z" fill="#1596B6"/>
<path opacity="0.9" fill-rule="evenodd" clip-rule="evenodd" d="M255.994 40.174C255.907 40.5946 255.83 41.0251 255.742 41.4457C253.19 41.1025 250.572 41.3898 248.105 40.286C247.332 39.9511 247.327 40.5811 247.23 41.0918C247.032 41.4231 246.763 41.5249 246.412 41.3972C244.983 40.0766 243.554 38.746 242.126 37.4254C243.2 36.5583 244.264 35.6612 245.765 35.7313C248.776 37.4215 252.555 35.8266 255.333 38.5083C255.786 38.9753 256.01 39.5239 255.994 40.174Z" fill="#7C55A2"/>
<path opacity="0.9" fill-rule="evenodd" clip-rule="evenodd" d="M304.258 66.4364C304.681 66.8436 305.114 67.2608 305.536 67.668C305.811 68.4262 306.785 68.9598 306.252 69.9733C304.148 72.5173 303.249 75.7132 302.079 78.761C301.608 79.9842 301.127 81.3974 300.032 79.0845C299.474 74.8781 301.811 71.3826 302.365 67.4489C302.47 66.7382 303.327 66.1725 304.258 66.4364Z" fill="#F37B65"/>
<path opacity="0.9" fill-rule="evenodd" clip-rule="evenodd" d="M264.809 48.4961C266.986 49.5118 267.254 52.2901 269.492 53.4653C267.879 54.576 266.503 55.1251 264.953 55.1653C263.531 54.9047 262.336 54.1325 261.161 53.2903C260.709 52.9732 260.296 52.6059 259.993 52.1179C259.819 51.5291 259.976 51.028 260.333 50.5857C261.605 49.3972 263.578 49.7843 264.809 48.4961Z" fill="#F498AB"/>
<path opacity="0.9" fill-rule="evenodd" clip-rule="evenodd" d="M344.212 177.605C344.327 179.855 343.372 182.141 344.547 184.363C343.475 185.59 342.503 186.927 340.978 187.597C340.679 184.729 339.421 181.957 340.001 179.003C340.828 178.558 341.462 177.694 342.543 177.826C343.093 177.753 343.652 177.679 344.212 177.605Z" fill="#068CAE"/>
<path opacity="0.9" fill-rule="evenodd" clip-rule="evenodd" d="M339.876 179.684C341.652 182.152 341.809 184.811 340.978 187.597C340.55 187.92 340.112 188.243 339.684 188.566C339.132 186.669 339.476 184.347 337.329 183.181C336.497 182.966 335.686 182.742 335.588 181.622C336.615 181.196 336.411 178.997 338.195 179.655C338.758 180.061 339.312 179.148 339.876 179.684Z" fill="#0585A7"/>
<path opacity="0.9" fill-rule="evenodd" clip-rule="evenodd" d="M334.396 169.17C332.45 171.313 332.002 174.596 329.533 176.332C328.817 173.917 328.531 171.439 328.505 168.939C329.574 167.362 330.991 168.372 332.292 168.494C333.003 168.719 333.695 168.945 334.396 169.17Z" fill="#52459B"/>
<path opacity="0.9" fill-rule="evenodd" clip-rule="evenodd" d="M332.595 140.121C335.473 141.432 338.352 142.753 341.702 144.281C339.741 145.564 338.347 146.473 336.953 147.383C333.585 146.205 333.593 142.835 332.595 140.121Z" fill="#6F4F9F"/>
<path opacity="0.9" fill-rule="evenodd" clip-rule="evenodd" d="M278.462 47.3561C280.699 48.3614 282.711 47.2881 284.788 46.7944C285.297 48.091 285.782 47.4178 286.268 46.8146C286.905 46.3604 287.534 46.1262 288.149 46.9122C288.659 48.3389 288.827 49.6878 287.514 50.7265C285.106 49.5223 282.812 48.8374 280.839 51.4405C280.145 52.3551 279.171 51.8415 278.348 51.3169C278.389 49.9966 278.431 48.6763 278.462 47.3561Z" fill="#9E1F63"/>
<path opacity="0.9" fill-rule="evenodd" clip-rule="evenodd" d="M304.258 66.4364C301.606 69.1339 302.714 73.3567 300.864 76.399C300.399 77.1621 300.296 78.1828 300.032 79.0845C299.435 78.1584 298.829 77.2424 298.233 76.3163C299.938 72.555 300.61 68.2505 303.349 65.0424C303.652 65.5004 303.955 65.9684 304.258 66.4364Z" fill="#F0635A"/>
<path opacity="0.9" fill-rule="evenodd" clip-rule="evenodd" d="M332.595 140.121C334.051 142.542 335.507 144.962 336.963 147.383C335.837 148.12 334.712 148.867 333.587 149.605C332.994 149.079 331.35 150.06 331.895 147.826C332.499 145.362 333.471 142.666 331.565 140.148C331.582 139.728 331.791 139.587 332.172 139.734C332.392 139.773 332.533 139.902 332.595 140.121Z" fill="#9E60A6"/>
<path opacity="0.9" fill-rule="evenodd" clip-rule="evenodd" d="M306.119 99.8949C303.859 99.9998 301.59 100.105 299.101 100.221C299.903 97.5458 301.15 95.5675 302.467 93.6288C304.886 94.9629 306.19 97.0044 306.119 99.8949Z" fill="#ED488B"/>
<path opacity="0.9" fill-rule="evenodd" clip-rule="evenodd" d="M279.676 119.35C281.123 117.27 283.242 115.606 283.393 112.695C285.228 113.483 286.607 114.904 288.318 116.543C285.285 117.613 282.644 118.95 279.676 119.35Z" fill="#92C445"/>
<path opacity="0.9" fill-rule="evenodd" clip-rule="evenodd" d="M299.273 62.6292C301.062 67.0475 296.874 68.8352 295.775 71.9925C294.238 70.9526 293.388 69.4582 293.066 67.6202C294.679 66.6096 296.614 67.3568 298.549 66.6341C295.575 64.4536 297.128 63.4534 299.273 62.6292Z" fill="#EF545E"/>
<path opacity="0.9" fill-rule="evenodd" clip-rule="evenodd" d="M357.038 149.6C355.54 148.43 355.676 146.369 354.686 144.816C353.645 146.133 355.166 147.893 353.536 149.403C352.227 146.552 352.49 143.94 353.21 140.825C354.626 141.806 354.676 144.786 356.957 143.511C357.071 145.55 357.524 147.577 357.038 149.6Z" fill="#9E1F63"/>
<path opacity="0.9" fill-rule="evenodd" clip-rule="evenodd" d="M318.238 95.1149C317.456 93.38 317.194 91.5517 317.062 89.6625C318.27 89.4545 319.135 90.1588 320.058 90.6128C321.816 91.8012 323.236 93.3619 324.577 95.0231C324.185 96.2457 323.168 96.7424 322.202 97.2988C321.075 96.1762 319.779 95.3847 318.238 95.1149Z" fill="#A6D06A"/>
<path opacity="0.9" fill-rule="evenodd" clip-rule="evenodd" d="M338.72 81.7395C340.487 82.7779 343.686 82.5768 342.37 86.3156C337.057 87.3006 337.057 87.3006 338.72 81.7395Z" fill="#9E1F63"/>
<path opacity="0.9" fill-rule="evenodd" clip-rule="evenodd" d="M254.609 36.373C254.814 37.1717 255.779 37.8254 255.115 38.7998C252.145 37.2493 248.54 38.0531 245.775 35.7313C246.701 35.2351 247.628 34.739 248.565 34.2428C250.707 34.4987 253.014 34.1835 254.609 36.373Z" fill="#8155A2"/>
<path opacity="0.9" fill-rule="evenodd" clip-rule="evenodd" d="M287.524 50.7264C287.706 49.4952 287.888 48.2739 288.06 47.0428C288.307 46.6111 288.647 46.5289 289.068 46.7961C290.399 48.3874 292.545 49.3433 292.672 51.8525C291.256 52.4518 289.84 53.0512 288.424 53.6505C288.127 52.6825 287.821 51.7045 287.524 50.7264Z" fill="#9E1F63"/>
<path opacity="0.9" fill-rule="evenodd" clip-rule="evenodd" d="M324.577 95.0331C321.321 95.5546 321.598 92.0627 320.058 90.6228C321.44 90.9837 322.833 91.3045 324.205 91.6955C327.141 92.5361 326.888 93.6978 324.577 95.0331Z" fill="#6ABD51"/>
<path opacity="0.9" fill-rule="evenodd" clip-rule="evenodd" d="M307.23 57.5366C306.145 58.2838 305.059 59.0309 303.974 59.7781C303.028 60.2644 302.091 60.7406 301.144 61.2268C303.974 58.2681 307.583 56.4843 310.926 54.0022C311.835 55.3062 311.623 56.5776 311.452 57.8488C309.992 59.3385 308.658 57.2572 307.23 57.5366Z" fill="#0E753C"/>
<path opacity="0.9" fill-rule="evenodd" clip-rule="evenodd" d="M332.182 139.734C331.973 139.865 331.774 140.007 331.575 140.148C330.664 141.604 330.106 143.358 328.461 144.179C326.825 141.769 328.733 139.887 329.149 137.784C330.905 137.092 330.99 139.392 332.182 139.734Z" fill="#B26DAC"/>
<path opacity="0.9" fill-rule="evenodd" clip-rule="evenodd" d="M356.634 139.943C354.343 138.228 352.48 139.3 350.579 140.663C349.205 141.652 347.72 142.482 346.286 143.381C349.056 140.283 352.815 138.658 355.978 136.047C357.207 137.349 356.845 138.651 356.634 139.943Z" fill="#2F66B0"/>
<path opacity="0.9" fill-rule="evenodd" clip-rule="evenodd" d="M264.809 48.4961C265.013 52.1748 261.686 49.6267 260.606 51.0438C260.035 50.9076 259.53 51.6209 258.936 51.1148C258.835 50.9855 258.774 50.8259 258.753 50.656C259.865 49.4287 260.977 48.2013 262.079 46.974C263.594 46.234 264.014 47.7413 264.809 48.4961Z" fill="#EF512F"/>
<path opacity="0.9" fill-rule="evenodd" clip-rule="evenodd" d="M302.974 93.0455C303.304 91.6533 303.693 89.9607 305.119 92.2713C306.23 94.064 307.771 95.7039 307.917 98.013C307.101 97.1084 305.932 98.9161 305.173 97.5311C304.483 96.0056 303.056 94.875 302.974 93.0455Z" fill="#FBE692"/>
<path opacity="0.9" fill-rule="evenodd" clip-rule="evenodd" d="M254.609 36.3731C252.536 35.8668 250.335 35.8013 248.555 34.253C250.006 32.9334 251.935 32.7006 253.609 31.8996C254.399 33.2944 254.569 34.8133 254.609 36.3731Z" fill="#8A5BA4"/>
<path opacity="0.9" fill-rule="evenodd" clip-rule="evenodd" d="M330.047 114.757C331.098 113.38 330.813 111.042 332.859 110.389C334.094 112.711 333.029 115.058 333.506 117.625C331.822 116.926 330.736 116.093 330.047 114.757Z" fill="#7858A2"/>
<path opacity="0.9" fill-rule="evenodd" clip-rule="evenodd" d="M292.672 51.8625C291.142 50.3125 289.542 48.823 288.748 46.6682C288.755 46.2982 288.925 46.2071 289.236 46.355C291.621 47.2293 293.453 48.9873 295.364 50.7047C294.783 51.9586 293.6 51.5964 292.672 51.8625Z" fill="#9E1F63"/>
<path opacity="0.9" fill-rule="evenodd" clip-rule="evenodd" d="M318.238 95.1149C320.302 94.2913 322.13 93.9592 322.202 97.2988C321.428 98.1439 320.643 98.9991 319.68 100.055C318.36 98.4942 319.606 96.3659 318.238 95.1149Z" fill="#99CA45"/>
<path opacity="0.9" fill-rule="evenodd" clip-rule="evenodd" d="M341.146 131.215C339.499 130.086 339.277 128.277 338.995 126.489C340.244 126.33 341.493 126.172 343.062 125.972C342.665 128.035 342.166 129.728 341.146 131.215Z" fill="#386DB4"/>
<path opacity="0.9" fill-rule="evenodd" clip-rule="evenodd" d="M345.221 144.028C345.417 144.927 345.622 145.825 345.818 146.734C346.714 147.498 346.71 148.468 346.487 149.5C344.861 148.641 343.235 147.781 341.509 146.873C342.689 145.385 343.874 144.587 345.221 144.028Z" fill="#664A9D"/>
<path opacity="0.9" fill-rule="evenodd" clip-rule="evenodd" d="M261.446 52.5383C262.612 53.4207 263.787 54.2929 264.953 55.1753C263.418 55.8654 261.852 56.4558 260.131 56.4371C259.848 55.9389 259.575 55.4507 259.292 54.9526C259.481 54.8113 259.68 54.66 259.869 54.5088C260.374 53.8354 260.357 52.6955 261.446 52.5383Z" fill="#EE5089"/>
<path opacity="0.9" fill-rule="evenodd" clip-rule="evenodd" d="M307.23 57.5367C308.691 56.207 310.043 57.9581 311.452 57.8489C311.84 59.0963 311.918 60.3458 311.627 61.6078C309.394 61.1725 308.679 58.9071 307.23 57.5367Z" fill="#1A703B"/>
<path opacity="0.9" fill-rule="evenodd" clip-rule="evenodd" d="M306.262 69.9733C306.027 69.2048 305.781 68.4364 305.546 67.668C307.797 69.2532 309.622 71.5212 312.318 72.3634C312.392 73.063 312.418 74.0128 311.485 73.5289C309.629 72.5612 307.485 72.0153 306.262 69.9733Z" fill="#9FC03C"/>
<path opacity="0.9" fill-rule="evenodd" clip-rule="evenodd" d="M349.399 180.151C347.768 178.512 349.82 177.318 349.731 175.859C350.751 175.962 352.283 176.142 352.359 177.062C352.511 178.941 350.624 179.333 349.399 180.151Z" fill="#13A4C0"/>
<path opacity="0.9" fill-rule="evenodd" clip-rule="evenodd" d="M293.066 67.6102C293.965 69.0743 294.865 70.5284 295.775 71.9924C296.483 73.2578 297.181 74.5332 297.89 75.8086C295.555 73.5439 293.877 70.7949 292.517 67.8138C292.497 67.774 292.606 67.6232 292.686 67.6127C292.795 67.562 292.936 67.6011 293.066 67.6102Z" fill="#EF5164"/>
<path opacity="0.9" fill-rule="evenodd" clip-rule="evenodd" d="M306.077 98.0651C306.244 97.584 306.41 97.1029 306.577 96.6218C307.02 97.0889 307.473 97.5559 307.917 98.023C308.14 98.6115 308.696 99.3979 308.518 99.729C308.212 100.301 307.45 100.056 306.868 99.7199C306.205 99.3643 305.872 98.8465 306.077 98.0651Z" fill="#DDE57C"/>
<path opacity="0.9" fill-rule="evenodd" clip-rule="evenodd" d="M332.302 168.494C331.043 168.642 329.773 168.79 328.514 168.939C328.727 166.367 328.777 166.357 332.302 168.494Z" fill="#9066AA"/>
<path opacity="0.9" fill-rule="evenodd" clip-rule="evenodd" d="M306.077 98.0651C306.34 98.6134 306.604 99.1617 306.868 99.7099C306.649 99.8814 306.399 99.933 306.119 99.8949C304.905 97.8028 303.681 95.7208 302.467 93.6288C302.576 93.3781 302.745 93.187 302.964 93.0455C304.005 94.7187 305.046 96.3919 306.077 98.0651Z" fill="#EE4852"/>
<path opacity="0.9" fill-rule="evenodd" clip-rule="evenodd" d="M289.246 46.345C289.086 46.446 288.917 46.5571 288.758 46.6582C288.528 46.7897 288.299 46.9112 288.07 47.0427C287.418 46.697 286.788 46.6912 286.191 47.1251C285.93 47.0768 285.809 46.9576 285.808 46.7876C285.817 46.6376 285.857 46.5373 285.926 46.4868C286.613 46.0023 287.421 45.607 287.353 44.5174C288.404 44.6205 288.82 45.4977 289.246 46.345Z" fill="#9E1F63"/>
<path opacity="0.9" fill-rule="evenodd" clip-rule="evenodd" d="M357.17 151.509C356.625 150.793 355.041 151.644 355.142 150.273C355.215 149.282 356.389 149.785 357.078 149.65C357.352 150.268 357.546 150.877 357.17 151.509Z" fill="#9E1F63"/>
<path opacity="0.9" fill-rule="evenodd" clip-rule="evenodd" d="M346.487 149.5C346.261 148.581 346.045 147.663 345.819 146.734C347.791 147.181 347.56 148.493 347.03 149.926C346.779 149.878 346.598 149.739 346.487 149.5Z" fill="#3C479C"/>
<path opacity="0.9" fill-rule="evenodd" clip-rule="evenodd" d="M327.735 144.693C327.974 144.522 328.222 144.35 328.461 144.189C329.281 145.663 328.89 147.016 328.209 148.34C328.051 147.121 327.893 145.902 327.735 144.693Z" fill="#B26DAC"/>
<path opacity="0.9" fill-rule="evenodd" clip-rule="evenodd" d="M348.135 175.05C347.01 175.727 345.884 176.404 344.759 177.082C345.029 175.69 346.328 175.441 347.193 174.726C347.504 174.834 347.825 174.942 348.135 175.05Z" fill="#2F3884"/>
<path opacity="0.9" fill-rule="evenodd" clip-rule="evenodd" d="M271.768 104.421C272.003 105.12 271.84 106.231 271.369 106.084C270.317 105.751 270.009 104.603 270.112 103.442C270.664 103.769 270.939 104.627 271.768 104.421Z" fill="#A8D6A7"/>
<path opacity="0.9" fill-rule="evenodd" clip-rule="evenodd" d="M335.588 181.612C336.172 182.129 336.745 182.655 337.328 183.171C335.725 184.152 334.63 183.349 333.71 181.915C334.339 181.821 334.959 181.717 335.588 181.612Z" fill="#01779F"/>
<path opacity="0.9" fill-rule="evenodd" clip-rule="evenodd" d="M339.876 179.684C339.317 179.838 338.758 180.131 338.185 179.645C339.601 178.966 340.62 177.269 342.533 177.827C341.647 178.452 340.762 179.068 339.876 179.684Z" fill="#243E82"/>
<path opacity="0.9" fill-rule="evenodd" clip-rule="evenodd" d="M350.913 144.301C350.393 144.294 350.003 144.407 349.712 144.268C349.271 144.051 349.368 143.601 349.697 143.399C349.976 143.237 350.395 143.184 350.706 143.272C350.836 143.311 350.83 143.861 350.913 144.301Z" fill="#2F66B0"/>
<path opacity="0.9" fill-rule="evenodd" clip-rule="evenodd" d="M246.412 41.3972C246.641 41.2957 246.871 41.2042 247.1 41.1027C249.375 41.9177 251.611 42.763 251.881 45.8313C251.881 45.8313 251.862 45.9414 251.862 45.9514C251.249 45.5354 250.76 48.6287 250.082 45.9831C249.672 44.3858 247.602 44.5094 247.272 42.8716C246.988 42.3834 246.705 41.8953 246.412 41.3972Z" fill="#D64F9C"/>
<path opacity="0.9" fill-rule="evenodd" clip-rule="evenodd" d="M255.977 42.1542C256.823 44.6186 257.829 47.0521 257.807 49.7223C255.543 49.1172 254.091 47.3567 252.59 45.6566C251.373 44.5446 250.623 43.0595 251.865 41.8513C252.998 40.7438 254.666 40.5328 255.977 42.1542Z" fill="#7251A1"/>
<path opacity="0.9" fill-rule="evenodd" clip-rule="evenodd" d="M255.977 42.1541C253.485 41.8605 250.731 41.2787 252.59 45.6465C252.35 45.6981 252.121 45.7596 251.891 45.8411C250.301 44.2616 248.7 42.6821 247.11 41.1126C246.685 40.2854 246.259 39.4581 245.834 38.6309C248.812 41.3613 252.954 38.684 255.753 41.4556C255.874 41.6648 255.956 41.9043 255.977 42.1541Z" fill="#7553A1"/>
<path opacity="0.9" fill-rule="evenodd" clip-rule="evenodd" d="M261.446 52.5383C260.719 53.0131 261.481 54.8181 259.869 54.5088C259.757 54.2795 259.646 54.0502 259.524 53.821C259.66 53.1701 259.374 52.242 260.433 52.185C260.774 52.2928 261.105 52.4106 261.446 52.5383Z" fill="#EE487C"/>
<path opacity="0.9" fill-rule="evenodd" clip-rule="evenodd" d="M260.433 52.175C260.127 52.717 259.82 53.2691 259.524 53.811C259.328 52.9123 259.132 52.0136 258.946 51.1048C259.506 51.0811 260.056 51.0574 260.616 51.0338C260.548 51.4142 260.491 51.7946 260.433 52.175Z" fill="#EE4A88"/>
<path opacity="0.9" fill-rule="evenodd" clip-rule="evenodd" d="M285.916 46.4969C285.958 46.7266 286.049 46.936 286.181 47.1252C286.354 47.7141 286.989 48.4799 285.85 48.6274C285.221 48.7115 284.56 48.5259 283.909 48.4702C284.206 47.9082 284.502 47.3463 284.808 46.7842C285.168 46.6919 285.537 46.5994 285.916 46.4969Z" fill="#9E1F63"/>
</g>
</g>
<g opacity="0.3">
<g opacity="0.3">
<path opacity="0.3" fill-rule="evenodd" clip-rule="evenodd" d="M11.0112 190.732C12.7533 191.051 14.4955 191.369 17.0886 191.832C13.2094 194.998 10.5113 198.336 6.7767 200.68C4.34972 201.146 2.35316 200.16 0.385956 199.073C-0.156604 198.686 -0.61965 198.229 -1.02307 197.712C-3.37873 193.827 -3.36845 193.867 1.0275 193.238C4.44439 192.756 7.44068 190.666 11.0112 190.732Z" fill="#E04D9A"/>
</g>
</g>
<g opacity="0.3">
<g opacity="0.3">
<path opacity="0.3" fill-rule="evenodd" clip-rule="evenodd" d="M211.936 17.844C212.076 17.8731 212.206 17.9122 212.347 17.9613C212.686 19.3591 212.355 20.6613 211.703 21.9256C210.946 22.4706 209.941 23.1573 210.27 21.4751C210.512 20.2134 211.364 19.0478 211.936 17.844Z" fill="#1AAAD2"/>
<path opacity="0.3" fill-rule="evenodd" clip-rule="evenodd" d="M211.693 21.9257C211.574 20.5564 211.815 19.2448 212.347 17.9613C213.465 19.2439 212.624 20.6295 212.503 21.9803C212.233 21.9621 211.963 21.9439 211.693 21.9257Z" fill="#2D328A"/>
</g>
<g opacity="0.3">
<path opacity="0.3" fill-rule="evenodd" clip-rule="evenodd" d="M176.334 187.562C176.392 187.292 176.55 187.011 176.499 186.761C175.267 180.449 175.267 180.449 182.526 181.831C180.611 184.014 178.814 186.056 177.028 188.098C176.796 187.929 176.565 187.751 176.334 187.562Z" fill="#AED039"/>
<path opacity="0.3" fill-rule="evenodd" clip-rule="evenodd" d="M156.028 0.102173C152.481 2.2056 148.82 3.56975 145.119 4.85418Z" fill="#6D4F9F"/>
<path opacity="0.3" fill-rule="evenodd" clip-rule="evenodd" d="M160.653 56.9529C161.132 58.4198 161.402 59.9081 160.906 62.0114C154.605 58.9128 148.516 55.9229 141.944 52.6962C143.588 51.6953 144.54 50.509 146.198 50.2381C148.831 49.2307 150.915 49.717 153.077 51.5628C155.42 53.5474 159.39 53.5512 160.653 56.9529Z" fill="#9E1F63"/>
<path opacity="0.3" fill-rule="evenodd" clip-rule="evenodd" d="M181.888 72.8232C182.04 73.1222 182.192 73.4112 182.334 73.7103C181.915 76.9131 179.161 77.8413 176.608 78.9682C173.597 78.738 170.585 78.5079 166.923 78.222C169.454 75.3353 171.419 73.0923 173.395 70.8492C175.256 69.5869 176.676 71.0075 178.259 71.4871C179.292 71.9003 180.324 72.2835 181.396 72.5965C181.557 72.6754 181.727 72.7443 181.888 72.8232Z" fill="#63C2A5"/>
<path opacity="0.3" fill-rule="evenodd" clip-rule="evenodd" d="M160.653 56.9529C156.055 54.3032 151.734 51.1416 146.198 50.238C148.595 48.2422 151.214 46.5549 154.116 45.2857C155.348 47.1877 157.65 47.4725 159.506 48.4403C160.834 51.1516 160.554 54.0735 160.653 56.9529Z" fill="#9E1F63"/>
<path opacity="0.3" fill-rule="evenodd" clip-rule="evenodd" d="M210.784 116.214C207.836 119.573 205.444 122.299 202.606 125.528C201.181 121.807 199.909 118.485 198.342 114.406C202.827 115.056 206.54 115.602 210.784 116.214Z" fill="#6FBD46"/>
<path opacity="0.3" fill-rule="evenodd" clip-rule="evenodd" d="M218.74 124.581C220.654 126.829 221.866 128.631 223.456 130.051C227.138 133.336 224.661 133.833 221.493 134.114C219.014 134.33 216.57 135.216 213.746 134.685C215.364 131.394 216.914 128.274 218.74 124.581Z" fill="#5EBA57"/>
<path opacity="0.3" fill-rule="evenodd" clip-rule="evenodd" d="M220.582 35.3574C222.519 31.9945 224.171 29.1336 226.207 25.6001C228.46 29.0353 230.43 32.0324 232.602 35.3481C228.524 35.745 224.845 35.8193 220.582 35.3574Z" fill="#EE498A"/>
<path opacity="0.3" fill-rule="evenodd" clip-rule="evenodd" d="M185.143 108.583C182.864 110.138 180.279 111.005 177.614 111.702C174.806 108.981 170.448 109.369 167.344 107.25C167.047 106.142 166.84 105.043 167.844 104.107C168.06 103.535 168.526 102.992 169.097 103.108C174.734 104.181 180.874 104.061 185.143 108.583Z" fill="#C0D730"/>
<path opacity="0.3" fill-rule="evenodd" clip-rule="evenodd" d="M222.759 57.7435C224.67 56.4009 226.511 54.9187 228.533 53.7454C229.987 52.8958 231.293 50.6871 232.898 51.4366C234.593 52.2254 234.578 54.5156 234.39 56.3868C231.667 58.9349 229.45 62.4795 224.63 60.8913C223.365 60.1996 222.848 59.083 222.759 57.7435Z" fill="#9E1F63"/>
<path opacity="0.3" fill-rule="evenodd" clip-rule="evenodd" d="M150.824 84.5383C150.279 74.7117 150.279 74.7117 160.591 73.4037C157.296 77.1555 154.219 80.6658 150.824 84.5383Z" fill="#7FCFD9"/>
<path opacity="0.3" fill-rule="evenodd" clip-rule="evenodd" d="M247.671 91.26C244.361 91.2918 241.051 91.3736 237.751 91.3054C237.021 91.2902 237.096 90.5597 237.382 89.9778C237.826 89.0748 238.039 88.0134 238.684 87.2691C239.955 85.8207 239.711 82.2523 242.136 82.9763C244.661 83.7197 246.349 86.4786 247.586 89.0005C247.778 89.3792 248.02 89.6977 247.543 90.0408C247.585 90.4505 247.628 90.8603 247.671 91.26Z" fill="#55B84A"/>
<path opacity="0.3" fill-rule="evenodd" clip-rule="evenodd" d="M207.077 54.4168L206.959 54.7776L206.6 54.95C206.227 55.9824 205.372 56.6881 204.647 57.4829C201.406 54.2542 195.734 55.6116 192.73 51.9513C192.182 50.6549 190.755 49.7143 191.025 48.0925C194.506 46.6895 197.312 49.1511 200.504 49.4201C201.135 49.6559 201.717 49.952 202.28 50.2983C202.862 50.6245 203.404 50.991 203.996 51.3071C205.282 52.0986 207.034 52.507 207.077 54.4168Z" fill="#225E31"/>
<path opacity="0.3" fill-rule="evenodd" clip-rule="evenodd" d="M192.73 51.9414C194.802 52.1977 196.401 53.5872 198.622 53.7525C200.943 53.9172 203.448 54.5508 204.006 57.3672C204.187 58.916 202.63 59.4863 201.977 60.5706C198.985 61.7104 197.201 59.682 195.162 58.3354C193.939 56.3535 193.205 54.1983 192.73 51.9414Z" fill="#166635"/>
<path opacity="0.3" fill-rule="evenodd" clip-rule="evenodd" d="M235.516 60.3095C235.707 61.9782 235.988 63.6364 236.039 65.3061C236.078 66.6259 237.43 68.457 235.845 69.1475C234.598 69.6957 232.723 68.8981 231.525 67.7459C230.011 67.0859 228.771 65.654 226.795 66.2571L226.815 66.2569C225.199 65.2476 226.453 64.4193 227.048 63.5453C227.554 63.072 228.152 62.7081 228.679 62.2646C230.699 60.7912 232.525 58.6391 235.516 60.3095Z" fill="#9E1F63"/>
<path opacity="0.3" fill-rule="evenodd" clip-rule="evenodd" d="M185.143 108.583C179.824 105.628 173.858 104.797 167.844 104.107C167.566 103.008 167.89 101.996 168.333 100.993C170.438 98.7393 172.526 99.8356 174.613 100.932C176.108 101.722 176.939 103.437 178.89 103.584C181.448 104.737 183.807 106.141 185.661 108.199C185.701 108.239 185.643 108.439 185.583 108.48C185.443 108.551 185.283 108.552 185.143 108.583Z" fill="#CBDB2F"/>
<path opacity="0.3" fill-rule="evenodd" clip-rule="evenodd" d="M207.077 54.4168C205.732 53.6156 204.376 52.8145 203.031 52.0134C203.302 47.6815 202.423 43.2072 205.016 39.17C205.296 39.1582 205.477 39.287 205.559 39.5465C207.032 39.9468 207.949 41.0707 209.095 41.9132C209.922 43.0478 210.202 44.596 209.328 45.4517C206.893 47.8078 208.1 50.3799 208.207 52.9093C207.83 53.4018 207.454 53.9043 207.077 54.4168Z" fill="#EF5256"/>
<path opacity="0.3" fill-rule="evenodd" clip-rule="evenodd" d="M143.181 114.359C146.64 115.777 150.089 117.184 153.749 118.68C152.141 120.52 150.722 122.14 149.084 124.001C146.814 120.896 144.685 117.979 142.555 115.063C142.774 114.822 142.972 114.591 143.181 114.359Z" fill="#9E1F63"/>
<path opacity="0.3" fill-rule="evenodd" clip-rule="evenodd" d="M266.447 43.6252C264.937 45.1752 263.427 46.7251 261.918 48.2851C260.557 49.6841 259.397 48.2618 258.276 47.9791C256.723 47.5794 255.327 46.6785 253.872 45.9981C253.043 46.0136 252.61 45.5964 252.495 44.8472C252.633 44.5863 252.852 44.3948 253.131 44.273C256.653 46.1398 259.322 42.8621 262.521 42.771C263.833 43.0524 265.135 43.3438 266.447 43.6252Z" fill="#D2509C"/>
<path opacity="0.3" fill-rule="evenodd" clip-rule="evenodd" d="M255.799 49.9956C256.24 50.1827 256.681 50.3697 257.123 50.5668C259.363 52.0721 260.378 54.4555 261.882 56.4956C262.104 56.8341 262.286 57.1829 262.429 57.552C262.623 58.1307 262.657 58.7205 262.5 59.3216C262.224 59.9034 261.817 60.3261 261.087 60.3509C259.031 57.8544 254.613 58.2435 253.35 54.7718C252.776 52.5655 253.525 50.9406 255.799 49.9956Z" fill="#A8C93E"/>
<path opacity="0.3" fill-rule="evenodd" clip-rule="evenodd" d="M158.493 13.0962C163.923 14.4604 163.933 14.4604 161.762 18.8848C160.903 20.6305 159.974 22.3366 158.908 24.3937C157.494 22.333 157.241 20.3246 156.838 18.3772C156.866 16.467 156.573 14.4889 158.493 13.0962Z" fill="#86C345"/>
<path opacity="0.3" fill-rule="evenodd" clip-rule="evenodd" d="M262.09 59.2343C262.047 58.7845 262.004 58.3448 261.961 57.8951C264.827 57.3062 267.569 56.0981 270.581 56.2782C271.521 56.332 271.327 55.7133 271.273 55.1736C271.381 54.7829 271.639 54.5812 272.069 54.5884C274.025 55.3655 275.99 56.1426 277.955 56.9196C277.063 58.1455 276.201 59.4112 274.554 59.8821C270.771 59.317 267.17 62.2308 263.319 60.6162C262.687 60.3303 262.274 59.8631 262.09 59.2343Z" fill="#7C55A2"/>
<path opacity="0.3" fill-rule="evenodd" clip-rule="evenodd" d="M201.604 50.9729C201.012 50.7268 200.421 50.4806 199.829 50.2345C199.295 49.598 198.064 49.4262 198.336 48.2443C199.805 45.0146 199.772 41.5647 200.09 38.1626C200.211 36.8017 200.29 35.2412 202.213 37.1085C204.139 41.0159 202.716 45.2554 203.353 49.3013C203.448 50.0307 202.704 50.8856 201.604 50.9729Z" fill="#F37B65"/>
<path opacity="0.3" fill-rule="evenodd" clip-rule="evenodd" d="M167.334 107.26C170.46 106.639 177.21 109.565 177.604 111.712C177.117 112.206 176.6 112.659 175.799 112.454C172.599 112.555 169.526 112.076 166.657 110.714C166.569 109.515 166.681 108.344 167.334 107.26Z" fill="#B3D236"/>
<path opacity="0.3" fill-rule="evenodd" clip-rule="evenodd" d="M166.667 110.714C169.944 110.293 172.911 111.223 175.809 112.454C172.568 113.876 169.318 115.307 165.887 116.82C165.722 114.491 166.06 112.598 166.667 110.714Z" fill="#42B14C"/>
<path opacity="0.3" fill-rule="evenodd" clip-rule="evenodd" d="M215.909 98.7396C215.126 104.335 212.033 105.375 204.155 102.697C204.483 100.905 206.858 101.659 207.519 100.285C209.455 99.6722 211.689 100.247 213.45 98.9058C214.248 98.5705 215.057 98.3652 215.909 98.7396Z" fill="#5EBA47"/>
<path opacity="0.3" fill-rule="evenodd" clip-rule="evenodd" d="M249.937 54.2843C247.256 54.0819 246.098 51.4595 243.306 51.1179C244.705 49.4586 246.018 48.43 247.684 47.829C249.303 47.5683 250.845 47.8981 252.378 48.2981C252.969 48.4442 253.53 48.6505 254.012 49.0273C254.386 49.5448 254.369 50.0849 254.123 50.6466C253.114 52.2433 250.856 52.5882 249.937 54.2843Z" fill="#F498AB"/>
<path opacity="0.3" fill-rule="evenodd" clip-rule="evenodd" d="M193.607 95.4665C192.251 96.0155 190.894 96.5644 189.009 97.3269C189.869 94.2911 188.948 91.0271 191.256 89.2819C192.898 88.041 194.266 90.7321 195.723 91.7225C195.452 93.1843 194.359 94.2415 193.607 95.4665Z" fill="#9E1F63"/>
<path opacity="0.3" fill-rule="evenodd" clip-rule="evenodd" d="M224.882 87.0001C222.781 85.3139 220.392 83.8997 219.066 81.4884C219.475 81.3457 219.885 81.3129 220.315 81.3701C223.945 82.8562 227.76 83.5911 231.721 83.705C231.921 83.7637 232.121 83.8223 232.322 83.881C232.302 85.4612 231.712 86.8851 230.87 88.2407C228.186 90.6184 227.002 86.9262 224.882 87.0001Z" fill="#FBB33B"/>
<path opacity="0.3" fill-rule="evenodd" clip-rule="evenodd" d="M177.882 71.9996C176.409 71.5493 175.073 70.6181 173.395 70.8492C174.983 69.0387 176.581 67.2181 178.347 65.1964C180.104 67.6549 181.15 70.1681 181.888 72.8132L181.719 73.0144C180.368 72.9033 179.145 72.3913 177.882 71.9996Z" fill="#6ECCE2"/>
<path opacity="0.3" fill-rule="evenodd" clip-rule="evenodd" d="M235.516 60.3095C232.775 60.1375 230.937 61.8997 228.845 63.1335C227.888 62.0498 227.573 62.8819 227.228 63.6442C226.683 64.3178 226.076 64.7718 225.172 64.2177C224.174 63.0143 223.566 61.7483 224.656 60.271C227.638 60.5814 230.337 60.4236 231.656 57.1648C232.118 56.0118 233.329 56.1738 234.39 56.3868C234.769 57.7043 235.148 59.0019 235.516 60.3095Z" fill="#9E1F63"/>
<path opacity="0.3" fill-rule="evenodd" clip-rule="evenodd" d="M201.604 50.9728C203.62 47.3894 201.096 43.666 202.142 40.029C202.406 39.1173 202.189 38.0887 202.203 37.1186C203.137 37.8024 204.082 38.4862 205.016 39.1701C204.355 43.4545 204.984 47.8905 203.031 52.0134C202.559 51.6565 202.076 51.3197 201.604 50.9728Z" fill="#F0635A"/>
<path opacity="0.3" fill-rule="evenodd" clip-rule="evenodd" d="M189.063 18.9948C191.477 18.0789 193.891 17.1629 196.554 16.1553C196.524 19.0556 195.799 21.4304 194.985 23.7959C191.952 23.3458 189.902 21.8293 189.063 18.9948Z" fill="#ED488B"/>
<path opacity="0.3" fill-rule="evenodd" clip-rule="evenodd" d="M262.09 59.2343C262.552 59.5713 263.014 59.9182 263.477 60.2652C264.36 60.7493 265.084 61.3946 265.62 62.2311C266.458 63.5356 267.407 64.8093 267.278 66.4602C266.434 67.4158 265.6 68.3713 264.578 69.5381C262.548 66.5514 262.077 63.3745 261.107 60.3808C261.425 59.9887 261.752 59.6065 262.09 59.2343Z" fill="#A3C941"/>
<path opacity="0.3" fill-rule="evenodd" clip-rule="evenodd" d="M208.207 52.8893C204.883 49.2112 208.851 45.9649 209.048 42.4935C211.041 42.9504 212.429 44.1013 213.35 45.7953C211.92 47.3547 209.6 47.33 207.729 48.7224C211.626 49.7867 210.257 51.3158 208.207 52.8893Z" fill="#EF545E"/>
<path opacity="0.3" fill-rule="evenodd" clip-rule="evenodd" d="M176.608 78.9682C177.943 76.6594 180.777 75.8107 182.334 73.7104C182.956 75.6263 185.482 77.9597 183.881 79.3103C182.17 80.7416 179.071 79.442 176.608 78.9682Z" fill="#64C3AB"/>
<path opacity="0.3" fill-rule="evenodd" clip-rule="evenodd" d="M219.999 81.9522C219.688 81.7943 219.377 81.6463 219.066 81.4884C217.045 78.3316 221.041 80.8253 221.063 79.5851C222.615 79.8249 224.184 79.6546 225.754 79.6942C226.154 79.7116 226.544 79.769 226.935 79.8664C228.94 80.5832 231.279 80.4578 232.989 81.9366C233.234 82.715 232.828 83.3077 232.322 83.881L232.142 83.8922C227.817 84.6807 224.004 82.8058 219.999 81.9522Z" fill="#F89D3A"/>
<path opacity="0.3" fill-rule="evenodd" clip-rule="evenodd" d="M177.452 28.0115C178.841 29.4224 179.703 31.1167 180.434 32.9019C179.189 33.5402 178.036 33.1678 176.895 33.0553C174.622 32.5303 172.585 31.5137 170.618 30.3766C170.659 29.0463 171.593 28.1901 172.467 27.3044C174.062 27.9939 175.704 28.3031 177.452 28.0115Z" fill="#A6D06A"/>
<path opacity="0.3" fill-rule="evenodd" clip-rule="evenodd" d="M102.896 42.4633C102.147 41.1383 100.875 39.3466 102.149 38.3282C103.75 37.0576 106.067 38.0723 108.468 38.2965C107.839 39.9207 106.736 40.908 105.481 41.7863C104.684 42.2515 104.195 43.8148 102.896 42.4633Z" fill="#4780C1"/>
<path opacity="0.3" fill-rule="evenodd" clip-rule="evenodd" d="M159.506 48.4403C157.264 48.0551 153.873 49.4074 154.116 45.2857C159.567 42.4097 159.567 42.4098 159.506 48.4403Z" fill="#9E1F63"/>
<path opacity="0.3" fill-rule="evenodd" clip-rule="evenodd" d="M264.791 62.4465C264.316 61.7396 263.064 61.4479 263.477 60.2651C267.18 60.7107 270.826 58.6267 274.554 59.8921C273.71 60.7077 272.855 61.5234 272.011 62.3489C269.594 62.8649 267.191 64.0007 264.791 62.4465Z" fill="#8155A2"/>
<path opacity="0.3" fill-rule="evenodd" clip-rule="evenodd" d="M202.553 81.1872C205.43 80.7482 208.318 80.3192 211.944 79.7653C210.528 81.8446 209.577 83.251 208.626 84.6473C205.628 84.997 203.452 84.0813 202.553 81.1872Z" fill="#64489C"/>
<path opacity="0.3" fill-rule="evenodd" clip-rule="evenodd" d="M224.656 60.281C224.844 61.5398 225.043 62.8086 225.231 64.0673C225.104 64.5782 224.766 64.7804 224.215 64.664C222.278 63.5868 219.647 63.4341 218.721 61.0202C220.064 59.9313 221.416 58.8324 222.749 57.7436C223.395 58.5893 224.03 59.4351 224.656 60.281Z" fill="#9E1F63"/>
<path opacity="0.3" fill-rule="evenodd" clip-rule="evenodd" d="M202.553 81.1872C204.155 82.9867 206.519 83.6311 208.626 84.6473C207.883 85.7022 207.312 86.996 205.554 85.8775C203.606 84.6403 201.579 83.5237 199.531 82.3272C200.271 80.8223 201.453 81.1345 202.553 81.1872Z" fill="#B677B1"/>
<path opacity="0.3" fill-rule="evenodd" clip-rule="evenodd" d="M226.704 78.188C229.32 77.5307 231.925 76.8735 234.591 76.1959C235.01 77.5532 234.596 78.5359 233.873 79.4607C233.484 81.1333 232.276 81.4513 230.911 80.7803C229.366 80.0205 227.739 80.5212 226.187 80.2114C224.941 79.2396 225.627 78.6751 226.704 78.188Z" fill="#F48437"/>
<path opacity="0.3" fill-rule="evenodd" clip-rule="evenodd" d="M178.88 103.584C175.316 102.897 172.592 99.2851 168.323 100.993C168.195 99.7141 168.054 98.145 169.22 97.4773C170.615 96.6681 171.585 98.2217 172.59 98.9151C174.739 100.401 176.79 102.018 178.88 103.584Z" fill="#DAE03B"/>
<path opacity="0.3" fill-rule="evenodd" clip-rule="evenodd" d="M170.628 30.3765C173.987 28.6944 174.79 32.2092 176.905 33.0552C175.296 33.2058 173.688 33.3864 172.078 33.4971C168.63 33.7298 168.542 32.5003 170.628 30.3765Z" fill="#6ABD51"/>
<path opacity="0.3" fill-rule="evenodd" clip-rule="evenodd" d="M201.198 60.7257C202.141 59.6094 203.074 58.4833 204.006 57.3671C204.871 56.5514 205.746 55.7456 206.61 54.9399C204.486 58.844 201.136 61.8861 198.3 65.5049C196.904 64.5641 196.735 63.2452 196.526 61.9365C197.643 59.9591 199.744 61.5153 201.198 60.7257Z" fill="#0E753C"/>
<path opacity="0.3" fill-rule="evenodd" clip-rule="evenodd" d="M249.937 54.2843C248.564 50.7633 252.952 52.0544 253.681 50.2895C254.34 50.2152 254.664 49.343 255.456 49.6178C255.607 49.7068 255.728 49.836 255.799 49.9956C254.979 51.591 254.17 53.1864 253.35 54.7818C251.959 56.051 251.02 54.7272 249.937 54.2843Z" fill="#EF512F"/>
<path opacity="0.3" fill-rule="evenodd" clip-rule="evenodd" d="M194.62 24.5383C194.709 26.0177 194.811 27.8071 192.54 26.062C190.781 24.7136 188.594 23.668 187.699 21.4638C188.863 22.0562 189.559 19.8616 190.816 20.9533C192.054 22.1952 193.958 22.7826 194.62 24.5383Z" fill="#FBE692"/>
<path opacity="0.3" fill-rule="evenodd" clip-rule="evenodd" d="M264.791 62.4465C267.2 62.2006 269.595 61.4648 272.001 62.339C270.842 64.1466 268.838 65.0699 267.268 66.4503C265.97 65.3788 265.311 63.9431 264.791 62.4465Z" fill="#8A5BA4"/>
<path opacity="0.3" fill-rule="evenodd" clip-rule="evenodd" d="M158.493 13.0962C157.795 14.8108 158.839 17.004 156.828 18.3673C154.756 16.5509 155.168 13.8681 153.853 11.5367C155.904 11.6132 157.326 12.0339 158.493 13.0962Z" fill="#7858A2"/>
<path opacity="0.3" fill-rule="evenodd" clip-rule="evenodd" d="M218.731 61.0201C220.877 61.976 223.073 62.8615 224.615 64.6814C224.727 65.0407 224.568 65.1917 224.178 65.1643C221.318 65.1631 218.791 64.1098 216.175 63.127C216.415 61.6854 217.815 61.6162 218.731 61.0201Z" fill="#9E1F63"/>
<path opacity="0.3" fill-rule="evenodd" clip-rule="evenodd" d="M177.452 28.0116C175.482 29.5546 173.609 30.5369 172.477 27.3043C173.05 26.2005 173.623 25.0867 174.334 23.702C176.251 24.7594 175.577 27.2839 177.452 28.0116Z" fill="#99CA45"/>
<path opacity="0.3" fill-rule="evenodd" clip-rule="evenodd" d="M145.119 4.85416C143.813 5.46278 142.517 6.06134 140.882 6.82213Z" fill="#386DB4"/>
<path opacity="0.3" fill-rule="evenodd" clip-rule="evenodd" d="M215.909 98.7395C215.211 99.0241 214.523 99.3187 213.825 99.6133C212.258 100.104 210.978 100.012 210.546 98.1949C210.849 97.1728 212.02 97.3351 212.617 96.8312C216.197 93.7975 215.815 96.5901 215.909 98.7395Z" fill="#91C741"/>
<path opacity="0.3" fill-rule="evenodd" clip-rule="evenodd" d="M224.882 87.0001C227.177 86.215 228.683 88.5951 230.86 88.2408C231.018 89.4197 230.395 90.3839 229.723 91.6283C227.615 90.4722 226.174 88.8117 224.882 87.0001Z" fill="#FFCE4C"/>
<path opacity="0.3" fill-rule="evenodd" clip-rule="evenodd" d="M252.303 49.1286C250.76 48.6887 249.217 48.2589 247.674 47.8191C249.126 46.5995 250.629 45.4595 252.495 44.8472C252.957 45.2242 253.41 45.6112 253.872 45.9982C253.714 46.2092 253.545 46.4203 253.387 46.6414C253.052 47.4736 253.419 48.5812 252.303 49.1286Z" fill="#EE5089"/>
<path opacity="0.3" fill-rule="evenodd" clip-rule="evenodd" d="M201.198 60.7257C200.03 62.5534 198.022 61.3267 196.526 61.9365C195.709 60.8619 195.241 59.6649 195.162 58.3354C197.71 57.9586 199.193 59.9089 201.198 60.7257Z" fill="#1A703B"/>
<path opacity="0.3" fill-rule="evenodd" clip-rule="evenodd" d="M198.336 48.2443C198.83 48.9111 199.335 49.5778 199.829 50.2345C196.904 49.4938 194.204 47.9416 191.025 48.0925C190.721 47.4445 190.395 46.5167 191.565 46.6589C193.867 46.9238 196.366 46.6873 198.336 48.2443Z" fill="#9FC03C"/>
<path opacity="0.3" fill-rule="evenodd" clip-rule="evenodd" d="M226.187 80.2214C227.864 79.7203 229.433 78.08 231.267 80.1279C232.113 81.0724 233.107 80.1258 233.873 79.4707C233.999 80.4199 233.594 81.2126 232.989 81.9366C230.637 81.6421 228.138 81.8286 226.187 80.2214Z" fill="#F6913A"/>
<path opacity="0.3" fill-rule="evenodd" clip-rule="evenodd" d="M193.607 95.4665C192.965 93.5607 194.82 92.8684 195.713 91.7125C196.476 92.3075 197.24 92.9025 198.065 93.537C196.662 94.6963 195.206 95.2259 193.607 95.4665Z" fill="#9E1F63"/>
<path opacity="0.3" fill-rule="evenodd" clip-rule="evenodd" d="M226.704 78.1879C226.268 78.8108 225.852 79.4336 226.177 80.2114C224.322 80.9737 222.583 81.0151 221.073 79.5851C222.766 78.4439 224.714 78.231 226.704 78.1879Z" fill="#F6913A"/>
<path opacity="0.3" fill-rule="evenodd" clip-rule="evenodd" d="M210.536 98.195C211.451 99.0389 212.593 99.4014 213.825 99.6033C211.929 101.746 209.703 100.871 207.519 100.285C207.909 98.7923 209.923 99.399 210.536 98.195Z" fill="#7AC049"/>
<path opacity="0.3" fill-rule="evenodd" clip-rule="evenodd" d="M213.35 45.7953C211.913 44.6947 210.486 43.5941 209.048 42.4935C207.882 41.5112 206.725 40.5188 205.559 39.5365C208.798 40.9152 211.482 42.9775 213.888 45.4117C213.918 45.4415 213.849 45.632 213.779 45.6725C213.65 45.7433 213.49 45.7544 213.35 45.7953Z" fill="#EF5164"/>
<path opacity="0.3" fill-rule="evenodd" clip-rule="evenodd" d="M189.685 20.7607C189.658 21.2909 189.632 21.8211 189.605 22.3513C188.973 22.0555 188.341 21.7596 187.709 21.4638C187.286 20.9766 186.432 20.4022 186.52 20.0116C186.665 19.3506 187.575 19.3146 188.306 19.4298C189.127 19.5344 189.659 19.9209 189.685 20.7607Z" fill="#DDE57C"/>
<path opacity="0.3" fill-rule="evenodd" clip-rule="evenodd" d="M189.685 20.7607C189.222 20.3238 188.769 19.8768 188.306 19.4398C188.494 19.1986 188.743 19.0469 189.053 18.9949C191.024 20.5919 193.004 22.1889 194.975 23.7959C194.937 24.0762 194.818 24.327 194.62 24.5383C192.981 23.2791 191.333 22.0199 189.685 20.7607Z" fill="#EE4852"/>
<path opacity="0.3" fill-rule="evenodd" clip-rule="evenodd" d="M226.795 66.2571C229.322 64.1504 230.237 66.4544 231.525 67.746C229.785 67.6974 228.231 67.1276 226.795 66.2571Z" fill="#9E1F63"/>
<path opacity="0.3" fill-rule="evenodd" clip-rule="evenodd" d="M224.178 65.1743C224.317 65.0134 224.466 64.8524 224.615 64.6914C224.824 64.48 225.032 64.2786 225.241 64.0673C226.062 64.1718 226.74 63.9474 227.256 63.304C227.556 63.262 227.726 63.3209 227.767 63.4906C227.808 63.6403 227.799 63.7504 227.739 63.8208C227.154 64.5446 226.398 65.2096 226.825 66.2568C225.627 66.5547 224.903 65.8495 224.178 65.1743Z" fill="#9E1F63"/>
<path opacity="0.3" fill-rule="evenodd" clip-rule="evenodd" d="M102.896 42.4633C103.764 42.2376 104.623 42.0219 105.491 41.7962C105.059 42.9091 104.597 44.1521 103.167 44.1616C102.627 44.1651 102.67 43.1048 102.896 42.4633Z" fill="#5BBA61"/>
<path opacity="0.3" fill-rule="evenodd" clip-rule="evenodd" d="M272.059 54.5885C271.841 54.7699 271.632 54.9413 271.413 55.1227C268.703 55.1406 266.003 55.1284 264.744 52.2266L264.723 52.1068C265.524 52.2815 265.073 49.0944 266.639 51.4341C267.588 52.8479 269.782 51.9734 270.662 53.4577C271.134 53.8346 271.597 54.2115 272.059 54.5885Z" fill="#D64F9C"/>
<path opacity="0.3" fill-rule="evenodd" clip-rule="evenodd" d="M177.882 71.9996C179.282 71.9504 180.633 72.0715 181.719 73.0144C180.104 73.745 178.939 73.0427 177.882 71.9996Z" fill="#64C3AB"/>
<path opacity="0.3" fill-rule="evenodd" clip-rule="evenodd" d="M261.487 57.2882C259.793 55.1893 257.95 53.1814 257.133 50.5668C259.771 50.3394 261.899 51.5354 264.057 52.6612C265.721 53.3102 267.009 54.4817 266.039 56.1182C265.149 57.6041 263.414 58.4055 261.487 57.2882Z" fill="#7251A1"/>
<path opacity="0.3" fill-rule="evenodd" clip-rule="evenodd" d="M261.487 57.2882C264.273 56.6798 267.44 56.249 264.057 52.6612C264.296 52.5296 264.535 52.378 264.754 52.2166C266.97 53.182 269.196 54.1473 271.423 55.1127C272.147 55.7679 272.862 56.4232 273.586 57.0784C269.505 55.4853 265.872 59.5893 261.971 57.895C261.75 57.7265 261.589 57.5275 261.487 57.2882Z" fill="#7553A1"/>
<path opacity="0.3" fill-rule="evenodd" clip-rule="evenodd" d="M252.303 49.1286C252.938 48.3944 251.548 46.9135 253.387 46.6414C253.578 46.8301 253.779 47.0088 253.98 47.1875C254.035 47.8771 254.65 48.6731 253.503 49.1106C253.103 49.1133 252.703 49.1259 252.303 49.1286Z" fill="#EE487C"/>
<path opacity="0.3" fill-rule="evenodd" clip-rule="evenodd" d="M253.503 49.1107C253.659 48.4696 253.814 47.8286 253.98 47.1875C254.476 47.9942 254.971 48.801 255.456 49.6178C254.858 49.8418 254.269 50.0656 253.671 50.2896C253.618 49.8999 253.565 49.5002 253.503 49.1107Z" fill="#EE4A88"/>
<path opacity="0.3" fill-rule="evenodd" clip-rule="evenodd" d="M227.729 63.8209C227.618 63.6116 227.457 63.4327 227.246 63.3041C226.883 62.7964 225.949 62.2726 227.135 61.7148C227.793 61.4104 228.573 61.3453 229.292 61.1705C229.146 61.8215 229.001 62.4825 228.855 63.1334C228.476 63.3659 228.108 63.5984 227.729 63.8209Z" fill="#9E1F63"/>
<path opacity="0.3" fill-rule="evenodd" clip-rule="evenodd" d="M219.999 81.9522C224.043 82.5956 228.097 83.2488 232.142 83.8922C227.643 85.5819 223.801 83.8472 219.999 81.9522Z" fill="#F9A53E"/>
</g>
</g>
</g>
<defs>
<clipPath id="clip0_385_12160">
<rect width="374" height="213" fill="white"/>
</clipPath>
</defs>
</svg>
