<svg width="317" height="180" viewBox="0 0 317 180" fill="none" xmlns="http://www.w3.org/2000/svg">
<g clip-path="url(#clip0_385_12157)">
<path fill-rule="evenodd" clip-rule="evenodd" d="M37.1975 82.8274C34.6655 82.5241 32.1434 82.2107 29.1409 81.8505C31.6346 77.854 33.97 74.1085 36.7308 69.6802C38.3082 73.8199 40.1404 77.1879 40.8559 81.0532C40.0716 81.9184 39.0637 82.2351 37.9543 82.3324C37.6851 82.4542 37.4361 82.6158 37.1975 82.8274Z" fill="#5D3B96"/>
<path fill-rule="evenodd" clip-rule="evenodd" d="M14.1859 58.3886C15.0928 59.4327 15.9798 60.4868 16.3912 62.2242C11.1069 61.589 5.9026 60.9533 0.418105 60.2894C1.06965 59.0051 1.73142 57.7507 2.98619 56.9524C6.85997 55.9969 10.5932 56.4723 14.1859 58.3886Z" fill="#AA519E"/>
<path fill-rule="evenodd" clip-rule="evenodd" d="M14.1859 58.3886C10.4526 57.9132 6.71934 57.4278 2.99613 56.9523C4.25542 55.324 5.51472 53.6956 6.78408 52.0772C8.10818 51.1785 9.37788 49.6101 10.9524 51.7997C12.1862 53.9017 13.8986 55.7704 14.1859 58.3886Z" fill="#B0529E"/>
<path fill-rule="evenodd" clip-rule="evenodd" d="M10.9523 51.7898C9.45431 50.5896 8.16323 51.9481 6.78398 52.0672C7.54685 50.9822 8.31977 49.9071 9.25104 48.5809C10.3175 49.5539 10.8042 50.5607 10.9523 51.7898Z" fill="#BC5DA2"/>
<path fill-rule="evenodd" clip-rule="evenodd" d="M37.1975 82.8275C37.1866 82.6875 37.1856 82.5475 37.1948 82.4175C38.39 81.6796 39.6794 81.5911 41.0309 81.8222C41.7445 82.3575 42.6593 83.0914 41.0106 83.2923C39.7816 83.4404 38.4787 82.999 37.1975 82.8275Z" fill="#1AAAD2"/>
<path fill-rule="evenodd" clip-rule="evenodd" d="M41.0308 81.8121C39.8043 82.3402 38.5254 82.5086 37.1947 82.4074C38.0752 80.9716 39.5777 81.3417 40.8558 81.0432C40.9175 81.3028 40.9792 81.5625 41.0308 81.8121Z" fill="#2D328A"/>
<path fill-rule="evenodd" clip-rule="evenodd" d="M203.751 64.6291C203.481 64.6508 203.181 64.5928 202.962 64.7143C197.472 67.7705 197.472 67.7805 196.744 60.5852C199.292 61.7084 201.679 62.7627 204.056 63.807C203.958 64.0877 203.859 64.3583 203.751 64.6291Z" fill="#AED039"/>
<path fill-rule="evenodd" clip-rule="evenodd" d="M6.40891 83.1404C9.37467 80.9708 10.0382 78.4664 7.57634 75.1625C6.38582 73.5704 5.64291 71.6152 4.46823 69.3929C9.86858 69.4273 14.9089 69.4641 20.0193 69.5004C20.5005 71.1972 19.2972 72.2152 18.9357 73.5076C18.5406 74.2502 17.2461 75.0888 19.1893 75.576C21.5366 76.6805 19.95 78.711 20.0899 80.2201C20.3474 82.8685 19.9752 85.571 19.873 88.2618C19.727 88.8827 19.31 89.3355 18.7492 89.2192C14.5938 88.4065 10.5554 87.1531 6.82109 84.9877C6.19873 84.6318 5.9538 83.8834 6.40891 83.1404Z" fill="#42B54A"/>
<path fill-rule="evenodd" clip-rule="evenodd" d="M49.6225 38.0545C50.9568 43.2558 52.2412 48.4575 53.6354 53.6484C54.1892 55.7348 53.5538 56.439 51.65 55.8716C46.8706 54.453 42.1007 52.9744 37.331 51.5158C38.1754 47.6302 41.4325 45.6587 43.473 42.7052C45.7451 41.4902 46.048 37.3881 49.6225 38.0545Z" fill="#ED4488"/>
<path fill-rule="evenodd" clip-rule="evenodd" d="M43.9968 43.2618C42.1471 46.354 39.714 48.9201 37.3211 51.5159C36.7699 51.3396 36.2187 51.1632 35.6675 50.9868C35.19 49.8499 35.6505 48.4069 33.8162 47.759C32.1823 47.1797 31.1109 45.4468 31.3269 43.3153C33.6871 40.3097 36.5409 37.8408 39.3847 35.382C42.6361 37.1006 44.4061 40.129 43.9968 43.2618Z" fill="#C2559F"/>
<path fill-rule="evenodd" clip-rule="evenodd" d="M44.5582 8.57725C44.3668 6.85847 44.1755 5.13969 43.8886 2.58153C47.8862 5.23523 51.7262 6.73995 54.9245 9.50893C56.0286 11.6317 55.6727 13.7841 55.217 15.9471C55.0111 16.5685 54.7148 17.1405 54.3583 17.6728C51.4305 21.0422 51.4604 21.032 49.6546 17.1138C48.2545 14.073 45.4902 11.9212 44.5582 8.57725Z" fill="#E04D9A"/>
<path fill-rule="evenodd" clip-rule="evenodd" d="M43.9968 43.2618C43.1367 40.2074 41.44 37.6785 39.3848 35.382C41.639 32.9771 43.8931 30.5622 46.1373 28.1573C48.7231 29.0203 49.5802 31.6247 50.9636 33.6456C51.6804 34.6809 51.308 35.8234 50.1321 36.4512C49.0132 36.6285 49.8693 37.5529 49.6127 38.0646C46.8369 38.703 46.7322 42.5537 43.9968 43.2618Z" fill="#CA549E"/>
<path fill-rule="evenodd" clip-rule="evenodd" d="M87.5455 118.766C88.7696 117.868 90.0651 117.18 92.1439 116.996C91.0388 123.803 89.9721 130.381 88.8189 137.478C87.4407 136.247 86.0772 135.716 85.3676 134.261C83.7034 132.112 83.5796 130.023 84.6727 127.445C85.8544 124.678 84.7599 120.965 87.5455 118.766Z" fill="#9E1F63"/>
<path fill-rule="evenodd" clip-rule="evenodd" d="M23.096 100.851C25.272 98.7264 27.4381 96.6021 30.4388 93.6622C30.5842 99.0314 31.0625 103.338 30.7003 107.551C30.4035 111.073 27.5379 108.712 25.8197 108.993C23.1957 106.88 22.637 104.044 23.096 100.851Z" fill="#ED3087"/>
<path fill-rule="evenodd" clip-rule="evenodd" d="M6.40894 83.1404C10.3907 86.4242 15.1955 87.1426 19.873 88.2618C20.379 89.1684 20.1747 90.0398 19.8204 90.9021C17.5338 94.4673 14.7614 92.5855 12.064 91.4733C9.96525 90.1571 7.79721 88.9414 5.77763 87.4946C3.1251 85.6021 2.91436 83.9735 6.40894 83.1404Z" fill="#73BE45"/>
<path fill-rule="evenodd" clip-rule="evenodd" d="M87.5455 118.766C86.379 123.854 84.6618 128.836 85.3676 134.261C82.8568 132.628 80.5741 130.703 78.5987 128.385C80.0074 126.666 79.6327 124.429 80.0094 122.416C82.1459 120.352 84.9219 119.734 87.5455 118.766Z" fill="#9E1F63"/>
<path fill-rule="evenodd" clip-rule="evenodd" d="M45.8514 24.2391C45.6222 21.3305 45.403 18.4219 45.1739 15.5234C48.1831 15.3835 49.2699 17.9364 50.6537 20.0173C51.492 21.2818 51.8043 23.1398 53.8521 22.7963C54.0423 22.825 54.2325 22.8638 54.4228 22.9026C54.7839 23.0702 55.0756 23.3283 55.268 23.687C55.7436 26.0539 55.1291 28.418 55.4147 30.7762C55.4274 31.1861 55.38 31.5764 55.3026 31.9769C55.2052 32.3676 55.0476 32.7287 54.8699 33.0898C54.3455 33.9333 53.7305 34.6974 53.025 35.372C52.7065 35.6141 52.3474 35.7465 51.9573 35.7391C51.5762 35.5716 51.3443 35.2831 51.3014 34.8434C52.4672 29.6456 48.97 27.0486 45.8514 24.2391Z" fill="#D64F9C"/>
<path fill-rule="evenodd" clip-rule="evenodd" d="M128.32 54.1261C132.242 55.8503 135.421 57.2593 139.192 58.9245C136.158 61.3746 133.443 63.5725 130.11 66.2645C129.461 61.8887 128.928 58.2622 128.32 54.1261Z" fill="#6FBD46"/>
<path fill-rule="evenodd" clip-rule="evenodd" d="M133.835 44.1795C135.379 41.7193 136.698 40.0406 137.565 38.1348C139.576 33.7115 140.73 35.8739 141.859 38.7365C142.744 40.9808 144.247 42.9909 144.546 45.779C141.062 45.2619 137.749 44.7638 133.835 44.1795Z" fill="#5EBA57"/>
<path fill-rule="evenodd" clip-rule="evenodd" d="M50.9597 69.4764C47.3244 68.6904 44.2199 68.0108 40.3844 67.1861C42.9238 64.0493 45.1557 61.3045 47.6058 58.2783C49.1101 61.9584 50.2026 65.3613 50.9597 69.4764Z" fill="#EE498A"/>
<path fill-rule="evenodd" clip-rule="evenodd" d="M128.403 80.3261C130.474 81.9725 131.988 84.1326 133.383 86.3935C131.646 89.835 133.222 93.7747 132.125 97.312C131.189 97.9282 130.232 98.4445 129.088 97.802C128.498 97.7759 127.876 97.5 127.812 96.9304C127.236 91.3441 125.408 85.676 128.403 80.3261Z" fill="#C0D730"/>
<path fill-rule="evenodd" clip-rule="evenodd" d="M71.0221 60.664C69.243 59.2857 67.3747 58.028 65.7246 56.4988C64.5373 55.3966 62.1336 54.8524 62.3823 53.1308C62.6404 51.319 64.7559 50.6351 66.5433 50.2333C69.645 52.0029 73.5417 52.9972 73.4144 57.9682C73.1136 59.3602 72.239 60.1759 71.0221 60.664Z" fill="#9E1F63"/>
<path fill-rule="evenodd" clip-rule="evenodd" d="M95.0328 27.3149C95.983 30.3887 96.9832 33.4422 97.8336 36.5367C98.0181 37.2155 97.3291 37.37 96.7085 37.2841C95.7475 37.1405 94.7084 37.2673 93.8458 36.883C92.1508 36.1341 88.9294 37.4454 88.9231 34.9754C88.9161 32.3954 90.9903 29.9917 92.9677 28.0786C93.2658 27.7866 93.4837 27.4652 93.9359 27.8022C94.3149 27.6397 94.6738 27.4773 95.0328 27.3149Z" fill="#55B84A"/>
<path fill-rule="evenodd" clip-rule="evenodd" d="M72.3051 76.2858L72.6651 76.2834L72.9169 76.5618C73.9773 76.6048 74.8611 77.189 75.794 77.6228C73.7203 81.6166 76.5425 86.4881 74.0082 90.4049C72.9641 91.3018 72.4948 92.9249 70.9164 93.1653C68.6578 90.3502 70.1456 86.9903 69.5055 83.9344C69.5511 83.2741 69.667 82.6433 69.8228 82.0123C69.9686 81.3713 70.1545 80.7501 70.2703 80.1093C70.6607 78.6567 70.5592 76.9073 72.3051 76.2858Z" fill="#225E31"/>
<path fill-rule="evenodd" clip-rule="evenodd" d="M74.0082 90.3949C73.6649 88.3871 74.5123 86.4715 74.0384 84.3646C73.5438 82.1478 73.4372 79.6284 75.8782 78.2523C77.254 77.6132 78.2225 78.8969 79.4043 79.1691C81.2904 81.6067 79.9154 83.8858 79.2406 86.2003C77.7521 87.9402 75.9609 89.282 74.0082 90.3949Z" fill="#166635"/>
<path fill-rule="evenodd" clip-rule="evenodd" d="M69.8386 48.0015C71.3241 47.3217 72.7791 46.5521 74.3055 46.002C75.5126 45.564 76.8207 43.7554 77.9092 45.0282C78.7557 46.0227 78.5488 48.0041 77.8185 49.4789C77.6291 51.0902 76.6495 52.6767 77.7605 54.3394L77.7604 54.3194C77.2723 56.1327 76.1662 55.2099 75.1944 54.9263C74.6222 54.6001 74.1192 54.1534 73.5569 53.7971C71.6272 52.3398 69.1303 51.2962 69.8386 48.0015Z" fill="#9E1F63"/>
<path fill-rule="evenodd" clip-rule="evenodd" d="M54.1452 23.2744C52.4642 24.6455 51.0127 24.4151 50.5175 22.1183C49.8159 18.8428 47.3561 17.359 45.1739 15.5234C44.9686 13.2047 44.7634 10.896 44.5581 8.57726C47.0809 12.0307 50.8879 14.5857 51.3799 19.4425C52.6184 19.2144 52.4362 17.3655 53.736 17.337C55.1487 19.2477 53.4223 21.3191 54.1452 23.2744Z" fill="#DB4E9B"/>
<path fill-rule="evenodd" clip-rule="evenodd" d="M72.3051 76.2858C71.945 77.7883 71.5748 79.2807 71.2047 80.7832C67.1316 81.8401 63.2458 84.0157 58.7979 82.825C58.7162 82.5656 58.7748 82.3552 58.9938 82.2037C58.954 80.7139 59.7361 79.5088 60.1874 78.1958C61.0101 77.0803 62.3653 76.3514 63.389 76.9146C66.2493 78.4658 68.2768 76.5624 70.5812 75.6972C71.1625 75.8934 71.7338 76.0896 72.3051 76.2858Z" fill="#EF5256"/>
<path fill-rule="evenodd" clip-rule="evenodd" d="M145.399 117.665C145.745 114.023 146.091 110.37 146.456 106.508C148.602 107.454 150.488 108.291 152.664 109.247C150.424 112.302 148.323 115.166 146.222 118.039C145.941 117.911 145.67 117.783 145.399 117.665Z" fill="#9E1F63"/>
<path fill-rule="evenodd" clip-rule="evenodd" d="M31.3269 43.3153C32.6275 44.9268 33.2617 47.0726 35.5469 47.8576C37.6517 48.5737 35.5605 49.9275 35.6775 50.9868C32.6327 50.2668 29.5879 49.5469 25.9623 48.7008C27.6665 46.2995 29.3154 44.6186 31.3269 43.3153Z" fill="#BC5CA2"/>
<path fill-rule="evenodd" clip-rule="evenodd" d="M45.8514 24.2391C47.7076 25.1769 49.5538 26.1148 51.4101 27.0525C53.0756 27.8916 52.0956 29.4081 52.133 30.5378C52.1933 32.0975 51.7537 33.6704 51.5241 35.242C51.7691 36.0104 51.5026 36.5321 50.8548 36.8664C50.5744 36.8183 50.3334 36.6698 50.142 36.4511C50.8866 32.6061 47.1267 31.1109 46.1473 28.1672C46.0486 26.8579 45.95 25.5485 45.8514 24.2391Z" fill="#D2509C"/>
<path fill-rule="evenodd" clip-rule="evenodd" d="M54.6843 32.231C54.7312 31.7607 54.7881 31.2903 54.845 30.82C55.6083 28.2749 57.5373 26.6021 58.9941 24.5925C59.242 24.2808 59.5202 24.009 59.8186 23.757C60.3062 23.4038 60.8348 23.1903 61.4346 23.1463C62.0451 23.2223 62.5568 23.4789 62.7812 24.1475C61.0488 26.8189 62.6352 30.8186 59.7798 33.0475C57.8979 34.2799 56.1964 34.0611 54.6843 32.231Z" fill="#A8C93E"/>
<path fill-rule="evenodd" clip-rule="evenodd" d="M61.4674 23.5761C61.0686 23.7488 60.6698 23.9314 60.2709 24.104C58.9345 21.6128 57.05 19.4252 56.3811 16.5595C56.1752 15.6708 55.6476 16.0343 55.169 16.2475C54.7791 16.2601 54.518 16.0918 54.4053 15.6925C54.5817 13.6313 54.7582 11.5701 54.9246 9.50893C56.3076 9.96982 57.7204 10.3905 58.5996 11.7748C59.134 15.4813 62.8203 17.9371 62.3972 22.02C62.3115 22.6805 61.995 23.2126 61.4674 23.5761Z" fill="#7C55A2"/>
<path fill-rule="evenodd" clip-rule="evenodd" d="M70.6455 82.4269C70.5797 83.0574 70.5238 83.6777 70.4579 84.2982C70.0224 84.9911 70.2003 86.1799 69.041 86.2976C65.6484 85.9099 62.4754 86.9809 59.2502 87.7222C57.9522 88.0207 56.5047 88.4203 57.6892 86.0624C60.7596 83.0821 65.07 83.1237 68.6281 81.3102C69.2661 80.996 70.269 81.4294 70.6455 82.4269Z" fill="#F37B65"/>
<path fill-rule="evenodd" clip-rule="evenodd" d="M132.125 97.312C130.687 94.5814 131.51 87.4158 133.383 86.3934C133.975 86.6995 134.527 87.0459 134.573 87.8556C135.562 90.8092 135.962 93.8166 135.512 96.8996C134.425 97.3468 133.307 97.5942 132.125 97.312Z" fill="#B3D236"/>
<path fill-rule="evenodd" clip-rule="evenodd" d="M135.502 96.8897C134.203 93.9682 134.233 90.9179 134.563 87.8457C136.78 90.4311 138.997 93.0266 141.345 95.7611C139.261 96.6249 137.402 96.8872 135.502 96.8897Z" fill="#42B14C"/>
<path fill-rule="evenodd" clip-rule="evenodd" d="M60.2719 36.4043C60.8288 38.9607 58.7311 40.8346 59.1889 43.5416C57.2636 42.7443 55.9476 41.8329 54.9285 40.4596C54.2391 39.0341 54.109 37.4949 54.0588 35.9552C54.0248 35.3554 54.061 34.7752 54.2773 34.2138C54.644 33.7113 55.153 33.558 55.7334 33.6141C57.5163 34.0524 58.4496 36.0563 60.2719 36.4043Z" fill="#F498AB"/>
<path fill-rule="evenodd" clip-rule="evenodd" d="M97.4312 49.8296C96.4575 52.2961 95.825 54.9503 93.9679 56.9226C93.7257 56.5842 93.5832 56.2051 93.5105 55.7956C93.8752 51.9631 93.4904 48.1956 92.4958 44.462C92.4944 44.262 92.4931 44.0521 92.4917 43.8521C93.9587 43.3924 95.4396 43.5126 96.922 43.8829C99.8538 45.6636 96.7784 47.8839 97.4312 49.8296Z" fill="#FBB33B"/>
<path fill-rule="evenodd" clip-rule="evenodd" d="M96.6599 98.1658C96.6498 99.6759 96.1699 101.199 96.8397 102.695C94.7235 101.759 92.6073 100.823 90.2504 99.7881C92.0248 97.4063 94.0634 95.6728 96.2936 94.1781L96.5242 94.2766C96.7927 95.5648 96.6613 96.8658 96.6599 98.1658Z" fill="#6ECCE2"/>
<path fill-rule="evenodd" clip-rule="evenodd" d="M69.8386 48.0015C70.4358 50.6076 72.5837 51.7835 74.3041 53.3621C73.5722 54.587 74.4224 54.6214 75.223 54.7061C75.995 55.011 76.5778 55.4372 76.3245 56.4489C75.483 57.7445 74.4892 58.691 72.8254 58.122C72.2765 55.2556 71.3803 52.7914 68.0186 52.5436C66.8279 52.4514 66.6402 51.2826 66.5432 50.2232C67.6484 49.4859 68.7435 48.7487 69.8386 48.0015Z" fill="#9E1F63"/>
<path fill-rule="evenodd" clip-rule="evenodd" d="M70.6456 82.4269C66.7702 81.6325 64.0431 85.1105 60.3939 85.2446C59.4741 85.2806 58.5874 85.7865 57.6893 86.0724C58.0622 84.9899 58.435 83.9075 58.7979 82.825C62.9335 82.1378 66.8609 80.2118 71.2047 80.7832C71.0183 81.3244 70.8319 81.8757 70.6456 82.4269Z" fill="#F0635A"/>
<path fill-rule="evenodd" clip-rule="evenodd" d="M44.6159 103.789C43.0928 101.819 41.5798 99.8489 39.9054 97.6699C42.5899 96.8222 44.9896 96.7763 47.39 96.8205C47.8395 99.7776 47.0051 102.153 44.6159 103.789Z" fill="#ED488B"/>
<path fill-rule="evenodd" clip-rule="evenodd" d="M61.4674 23.5762C61.6539 23.0449 61.8404 22.5037 62.0269 21.9724C62.2305 21.0011 62.6148 20.1285 63.2399 19.3844C64.2121 18.208 65.1238 16.9419 66.6813 16.5616C67.7946 17.0543 68.9179 17.5469 70.2718 18.148C68.0802 20.9425 65.2794 22.341 62.7813 24.1575C62.35 23.9603 61.9087 23.7733 61.4674 23.5762Z" fill="#A3C941"/>
<path fill-rule="evenodd" clip-rule="evenodd" d="M12.0539 91.4734C14.6645 91.5562 17.3506 92.4685 19.8103 90.9022C20.3343 93.0188 20.0479 95.0907 19.7944 97.5925C17.0205 95.4907 14.26 93.9089 12.0539 91.4734Z" fill="#92C445"/>
<path fill-rule="evenodd" clip-rule="evenodd" d="M70.5812 75.6972C68.1188 79.9035 64.0109 77.2005 60.7565 78.062C60.6234 76.0728 61.3026 74.4283 62.6035 73.0497C64.4392 73.9076 65.0636 76.0836 66.8723 77.4017C66.7663 73.4523 68.5616 74.2505 70.5812 75.6972Z" fill="#EF545E"/>
<path fill-rule="evenodd" clip-rule="evenodd" d="M94.1313 55.9115C94.0735 56.2519 94.0257 56.5823 93.9679 56.9227C91.6167 59.7682 92.8071 55.2803 91.6594 55.6278C91.4494 54.1092 90.85 52.6931 90.4503 51.2257C90.3578 50.8463 90.3053 50.4667 90.2828 50.0768C90.389 47.9861 89.6248 45.841 90.5114 43.8051C91.1684 43.3408 91.8297 43.5465 92.4816 43.8322L92.5427 43.9918C94.4878 47.799 93.805 51.9236 94.1313 55.9115Z" fill="#F89D3A"/>
<path fill-rule="evenodd" clip-rule="evenodd" d="M56.1594 111.873C57.0781 110.157 58.3994 108.838 59.8413 107.609C60.7778 108.583 60.7555 109.763 60.9728 110.861C61.1178 113.14 60.7523 115.343 60.2366 117.516C58.999 117.884 57.945 117.271 56.8813 116.718C57.1003 115.047 56.9196 113.418 56.1594 111.873Z" fill="#A6D06A"/>
<path fill-rule="evenodd" clip-rule="evenodd" d="M80.0093 122.406C80.2838 124.604 82.472 127.36 78.5986 128.375C74.4308 124.183 74.4309 124.183 80.0093 122.406Z" fill="#9E1F63"/>
<path fill-rule="evenodd" clip-rule="evenodd" d="M63.6745 20.0915C63.1589 20.7549 63.237 21.9944 62.0269 21.9724C61.4132 18.3864 58.4649 15.6157 58.6095 11.7647C59.6031 12.3082 60.5867 12.8517 61.5803 13.3952C62.7341 15.4876 64.4466 17.3764 63.6745 20.0915Z" fill="#8155A2"/>
<path fill-rule="evenodd" clip-rule="evenodd" d="M72.8355 58.132C73.9518 57.5746 75.0581 57.0073 76.1744 56.4499C76.6842 56.4166 76.9659 56.6747 77.0095 57.2144C76.5535 59.3475 77.1399 61.8337 75.1805 63.4367C73.7944 62.5158 72.4183 61.5948 71.0322 60.6739C71.6265 59.82 72.231 58.976 72.8355 58.132Z" fill="#9E1F63"/>
<path fill-rule="evenodd" clip-rule="evenodd" d="M88.7975 50.8066C87.4627 48.5653 86.128 46.3341 84.773 44.063C85.9078 43.2655 86.9283 43.3487 87.991 43.7417C89.6401 43.6009 90.2669 44.6368 90.0265 46.0984C89.7575 47.7702 90.6666 49.1342 90.8167 50.6733C90.2563 52.127 89.5432 51.6617 88.7975 50.8066Z" fill="#F48437"/>
<path fill-rule="evenodd" clip-rule="evenodd" d="M60.2466 117.516C57.7593 114.893 60.7774 113.083 60.9828 110.861C61.5724 112.317 62.1819 113.753 62.7316 115.22C63.9023 118.362 62.7852 118.81 60.2466 117.516Z" fill="#6ABD51"/>
<path fill-rule="evenodd" clip-rule="evenodd" d="M79.7688 79.8467C78.4752 79.3152 77.1817 78.7837 75.8881 78.2423C74.8944 77.6788 73.9107 77.1152 72.9269 76.5517C77.1223 77.3541 80.8569 79.5495 84.9871 81.0923C84.5075 82.6755 83.3312 83.2333 82.195 83.8208C80.0422 83.395 80.8962 80.9693 79.7688 79.8467Z" fill="#0E753C"/>
<path fill-rule="evenodd" clip-rule="evenodd" d="M60.2719 36.4043C57.4073 38.7532 57.3778 34.2733 55.5368 34.1255C55.2929 33.5371 54.3926 33.503 54.4272 32.6727C54.466 32.5025 54.5551 32.3519 54.6843 32.241C56.3862 32.5198 58.088 32.7886 59.7799 33.0675C61.3359 33.9772 60.3843 35.2535 60.2719 36.4043Z" fill="#EF512F"/>
<path fill-rule="evenodd" clip-rule="evenodd" d="M48.1907 96.9353C49.5373 96.4064 51.1531 95.7657 50.1705 98.4123C49.414 100.467 49.0595 102.81 47.2693 104.311C47.491 103.04 45.2811 103.065 45.9312 101.56C46.7411 100.035 46.7583 98.0847 48.1907 96.9353Z" fill="#FBE692"/>
<path fill-rule="evenodd" clip-rule="evenodd" d="M63.6745 20.0915C62.7802 17.9274 61.4369 15.9062 61.5704 13.4053C63.5539 13.9322 64.9744 15.5229 66.6814 16.5716C66.0514 18.0958 64.9183 19.1433 63.6745 20.0915Z" fill="#8A5BA4"/>
<path fill-rule="evenodd" clip-rule="evenodd" d="M75.1704 63.4266C75.4553 61.1347 75.66 58.8233 76.917 56.845C77.2256 56.6329 77.4063 56.7318 77.4887 57.1012C78.2863 59.766 78.0139 62.4379 77.8319 65.1692C76.4232 65.3784 75.9648 64.1014 75.1704 63.4266Z" fill="#9E1F63"/>
<path fill-rule="evenodd" clip-rule="evenodd" d="M56.1594 111.873C58.1285 113.24 59.558 114.691 56.8913 116.718C55.71 116.516 54.5287 116.324 53.057 116.074C53.5032 113.981 56.0124 113.844 56.1594 111.873Z" fill="#99CA45"/>
<path fill-rule="evenodd" clip-rule="evenodd" d="M54.8575 35.75C54.8879 37.3198 54.9082 38.8897 54.9386 40.4595C53.4021 39.4796 51.9351 38.4193 50.8548 36.8664C51.0813 36.3249 51.3077 35.7834 51.5241 35.2419C51.7647 35.3304 52.0053 35.4188 52.2458 35.4972C53.1262 35.5514 54.0417 34.8753 54.8575 35.75Z" fill="#EE5089"/>
<path fill-rule="evenodd" clip-rule="evenodd" d="M79.7687 79.8467C81.7723 80.3835 81.207 82.6173 82.1851 83.8308C81.4222 84.9159 80.4474 85.7124 79.2406 86.1903C78.1857 83.9372 79.5627 81.9681 79.7687 79.8467Z" fill="#1A703B"/>
<path fill-rule="evenodd" clip-rule="evenodd" d="M69.031 86.2976C69.5067 85.6345 69.9823 84.9613 70.4479 84.2982C70.5874 87.2474 69.897 90.232 70.9163 93.1553C70.3995 93.6387 69.6333 94.2138 69.4359 93.0951C69.0611 90.8575 68.1462 88.6035 69.031 86.2976Z" fill="#9FC03C"/>
<path fill-rule="evenodd" clip-rule="evenodd" d="M90.8166 50.6733C89.8873 49.2594 87.941 48.3022 89.3156 45.9731C89.9486 44.8989 88.8043 44.2564 87.9909 43.7417C88.8382 43.3362 89.6791 43.4706 90.5115 43.8251C90.8864 46.0927 91.7615 48.367 90.8166 50.6733Z" fill="#F6913A"/>
<path fill-rule="evenodd" clip-rule="evenodd" d="M88.7975 50.8066C89.4889 51.022 90.1803 51.2275 90.8167 50.6733C92.0365 52.1652 92.5572 53.7818 91.6594 55.6278C90.1312 54.3878 89.3896 52.6427 88.7975 50.8066Z" fill="#F6913A"/>
<path fill-rule="evenodd" clip-rule="evenodd" d="M62.6036 73.0498C61.9846 74.7239 61.3656 76.388 60.7566 78.0621C60.1657 79.446 59.5848 80.8298 58.9939 82.2037C59.3613 78.7712 60.5307 75.6435 62.1011 72.6731C62.1208 72.6329 62.311 72.6517 62.3713 72.7013C62.4718 72.7806 62.5328 72.9302 62.6036 73.0498Z" fill="#EF5164"/>
<path fill-rule="evenodd" clip-rule="evenodd" d="M46.0685 102.669C46.5676 102.536 47.0667 102.403 47.5658 102.26C47.4703 102.94 47.3747 103.611 47.2792 104.291C46.9428 104.844 46.6591 105.806 46.2694 105.838C45.6198 105.902 45.3242 105.064 45.2396 104.355C45.0943 103.556 45.3003 102.954 46.0685 102.669Z" fill="#DDE57C"/>
<path fill-rule="evenodd" clip-rule="evenodd" d="M46.0685 102.669C45.7922 103.231 45.5059 103.793 45.2296 104.355C44.9489 104.257 44.7477 104.068 44.6058 103.789C45.5305 101.463 46.4652 99.1367 47.3899 96.8206C47.6597 96.7788 47.9199 96.8071 48.1806 96.9254C47.4833 98.85 46.7759 100.765 46.0685 102.669Z" fill="#EE4852"/>
<path fill-rule="evenodd" clip-rule="evenodd" d="M77.7605 54.3294C75.1191 52.6068 76.989 51.0644 77.8185 49.4689C78.2593 51.1061 78.17 52.7267 77.7605 54.3294Z" fill="#9E1F63"/>
<path fill-rule="evenodd" clip-rule="evenodd" d="M77.4887 57.1012C77.2981 57.0125 77.1076 56.9337 76.917 56.845C76.6661 56.7066 76.4152 56.5783 76.1644 56.45C76.0292 55.6608 75.6354 55.0934 74.9035 54.8082C74.7817 54.539 74.7906 54.369 74.94 54.268C75.0694 54.1871 75.1692 54.1565 75.2495 54.1959C76.0817 54.5304 76.905 55.025 77.7503 54.3094C78.3571 55.3355 77.9029 56.2185 77.4887 57.1012Z" fill="#9E1F63"/>
<path fill-rule="evenodd" clip-rule="evenodd" d="M19.1893 75.576C18.7734 76.1988 17.7667 76.7054 17.5834 76.1966C17.1858 75.0492 17.9296 74.1043 18.9357 73.5076C19.0202 74.1971 18.4952 74.9606 19.1893 75.576Z" fill="#A8D6A7"/>
<path fill-rule="evenodd" clip-rule="evenodd" d="M54.4053 15.6925C54.6363 15.841 54.8572 15.9895 55.0782 16.1381C55.8549 18.663 56.5815 21.1783 54.2649 23.2236C54.2649 23.2236 54.1652 23.2742 54.1552 23.2743C54.1 22.4747 51.2791 23.8633 53.0048 21.6919C54.0462 20.385 52.6344 18.5942 53.7561 17.3368C53.9625 16.7854 54.1889 16.244 54.4053 15.6925Z" fill="#D64F9C"/>
<path fill-rule="evenodd" clip-rule="evenodd" d="M96.6599 98.1658C96.2314 96.8786 95.9628 95.5803 96.5342 94.2765C97.6427 95.5592 97.3213 96.8614 96.6599 98.1658Z" fill="#64C3AB"/>
<path fill-rule="evenodd" clip-rule="evenodd" d="M59.835 24.7269C58.3695 26.9366 57.0248 29.2656 54.845 30.82C53.8993 28.4362 54.4138 26.0827 54.8483 23.7298C54.9767 21.9789 55.7166 20.434 57.4893 20.8423C59.1018 21.2217 60.3309 22.5936 59.835 24.7269Z" fill="#7251A1"/>
<path fill-rule="evenodd" clip-rule="evenodd" d="M59.8349 24.7269C58.499 22.3157 57.2304 19.494 54.8482 23.7298C54.657 23.541 54.4559 23.3723 54.2448 23.2137C54.5192 20.8519 54.7937 18.49 55.0681 16.1282C55.4724 15.2555 55.8767 14.3928 56.291 13.52C55.9592 17.8023 60.7535 19.9508 60.2708 24.104C60.1725 24.3547 60.0238 24.5557 59.8349 24.7269Z" fill="#7553A1"/>
<path fill-rule="evenodd" clip-rule="evenodd" d="M54.8574 35.75C54.005 35.3856 53.0164 37.1221 52.2556 35.4871C52.3741 35.2463 52.4825 35.0156 52.601 34.7748C53.2192 34.5107 53.784 33.707 54.5101 34.6323C54.6226 35.0115 54.745 35.3807 54.8574 35.75Z" fill="#EE487C"/>
<path fill-rule="evenodd" clip-rule="evenodd" d="M54.5101 34.6323C53.8704 34.6765 53.2407 34.7306 52.601 34.7748C53.2064 34.0708 53.8217 33.3668 54.4271 32.6628C54.8003 33.1503 55.1736 33.6379 55.5368 34.1255C55.1979 34.2877 54.859 34.46 54.5101 34.6323Z" fill="#EE4A88"/>
<path fill-rule="evenodd" clip-rule="evenodd" d="M75.2496 54.1959C75.0907 54.367 74.972 54.5678 74.9036 54.8082C74.5368 55.3007 74.3136 56.3321 73.4674 55.3877C73.0039 54.8707 72.7293 54.1626 72.3652 53.545C73.0148 53.4807 73.6544 53.4164 74.304 53.3622C74.6259 53.64 74.9377 53.918 75.2496 54.1959Z" fill="#9E1F63"/>
<path fill-rule="evenodd" clip-rule="evenodd" d="M94.1313 55.9115C93.6051 51.9449 93.079 47.9782 92.5528 44.0116C95.3572 47.6932 94.8242 51.7968 94.1313 55.9115Z" fill="#F9A53E"/>
<g opacity="0.4">
<g opacity="0.4">
<path opacity="0.4" fill-rule="evenodd" clip-rule="evenodd" d="M175.216 110.968C172.684 110.665 170.162 110.351 167.159 109.991C169.653 105.995 171.988 102.249 174.749 97.8209C176.327 101.961 178.159 105.329 178.874 109.194C178.09 110.059 177.082 110.376 175.973 110.473C175.704 110.605 175.445 110.767 175.216 110.968Z" fill="#5D3B96"/>
<path opacity="0.4" fill-rule="evenodd" clip-rule="evenodd" d="M152.204 86.5293C153.111 87.5733 153.998 88.6275 154.41 90.3648C149.125 89.7297 143.921 89.0939 138.437 88.4301C139.088 87.1458 139.75 85.8914 141.005 85.0931C144.878 84.1376 148.602 84.623 152.204 86.5293Z" fill="#AA519E"/>
<path opacity="0.4" fill-rule="evenodd" clip-rule="evenodd" d="M152.204 86.5293C148.471 86.0539 144.738 85.5685 141.015 85.0931C142.274 83.4647 143.533 81.8364 144.803 80.218C146.127 79.3192 147.396 77.7508 148.971 79.9405C150.205 82.0524 151.917 83.9111 152.204 86.5293Z" fill="#B0529E"/>
<path opacity="0.4" fill-rule="evenodd" clip-rule="evenodd" d="M148.971 79.9405C147.473 78.7403 146.182 80.0988 144.803 80.2179C145.565 79.1329 146.338 78.0578 147.27 76.7316C148.336 77.6946 148.823 78.7014 148.971 79.9405Z" fill="#BC5DA2"/>
<path opacity="0.4" fill-rule="evenodd" clip-rule="evenodd" d="M175.216 110.968C175.205 110.828 175.204 110.688 175.213 110.558C176.408 109.82 177.698 109.732 179.049 109.963C179.763 110.498 180.678 111.232 179.029 111.433C177.8 111.581 176.497 111.14 175.216 110.968Z" fill="#1AAAD2"/>
<path opacity="0.4" fill-rule="evenodd" clip-rule="evenodd" d="M179.049 109.953C177.823 110.481 176.544 110.649 175.213 110.548C176.094 109.112 177.596 109.482 178.874 109.184C178.936 109.444 178.998 109.703 179.049 109.953Z" fill="#2D328A"/>
</g>
<g opacity="0.4">
<path opacity="0.4" fill-rule="evenodd" clip-rule="evenodd" d="M144.427 111.281C147.393 109.111 148.057 106.607 145.595 103.303C144.404 101.711 143.661 99.7559 142.487 97.5336C147.887 97.568 152.927 97.6048 158.038 97.6411C158.519 99.338 157.316 100.356 156.954 101.648C156.559 102.391 155.264 103.229 157.208 103.717C159.555 104.821 157.968 106.852 158.108 108.361C158.366 111.009 157.994 113.712 157.891 116.402C157.745 117.023 157.328 117.476 156.768 117.36C152.612 116.547 148.574 115.294 144.84 113.128C144.217 112.772 143.972 112.024 144.427 111.281Z" fill="#42B54A"/>
<path opacity="0.4" fill-rule="evenodd" clip-rule="evenodd" d="M187.641 66.2052C188.975 71.4066 190.26 76.6082 191.654 81.7991C192.208 83.8855 191.572 84.5897 189.669 84.0223C184.889 82.6037 180.119 81.1251 175.35 79.6666C176.194 75.7809 179.451 73.8094 181.492 70.8559C183.764 69.6409 184.057 65.5288 187.641 66.2052Z" fill="#ED4488"/>
<path opacity="0.4" fill-rule="evenodd" clip-rule="evenodd" d="M225.564 146.907C226.788 146.009 228.084 145.32 230.162 145.137C229.057 151.944 227.991 158.521 226.837 165.619C225.459 164.388 224.096 163.857 223.386 162.392C221.722 160.243 221.598 158.153 222.691 155.576C223.873 152.818 222.778 149.115 225.564 146.907Z" fill="#9E1F63"/>
<path opacity="0.4" fill-rule="evenodd" clip-rule="evenodd" d="M161.115 128.992C163.291 126.867 165.457 124.743 168.457 121.803C168.603 127.172 169.081 131.479 168.719 135.692C168.422 139.214 165.556 136.852 163.838 137.134C161.214 135.021 160.656 132.185 161.115 128.992Z" fill="#ED3087"/>
<path opacity="0.4" fill-rule="evenodd" clip-rule="evenodd" d="M144.427 111.281C148.409 114.565 153.214 115.283 157.891 116.402C158.397 117.309 158.193 118.18 157.839 119.043C155.552 122.608 152.78 120.726 150.082 119.614C147.984 118.298 145.816 117.082 143.796 115.635C141.144 113.743 140.933 112.114 144.427 111.281Z" fill="#73BE45"/>
<path opacity="0.4" fill-rule="evenodd" clip-rule="evenodd" d="M234.312 122.319C234.541 122.087 234.779 121.856 235.008 121.634C238.074 121.054 239.699 123.333 241.452 125.382C242.071 128.258 242.7 131.134 243.453 134.639C240.084 133.151 237.466 131.998 234.848 130.845C233.169 129.486 234.088 127.74 234.087 126.12C234.18 125.04 234.243 123.959 234.236 122.859C234.264 122.679 234.293 122.499 234.312 122.319Z" fill="#63C2A5"/>
<path opacity="0.4" fill-rule="evenodd" clip-rule="evenodd" d="M225.564 146.907C224.397 151.995 222.68 156.976 223.386 162.402C220.875 160.768 218.593 158.843 216.617 156.526C218.026 154.807 217.651 152.569 218.028 150.557C220.164 148.493 222.94 147.874 225.564 146.907Z" fill="#9E1F63"/>
<path opacity="0.4" fill-rule="evenodd" clip-rule="evenodd" d="M266.339 82.2668C270.26 83.991 273.44 85.4001 277.211 87.0653C274.177 89.5153 271.461 91.7133 268.129 94.4053C267.48 90.0295 266.946 86.4029 266.339 82.2668Z" fill="#6FBD46"/>
<path opacity="0.4" fill-rule="evenodd" clip-rule="evenodd" d="M271.853 72.3302C273.397 69.87 274.716 68.1913 275.584 66.2855C277.594 61.8622 278.749 64.0246 279.878 66.8872C280.762 69.1315 282.266 71.1416 282.564 73.9297C279.081 73.4026 275.757 72.9045 271.853 72.3302Z" fill="#5EBA57"/>
<path opacity="0.4" fill-rule="evenodd" clip-rule="evenodd" d="M188.978 97.6171C185.343 96.831 182.238 96.1515 178.403 95.3267C180.942 92.1899 183.174 89.4452 185.624 86.419C187.129 90.0991 188.221 93.512 188.978 97.6171Z" fill="#EE498A"/>
<path opacity="0.4" fill-rule="evenodd" clip-rule="evenodd" d="M266.421 108.467C268.492 110.113 270.007 112.273 271.402 114.534C269.664 117.976 271.24 121.915 270.143 125.453C269.208 126.069 268.251 126.585 267.107 125.943C266.516 125.917 265.895 125.641 265.831 125.071C265.244 119.495 263.427 113.817 266.421 108.467Z" fill="#C0D730"/>
<path opacity="0.4" fill-rule="evenodd" clip-rule="evenodd" d="M209.041 88.8047C207.261 87.4264 205.393 86.1687 203.743 84.6395C202.556 83.5373 200.152 82.9931 200.401 81.2715C200.659 79.4497 202.774 78.7758 204.562 78.374C207.663 80.1436 211.56 81.1379 211.433 86.1088C211.132 87.5109 210.247 88.3167 209.041 88.8047Z" fill="#9E1F63"/>
<path opacity="0.4" fill-rule="evenodd" clip-rule="evenodd" d="M253.77 147.721C244.853 151.2 244.853 151.2 240.782 141.997C245.155 143.918 249.247 145.721 253.77 147.721Z" fill="#7FCFD9"/>
<path opacity="0.4" fill-rule="evenodd" clip-rule="evenodd" d="M233.051 55.4557C234.002 58.5295 235.002 61.583 235.852 64.6774C236.037 65.3562 235.348 65.5108 234.727 65.4248C233.766 65.2812 232.727 65.408 231.864 65.0237C230.169 64.2749 226.948 65.5861 226.942 63.1161C226.935 60.5361 229.009 58.1324 230.986 56.2193C231.284 55.9274 231.502 55.6059 231.954 55.9429C232.333 55.7804 232.692 55.6181 233.051 55.4557Z" fill="#55B84A"/>
<path opacity="0.4" fill-rule="evenodd" clip-rule="evenodd" d="M210.324 104.427L210.684 104.424L210.935 104.702C211.996 104.745 212.88 105.33 213.812 105.764C211.739 109.757 214.561 114.629 212.027 118.546C210.983 119.443 210.513 121.066 208.935 121.306C206.676 118.491 208.164 115.131 207.524 112.075C207.57 111.415 207.685 110.784 207.841 110.153C207.987 109.512 208.173 108.891 208.289 108.25C208.679 106.797 208.578 105.048 210.324 104.427Z" fill="#225E31"/>
<path opacity="0.4" fill-rule="evenodd" clip-rule="evenodd" d="M212.027 118.546C211.683 116.538 212.531 114.622 212.057 112.515C211.562 110.298 211.456 107.779 213.897 106.403C215.273 105.764 216.241 107.048 217.423 107.32C219.309 109.757 217.934 112.037 217.259 114.351C215.761 116.081 213.979 117.423 212.027 118.546Z" fill="#166635"/>
<path opacity="0.4" fill-rule="evenodd" clip-rule="evenodd" d="M207.857 76.1422C209.343 75.4624 210.798 74.6928 212.324 74.1427C213.531 73.7047 214.839 71.896 215.928 73.1689C216.774 74.1633 216.567 76.1448 215.837 77.6196C215.648 79.2309 214.668 80.8174 215.779 82.4801L215.779 82.4601C215.291 84.2733 214.185 83.3506 213.213 83.067C212.641 82.7408 212.138 82.2941 211.575 81.9378C209.646 80.4905 207.149 79.4369 207.857 76.1422Z" fill="#9E1F63"/>
<path opacity="0.4" fill-rule="evenodd" clip-rule="evenodd" d="M266.421 108.467C265.17 114.315 266.068 120.129 267.097 125.943C266.16 126.529 265.131 126.536 264.08 126.433C261.411 125.15 261.846 122.877 262.281 120.604C262.591 118.982 263.942 117.673 263.54 115.816C263.892 113.084 264.535 110.459 265.919 108.11C265.949 108.06 266.149 108.049 266.199 108.098C266.3 108.188 266.351 108.337 266.421 108.467Z" fill="#CBDB2F"/>
<path opacity="0.4" fill-rule="evenodd" clip-rule="evenodd" d="M210.324 104.427C209.963 105.929 209.593 107.421 209.223 108.924C205.15 109.981 201.264 112.156 196.816 110.966C196.735 110.706 196.793 110.496 197.012 110.344C196.972 108.855 197.755 107.649 198.206 106.336C199.029 105.221 200.384 104.492 201.407 105.055C204.268 106.606 206.295 104.703 208.6 103.838C209.181 104.034 209.752 104.23 210.324 104.427Z" fill="#EF5256"/>
<path opacity="0.4" fill-rule="evenodd" clip-rule="evenodd" d="M283.418 145.806C283.764 142.163 284.11 138.511 284.474 134.648C286.621 135.594 288.506 136.432 290.683 137.388C288.443 140.442 286.342 143.306 284.24 146.18C283.96 146.052 283.689 145.934 283.418 145.806Z" fill="#9E1F63"/>
<path opacity="0.4" fill-rule="evenodd" clip-rule="evenodd" d="M169.345 71.456C170.646 73.0674 171.28 75.2133 173.565 75.9983C175.67 76.7144 173.579 78.0682 173.696 79.1275C170.651 78.4075 167.606 77.6876 163.981 76.8415C165.685 74.4402 167.334 72.7593 169.345 71.456Z" fill="#BC5CA2"/>
<path opacity="0.4" fill-rule="evenodd" clip-rule="evenodd" d="M192.703 60.3717C192.75 59.9014 192.807 59.431 192.863 58.9606C193.627 56.4156 195.556 54.7428 197.012 52.7331C197.26 52.4215 197.539 52.1497 197.837 51.8977C198.325 51.5445 198.853 51.331 199.453 51.287C200.064 51.363 200.575 51.6197 200.8 52.2882C199.067 54.9597 200.654 58.9593 197.798 61.1882C195.916 62.4206 194.215 62.2018 192.703 60.3717Z" fill="#A8C93E"/>
<path opacity="0.4" fill-rule="evenodd" clip-rule="evenodd" d="M199.476 51.7269C199.077 51.8995 198.678 52.0822 198.279 52.2548C196.943 49.7635 195.059 47.5759 194.39 44.7103C194.184 43.8216 193.656 44.1851 193.178 44.3983C192.788 44.4108 192.526 44.2426 192.414 43.8433C192.59 41.7821 192.767 39.7209 192.933 37.6597C194.316 38.1206 195.729 38.5413 196.608 39.9255C197.143 43.6321 200.829 46.0879 200.406 50.1708C200.33 50.8313 200.014 51.3534 199.476 51.7269Z" fill="#7C55A2"/>
<path opacity="0.4" fill-rule="evenodd" clip-rule="evenodd" d="M208.664 110.568C208.598 111.198 208.542 111.818 208.476 112.439C208.041 113.132 208.219 114.321 207.06 114.438C203.667 114.051 200.494 115.122 197.269 115.863C195.971 116.161 194.523 116.561 195.708 114.213C198.778 111.233 203.089 111.274 206.647 109.461C207.285 109.137 208.287 109.57 208.664 110.568Z" fill="#F37B65"/>
<path opacity="0.4" fill-rule="evenodd" clip-rule="evenodd" d="M270.143 125.453C268.705 122.722 269.528 115.557 271.401 114.534C271.994 114.84 272.546 115.187 272.591 115.996C273.581 118.95 273.98 121.957 273.531 125.04C272.434 125.488 271.325 125.735 270.143 125.453Z" fill="#B3D236"/>
<path opacity="0.4" fill-rule="evenodd" clip-rule="evenodd" d="M273.521 125.03C272.222 122.109 272.251 119.059 272.581 115.986C274.798 118.572 277.015 121.167 279.364 123.902C277.279 124.776 275.421 125.028 273.521 125.03Z" fill="#42B14C"/>
<path opacity="0.4" fill-rule="evenodd" clip-rule="evenodd" d="M248.782 82.7926C254.166 81.837 255.983 84.3951 255.706 92.5371C253.958 92.7686 253.992 90.3384 252.55 90.1379C251.44 88.5152 251.355 86.2657 249.627 85.037C249.092 84.3805 248.668 83.6933 248.782 82.7926Z" fill="#5EBA47"/>
<path opacity="0.4" fill-rule="evenodd" clip-rule="evenodd" d="M198.29 64.545C198.847 67.1014 196.75 68.9752 197.207 71.6823C195.282 70.885 193.966 69.9736 192.947 68.6003C192.258 67.1748 192.128 65.6356 192.077 64.0959C192.043 63.4962 192.08 62.9159 192.296 62.3544C192.663 61.852 193.172 61.6987 193.752 61.7548C195.525 62.1932 196.468 64.197 198.29 64.545Z" fill="#F498AB"/>
<path opacity="0.4" fill-rule="evenodd" clip-rule="evenodd" d="M251.955 104.552C252.843 105.646 253.72 106.751 254.95 108.272C251.911 108.392 249.153 110.241 246.902 108.615C245.294 107.456 247.401 105.372 247.91 103.719C249.339 103.519 250.623 104.221 251.955 104.552Z" fill="#9E1F63"/>
<path opacity="0.4" fill-rule="evenodd" clip-rule="evenodd" d="M235.45 77.9703C234.476 80.4368 233.834 83.0911 231.986 85.0633C231.744 84.7249 231.602 84.3458 231.529 83.9363C231.894 80.1038 231.509 76.3362 230.514 72.6027C230.513 72.4027 230.512 72.1927 230.51 71.9927C231.977 71.5331 233.458 71.6533 234.941 72.0235C237.872 73.8043 234.797 76.0246 235.45 77.9703Z" fill="#FBB33B"/>
<path opacity="0.4" fill-rule="evenodd" clip-rule="evenodd" d="M234.668 126.307C234.658 127.817 234.178 129.34 234.848 130.835C232.732 129.899 230.616 128.963 228.259 127.929C230.033 125.547 232.072 123.814 234.302 122.319L234.533 122.417C234.811 123.715 234.68 125.006 234.668 126.307Z" fill="#6ECCE2"/>
<path opacity="0.4" fill-rule="evenodd" clip-rule="evenodd" d="M207.857 76.1422C208.454 78.7483 210.602 79.9241 212.323 81.5028C211.591 82.7277 212.441 82.7621 213.241 82.8468C214.013 83.1517 214.596 83.5779 214.343 84.5896C213.501 85.8852 212.508 86.8317 210.844 86.2627C210.295 83.3962 209.399 80.9321 206.037 80.6843C204.846 80.5921 204.659 79.4233 204.562 78.364C205.657 77.6267 206.762 76.8894 207.857 76.1422Z" fill="#9E1F63"/>
<path opacity="0.4" fill-rule="evenodd" clip-rule="evenodd" d="M208.664 110.568C204.789 109.773 202.062 113.251 198.412 113.385C197.493 113.421 196.606 113.927 195.708 114.213C196.081 113.131 196.453 112.048 196.816 110.966C200.952 110.278 204.879 108.353 209.223 108.924C209.037 109.475 208.85 110.026 208.664 110.568Z" fill="#F0635A"/>
<path opacity="0.4" fill-rule="evenodd" clip-rule="evenodd" d="M182.634 131.94C181.111 129.97 179.598 128 177.924 125.821C180.608 124.973 183.008 124.927 185.408 124.971C185.858 127.928 185.024 130.294 182.634 131.94Z" fill="#ED488B"/>
<path opacity="0.4" fill-rule="evenodd" clip-rule="evenodd" d="M199.476 51.7269C199.662 51.1957 199.849 50.6544 200.035 50.1232C200.239 49.1518 200.623 48.2793 201.248 47.5351C202.221 46.3587 203.132 45.0927 204.69 44.7124C205.803 45.2051 206.926 45.6977 208.28 46.2988C206.089 49.0933 203.288 50.4918 200.79 52.3083C200.369 52.111 199.917 51.914 199.476 51.7269Z" fill="#A3C941"/>
<path opacity="0.4" fill-rule="evenodd" clip-rule="evenodd" d="M150.072 119.624C152.683 119.707 155.369 120.619 157.829 119.053C158.353 121.17 158.066 123.241 157.813 125.743C155.029 123.631 152.269 122.06 150.072 119.624Z" fill="#92C445"/>
<path opacity="0.4" fill-rule="evenodd" clip-rule="evenodd" d="M208.6 103.838C206.137 108.044 202.029 105.341 198.775 106.203C198.642 104.214 199.321 102.569 200.622 101.19C202.458 102.048 203.082 104.224 204.891 105.542C204.785 101.593 206.58 102.401 208.6 103.838Z" fill="#EF545E"/>
<path opacity="0.4" fill-rule="evenodd" clip-rule="evenodd" d="M241.452 125.382C238.949 124.838 237.373 122.449 235.008 121.634C236.61 120.474 238.05 117.414 239.747 118.503C241.545 119.661 241.206 122.943 241.452 125.382Z" fill="#64C3AB"/>
<path opacity="0.4" fill-rule="evenodd" clip-rule="evenodd" d="M232.15 84.0522C232.092 84.3926 232.044 84.7229 231.986 85.0633C229.635 87.9089 230.826 83.4209 229.678 83.7685C229.468 82.2499 228.868 80.8338 228.469 79.3664C228.376 78.987 228.324 78.6073 228.301 78.2175C228.407 76.1267 227.643 73.9817 228.53 71.9458C229.187 71.4815 229.848 71.6871 230.5 71.9728L230.561 72.1324C232.496 75.9497 231.823 80.0643 232.15 84.0522Z" fill="#F89D3A"/>
<path opacity="0.4" fill-rule="evenodd" clip-rule="evenodd" d="M194.178 140.014C195.097 138.288 196.418 136.979 197.86 135.749C198.796 136.723 198.774 137.903 198.991 139.002C199.136 141.281 198.771 143.484 198.255 145.657C197.018 146.025 195.964 145.412 194.9 144.859C195.109 143.188 194.938 141.559 194.178 140.014Z" fill="#A6D06A"/>
<path opacity="0.4" fill-rule="evenodd" clip-rule="evenodd" d="M218.028 150.547C218.302 152.745 220.491 155.501 216.617 156.516C212.449 152.324 212.449 152.324 218.028 150.547Z" fill="#9E1F63"/>
<path opacity="0.4" fill-rule="evenodd" clip-rule="evenodd" d="M201.693 48.2322C201.177 48.8956 201.256 50.1352 200.045 50.1132C199.432 46.5271 196.483 43.7565 196.618 39.9055C197.612 40.449 198.595 40.9925 199.589 41.536C200.753 43.6283 202.465 45.5171 201.693 48.2322Z" fill="#8155A2"/>
<path opacity="0.4" fill-rule="evenodd" clip-rule="evenodd" d="M236.299 100.535C235.092 97.9831 233.895 95.4309 232.374 92.2209C234.688 92.9057 236.251 93.3754 237.804 93.8351C238.952 96.5176 238.717 98.8292 236.299 100.535Z" fill="#64489C"/>
<path opacity="0.4" fill-rule="evenodd" clip-rule="evenodd" d="M210.844 86.2727C211.96 85.7154 213.067 85.1481 214.183 84.5907C214.693 84.5573 214.974 84.8155 215.018 85.3552C214.562 87.4883 215.148 89.9744 213.189 91.5774C211.803 90.6565 210.427 89.7356 209.041 88.8147C209.645 87.9607 210.249 87.1167 210.844 86.2727Z" fill="#9E1F63"/>
<path opacity="0.4" fill-rule="evenodd" clip-rule="evenodd" d="M236.299 100.535C237.515 98.4972 237.449 96.1076 237.804 93.8252C238.977 94.1974 240.328 94.3385 239.791 96.3121C239.195 98.4961 238.73 100.729 238.185 103.003C236.583 102.783 236.545 101.574 236.299 100.535Z" fill="#B677B1"/>
<path opacity="0.4" fill-rule="evenodd" clip-rule="evenodd" d="M226.816 78.9473C225.481 76.706 224.146 74.4748 222.791 72.2037C223.926 71.4062 224.947 71.4894 226.009 71.8824C227.658 71.7415 228.285 72.7775 228.045 74.2391C227.776 75.9109 228.685 77.2749 228.835 78.814C228.265 80.2677 227.562 79.8024 226.816 78.9473Z" fill="#F48437"/>
<path opacity="0.4" fill-rule="evenodd" clip-rule="evenodd" d="M263.55 115.816C263.903 119.344 261.327 122.971 264.09 126.433C262.943 126.94 261.537 127.549 260.591 126.666C259.454 125.603 260.615 124.235 260.978 123.093C261.752 120.638 262.686 118.242 263.55 115.816Z" fill="#DAE03B"/>
<path opacity="0.4" fill-rule="evenodd" clip-rule="evenodd" d="M198.265 145.657C195.778 143.033 198.796 141.223 199.001 139.002C199.591 140.458 200.2 141.894 200.75 143.361C201.911 146.503 200.804 146.96 198.265 145.657Z" fill="#6ABD51"/>
<path opacity="0.4" fill-rule="evenodd" clip-rule="evenodd" d="M217.787 107.997C216.494 107.466 215.2 106.934 213.907 106.393C212.913 105.829 211.929 105.266 210.945 104.702C215.141 105.505 218.875 107.7 223.006 109.243C222.526 110.826 221.35 111.384 220.214 111.971C218.061 111.536 218.915 109.11 217.787 107.997Z" fill="#0E753C"/>
<path opacity="0.4" fill-rule="evenodd" clip-rule="evenodd" d="M198.29 64.545C195.426 66.8939 195.396 62.414 193.555 62.2662C193.311 61.6778 192.411 61.6437 192.446 60.8134C192.485 60.6432 192.574 60.4926 192.703 60.3817C194.405 60.6605 196.097 60.9294 197.798 61.2082C199.354 62.1179 198.403 63.3942 198.29 64.545Z" fill="#EF512F"/>
<path opacity="0.4" fill-rule="evenodd" clip-rule="evenodd" d="M186.209 125.076C187.556 124.547 189.171 123.906 188.189 126.553C187.432 128.608 187.078 130.95 185.288 132.452C185.509 131.181 183.299 131.205 183.95 129.701C184.76 128.176 184.777 126.225 186.209 125.076Z" fill="#FBE692"/>
<path opacity="0.4" fill-rule="evenodd" clip-rule="evenodd" d="M201.693 48.2322C200.799 46.068 199.455 44.0469 199.589 41.5459C201.572 42.0729 202.993 43.6635 204.7 44.7123C204.07 46.2365 202.937 47.284 201.693 48.2322Z" fill="#8A5BA4"/>
<path opacity="0.4" fill-rule="evenodd" clip-rule="evenodd" d="M213.189 91.5673C213.474 89.2754 213.679 86.964 214.936 84.9857C215.244 84.7736 215.425 84.8725 215.507 85.2419C216.305 87.9067 216.032 90.5786 215.85 93.3098C214.442 93.5191 213.983 92.2421 213.189 91.5673Z" fill="#9E1F63"/>
<path opacity="0.4" fill-rule="evenodd" clip-rule="evenodd" d="M194.178 140.014C196.147 141.381 197.576 142.831 194.91 144.859C193.728 144.657 192.547 144.465 191.075 144.214C191.512 142.121 194.031 141.985 194.178 140.014Z" fill="#99CA45"/>
<path opacity="0.4" fill-rule="evenodd" clip-rule="evenodd" d="M248.782 82.7926C249.246 83.3495 249.699 83.9165 250.163 84.4735C251.052 85.7876 251.32 87.0059 249.766 87.9562C248.736 87.983 248.568 86.834 247.936 86.4382C244.14 84.0132 246.827 83.5255 248.782 82.7926Z" fill="#91C741"/>
<path opacity="0.4" fill-rule="evenodd" clip-rule="evenodd" d="M235.45 77.9703C234.097 76.0692 235.873 73.9474 234.93 72.0236C235.977 71.5267 237.039 71.8097 238.381 72.0609C237.896 74.3841 236.768 76.2316 235.45 77.9703Z" fill="#FFCE4C"/>
<path opacity="0.4" fill-rule="evenodd" clip-rule="evenodd" d="M217.787 107.997C219.791 108.534 219.226 110.768 220.204 111.982C219.441 113.067 218.466 113.863 217.259 114.341C216.204 112.078 217.581 110.109 217.787 107.997Z" fill="#1A703B"/>
<path opacity="0.4" fill-rule="evenodd" clip-rule="evenodd" d="M207.05 114.448C207.525 113.785 208.001 113.112 208.466 112.449C208.606 115.398 207.916 118.383 208.935 121.306C208.418 121.789 207.652 122.365 207.454 121.246C207.08 118.998 206.165 116.744 207.05 114.448Z" fill="#9FC03C"/>
<path opacity="0.4" fill-rule="evenodd" clip-rule="evenodd" d="M228.825 78.814C227.896 77.4001 225.95 76.4429 227.324 74.1138C227.957 73.0396 226.813 72.3971 225.999 71.8825C226.847 71.4769 227.688 71.6113 228.52 71.9659C228.905 74.2434 229.78 76.5077 228.825 78.814Z" fill="#F6913A"/>
<path opacity="0.4" fill-rule="evenodd" clip-rule="evenodd" d="M251.955 104.552C250.373 105.723 249.223 104.2 247.91 103.719C248.244 102.827 248.578 101.934 248.942 100.972C250.398 101.932 251.296 103.136 251.955 104.552Z" fill="#9E1F63"/>
<path opacity="0.4" fill-rule="evenodd" clip-rule="evenodd" d="M226.816 78.9473C227.507 79.1627 228.199 79.3682 228.835 78.8139C230.055 80.3059 230.576 81.9225 229.678 83.7585C228.15 82.5386 227.408 80.7934 226.816 78.9473Z" fill="#F6913A"/>
<path opacity="0.4" fill-rule="evenodd" clip-rule="evenodd" d="M249.766 87.9561C250.289 86.8527 250.301 85.6726 250.163 84.4734C252.67 85.5969 252.476 87.9283 252.54 90.1379C251.061 90.2177 251.057 88.1676 249.766 87.9561Z" fill="#7AC049"/>
<path opacity="0.4" fill-rule="evenodd" clip-rule="evenodd" d="M200.622 101.19C200.003 102.865 199.384 104.529 198.775 106.203C198.184 107.587 197.603 108.971 197.012 110.344C197.38 106.912 198.549 103.784 200.12 100.814C200.139 100.774 200.329 100.792 200.39 100.842C200.49 100.931 200.551 101.071 200.622 101.19Z" fill="#EF5164"/>
<path opacity="0.4" fill-rule="evenodd" clip-rule="evenodd" d="M184.087 130.82C184.586 130.687 185.085 130.554 185.584 130.41C185.489 131.091 185.393 131.761 185.298 132.442C184.961 132.994 184.678 133.956 184.288 133.989C183.638 134.053 183.343 133.215 183.258 132.506C183.113 131.706 183.319 131.095 184.087 130.82Z" fill="#DDE57C"/>
<path opacity="0.4" fill-rule="evenodd" clip-rule="evenodd" d="M184.087 130.82C183.811 131.382 183.524 131.944 183.248 132.506C182.967 132.407 182.766 132.219 182.624 131.94C183.549 129.614 184.484 127.287 185.408 124.971C185.678 124.929 185.938 124.958 186.199 125.076C185.502 126.991 184.794 128.905 184.087 130.82Z" fill="#EE4852"/>
<path opacity="0.4" fill-rule="evenodd" clip-rule="evenodd" d="M215.779 82.4701C213.138 80.7475 215.007 79.2051 215.837 77.6096C216.278 79.2467 216.178 80.8674 215.779 82.4701Z" fill="#9E1F63"/>
<path opacity="0.4" fill-rule="evenodd" clip-rule="evenodd" d="M215.497 85.242C215.307 85.1533 215.116 85.0745 214.926 84.9858C214.675 84.8574 214.424 84.7191 214.173 84.5907C214.038 83.8016 213.644 83.2342 212.912 82.949C212.79 82.6798 212.799 82.5097 212.949 82.4087C213.078 82.3279 213.178 82.2973 213.258 82.3367C214.09 82.6712 214.914 83.1658 215.759 82.4502C216.376 83.4762 215.921 84.3592 215.497 85.242Z" fill="#9E1F63"/>
<path opacity="0.4" fill-rule="evenodd" clip-rule="evenodd" d="M157.208 103.717C156.792 104.339 155.785 104.846 155.602 104.337C155.204 103.19 155.948 102.245 156.954 101.648C157.039 102.348 156.514 103.101 157.208 103.717Z" fill="#A8D6A7"/>
<path opacity="0.4" fill-rule="evenodd" clip-rule="evenodd" d="M234.668 126.307C234.24 125.019 233.971 123.721 234.543 122.417C235.661 123.7 235.34 125.002 234.668 126.307Z" fill="#64C3AB"/>
<path opacity="0.4" fill-rule="evenodd" clip-rule="evenodd" d="M197.854 52.8777C196.388 55.0874 195.043 57.4163 192.864 58.9707C191.918 56.5869 192.432 54.2334 192.867 51.8805C192.995 50.1396 193.735 48.5847 195.508 48.993C197.12 49.3624 198.349 50.7344 197.854 52.8777Z" fill="#7251A1"/>
<path opacity="0.4" fill-rule="evenodd" clip-rule="evenodd" d="M197.853 52.8776C196.518 50.4664 195.249 47.6447 192.867 51.8805C192.676 51.6917 192.474 51.523 192.263 51.3644C192.538 49.0026 192.812 46.6407 193.087 44.2789C193.491 43.4062 193.895 42.5435 194.31 41.6707C193.978 45.953 198.772 48.1014 198.289 52.2547C198.191 52.4954 198.042 52.7064 197.853 52.8776Z" fill="#7553A1"/>
<path opacity="0.4" fill-rule="evenodd" clip-rule="evenodd" d="M213.268 82.3367C213.109 82.5077 212.99 82.7085 212.922 82.9489C212.555 83.4414 212.332 84.4729 211.486 83.5284C211.022 83.0115 210.748 82.3033 210.384 81.6856C211.033 81.6214 211.673 81.5571 212.322 81.5028C212.634 81.7808 212.956 82.0587 213.268 82.3367Z" fill="#9E1F63"/>
<path opacity="0.4" fill-rule="evenodd" clip-rule="evenodd" d="M232.15 84.0522C231.624 80.0856 231.097 76.119 230.571 72.1524C233.376 75.834 232.843 79.9376 232.15 84.0522Z" fill="#F9A53E"/>
</g>
</g>
</g>
<defs>
<clipPath id="clip0_385_12157">
<rect width="317" height="180" fill="white"/>
</clipPath>
</defs>
</svg>
