<svg width="468" height="325" viewBox="0 0 468 325" fill="none" xmlns="http://www.w3.org/2000/svg">
<g clip-path="url(#clip0_397_17004)">
<path fill-rule="evenodd" clip-rule="evenodd" d="M305.74 130.258C302.433 129.804 299.142 129.34 295.233 128.802C297.04 134.465 298.736 139.774 300.749 146.044C304.135 141.537 307.57 138.061 309.776 133.614C309.069 132.312 307.896 131.583 306.542 131.107C306.23 130.861 305.963 130.578 305.74 130.258Z" fill="#5D3B96"/>
<path fill-rule="evenodd" clip-rule="evenodd" d="M268.453 152.34C269.954 151.371 271.432 150.383 272.528 148.418C265.63 147.457 258.844 146.519 251.691 145.521C252.084 147.298 252.495 149.031 253.821 150.408C258.394 152.827 263.265 153.478 268.453 152.34Z" fill="#AA519E"/>
<path fill-rule="evenodd" clip-rule="evenodd" d="M268.453 152.34C263.587 151.697 258.708 151.05 253.834 150.411C254.883 152.792 255.93 155.185 256.979 157.565C258.35 159.092 259.437 161.406 262.156 159.272C264.426 157.107 267.22 155.414 268.453 152.34Z" fill="#B0529E"/>
<path fill-rule="evenodd" clip-rule="evenodd" d="M262.156 159.272C259.868 160.234 258.696 158.169 256.979 157.565C257.586 159.126 258.193 160.687 258.927 162.593C260.61 161.781 261.554 160.712 262.156 159.272Z" fill="#BC5DA2"/>
<path fill-rule="evenodd" clip-rule="evenodd" d="M305.74 130.258C305.67 130.421 305.627 130.59 305.592 130.754C306.849 132.051 308.454 132.578 310.241 132.742C311.326 132.318 312.73 131.727 310.711 130.949C309.212 130.36 307.411 130.469 305.74 130.258Z" fill="#1AAAD2"/>
<path fill-rule="evenodd" clip-rule="evenodd" d="M310.241 132.742C308.871 131.7 307.306 131.073 305.592 130.754C306.22 132.778 308.25 132.831 309.763 133.611C309.926 133.327 310.091 133.029 310.241 132.742Z" fill="#2D328A"/>
<path fill-rule="evenodd" clip-rule="evenodd" d="M266.936 119.779C269.952 123.388 269.962 126.64 265.74 129.832C263.693 131.369 262.09 133.503 259.876 135.8C266.711 137.527 273.104 139.142 279.569 140.768C280.747 138.864 279.568 137.234 279.54 135.55C279.291 134.517 277.931 133.083 280.552 133.127C283.891 132.557 282.559 129.571 283.253 127.801C284.46 124.665 284.904 121.265 285.67 117.983C285.693 117.185 285.32 116.501 284.572 116.449C279.053 116.082 273.532 116.27 268.069 117.67C267.171 117.906 266.609 118.726 266.936 119.779Z" fill="#42B54A"/>
<path fill-rule="evenodd" clip-rule="evenodd" d="M306.421 188.594C309.849 182.726 313.233 176.84 316.714 171.006C318.12 168.669 317.548 167.595 314.96 167.664C308.436 167.817 301.914 168.047 295.401 168.238C295.154 173.233 298.619 176.686 300.204 180.935C302.677 183.165 301.674 188.245 306.421 188.594Z" fill="#ED4488"/>
<path fill-rule="evenodd" clip-rule="evenodd" d="M301.063 180.447C299.759 176.097 297.548 172.187 295.406 168.246C294.642 168.281 293.891 168.318 293.135 168.347C292.156 169.58 292.25 171.468 289.709 171.652C287.457 171.82 285.506 173.575 285.068 176.22C287.045 180.645 289.823 184.561 292.594 188.481C297.267 187.461 300.518 184.382 301.063 180.447Z" fill="#C2559F"/>
<path fill-rule="evenodd" clip-rule="evenodd" d="M290.133 222.676C289.314 224.698 288.494 226.72 287.277 229.729C293.223 227.821 298.563 227.255 303.543 224.948C305.643 222.74 305.914 220.017 306.067 217.243C306.02 216.42 305.831 215.638 305.554 214.874C302.988 209.828 303.023 209.851 299.421 214.012C296.643 217.219 292.43 218.938 290.133 222.676Z" fill="#E04D9A"/>
<path fill-rule="evenodd" clip-rule="evenodd" d="M301.062 180.447C298.952 183.865 295.957 186.373 292.598 188.489C294.634 192.139 296.675 195.798 298.715 199.456C302.272 199.253 304.218 196.375 306.65 194.389C307.9 193.37 307.82 191.861 306.545 190.718C305.196 190.139 306.583 189.294 306.434 188.598C303.123 186.909 304.276 182.194 301.062 180.447Z" fill="#CA549E"/>
<path fill-rule="evenodd" clip-rule="evenodd" d="M381.416 103.197C382.665 104.686 384.072 105.959 386.645 106.85C387.531 98.2281 388.38 89.9157 389.304 80.9296C387.153 81.9752 385.256 82.1639 383.865 83.7079C381.047 85.7684 380.184 88.2576 380.704 91.7365C381.269 95.4761 378.636 99.6136 381.416 103.197Z" fill="#9E1F63"/>
<path fill-rule="evenodd" clip-rule="evenodd" d="M293.969 103.787C296 107.076 298.034 110.351 300.838 114.904C302.817 108.438 304.868 103.376 305.831 98.1552C306.635 93.8012 302.222 95.7048 300.143 94.8082C296.115 96.505 294.461 99.7626 293.969 103.787Z" fill="#ED3087"/>
<path fill-rule="evenodd" clip-rule="evenodd" d="M266.936 119.779C273.069 117.108 279.382 117.808 285.662 117.988C286.608 117.051 286.65 115.932 286.476 114.765C284.776 109.69 280.648 111.071 276.867 111.528C273.765 112.442 270.619 113.207 267.586 114.291C263.611 115.724 262.787 117.628 266.936 119.779Z" fill="#73BE45"/>
<path fill-rule="evenodd" clip-rule="evenodd" d="M384.227 135.873C384.448 136.227 384.657 136.578 384.878 136.933C388.557 138.646 391.384 136.414 394.273 134.51C396.024 131.229 397.774 127.947 399.907 123.952C395.151 124.646 391.457 125.195 387.766 125.731C385.175 126.817 385.761 129.252 385.221 131.207C384.969 132.549 384.692 133.885 384.314 135.202C384.292 135.425 384.254 135.658 384.227 135.873Z" fill="#63C2A5"/>
<path fill-rule="evenodd" clip-rule="evenodd" d="M381.416 103.197C381.656 96.6486 381.156 90.0433 383.86 83.6998C380.137 84.8508 376.613 86.4474 373.333 88.6051C374.543 91.1442 373.322 93.7361 373.117 96.3096C375.124 99.502 378.425 101.174 381.416 103.197Z" fill="#9E1F63"/>
<path fill-rule="evenodd" clip-rule="evenodd" d="M297.017 204.109C295.756 207.563 294.491 211.01 293.238 214.46C297.004 215.613 299.232 212.876 301.671 210.809C303.155 209.552 304.166 207.405 306.646 208.494C306.903 208.518 307.151 208.526 307.395 208.546C307.913 208.47 308.357 208.251 308.735 207.883C310.131 205.176 310.156 202.113 311.303 199.323C311.455 198.835 311.526 198.34 311.557 197.835C311.563 197.324 311.493 196.835 311.376 196.341C310.996 195.143 310.472 194.019 309.812 192.964C309.498 192.565 309.082 192.293 308.579 192.172C308.04 192.249 307.656 192.532 307.45 193.041C307.19 199.723 301.903 201.737 297.017 204.109Z" fill="#D64F9C"/>
<path fill-rule="evenodd" clip-rule="evenodd" d="M414.894 208.789C416.02 212.283 417.126 214.74 417.579 217.343C418.637 223.363 420.808 221.124 423.205 218.021C425.081 215.582 427.657 213.654 428.956 210.375C424.38 209.847 420.028 209.362 414.894 208.789Z" fill="#5EBA57"/>
<path fill-rule="evenodd" clip-rule="evenodd" d="M318.649 150.95C313.783 150.715 309.643 150.513 304.516 150.267C306.674 154.904 308.573 158.956 310.66 163.437C313.795 159.455 316.314 155.683 318.649 150.95Z" fill="#EE498A"/>
<path fill-rule="evenodd" clip-rule="evenodd" d="M420.147 163.195C423.317 161.875 425.961 159.763 428.477 157.473C427.436 152.747 430.746 148.483 430.545 143.832C429.566 142.779 428.531 141.836 426.87 142.238C426.122 142.075 425.237 142.203 424.975 142.877C422.36 149.445 418.162 155.726 420.147 163.195Z" fill="#C0D730"/>
<path fill-rule="evenodd" clip-rule="evenodd" d="M341.043 168.217C338.341 169.302 335.551 170.22 332.956 171.54C331.087 172.485 327.864 172.357 327.608 174.529C327.323 176.819 329.77 178.336 331.887 179.409C336.408 178.281 341.654 178.356 343.159 172.283C343.259 170.479 342.413 169.203 341.043 168.217Z" fill="#9E1F63"/>
<path fill-rule="evenodd" clip-rule="evenodd" d="M417.326 111.463C407.221 104.324 407.22 104.324 398.988 114.15C405.172 113.238 410.943 112.394 417.326 111.463Z" fill="#7FCFD9"/>
<path fill-rule="evenodd" clip-rule="evenodd" d="M360.202 216.516C362.436 213.102 364.716 209.726 366.836 206.248C367.3 205.486 366.478 205.069 365.671 204.974C364.417 204.835 363.138 204.336 361.921 204.518C359.532 204.865 355.901 202.229 355.062 205.223C354.185 208.34 355.996 211.946 357.859 214.915C358.147 215.362 358.305 215.832 358.988 215.57C359.394 215.881 359.8 216.192 360.202 216.516Z" fill="#55B84A"/>
<path fill-rule="evenodd" clip-rule="evenodd" d="M347.9 149.698L348.36 149.823L348.78 149.562C350.13 149.865 351.45 149.445 352.774 149.222C351.485 143.704 356.683 138.716 354.798 133.144C353.778 131.706 353.727 129.594 351.821 128.783C348.017 131.451 348.773 136.016 346.936 139.504C346.764 140.312 346.704 141.121 346.69 141.935C346.656 142.751 346.685 143.562 346.621 144.384C346.622 146.283 345.897 148.371 347.9 149.698Z" fill="#225E31"/>
<path fill-rule="evenodd" clip-rule="evenodd" d="M354.798 133.144C353.68 135.464 354.112 138.068 352.813 140.474C351.45 142.995 350.465 146.021 353.092 148.492C354.616 149.718 356.267 148.483 357.85 148.526C361.057 146.19 360.079 142.983 359.992 139.954C358.696 137.344 356.88 135.143 354.798 133.144Z" fill="#166635"/>
<path fill-rule="evenodd" clip-rule="evenodd" d="M335.307 183.176C336.955 184.483 338.535 185.896 340.275 187.06C341.659 187.995 342.704 190.61 344.5 189.432C345.902 188.5 346.302 186.032 345.869 184.003C346.175 181.988 345.463 179.749 347.429 178.095L347.426 178.108C347.422 175.758 345.709 176.5 344.383 176.536C343.547 176.746 342.76 177.114 341.94 177.369C339.02 178.496 335.516 178.954 335.307 183.176Z" fill="#9E1F63"/>
<path fill-rule="evenodd" clip-rule="evenodd" d="M307.172 208.005C305.51 205.801 303.596 205.59 302.198 208.221C300.216 211.949 296.607 212.956 293.237 214.46C292.201 217.196 291.17 219.94 290.133 222.676C294.48 219.321 300.148 217.467 302.403 211.744C303.894 212.415 303.053 214.604 304.679 215.074C307.094 213.209 305.606 210.128 307.172 208.005Z" fill="#DB4E9B"/>
<path fill-rule="evenodd" clip-rule="evenodd" d="M420.147 163.195C420.532 155.699 423.61 148.945 426.87 142.238C425.89 141.219 424.592 140.875 423.226 140.658C419.431 141.334 419.211 144.236 419 147.134C418.852 149.209 420.11 151.234 418.982 153.351C418.511 156.778 418.437 160.168 419.397 163.475C419.406 163.546 419.658 163.617 419.745 163.577C419.913 163.488 420.024 163.323 420.147 163.195Z" fill="#CBDB2F"/>
<path fill-rule="evenodd" clip-rule="evenodd" d="M347.9 149.698C347.943 147.762 347.986 145.827 348.028 143.891C343.236 141.271 339.07 137.362 333.032 137.348C332.836 137.631 332.848 137.911 333.07 138.154C332.514 139.953 333.111 141.664 333.242 143.408C333.901 145.038 335.372 146.362 336.866 146.015C340.995 145.065 342.923 148.05 345.548 149.848C346.328 149.804 347.112 149.747 347.9 149.698Z" fill="#EF5256"/>
<path fill-rule="evenodd" clip-rule="evenodd" d="M454.147 123.495C453.365 128.035 452.57 132.571 451.729 137.366C454.767 136.921 457.429 136.532 460.483 136.076C458.68 131.647 456.99 127.483 455.296 123.31C454.922 123.388 454.535 123.442 454.147 123.495Z" fill="#9E1F63"/>
<path fill-rule="evenodd" clip-rule="evenodd" d="M285.068 176.22C287.244 174.696 288.768 172.299 291.917 172.097C294.816 171.921 292.625 169.589 293.13 168.339C289.042 168.205 284.951 168.085 280.078 167.931C281.441 171.417 282.956 173.985 285.068 176.22Z" fill="#BC5CA2"/>
<path fill-rule="evenodd" clip-rule="evenodd" d="M297.017 204.109C299.674 203.58 302.326 203.043 304.979 202.527C307.363 202.06 306.632 199.9 307.069 198.535C307.666 196.657 307.645 194.615 307.885 192.639C308.449 191.785 308.286 191.065 307.577 190.448C307.205 190.415 306.854 190.513 306.537 190.723C306.19 195.623 300.936 196.204 298.702 199.453C298.133 201.005 297.578 202.561 297.017 204.109Z" fill="#D2509C"/>
<path fill-rule="evenodd" clip-rule="evenodd" d="M310.864 197.319C310.77 197.905 310.676 198.491 310.591 199.072C310.705 202.406 312.57 205.063 313.745 207.988C313.953 208.45 314.216 208.857 314.514 209.265C315.003 209.847 315.605 210.284 316.36 210.532C317.164 210.64 317.886 210.498 318.399 209.763C317.105 205.948 320.449 201.631 317.588 197.986C315.61 195.902 313.383 195.591 310.864 197.319Z" fill="#A8C93E"/>
<path fill-rule="evenodd" clip-rule="evenodd" d="M316.523 210.026C316.077 209.684 315.639 209.337 315.193 208.994C312.664 211.579 309.554 213.614 307.742 216.866C307.181 217.873 306.638 217.256 306.106 216.844C305.618 216.692 305.228 216.835 304.958 217.272C304.487 219.826 304.013 222.394 303.538 224.94C305.442 224.836 307.359 224.791 308.94 223.399C310.857 219.079 316.345 217.311 317.181 212.231C317.291 211.392 317.076 210.659 316.523 210.026Z" fill="#7C55A2"/>
<path fill-rule="evenodd" clip-rule="evenodd" d="M347.87 141.71C348.001 140.925 348.128 140.154 348.258 139.37C347.94 138.388 348.572 136.997 347.135 136.492C342.711 135.851 339.068 133.509 335.243 131.551C333.709 130.773 332.001 129.811 332.721 133.05C335.601 137.656 341.064 139.027 344.952 142.394C345.644 142.999 347.055 142.79 347.87 141.71Z" fill="#F37B65"/>
<path fill-rule="evenodd" clip-rule="evenodd" d="M430.553 143.827C427.816 146.656 426.448 155.62 428.485 157.469C429.333 157.296 430.146 157.067 430.471 156.09C432.713 152.837 434.225 149.321 434.68 145.439C433.47 144.535 432.144 143.865 430.553 143.827Z" fill="#B3D236"/>
<path fill-rule="evenodd" clip-rule="evenodd" d="M434.68 145.439C432.063 148.563 431.079 152.261 430.471 156.09C434.141 153.678 437.81 151.267 441.696 148.716C439.344 146.988 437.081 146.079 434.68 145.439Z" fill="#42B14C"/>
<path fill-rule="evenodd" clip-rule="evenodd" d="M319.325 194.105C320.88 191.182 318.869 188.224 320.353 185.09C317.648 185.426 315.696 186.1 313.945 187.428C312.598 188.934 311.921 190.75 311.331 192.602C311.093 193.318 310.945 194.035 311.025 194.783C311.325 195.511 311.908 195.86 312.666 195.984C315.042 196.042 316.906 193.918 319.325 194.105Z" fill="#F498AB"/>
<path fill-rule="evenodd" clip-rule="evenodd" d="M400.559 163.201C402.05 162.16 403.529 161.117 405.595 159.668C401.791 158.526 398.928 155.379 395.535 156.621C393.13 157.498 395.082 160.711 395.172 162.889C396.9 163.585 398.76 163.165 400.559 163.201Z" fill="#9E1F63"/>
<path fill-rule="evenodd" clip-rule="evenodd" d="M370.78 190.001C370.374 186.697 370.458 183.268 368.776 180.269C368.358 180.606 368.046 181.012 367.821 181.488C367.004 186.247 365.24 190.696 362.73 194.893C362.654 195.137 362.578 195.381 362.515 195.628C364.217 196.671 366.119 197.01 368.127 197.043C372.443 195.849 369.297 192.152 370.78 190.001Z" fill="#FBB33B"/>
<path fill-rule="evenodd" clip-rule="evenodd" d="M386.01 131.158C386.511 129.325 386.404 127.324 387.766 125.731C384.766 126.165 381.78 126.603 378.46 127.095C379.912 130.562 381.896 133.326 384.219 135.878L384.543 135.829C385.329 134.345 385.592 132.743 386.01 131.158Z" fill="#6ECCE2"/>
<path fill-rule="evenodd" clip-rule="evenodd" d="M335.307 183.176C336.935 180.21 340.05 179.486 342.741 178.141C342.225 176.416 343.314 176.652 344.361 176.815C345.438 176.694 346.325 176.366 346.345 175.062C345.722 173.212 344.789 171.734 342.487 171.876C340.836 175.176 338.882 177.872 334.536 177.063C333.008 176.778 332.37 178.139 331.886 179.388C333.025 180.655 334.167 181.909 335.307 183.176Z" fill="#9E1F63"/>
<path fill-rule="evenodd" clip-rule="evenodd" d="M347.87 141.709C342.71 141.407 340.418 136.285 335.85 134.934C334.71 134.596 333.747 133.699 332.708 133.046C332.807 134.478 332.92 135.913 333.019 137.345C338.014 139.525 342.321 143.15 348.011 143.879C347.971 143.162 347.923 142.429 347.87 141.709Z" fill="#F0635A"/>
<path fill-rule="evenodd" clip-rule="evenodd" d="M322.146 107.271C319.563 109.17 316.988 111.064 314.151 113.147C317.261 115.054 320.268 115.897 323.328 116.641C324.87 113.196 324.612 110.047 322.146 107.271Z" fill="#ED488B"/>
<path fill-rule="evenodd" clip-rule="evenodd" d="M316.523 210.026C316.592 210.736 316.639 211.448 316.695 212.155C316.627 213.399 316.827 214.572 317.368 215.687C318.205 217.431 318.925 219.257 320.776 220.234C322.351 220.005 323.927 219.775 325.843 219.488C324.018 215.392 320.937 212.772 318.394 209.754C317.767 209.851 317.147 209.943 316.523 210.026Z" fill="#A3C941"/>
<path fill-rule="evenodd" clip-rule="evenodd" d="M276.867 111.528C280.187 112.284 283.896 112.057 286.476 114.765C287.848 112.371 288.187 109.762 288.702 106.651C284.482 108.285 280.464 109.292 276.867 111.528Z" fill="#92C445"/>
<path fill-rule="evenodd" clip-rule="evenodd" d="M345.535 149.844C343.825 143.935 337.733 145.876 333.901 143.756C333.068 146.129 333.37 148.346 334.556 150.436C337.168 149.999 338.682 147.565 341.41 146.563C339.955 151.326 342.489 150.925 345.535 149.844Z" fill="#EF545E"/>
<path fill-rule="evenodd" clip-rule="evenodd" d="M394.273 134.51C390.92 134.349 388.138 136.73 384.878 136.933C386.505 138.871 387.31 143.053 389.821 142.279C392.474 141.465 393.149 137.376 394.273 134.51Z" fill="#64C3AB"/>
<path fill-rule="evenodd" clip-rule="evenodd" d="M368.651 181.547C368.697 181.122 368.738 180.689 368.776 180.269C366.759 176.056 366.756 181.888 365.424 181.078C364.655 182.85 363.423 184.365 362.428 186.017C362.181 186.439 361.984 186.888 361.826 187.346C361.262 189.912 359.568 192.265 360.01 195.018C360.684 195.799 361.593 195.767 362.515 195.628L362.648 195.461C366.38 191.499 366.904 186.284 368.651 181.547Z" fill="#F89D3A"/>
<path fill-rule="evenodd" clip-rule="evenodd" d="M339.446 101.258C340.029 103.651 341.252 105.674 342.672 107.636C344.18 106.773 344.548 105.328 345.181 104.069C346.134 101.36 346.403 98.5608 346.494 95.7572C345.048 94.904 343.519 95.3043 341.992 95.6151C341.69 97.7274 340.917 99.6439 339.446 101.258Z" fill="#A6D06A"/>
<path fill-rule="evenodd" clip-rule="evenodd" d="M373.122 96.3178C374.203 93.7318 377.896 91.1183 373.338 88.6133C366.668 92.3323 366.668 92.3323 373.122 96.3178Z" fill="#9E1F63"/>
<path fill-rule="evenodd" clip-rule="evenodd" d="M318.156 214.987C317.716 214.023 318.242 212.528 316.7 212.163C314.709 216.305 310.076 218.693 308.944 223.407C310.381 223.073 311.817 222.739 313.253 222.405C315.408 220.252 318.209 218.534 318.156 214.987Z" fill="#8155A2"/>
<path fill-rule="evenodd" clip-rule="evenodd" d="M379.427 162.932C377.051 165.624 374.679 168.325 371.678 171.731C374.836 171.656 376.961 171.608 379.086 171.56C381.431 168.666 381.908 165.787 379.427 162.932Z" fill="#64489C"/>
<path fill-rule="evenodd" clip-rule="evenodd" d="M342.487 171.876C343.704 172.92 344.92 173.964 346.137 175.009C346.77 175.218 347.205 175.004 347.452 174.36C347.6 171.633 349.174 168.798 347.225 166.223C345.178 166.887 343.11 167.552 341.051 168.212C341.523 169.434 342.002 170.651 342.487 171.876Z" fill="#9E1F63"/>
<path fill-rule="evenodd" clip-rule="evenodd" d="M379.427 162.932C380.282 165.803 379.397 168.681 379.081 171.552C380.69 171.491 382.451 171.759 382.427 169.19C382.404 166.343 382.558 163.479 382.644 160.557C380.54 160.305 380.09 161.743 379.427 162.932Z" fill="#B677B1"/>
<path fill-rule="evenodd" clip-rule="evenodd" d="M360.203 185.991C357.775 188.261 355.326 190.533 352.854 192.841C354.015 194.183 355.34 194.424 356.807 194.292C358.848 195.012 359.989 193.959 360.178 192.102C360.391 189.987 362.004 188.632 362.703 186.814L362.711 186.809C362.485 184.867 361.423 185.2 360.203 185.991Z" fill="#F48437"/>
<path fill-rule="evenodd" clip-rule="evenodd" d="M418.985 153.338C420.621 149.175 418.576 143.929 423.235 140.654C421.954 139.669 420.385 138.459 418.895 139.223C417.109 140.14 418.113 142.183 418.185 143.697C418.336 146.909 418.702 150.127 418.985 153.338Z" fill="#DAE03B"/>
<path fill-rule="evenodd" clip-rule="evenodd" d="M346.499 95.7653C342.476 98.1217 345.683 101.308 345.185 104.077C346.417 102.506 347.676 100.963 348.862 99.3533C351.395 95.9384 350.153 95.0194 346.499 95.7653Z" fill="#6ABD51"/>
<path fill-rule="evenodd" clip-rule="evenodd" d="M358.535 147.821C356.72 148.037 354.91 148.262 353.095 148.479C351.652 148.839 350.218 149.194 348.775 149.554C354.344 149.968 359.799 148.517 365.548 148.006C365.469 145.922 364.179 144.866 362.925 143.777C360.065 143.61 360.337 146.839 358.535 147.821Z" fill="#0E753C"/>
<path fill-rule="evenodd" clip-rule="evenodd" d="M319.325 194.105C316.492 190.321 314.944 195.746 312.579 195.318C312.072 195.95 310.922 195.706 310.692 196.714C310.688 196.949 310.749 197.145 310.869 197.327C313.112 197.552 315.35 197.769 317.585 197.999C319.86 197.387 319.071 195.537 319.325 194.105Z" fill="#EF512F"/>
<path fill-rule="evenodd" clip-rule="evenodd" d="M324.358 116.758C325.875 117.845 327.698 119.147 327.354 115.63C327.088 112.895 327.426 109.933 325.677 107.526C325.521 109.143 322.734 108.391 323.06 110.428C323.565 112.524 322.928 114.891 324.358 116.758Z" fill="#FBE692"/>
<path fill-rule="evenodd" clip-rule="evenodd" d="M318.156 214.987C316.294 217.319 313.919 219.326 313.253 222.405C315.939 222.411 318.26 220.944 320.772 220.247C320.487 218.186 319.409 216.539 318.156 214.987Z" fill="#8A5BA4"/>
<path fill-rule="evenodd" clip-rule="evenodd" d="M347.212 166.22C346.806 169.089 346.282 171.963 347.214 174.777C347.526 175.134 347.794 175.084 348.015 174.655C349.915 171.682 350.474 168.347 351.158 164.98C349.441 164.266 348.453 165.67 347.212 166.22Z" fill="#9E1F63"/>
<path fill-rule="evenodd" clip-rule="evenodd" d="M339.446 101.258C342.392 100.248 344.692 98.9701 341.997 95.6233C340.433 95.4813 338.872 95.3262 336.93 95.1434C336.776 97.8409 339.921 98.822 339.446 101.258Z" fill="#99CA45"/>
<path fill-rule="evenodd" clip-rule="evenodd" d="M370.78 190.001C368.423 191.853 369.96 195.016 368.127 197.043C369.277 197.994 370.72 197.988 372.493 198.128C372.674 195.16 371.863 192.549 370.78 190.001Z" fill="#FFCE4C"/>
<path fill-rule="evenodd" clip-rule="evenodd" d="M312.262 193.11C312.827 191.217 313.384 189.329 313.945 187.428C311.678 188.111 309.471 188.914 307.577 190.448C307.682 191.181 307.786 191.914 307.885 192.639C308.219 192.607 308.55 192.587 308.885 192.575C310.003 192.784 310.936 193.908 312.262 193.11Z" fill="#EE5089"/>
<path fill-rule="evenodd" clip-rule="evenodd" d="M358.535 147.821C361.248 147.833 361.276 144.923 362.925 143.777C362.326 142.211 361.365 140.927 360 139.949C357.9 142.345 358.983 145.191 358.535 147.821Z" fill="#1A703B"/>
<path fill-rule="evenodd" clip-rule="evenodd" d="M347.135 136.492C347.507 137.453 347.891 138.417 348.258 139.37C349.416 135.833 349.547 132 351.826 128.791C351.337 128.043 350.557 127.082 349.94 128.387C348.696 130.959 346.787 133.397 347.135 136.492Z" fill="#9FC03C"/>
<path fill-rule="evenodd" clip-rule="evenodd" d="M362.698 186.806C361.058 188.211 358.27 188.741 359.227 192.026C359.669 193.531 358.007 193.932 356.799 194.297C357.732 195.068 358.842 195.17 360.015 195.026C361.263 192.385 363.115 189.926 362.698 186.806Z" fill="#F6913A"/>
<path fill-rule="evenodd" clip-rule="evenodd" d="M400.559 163.201C398.954 161.261 396.995 162.723 395.176 162.876C395.3 164.072 395.421 165.259 395.552 166.54C397.721 165.859 399.25 164.696 400.559 163.201Z" fill="#9E1F63"/>
<path fill-rule="evenodd" clip-rule="evenodd" d="M360.203 185.991C361.15 185.948 362.094 185.939 362.706 186.801C364.749 185.389 365.944 183.608 365.429 181.086C363.083 182.082 361.567 183.955 360.203 185.991Z" fill="#F6913A"/>
<path fill-rule="evenodd" clip-rule="evenodd" d="M334.56 150.444C334.344 148.22 334.123 145.988 333.906 143.765C333.626 141.899 333.341 140.025 333.074 138.163C332.393 142.444 332.811 146.624 333.794 150.734C333.815 150.787 334.052 150.834 334.152 150.797C334.304 150.718 334.433 150.564 334.56 150.444Z" fill="#EF5164"/>
<path fill-rule="evenodd" clip-rule="evenodd" d="M323.612 109.106C324.201 109.43 324.783 109.758 325.364 110.086C325.469 109.24 325.569 108.386 325.677 107.526C325.438 106.752 325.398 105.494 324.921 105.325C324.108 105.034 323.468 105.945 323.115 106.784C322.672 107.71 322.73 108.515 323.612 109.106Z" fill="#DDE57C"/>
<path fill-rule="evenodd" clip-rule="evenodd" d="M323.612 109.106C323.449 108.331 323.283 107.568 323.12 106.792C322.739 106.82 322.414 106.979 322.146 107.271C322.534 110.398 322.926 113.511 323.323 116.633C323.648 116.771 323.996 116.818 324.358 116.758C324.113 114.209 323.856 111.656 323.612 109.106Z" fill="#EE4852"/>
<path fill-rule="evenodd" clip-rule="evenodd" d="M347.434 178.103C343.516 179.315 345.361 181.809 345.874 184.011C346.988 182.167 347.406 180.175 347.434 178.103Z" fill="#9E1F63"/>
<path fill-rule="evenodd" clip-rule="evenodd" d="M348.015 174.655C347.749 174.692 347.48 174.741 347.215 174.777C346.854 174.859 346.494 174.94 346.137 175.009C345.697 175.922 345.014 176.482 343.991 176.582C343.747 176.859 343.698 177.076 343.851 177.239C343.98 177.383 344.104 177.442 344.226 177.425C345.388 177.298 346.594 176.968 347.434 178.103C348.527 177.079 348.247 175.865 348.015 174.655Z" fill="#9E1F63"/>
<path fill-rule="evenodd" clip-rule="evenodd" d="M280.549 133.14C280.229 132.248 279.13 131.31 278.732 131.866C277.844 133.123 278.473 134.516 279.542 135.571C279.874 134.755 279.467 133.661 280.549 133.14Z" fill="#A8D6A7"/>
<path fill-rule="evenodd" clip-rule="evenodd" d="M304.954 217.285C305.292 217.184 305.616 217.079 305.949 216.97C307.772 214.164 309.54 211.358 307.291 208.111L307.169 208.018C306.838 208.966 303.732 206.36 305.19 209.558C306.071 211.486 303.683 213.192 304.676 215.087C304.77 215.804 304.858 216.547 304.954 217.285Z" fill="#D64F9C"/>
<path fill-rule="evenodd" clip-rule="evenodd" d="M386.01 131.158C385.036 132.587 384.266 134.061 384.551 135.824C386.398 134.638 386.417 132.96 386.01 131.158Z" fill="#64C3AB"/>
<path fill-rule="evenodd" clip-rule="evenodd" d="M314.856 208.112C313.745 204.94 312.828 201.686 310.588 199.085C308.599 201.669 308.456 204.68 308.221 207.669C307.811 209.823 308.204 211.953 310.586 212.04C312.754 212.122 314.761 210.852 314.856 208.112Z" fill="#7251A1"/>
<path fill-rule="evenodd" clip-rule="evenodd" d="M314.856 208.112C312.362 210.587 309.808 213.595 308.226 207.677C307.927 207.844 307.609 207.977 307.299 208.106C306.845 211.06 306.403 214.017 305.957 216.965C306.188 218.153 306.406 219.338 306.624 220.523C307.64 215.225 314.416 214.194 315.206 208.998C315.157 208.673 315.046 208.375 314.856 208.112Z" fill="#7553A1"/>
<path fill-rule="evenodd" clip-rule="evenodd" d="M312.262 193.11C311.061 193.282 310.399 190.848 308.885 192.575C308.956 192.898 309.018 193.226 309.08 193.553C309.773 194.069 310.215 195.242 311.445 194.357C311.718 193.941 311.99 193.525 312.262 193.11Z" fill="#EE487C"/>
<path fill-rule="evenodd" clip-rule="evenodd" d="M311.445 194.357C310.655 194.086 309.87 193.824 309.08 193.553C309.608 194.609 310.143 195.66 310.679 196.711C311.305 196.24 311.936 195.777 312.575 195.309C312.203 195 311.822 194.674 311.445 194.357Z" fill="#EE4A88"/>
<path fill-rule="evenodd" clip-rule="evenodd" d="M344.223 177.438C344.081 177.18 344.001 176.896 343.987 176.595C343.688 175.867 343.745 174.552 342.361 175.419C341.603 175.891 341.02 176.657 340.359 177.292C341.151 177.584 341.951 177.871 342.738 178.154C343.231 177.906 343.725 177.678 344.223 177.438Z" fill="#9E1F63"/>
<path fill-rule="evenodd" clip-rule="evenodd" d="M368.651 181.547C366.654 186.179 364.662 190.819 362.664 195.451C367.445 191.916 368.14 186.765 368.651 181.547Z" fill="#F9A53E"/>
<path fill-rule="evenodd" clip-rule="evenodd" d="M160.912 205.74C164.241 205.971 167.575 206.21 171.521 206.495C169.329 200.983 167.285 195.814 164.859 189.701C161.776 194.403 158.562 198.102 156.663 202.676C157.452 203.93 158.668 204.565 160.059 204.954C160.385 205.169 160.672 205.429 160.912 205.74Z" fill="#5D3B96"/>
<path fill-rule="evenodd" clip-rule="evenodd" d="M196.742 181.298C195.307 182.36 193.896 183.442 192.928 185.474C199.89 185.966 206.75 186.452 213.969 186.968C213.456 185.23 212.924 183.535 211.507 182.246C206.783 180.149 201.863 179.824 196.742 181.298Z" fill="#AA519E"/>
<path fill-rule="evenodd" clip-rule="evenodd" d="M196.742 181.298C201.665 181.61 206.592 181.93 211.512 182.254C210.306 179.945 209.096 177.648 207.887 175.352C206.408 173.922 205.174 171.695 202.591 174.003C200.457 176.286 197.778 178.153 196.742 181.298Z" fill="#B0529E"/>
<path fill-rule="evenodd" clip-rule="evenodd" d="M202.586 173.995C204.813 172.892 206.127 174.862 207.882 175.344C207.172 173.833 206.457 172.313 205.586 170.456C203.972 171.382 203.087 172.515 202.586 173.995Z" fill="#BC5DA2"/>
<path fill-rule="evenodd" clip-rule="evenodd" d="M160.912 205.74C160.955 205.57 160.998 205.401 161.02 205.234C159.677 204.032 158.025 203.612 156.239 203.579C155.175 204.057 153.815 204.743 155.889 205.388C157.438 205.859 159.227 205.636 160.912 205.74Z" fill="#1AAAD2"/>
<path fill-rule="evenodd" clip-rule="evenodd" d="M156.242 203.566C157.68 204.501 159.298 205.031 161.023 205.221C160.264 203.254 158.226 203.337 156.658 202.668C156.518 202.972 156.373 203.267 156.242 203.566Z" fill="#2D328A"/>
<path fill-rule="evenodd" clip-rule="evenodd" d="M200.44 213.591C197.181 210.204 196.959 206.967 200.97 203.513C202.906 201.845 204.366 199.619 206.437 197.174C199.483 195.915 192.981 194.73 186.406 193.534C185.357 195.504 186.64 197.05 186.782 198.722C187.102 199.725 188.558 201.079 185.936 201.201C182.625 201.986 184.166 204.859 183.591 206.68C182.592 209.869 182.375 213.278 181.833 216.604C181.865 217.402 182.279 218.062 183.041 218.062C188.589 218.068 194.1 217.511 199.473 215.755C200.334 215.476 200.843 214.621 200.44 213.591Z" fill="#42B54A"/>
<path fill-rule="evenodd" clip-rule="evenodd" d="M156.334 147.741C153.299 153.806 150.309 159.89 147.208 165.917C145.961 168.337 146.606 169.367 149.195 169.133C155.704 168.546 162.218 167.891 168.732 167.257C168.635 162.278 164.937 159.064 163.076 154.946C160.445 152.897 161.113 147.774 156.334 147.741Z" fill="#ED4488"/>
<path fill-rule="evenodd" clip-rule="evenodd" d="M162.243 155.496C163.836 159.74 166.313 163.481 168.724 167.262C169.472 167.182 170.228 167.097 170.984 167.013C171.887 165.725 171.657 163.852 174.194 163.493C176.441 163.186 178.272 161.303 178.526 158.645C176.254 154.374 173.217 150.656 170.185 146.946C165.568 148.264 162.523 151.541 162.243 155.496Z" fill="#C2559F"/>
<path fill-rule="evenodd" clip-rule="evenodd" d="M170.354 112.743C171.039 110.679 171.724 108.616 172.749 105.544C166.929 107.831 161.61 108.749 156.789 111.38C154.83 113.715 154.743 116.45 154.781 119.21C154.883 120.033 155.118 120.799 155.443 121.533C158.345 126.381 158.309 126.358 161.632 121.987C164.21 118.612 168.311 116.629 170.354 112.743Z" fill="#E04D9A"/>
<path fill-rule="evenodd" clip-rule="evenodd" d="M162.243 155.496C164.131 151.944 166.951 149.254 170.18 146.938C167.9 143.433 165.619 139.929 163.33 136.429C159.785 136.856 158.023 139.858 155.726 141.995C154.545 143.094 154.726 144.588 156.079 145.639C157.469 146.139 156.14 147.061 156.334 147.741C159.744 149.205 158.905 153.966 162.243 155.496Z" fill="#CA549E"/>
<path fill-rule="evenodd" clip-rule="evenodd" d="M86.9896 237.668C85.641 236.271 84.1513 235.102 81.5149 234.382C81.2032 243.004 80.9009 251.345 80.5827 260.347C82.6641 259.166 84.5576 258.858 85.8447 257.232C88.5268 254.999 89.2284 252.462 88.4733 249.034C87.6608 245.342 90.0149 241.05 86.9896 237.668Z" fill="#9E1F63"/>
<path fill-rule="evenodd" clip-rule="evenodd" d="M174.46 231.298C172.21 228.162 169.96 225.025 166.845 220.692C165.29 227.258 163.579 232.427 162.968 237.683C162.451 242.075 166.737 239.883 168.874 240.635C172.802 238.677 174.237 235.329 174.46 231.298Z" fill="#ED3087"/>
<path fill-rule="evenodd" clip-rule="evenodd" d="M200.44 213.591C194.482 216.666 188.126 216.378 181.825 216.609C180.942 217.596 180.981 218.722 181.222 219.871C183.257 224.803 187.298 223.164 191.053 222.458C194.093 221.348 197.194 220.378 200.162 219.09C204.038 217.417 204.731 215.459 200.44 213.591Z" fill="#73BE45"/>
<path fill-rule="evenodd" clip-rule="evenodd" d="M82.0031 205.345C81.7619 205.013 81.524 204.669 81.2829 204.337C77.4822 202.884 74.8124 205.287 72.0431 207.374C70.5089 210.759 68.9746 214.144 67.1017 218.261C71.8138 217.251 75.4779 216.466 79.1338 215.686C81.6438 214.427 80.9052 212.049 81.3194 210.069C81.4768 208.717 81.6685 207.366 81.9511 206.039C81.9718 205.794 81.9891 205.563 82.0031 205.345Z" fill="#63C2A5"/>
<path fill-rule="evenodd" clip-rule="evenodd" d="M86.9896 237.668C87.1904 244.197 88.1369 250.736 85.8447 257.232C89.4903 255.84 92.9097 254.03 96.05 251.656C94.6669 249.198 95.7224 246.55 95.7615 243.976C93.5359 240.935 90.1227 239.484 86.9896 237.668Z" fill="#9E1F63"/>
<path fill-rule="evenodd" clip-rule="evenodd" d="M164.706 131.68C165.741 128.161 166.76 124.651 167.795 121.132C163.957 120.231 161.909 123.104 159.6 125.315C158.199 126.656 157.337 128.868 154.772 127.951C154.511 127.94 154.265 127.954 154.018 127.946C153.511 128.06 153.073 128.309 152.727 128.691C151.511 131.479 151.694 134.539 150.729 137.376C150.611 137.866 150.575 138.362 150.578 138.869C150.601 139.374 150.713 139.859 150.863 140.334C151.322 141.497 151.916 142.591 152.657 143.597C153.004 143.976 153.426 144.222 153.939 144.304C154.48 144.193 154.841 143.89 155.003 143.363C154.824 136.722 159.975 134.369 164.706 131.68Z" fill="#D64F9C"/>
<path fill-rule="evenodd" clip-rule="evenodd" d="M51.0097 148.371C45.53 149.539 41.0738 150.497 35.7994 151.62C39.0852 155.366 42.0193 158.726 45.621 162.837C47.5557 157.635 49.1706 153.307 51.0097 148.371Z" fill="#6FBD46"/>
<path fill-rule="evenodd" clip-rule="evenodd" d="M46.4482 134.836C45.0906 131.435 43.8114 129.058 43.1794 126.507C41.7157 120.584 39.6909 122.958 37.5076 126.198C35.793 128.741 33.3444 130.847 32.263 134.195C36.8754 134.393 41.2711 134.598 46.4482 134.836Z" fill="#5EBA57"/>
<path fill-rule="evenodd" clip-rule="evenodd" d="M146.611 185.996C151.496 185.91 155.659 185.834 160.795 185.743C158.33 181.277 156.16 177.364 153.774 173.049C150.905 177.217 148.639 181.136 146.611 185.996Z" fill="#EE498A"/>
<path fill-rule="evenodd" clip-rule="evenodd" d="M44.2222 180.543C41.1394 182.065 38.6347 184.337 36.2791 186.785C37.6329 191.425 34.6056 195.885 35.1144 200.497C36.1604 201.477 37.2539 202.351 38.8977 201.828C39.6593 201.939 40.5361 201.76 40.759 201.076C42.9251 194.367 46.709 187.834 44.2222 180.543Z" fill="#C0D730"/>
<path fill-rule="evenodd" clip-rule="evenodd" d="M123.059 170.312C125.688 169.048 128.419 167.956 130.93 166.476C132.739 165.412 135.963 165.319 136.087 163.147C136.214 160.852 133.669 159.504 131.478 158.585C127.029 160.002 121.775 160.285 120.67 166.419C120.68 168.202 121.616 169.424 123.059 170.312Z" fill="#9E1F63"/>
<path fill-rule="evenodd" clip-rule="evenodd" d="M50.5057 231.818C61.0959 238.25 61.0959 238.25 68.6759 227.939C62.554 229.234 56.8363 230.466 50.5057 231.818Z" fill="#7FCFD9"/>
<path fill-rule="evenodd" clip-rule="evenodd" d="M100.654 123.521C98.6505 127.063 96.593 130.571 94.7045 134.178C94.289 134.966 95.1456 135.33 95.9612 135.364C97.2262 135.43 98.5402 135.82 99.7398 135.571C102.113 135.067 105.913 137.449 106.561 134.413C107.227 131.257 105.174 127.783 103.109 124.956C102.788 124.528 102.598 124.078 101.931 124.386C101.505 124.098 101.08 123.809 100.654 123.521Z" fill="#55B84A"/>
<path fill-rule="evenodd" clip-rule="evenodd" d="M117.428 189.184L116.958 189.099L116.552 189.384C115.184 189.181 113.9 189.678 112.581 189.986C114.233 195.389 109.356 200.693 111.626 206.115C112.734 207.478 112.928 209.571 114.894 210.259C118.518 207.344 117.457 202.861 119.065 199.266C119.176 198.449 119.19 197.635 119.153 196.829C119.132 196.013 119.048 195.201 119.056 194.379C118.932 192.498 119.515 190.374 117.428 189.184Z" fill="#225E31"/>
<path fill-rule="evenodd" clip-rule="evenodd" d="M111.634 206.11C112.586 203.733 111.983 201.176 113.128 198.696C114.331 196.092 115.113 193.022 112.321 190.738C110.715 189.615 109.14 190.96 107.552 191.019C104.5 193.561 105.693 196.684 105.979 199.695C107.445 202.181 109.41 204.261 111.634 206.11Z" fill="#166635"/>
<path fill-rule="evenodd" clip-rule="evenodd" d="M127.785 155.047C126.052 153.857 124.382 152.552 122.556 151.505C121.112 150.673 119.894 148.139 118.174 149.426C116.821 150.439 116.588 152.929 117.166 154.905C116.989 156.932 117.854 159.113 116.003 160.886L116.001 160.865C116.159 163.212 117.825 162.355 119.144 162.234C119.973 161.974 120.725 161.549 121.538 161.243C124.39 159.946 127.861 159.265 127.785 155.047Z" fill="#9E1F63"/>
<path fill-rule="evenodd" clip-rule="evenodd" d="M154.286 128.472C156.097 130.554 158.031 130.631 159.245 127.934C160.975 124.079 164.517 122.847 167.803 121.127C168.652 118.337 169.51 115.541 170.362 112.738C166.236 116.37 160.692 118.582 158.821 124.431C157.285 123.852 157.983 121.626 156.314 121.27C154.017 123.297 155.709 126.257 154.286 128.472Z" fill="#DB4E9B"/>
<path fill-rule="evenodd" clip-rule="evenodd" d="M44.2223 180.543C44.3438 188.035 41.716 194.952 38.9026 201.836C39.947 202.795 41.2763 203.043 42.6566 203.173C46.4125 202.245 46.4318 199.34 46.456 196.444C46.4718 194.369 45.0636 192.445 46.0633 190.261C46.3081 186.824 46.1521 183.438 44.9695 180.22C44.9389 180.15 44.6916 180.087 44.61 180.136C44.4549 180.228 44.3483 180.401 44.2223 180.543Z" fill="#CBDB2F"/>
<path fill-rule="evenodd" clip-rule="evenodd" d="M117.428 189.184C117.512 191.111 117.601 193.046 117.69 194.98C122.666 197.259 127.101 200.876 133.136 200.494C133.31 200.192 133.286 199.93 133.043 199.688C133.473 197.864 132.774 196.203 132.521 194.476C131.756 192.909 130.198 191.681 128.727 192.124C124.661 193.347 122.53 190.504 119.785 188.877C118.997 188.981 118.208 189.085 117.428 189.184Z" fill="#EF5256"/>
<path fill-rule="evenodd" clip-rule="evenodd" d="M12.8559 222.278C13.3385 217.717 13.8294 213.152 14.3474 208.316C11.35 208.959 8.71282 209.521 5.66488 210.171C7.76441 214.468 9.738 218.497 11.7117 222.526C12.098 222.452 12.4745 222.36 12.8559 222.278Z" fill="#9E1F63"/>
<path fill-rule="evenodd" clip-rule="evenodd" d="M178.529 158.632C176.452 160.286 175.088 162.786 171.95 163.192C169.065 163.558 171.414 165.73 170.979 167.004C175.081 166.865 179.187 166.712 184.063 166.554C182.482 163.186 180.788 160.725 178.529 158.632Z" fill="#BC5CA2"/>
<path fill-rule="evenodd" clip-rule="evenodd" d="M164.706 131.68C162.088 132.385 159.465 133.082 156.842 133.778C154.486 134.405 155.366 136.499 155.019 137.887C154.54 139.795 154.709 141.826 154.593 143.806C154.082 144.694 154.291 145.399 155.047 145.965C155.418 145.977 155.762 145.85 156.07 145.623C156.085 140.722 161.309 139.794 163.329 136.408C163.79 134.842 164.25 133.254 164.706 131.68Z" fill="#D2509C"/>
<path fill-rule="evenodd" clip-rule="evenodd" d="M151.307 139.352C151.361 138.757 151.408 138.166 151.459 137.583C151.126 134.269 149.078 131.753 147.707 128.923C147.466 128.481 147.181 128.076 146.856 127.695C146.326 127.137 145.689 126.753 144.93 126.553C144.117 126.505 143.398 126.689 142.939 127.459C144.489 131.166 141.432 135.687 144.529 139.116C146.655 141.077 148.901 141.234 151.307 139.352Z" fill="#A8C93E"/>
<path fill-rule="evenodd" clip-rule="evenodd" d="M144.789 127.078C145.263 127.393 145.724 127.704 146.198 128.019C148.55 125.286 151.535 123.06 153.126 119.696C153.621 118.651 154.2 119.235 154.763 119.607C155.269 119.716 155.641 119.561 155.889 119.104C156.192 116.528 156.5 113.96 156.798 111.375C154.903 111.606 152.982 111.775 151.481 113.263C149.856 117.685 144.479 119.808 143.986 124.927C143.937 125.773 144.202 126.499 144.789 127.078Z" fill="#7C55A2"/>
<path fill-rule="evenodd" clip-rule="evenodd" d="M117.987 197.134C117.912 197.919 117.832 198.695 117.749 199.485C118.142 200.444 117.606 201.867 119.067 202.28C123.532 202.621 127.336 204.712 131.299 206.4C132.893 207.076 134.658 207.928 133.729 204.747C130.541 200.346 124.981 199.352 120.857 196.258C120.131 195.706 118.735 195.995 117.987 197.134Z" fill="#F37B65"/>
<path fill-rule="evenodd" clip-rule="evenodd" d="M35.1144 200.497C37.6598 197.494 38.4291 188.49 36.279 186.785C35.4361 187.021 34.6435 187.304 34.3786 188.289C32.3591 191.675 31.0698 195.269 30.8669 199.166C32.1481 199.984 33.5183 200.562 35.1144 200.497Z" fill="#B3D236"/>
<path fill-rule="evenodd" clip-rule="evenodd" d="M30.8751 199.161C33.2899 195.882 34.0278 192.142 34.3868 188.284C30.8741 190.923 27.3581 193.575 23.6478 196.364C26.1111 197.927 28.4314 198.691 30.8751 199.161Z" fill="#42B14C"/>
<path fill-rule="evenodd" clip-rule="evenodd" d="M73.4609 153.279C66.7842 150.796 63.7829 153.495 62.0741 163.577C64.2628 164.287 64.8411 161.282 66.7474 161.387C68.5902 159.674 69.2713 156.917 71.8066 155.83C72.6563 155.16 73.3729 154.414 73.4609 153.279Z" fill="#5EBA47"/>
<path fill-rule="evenodd" clip-rule="evenodd" d="M143.06 143.113C141.699 146.12 143.907 148.927 142.629 152.149C145.304 151.631 147.226 150.832 148.888 149.392C150.131 147.803 150.691 145.958 151.154 144.059C151.344 143.339 151.453 142.611 151.323 141.872C150.975 141.173 150.364 140.851 149.597 140.788C147.204 140.906 145.493 143.137 143.06 143.113Z" fill="#F498AB"/>
<path fill-rule="evenodd" clip-rule="evenodd" d="M63.8303 179.232C62.4184 180.369 61.0016 181.498 59.0341 183.075C62.9171 183.96 65.9914 186.905 69.3051 185.455C71.6659 184.429 69.4926 181.346 69.2562 179.201C67.4628 178.598 65.6382 179.152 63.8303 179.232Z" fill="#9E1F63"/>
<path fill-rule="evenodd" clip-rule="evenodd" d="M91.8457 150.597C92.4696 153.86 92.6108 157.277 94.5001 160.142C94.9006 159.793 95.1842 159.36 95.3704 158.874C95.8785 154.077 97.3331 149.536 99.5686 145.193C99.6234 144.95 99.6733 144.7 99.7315 144.444C97.9573 143.521 96.0303 143.308 94.0237 143.406C89.7801 144.889 93.1779 148.359 91.8457 150.597Z" fill="#FBB33B"/>
<path fill-rule="evenodd" clip-rule="evenodd" d="M80.5164 210.149C80.145 212.015 80.3821 213.994 79.129 215.677C82.0889 215.046 85.057 214.409 88.3478 213.702C86.6658 210.35 84.4921 207.732 81.995 205.35L81.6674 205.412C81.0028 206.933 80.8442 208.563 80.5164 210.149Z" fill="#6ECCE2"/>
<path fill-rule="evenodd" clip-rule="evenodd" d="M127.785 155.047C126.355 158.105 123.293 159.03 120.683 160.547C121.315 162.225 120.2 162.059 119.147 161.978C118.08 162.17 117.209 162.544 117.282 163.859C118.03 165.657 119.064 167.063 121.363 166.769C122.795 163.378 124.571 160.567 128.977 161.087C130.531 161.268 131.068 159.867 131.469 158.59C130.239 157.411 129.016 156.226 127.785 155.047Z" fill="#9E1F63"/>
<path fill-rule="evenodd" clip-rule="evenodd" d="M117.987 197.135C123.17 197.104 125.801 202.035 130.462 203.076C131.635 203.34 132.649 204.174 133.729 204.747C133.529 203.331 133.328 201.915 133.123 200.491C127.979 198.654 123.416 195.323 117.677 194.977C117.785 195.697 117.888 196.409 117.987 197.135Z" fill="#F0635A"/>
<path fill-rule="evenodd" clip-rule="evenodd" d="M146.035 229.684C148.492 227.629 150.948 225.573 153.65 223.317C150.415 221.627 147.346 220.977 144.238 220.448C142.914 223.984 143.378 227.088 146.035 229.684Z" fill="#ED488B"/>
<path fill-rule="evenodd" clip-rule="evenodd" d="M144.789 127.078C144.691 126.374 144.572 125.672 144.479 124.976C144.465 123.726 144.185 122.567 143.576 121.504C142.624 119.827 141.776 118.045 139.863 117.205C138.308 117.543 136.743 117.865 134.836 118.28C136.945 122.24 140.193 124.64 142.944 127.467C143.557 127.346 144.173 127.212 144.789 127.078Z" fill="#A3C941"/>
<path fill-rule="evenodd" clip-rule="evenodd" d="M191.058 222.466C187.681 221.932 183.986 222.404 181.227 219.879C180.014 222.355 179.855 224.968 179.541 228.103C183.652 226.192 187.612 224.921 191.058 222.466Z" fill="#92C445"/>
<path fill-rule="evenodd" clip-rule="evenodd" d="M119.785 188.877C121.885 194.642 127.855 192.311 131.825 194.16C132.502 191.748 132.046 189.568 130.721 187.561C128.142 188.165 126.784 190.694 124.123 191.866C125.268 187.045 122.758 187.597 119.785 188.877Z" fill="#EF545E"/>
<path fill-rule="evenodd" clip-rule="evenodd" d="M72.0383 207.366C75.3979 207.314 78.0227 204.761 81.283 204.337C79.521 202.524 78.4351 198.409 75.9819 199.336C73.3754 200.321 72.9843 204.441 72.0383 207.366Z" fill="#64C3AB"/>
<path fill-rule="evenodd" clip-rule="evenodd" d="M94.5351 158.862C94.5234 159.288 94.4988 159.712 94.4871 160.138C96.7912 164.203 96.4 158.395 97.7891 159.116C98.4452 157.301 99.5693 155.717 100.463 154.005C100.686 153.563 100.844 153.104 100.969 152.644C101.364 150.056 102.898 147.6 102.267 144.882C101.545 144.151 100.649 144.242 99.7184 144.441L99.5955 144.625C96.141 148.83 95.9698 154.045 94.5351 158.862Z" fill="#F89D3A"/>
<path fill-rule="evenodd" clip-rule="evenodd" d="M129.122 236.815C128.387 234.48 127.021 232.553 125.468 230.681C124.018 231.642 123.741 233.11 123.191 234.397C122.425 237.16 122.33 239.956 122.434 242.754C123.936 243.496 125.441 243 126.944 242.593C127.115 240.481 127.752 238.524 129.122 236.815Z" fill="#A6D06A"/>
<path fill-rule="evenodd" clip-rule="evenodd" d="M95.7567 243.967C94.8461 246.618 91.3309 249.457 96.0452 251.648C102.484 247.503 102.484 247.503 95.7567 243.967Z" fill="#9E1F63"/>
<path fill-rule="evenodd" clip-rule="evenodd" d="M142.835 122.264C143.332 123.195 142.91 124.715 144.479 124.976C146.188 120.714 150.673 118.039 151.472 113.268C150.06 113.698 148.648 114.129 147.231 114.551C145.217 116.83 142.533 118.744 142.835 122.264Z" fill="#8155A2"/>
<path fill-rule="evenodd" clip-rule="evenodd" d="M84.9972 178.111C87.1966 175.269 89.3913 172.42 92.1639 168.851C89.0086 169.135 86.8892 169.323 84.7699 169.511C82.6087 172.528 82.3206 175.427 84.9972 178.111Z" fill="#64489C"/>
<path fill-rule="evenodd" clip-rule="evenodd" d="M121.367 166.756C120.08 165.798 118.793 164.839 117.505 163.881C116.855 163.715 116.439 163.963 116.234 164.603C116.274 167.329 114.893 170.248 117.007 172.692C119.019 171.894 121.035 171.105 123.054 170.303C122.488 169.127 121.93 167.945 121.367 166.756Z" fill="#9E1F63"/>
<path fill-rule="evenodd" clip-rule="evenodd" d="M84.9973 178.111C83.9512 175.309 84.6384 172.394 84.77 169.511C83.1604 169.683 81.3861 169.522 81.58 172.079C81.7938 174.912 81.8218 177.766 81.9396 180.678C84.0589 180.789 84.4171 179.328 84.9973 178.111Z" fill="#B677B1"/>
<path fill-rule="evenodd" clip-rule="evenodd" d="M102.694 153.894C104.988 151.471 107.273 149.054 109.598 146.59C108.337 145.341 107.001 145.174 105.549 145.406C103.459 144.826 102.382 145.951 102.317 147.812C102.241 149.933 100.72 151.389 100.139 153.236L100.144 153.244C100.487 155.161 101.518 154.758 102.694 153.894Z" fill="#F48437"/>
<path fill-rule="evenodd" clip-rule="evenodd" d="M46.0551 190.266C44.7026 194.514 47.0934 199.599 42.6565 203.173C44.0025 204.063 45.657 205.157 47.0937 204.303C48.8162 203.28 47.6736 201.319 47.5011 199.821C47.1326 196.616 46.5539 193.448 46.0551 190.266Z" fill="#DAE03B"/>
<path fill-rule="evenodd" clip-rule="evenodd" d="M122.435 242.754C126.302 240.136 122.883 237.187 123.191 234.397C122.067 236.037 120.904 237.666 119.828 239.332C117.525 242.909 118.832 243.734 122.435 242.754Z" fill="#6ABD51"/>
<path fill-rule="evenodd" clip-rule="evenodd" d="M106.915 191.751C108.713 191.412 110.518 191.068 112.316 190.729C113.735 190.273 115.145 189.822 116.561 189.379C110.959 189.338 105.602 191.139 99.8809 192.031C100.103 194.097 101.463 195.067 102.788 196.069C105.655 196.044 105.186 192.856 106.915 191.751Z" fill="#0E753C"/>
<path fill-rule="evenodd" clip-rule="evenodd" d="M143.06 143.113C146.146 146.691 147.332 141.194 149.731 141.459C150.198 140.795 151.368 140.961 151.532 139.936C151.52 139.712 151.446 139.513 151.31 139.339C149.057 139.264 146.795 139.194 144.542 139.119C142.303 139.886 143.212 141.676 143.06 143.113Z" fill="#EF512F"/>
<path fill-rule="evenodd" clip-rule="evenodd" d="M143.183 220.401C141.588 219.427 139.672 218.246 140.26 221.729C140.716 224.429 140.569 227.398 142.484 229.673C142.528 228.057 145.371 228.621 144.91 226.62C144.258 224.555 144.736 222.162 143.183 220.401Z" fill="#FBE692"/>
<path fill-rule="evenodd" clip-rule="evenodd" d="M142.835 122.264C144.539 119.816 146.784 117.665 147.236 114.559C144.553 114.728 142.32 116.341 139.854 117.21C140.282 119.231 141.477 120.796 142.835 122.264Z" fill="#8A5BA4"/>
<path fill-rule="evenodd" clip-rule="evenodd" d="M117.012 172.7C117.225 169.823 117.552 166.934 116.438 164.184C116.102 163.842 115.844 163.929 115.645 164.356C113.945 167.443 113.613 170.788 113.153 174.197C114.907 174.789 115.811 173.336 117.012 172.7Z" fill="#9E1F63"/>
<path fill-rule="evenodd" clip-rule="evenodd" d="M129.122 236.815C126.238 238.02 124.03 239.453 126.949 242.601C128.519 242.64 130.093 242.688 132.047 242.742C132.013 240.046 128.81 239.264 129.122 236.815Z" fill="#99CA45"/>
<path fill-rule="evenodd" clip-rule="evenodd" d="M73.4609 153.279C72.7273 153.848 71.9952 154.437 71.2533 155.01C69.7751 156.408 69.1177 157.847 70.8725 159.389C72.1918 159.677 72.7059 158.311 73.621 157.955C79.1128 155.897 75.7867 154.648 73.4609 153.279Z" fill="#91C741"/>
<path fill-rule="evenodd" clip-rule="evenodd" d="M91.8457 150.597C94.0724 148.601 92.3321 145.56 94.0204 143.419C92.7997 142.554 91.363 142.646 89.5735 142.626C89.6011 145.592 90.5816 148.135 91.8457 150.597Z" fill="#FFCE4C"/>
<path fill-rule="evenodd" clip-rule="evenodd" d="M150.195 143.635C149.76 145.561 149.333 147.482 148.893 149.4C151.114 148.566 153.273 147.627 155.06 145.969C154.91 145.252 154.755 144.526 154.605 143.809C154.273 143.863 153.936 143.909 153.607 143.95C152.469 143.819 151.459 142.751 150.195 143.635Z" fill="#EE5089"/>
<path fill-rule="evenodd" clip-rule="evenodd" d="M106.915 191.751C104.198 191.918 104.361 194.814 102.783 196.061C103.484 197.577 104.539 198.795 105.97 199.679C107.912 197.166 106.635 194.402 106.915 191.751Z" fill="#1A703B"/>
<path fill-rule="evenodd" clip-rule="evenodd" d="M119.08 202.283C118.638 201.353 118.204 200.418 117.762 199.488C116.839 203.084 116.967 206.907 114.91 210.249C115.456 210.963 116.287 211.861 116.821 210.528C117.884 207.875 119.636 205.321 119.08 202.283Z" fill="#9FC03C"/>
<path fill-rule="evenodd" clip-rule="evenodd" d="M100.139 153.236C101.689 151.719 104.439 151.013 103.263 147.824C102.718 146.348 104.35 145.842 105.544 145.398C104.56 144.691 103.438 144.661 102.271 144.89C101.199 147.603 99.5124 150.174 100.139 153.236Z" fill="#F6913A"/>
<path fill-rule="evenodd" clip-rule="evenodd" d="M63.8303 179.232C65.576 181.055 67.4362 179.465 69.2514 179.193C69.0465 178.011 68.8465 176.838 68.6144 175.573C66.5036 176.407 65.0488 177.658 63.8303 179.232Z" fill="#9E1F63"/>
<path fill-rule="evenodd" clip-rule="evenodd" d="M102.694 153.894C101.748 153.992 100.813 154.073 100.135 153.249C98.1779 154.787 97.1031 156.641 97.7891 159.116C100.069 157.971 101.463 156.005 102.694 153.894Z" fill="#F6913A"/>
<path fill-rule="evenodd" clip-rule="evenodd" d="M70.8677 159.381C70.4704 157.894 70.7618 156.451 71.2485 155.002C67.7412 155.771 67.3945 158.683 66.7426 161.378C68.6376 161.854 69.1698 159.329 70.8677 159.381Z" fill="#7AC049"/>
<path fill-rule="evenodd" clip-rule="evenodd" d="M130.721 187.561C131.089 189.761 131.457 191.96 131.825 194.16C132.227 196.009 132.633 197.844 133.03 199.684C133.433 195.381 132.725 191.251 131.467 187.217C131.451 187.171 131.197 187.134 131.107 187.188C130.96 187.275 130.852 187.428 130.721 187.561Z" fill="#EF5164"/>
<path fill-rule="evenodd" clip-rule="evenodd" d="M144.45 227.964C143.838 227.677 143.238 227.392 142.634 227.1C142.589 227.954 142.536 228.814 142.487 229.66C142.78 230.414 142.905 231.665 143.396 231.804C144.222 232.042 144.8 231.081 145.105 230.237C145.47 229.291 145.361 228.494 144.45 227.964Z" fill="#DDE57C"/>
<path fill-rule="evenodd" clip-rule="evenodd" d="M144.45 227.964C144.667 228.719 144.875 229.479 145.1 230.229C145.479 230.18 145.79 229.996 146.04 229.692C145.438 226.615 144.836 223.538 144.234 220.461C143.893 220.333 143.551 220.315 143.191 220.396C143.608 222.921 144.02 225.437 144.45 227.964Z" fill="#EE4852"/>
<path fill-rule="evenodd" clip-rule="evenodd" d="M115.995 160.891C119.839 159.425 117.829 157.063 117.158 154.91C116.172 156.821 115.883 158.826 115.995 160.891Z" fill="#9E1F63"/>
<path fill-rule="evenodd" clip-rule="evenodd" d="M115.646 164.356C115.91 164.299 116.174 164.241 116.438 164.184C116.796 164.081 117.147 163.984 117.506 163.881C117.876 162.943 118.53 162.334 119.544 162.162C119.773 161.86 119.805 161.654 119.636 161.5C119.49 161.366 119.367 161.307 119.249 161.332C118.089 161.535 116.905 161.941 115.988 160.862C114.975 161.982 115.335 163.183 115.646 164.356Z" fill="#9E1F63"/>
<path fill-rule="evenodd" clip-rule="evenodd" d="M185.928 201.206C186.302 202.077 187.47 202.929 187.825 202.354C188.628 201.049 187.913 199.696 186.766 198.731C186.494 199.556 186.979 200.615 185.928 201.206Z" fill="#A8D6A7"/>
<path fill-rule="evenodd" clip-rule="evenodd" d="M155.889 119.104C155.566 119.23 155.243 119.356 154.917 119.494C153.275 122.402 151.698 125.305 154.169 128.387L154.291 128.48C154.565 127.511 157.837 129.896 156.167 126.824C155.16 124.96 157.439 123.109 156.316 121.292C156.169 120.561 156.031 119.826 155.889 119.104Z" fill="#D64F9C"/>
<path fill-rule="evenodd" clip-rule="evenodd" d="M80.5163 210.149C81.4054 208.671 82.07 207.15 81.6755 205.407C79.9176 206.705 80.0014 208.39 80.5163 210.149Z" fill="#64C3AB"/>
<path fill-rule="evenodd" clip-rule="evenodd" d="M146.588 128.881C147.918 131.956 149.047 135.139 151.459 137.583C153.277 134.88 153.212 131.87 153.255 128.874C153.527 126.692 152.984 124.607 150.601 124.686C148.422 124.754 146.501 126.15 146.588 128.881Z" fill="#7251A1"/>
<path fill-rule="evenodd" clip-rule="evenodd" d="M146.588 128.881C148.922 126.247 151.278 123.091 153.255 128.874C153.544 128.692 153.848 128.533 154.156 128.383C154.405 125.419 154.65 122.447 154.904 119.491C154.606 118.32 154.3 117.155 153.999 115.997C153.339 121.337 146.625 122.807 146.19 128.024C146.255 128.339 146.396 128.631 146.588 128.881Z" fill="#7553A1"/>
<path fill-rule="evenodd" clip-rule="evenodd" d="M150.195 143.635C151.386 143.391 152.215 145.771 153.607 143.95C153.515 143.628 153.424 143.307 153.346 142.989C152.613 142.519 152.084 141.386 150.919 142.344C150.678 142.774 150.436 143.204 150.195 143.635Z" fill="#EE487C"/>
<path fill-rule="evenodd" clip-rule="evenodd" d="M150.919 142.344C151.722 142.562 152.542 142.771 153.346 142.989C152.739 141.969 152.13 140.962 151.529 139.949C150.927 140.461 150.321 140.965 149.728 141.472C150.119 141.759 150.523 142.049 150.919 142.344Z" fill="#EE4A88"/>
<path fill-rule="evenodd" clip-rule="evenodd" d="M119.254 161.34C119.413 161.588 119.522 161.866 119.54 162.175C119.889 162.874 119.921 164.191 121.236 163.244C121.964 162.723 122.502 161.918 123.122 161.252C122.309 161.017 121.496 160.782 120.683 160.547C120.207 160.807 119.737 161.075 119.254 161.34Z" fill="#9E1F63"/>
<path fill-rule="evenodd" clip-rule="evenodd" d="M94.5351 158.862C96.2219 154.116 97.9169 149.365 99.6003 144.633C95.0467 148.475 94.6933 153.644 94.5351 158.862Z" fill="#F9A53E"/>
</g>
<defs>
<clipPath id="clip0_397_17004">
<rect width="468" height="325" fill="white"/>
</clipPath>
</defs>
</svg>
