<svg width="468" height="325" viewBox="0 0 468 325" fill="none" xmlns="http://www.w3.org/2000/svg">
<path fill-rule="evenodd" clip-rule="evenodd" d="M328.545 180.35C325.795 178.16 323.065 175.97 319.815 173.38C318.405 179.48 317.085 185.2 315.535 191.96C321.025 189.7 326.005 188.4 330.395 185.56C330.455 184 329.785 182.71 328.815 181.55C328.665 181.16 328.575 180.76 328.545 180.35Z" fill="#5D3B96"/>
<path fill-rule="evenodd" clip-rule="evenodd" d="M282.905 180.29C284.785 180.22 286.655 180.12 288.705 178.93C282.975 174.35 277.335 169.85 271.395 165.1C270.795 166.92 270.235 168.71 270.695 170.67C273.535 175.32 277.595 178.53 282.905 180.29Z" fill="#AA519E"/>
<path fill-rule="evenodd" clip-rule="evenodd" d="M282.905 180.29C278.845 177.09 274.775 173.88 270.705 170.68C270.375 173.4 270.035 176.13 269.705 178.85C270.125 180.97 269.865 183.65 273.475 183.18C276.695 182.44 280.135 182.41 282.905 180.29Z" fill="#B0529E"/>
<path fill-rule="evenodd" clip-rule="evenodd" d="M273.475 183.18C270.885 182.82 270.935 180.32 269.705 178.85C269.415 180.59 269.125 182.33 268.765 184.45C270.725 184.62 272.155 184.16 273.475 183.18Z" fill="#BC5DA2"/>
<path fill-rule="evenodd" clip-rule="evenodd" d="M328.545 180.35C328.395 180.46 328.265 180.59 328.145 180.72C328.585 182.57 329.755 183.91 331.285 185.02C332.495 185.22 334.085 185.44 332.675 183.65C331.635 182.31 329.945 181.44 328.545 180.35Z" fill="#1AAAD2"/>
<path fill-rule="evenodd" clip-rule="evenodd" d="M331.285 185.02C330.605 183.34 329.525 181.93 328.145 180.72C327.625 182.89 329.435 184.03 330.385 185.55C330.685 185.38 330.995 185.2 331.285 185.02Z" fill="#2D328A"/>
<path fill-rule="evenodd" clip-rule="evenodd" d="M299.045 149.99C299.835 154.88 298.095 157.83 292.555 158.45C289.875 158.74 287.275 159.81 284.035 160.7C289.295 165.94 294.215 170.84 299.195 175.79C301.285 174.7 301.095 172.59 301.975 171.05C302.305 169.98 301.845 167.95 304.195 169.4C307.525 170.68 307.925 167.26 309.505 166.03C312.285 163.84 314.515 161 316.975 158.44C317.425 157.73 317.455 156.91 316.805 156.46C312.005 153.16 306.905 150.36 301.205 148.69C300.265 148.42 299.315 148.86 299.045 149.99Z" fill="#42B54A"/>
<path fill-rule="evenodd" clip-rule="evenodd" d="M297.785 233.54C304.045 230.07 310.275 226.56 316.565 223.15C319.095 221.79 319.155 220.51 316.775 219.18C310.785 215.81 304.755 212.51 298.755 209.18C295.845 213.57 297.125 218.56 296.275 223.26C297.315 226.61 293.675 230.67 297.785 233.54Z" fill="#ED4488"/>
<path fill-rule="evenodd" clip-rule="evenodd" d="M297.315 223.28C298.475 218.64 298.575 213.91 298.755 209.19C298.045 208.81 297.345 208.44 296.645 208.06C295.095 208.65 294.165 210.41 291.765 209.21C289.635 208.15 286.925 208.69 285.105 210.85C284.515 215.92 284.925 220.96 285.325 226C290.105 227.59 294.705 226.55 297.315 223.28Z" fill="#C2559F"/>
<path fill-rule="evenodd" clip-rule="evenodd" d="M264.705 255.64C262.875 257.03 261.045 258.42 258.325 260.49C264.735 261.96 269.875 264.32 275.625 264.91C278.715 264.04 280.425 261.72 282.055 259.29C282.455 258.52 282.705 257.71 282.865 256.87C283.255 250.92 283.275 250.96 277.775 252.79C273.535 254.2 268.795 253.49 264.705 255.64Z" fill="#E04D9A"/>
<path fill-rule="evenodd" clip-rule="evenodd" d="M297.315 223.28C293.565 225.24 289.505 225.9 285.325 226.01C285.205 230.41 285.085 234.82 284.965 239.23C288.295 240.96 291.605 239.4 294.875 238.91C296.555 238.66 297.295 237.25 296.755 235.53C295.845 234.28 297.555 234.26 297.795 233.55C295.705 230.24 299.285 226.59 297.315 223.28Z" fill="#CA549E"/>
<path fill-rule="evenodd" clip-rule="evenodd" d="M411.625 196.55C411.955 198.57 412.545 200.48 414.395 202.67C419.835 195.34 425.075 188.27 430.745 180.63C428.235 180.42 426.415 179.57 424.325 180.22C420.665 180.57 418.545 182.36 417.145 185.79C415.645 189.48 411.035 191.81 411.625 196.55Z" fill="#9E1F63"/>
<path fill-rule="evenodd" clip-rule="evenodd" d="M332.125 150.05C332.195 154.12 332.275 158.18 332.365 163.81C337.635 159.02 342.215 155.54 345.895 151.33C348.965 147.82 343.945 147.17 342.545 145.24C337.985 144.61 334.735 146.67 332.125 150.05Z" fill="#ED3087"/>
<path fill-rule="evenodd" clip-rule="evenodd" d="M299.045 149.99C306.035 150.87 311.375 154.9 316.965 158.44C318.325 158.1 318.965 157.11 319.435 155.96C320.625 150.45 316.145 149.48 312.475 147.86C309.175 147.02 305.915 146.02 302.585 145.37C298.215 144.53 296.445 145.81 299.045 149.99Z" fill="#73BE45"/>
<path fill-rule="evenodd" clip-rule="evenodd" d="M396.595 227.65C396.605 228.09 396.605 228.52 396.615 228.96C399.025 232.49 402.785 231.99 406.425 231.82C409.775 229.79 413.125 227.76 417.205 225.29C412.525 223.36 408.885 221.87 405.255 220.37C402.325 219.96 401.545 222.48 400.005 223.96C399.055 225.04 398.085 226.1 397.035 227.09C396.895 227.28 396.735 227.47 396.595 227.65Z" fill="#63C2A5"/>
<path fill-rule="evenodd" clip-rule="evenodd" d="M411.625 196.55C415.365 190.75 418.465 184.5 424.325 180.21C420.335 179.25 416.285 178.8 412.155 178.99C411.885 181.94 409.385 183.63 407.815 185.85C407.915 189.82 410.005 193.11 411.625 196.55Z" fill="#9E1F63"/>
<path fill-rule="evenodd" clip-rule="evenodd" d="M280.925 242.53C277.925 244.98 274.925 247.42 271.935 249.87C274.725 252.94 278.215 251.66 281.535 251.1C283.555 250.76 285.625 249.36 287.285 251.68C287.505 251.84 287.725 251.98 287.935 252.13C288.445 252.34 288.965 252.38 289.505 252.25C292.225 250.55 293.895 247.79 296.435 245.88C296.835 245.52 297.165 245.11 297.465 244.67C297.745 244.21 297.945 243.73 298.105 243.22C298.405 241.93 298.535 240.63 298.505 239.32C298.435 238.79 298.205 238.32 297.815 237.94C297.285 237.72 296.785 237.77 296.325 238.12C292.495 244.03 286.625 243.01 280.925 242.53Z" fill="#D64F9C"/>
<path fill-rule="evenodd" clip-rule="evenodd" d="M385.145 310.17C384.285 313.94 383.965 316.76 382.975 319.36C380.695 325.38 383.865 324.52 387.705 323C390.715 321.8 394.085 321.44 397.025 319.17C393.165 316.23 389.485 313.45 385.145 310.17Z" fill="#5EBA57"/>
<path fill-rule="evenodd" clip-rule="evenodd" d="M329.105 206.03C324.825 203.2 321.185 200.79 316.675 197.81C316.135 203.17 315.675 207.86 315.155 213.04C320.135 211.12 324.445 209.06 329.105 206.03Z" fill="#EE498A"/>
<path fill-rule="evenodd" clip-rule="evenodd" d="M414.425 271.71C418.005 272.22 421.535 271.73 425.045 271.01C426.645 266.17 431.935 264.09 434.255 259.77C433.935 258.29 433.505 256.88 431.785 256.35C431.195 255.8 430.325 255.44 429.725 255.91C423.825 260.45 416.645 263.88 414.425 271.71Z" fill="#C0D730"/>
<path fill-rule="evenodd" clip-rule="evenodd" d="M340.095 233.71C337.065 233.24 334.045 232.57 330.985 232.37C328.785 232.22 325.935 230.37 324.535 232.2C323.045 234.12 324.445 236.81 325.785 238.92C330.485 240.33 335.195 243.22 339.825 238.53C340.885 236.95 340.805 235.34 340.095 233.71Z" fill="#9E1F63"/>
<path fill-rule="evenodd" clip-rule="evenodd" d="M439.695 223.35C434.385 211.45 434.385 211.45 421.645 215.92C427.735 218.42 433.415 220.76 439.695 223.35Z" fill="#7FCFD9"/>
<path fill-rule="evenodd" clip-rule="evenodd" d="M331.465 287.75C335.325 285.86 339.205 284.03 342.995 282.02C343.825 281.58 343.305 280.76 342.625 280.24C341.565 279.44 340.675 278.3 339.475 277.81C337.125 276.84 335.255 272.5 332.885 274.76C330.415 277.11 330.115 281.35 330.205 285.04C330.225 285.6 330.115 286.11 330.875 286.24C331.075 286.74 331.275 287.24 331.465 287.75Z" fill="#55B84A"/>
<path fill-rule="evenodd" clip-rule="evenodd" d="M356.265 220.63L356.615 220.99L357.135 220.98C358.195 221.98 359.615 222.31 360.935 222.82C362.735 217.13 370.125 215.41 371.415 209.35C371.265 207.5 372.355 205.56 371.065 203.8C366.185 204.17 364.415 208.71 360.875 210.88C360.285 211.52 359.795 212.22 359.345 212.95C358.875 213.67 358.465 214.42 357.965 215.13C356.945 216.85 355.165 218.35 356.265 220.63Z" fill="#225E31"/>
<path fill-rule="evenodd" clip-rule="evenodd" d="M371.415 209.35C369.155 210.85 368.145 213.44 365.675 214.92C363.085 216.47 360.565 218.68 361.615 222.33C362.335 224.26 364.495 224.03 365.905 224.92C370.065 224.53 370.905 221.1 372.455 218.31C372.685 215.25 372.225 212.28 371.415 209.35Z" fill="#166635"/>
<path fill-rule="evenodd" clip-rule="evenodd" d="M326.855 244.17C327.645 246.24 328.315 248.37 329.265 250.36C330.015 251.95 329.555 254.88 331.815 254.78C333.585 254.69 335.275 252.67 335.975 250.6C337.335 248.94 337.895 246.53 340.565 246.09L340.555 246.1C341.815 243.97 339.865 243.72 338.645 243.04C337.775 242.78 336.865 242.69 335.985 242.48C332.735 241.93 329.315 240.46 326.855 244.17Z" fill="#9E1F63"/>
<path fill-rule="evenodd" clip-rule="evenodd" d="M288.025 251.52C287.705 248.63 286.085 247.41 283.405 249.04C279.605 251.35 275.795 250.32 271.935 249.87C269.525 251.79 267.115 253.72 264.705 255.64C270.445 254.94 276.575 256.31 281.695 252.34C282.685 253.75 280.745 255.28 281.965 256.58C285.155 256.19 285.465 252.6 288.025 251.52Z" fill="#DB4E9B"/>
<path fill-rule="evenodd" clip-rule="evenodd" d="M414.425 271.71C418.805 265.13 425.225 260.67 431.785 256.35C431.445 254.9 430.455 253.89 429.335 252.96C425.535 251.53 423.775 254.04 422.025 256.55C420.775 258.35 420.825 260.86 418.665 262.17C416.395 265.02 414.505 268.05 413.595 271.56C413.565 271.63 413.755 271.83 413.855 271.84C414.055 271.85 414.245 271.76 414.425 271.71Z" fill="#CBDB2F"/>
<path fill-rule="evenodd" clip-rule="evenodd" d="M356.265 220.63C357.345 218.9 358.425 217.17 359.505 215.44C356.575 210.49 354.905 204.71 349.445 201.45C349.115 201.6 348.975 201.86 349.045 202.2C347.575 203.53 347.195 205.4 346.375 207.05C346.095 208.88 346.715 210.87 348.255 211.36C352.505 212.72 352.645 216.46 354.055 219.5C354.785 219.88 355.525 220.25 356.265 220.63Z" fill="#EF5256"/>
<path fill-rule="evenodd" clip-rule="evenodd" d="M466.565 254.05C463.415 257.74 460.255 261.42 456.915 265.31C459.905 266.54 462.525 267.62 465.535 268.85C466.285 263.87 466.995 259.19 467.705 254.5C467.325 254.37 466.945 254.21 466.565 254.05Z" fill="#9E1F63"/>
<path fill-rule="evenodd" clip-rule="evenodd" d="M285.105 210.85C287.895 210.64 290.565 209.29 293.525 210.8C296.245 212.2 295.515 208.91 296.645 208.05C293.015 205.73 289.375 203.42 285.045 200.66C284.405 204.55 284.395 207.69 285.105 210.85Z" fill="#BC5CA2"/>
<path fill-rule="evenodd" clip-rule="evenodd" d="M280.925 242.53C283.615 243.48 286.305 244.42 288.985 245.38C291.395 246.24 291.895 243.89 293.025 242.89C294.575 241.51 295.655 239.65 296.935 237.99C297.905 237.52 298.145 236.78 297.835 235.84C297.515 235.61 297.145 235.51 296.745 235.53C293.795 239.78 288.725 237.48 284.955 239.22C283.605 240.32 282.265 241.43 280.925 242.53Z" fill="#D2509C"/>
<path fill-rule="evenodd" clip-rule="evenodd" d="M297.115 243.83C296.715 244.31 296.315 244.79 295.925 245.27C294.235 248.35 294.495 251.76 293.985 255.04C293.925 255.57 293.945 256.08 293.995 256.61C294.125 257.4 294.435 258.12 294.985 258.75C295.655 259.28 296.385 259.54 297.245 259.15C298.125 255 303.475 252.89 302.845 248.05C302.175 245.1 300.325 243.62 297.115 243.83Z" fill="#A8C93E"/>
<path fill-rule="evenodd" clip-rule="evenodd" d="M295.405 258.38C295.185 257.83 294.975 257.28 294.755 256.73C291.075 257.71 287.165 257.88 283.775 259.85C282.725 260.46 282.565 259.61 282.305 258.95C281.945 258.55 281.515 258.47 281.035 258.72C279.235 260.78 277.425 262.85 275.625 264.9C277.405 265.83 279.165 266.82 281.345 266.41C285.405 263.53 291.325 264.88 294.815 260.73C295.365 260.03 295.565 259.25 295.405 258.38Z" fill="#7C55A2"/>
<path fill-rule="evenodd" clip-rule="evenodd" d="M360.535 213.38C361.075 212.74 361.605 212.11 362.145 211.47C362.385 210.41 363.705 209.49 362.675 208.26C359.015 205.3 356.975 201.22 354.565 197.39C353.595 195.86 352.565 194.07 351.475 197.39C351.605 203.11 355.815 207.29 357.525 212.43C357.825 213.35 359.215 213.92 360.535 213.38Z" fill="#F37B65"/>
<path fill-rule="evenodd" clip-rule="evenodd" d="M434.265 259.77C430.265 260.86 424.205 268.24 425.055 271.01C425.915 271.31 426.775 271.54 427.595 270.83C431.375 269.09 434.635 266.72 437.135 263.45C436.525 261.98 435.685 260.66 434.265 259.77Z" fill="#B3D236"/>
<path fill-rule="evenodd" clip-rule="evenodd" d="M437.135 263.45C433.085 264.87 430.205 267.69 427.595 270.83C432.215 270.62 436.835 270.41 441.725 270.19C440.525 267.36 438.965 265.32 437.135 263.45Z" fill="#42B14C"/>
<path fill-rule="evenodd" clip-rule="evenodd" d="M306.505 245.47C309.485 243.66 309.255 239.9 312.285 237.86C309.655 236.71 307.525 236.27 305.225 236.53C303.195 237.17 301.605 238.45 300.075 239.81C299.475 240.33 298.955 240.9 298.625 241.62C298.505 242.44 298.845 243.07 299.465 243.59C301.585 244.92 304.415 244 306.505 245.47Z" fill="#F498AB"/>
<path fill-rule="evenodd" clip-rule="evenodd" d="M396.685 261.18C398.595 261.04 400.495 260.89 403.145 260.69C400.315 257.61 399.415 253.22 395.675 252.52C393.025 252.02 393.065 255.98 391.975 258C393.165 259.56 395.075 260.18 396.685 261.18Z" fill="#9E1F63"/>
<path fill-rule="evenodd" clip-rule="evenodd" d="M355.305 269.43C356.715 266.22 358.635 263.16 358.725 259.54C358.165 259.62 357.665 259.82 357.205 260.13C353.905 264 349.915 267.08 345.385 269.53C345.185 269.71 344.985 269.89 344.795 270.08C345.775 271.94 347.315 273.27 349.115 274.38C353.665 275.62 352.805 270.58 355.305 269.43Z" fill="#FBB33B"/>
<path fill-rule="evenodd" clip-rule="evenodd" d="M400.745 224.34C402.185 222.95 403.165 221.08 405.255 220.37C402.305 219.15 399.365 217.94 396.095 216.6C395.545 220.52 395.855 224.09 396.585 227.65L396.905 227.78C398.415 226.86 399.515 225.55 400.745 224.34Z" fill="#6ECCE2"/>
<path fill-rule="evenodd" clip-rule="evenodd" d="M326.855 244.17C329.925 242.36 333.135 243.38 336.295 243.61C336.755 241.77 337.615 242.57 338.475 243.28C339.515 243.75 340.495 243.93 341.215 242.76C341.645 240.75 341.595 238.91 339.435 237.8C336.165 239.9 332.945 241.29 329.445 238.22C328.215 237.14 326.905 238.03 325.795 238.9C326.145 240.66 326.505 242.41 326.855 244.17Z" fill="#9E1F63"/>
<path fill-rule="evenodd" clip-rule="evenodd" d="M360.535 213.38C356.025 210.33 356.705 204.46 353.295 200.78C352.445 199.86 352.055 198.53 351.465 197.38C350.785 198.73 350.115 200.09 349.435 201.44C352.785 206.1 354.735 211.7 359.495 215.42C359.845 214.75 360.195 214.06 360.535 213.38Z" fill="#F0635A"/>
<path fill-rule="evenodd" clip-rule="evenodd" d="M355.765 168.36C352.405 168.69 349.055 169.02 345.365 169.38C347.155 172.78 349.425 175.16 351.795 177.48C355.045 175.19 356.505 172.2 355.765 168.36Z" fill="#ED488B"/>
<path fill-rule="evenodd" clip-rule="evenodd" d="M295.405 258.38C295.085 259.06 294.745 259.73 294.415 260.4C293.685 261.49 293.235 262.66 293.125 263.96C292.945 265.99 292.615 268.03 293.765 269.91C295.315 270.55 296.865 271.19 298.755 271.96C299.305 267.27 297.925 263.24 297.245 259.14C296.625 258.89 296.015 258.64 295.405 258.38Z" fill="#A3C941"/>
<path fill-rule="evenodd" clip-rule="evenodd" d="M312.475 147.86C315.075 150.33 318.555 152.12 319.435 155.96C321.965 154.53 323.675 152.35 325.815 149.81C321.115 149.02 316.935 147.77 312.475 147.86Z" fill="#92C445"/>
<path fill-rule="evenodd" clip-rule="evenodd" d="M354.045 219.49C355.675 213.22 349.115 211.7 346.785 207.72C344.755 209.42 343.835 211.59 343.785 214.12C346.385 215.13 349.065 213.74 352.075 214.3C348.195 217.83 350.705 218.83 354.045 219.49Z" fill="#EF545E"/>
<path fill-rule="evenodd" clip-rule="evenodd" d="M406.425 231.82C403.475 229.87 399.675 230.53 396.615 228.96C397.045 231.59 395.525 235.81 398.215 236.46C401.055 237.15 403.865 233.81 406.425 231.82Z" fill="#64C3AB"/>
<path fill-rule="evenodd" clip-rule="evenodd" d="M357.925 260.63C358.195 260.27 358.465 259.9 358.725 259.54C359.165 254.64 356.025 259.92 355.255 258.47C353.605 259.66 351.675 260.37 349.885 261.33C349.435 261.58 349.015 261.88 348.625 262.21C346.735 264.23 343.935 265.45 342.855 268.18C343.045 269.25 343.885 269.71 344.795 270.08L345.005 270C350.515 268.42 353.795 263.98 357.925 260.63Z" fill="#F89D3A"/>
<path fill-rule="evenodd" clip-rule="evenodd" d="M374.665 172.22C373.905 174.7 373.925 177.19 374.155 179.73C375.985 179.76 377.095 178.65 378.345 177.85C380.665 175.91 382.415 173.52 384.005 171.03C383.155 169.48 381.555 169.02 380.005 168.48C378.595 170.23 376.865 171.55 374.665 172.22Z" fill="#A6D06A"/>
<path fill-rule="evenodd" clip-rule="evenodd" d="M407.815 185.86C410.185 184.1 414.935 183.72 412.155 179C404.115 178.78 404.115 178.78 407.815 185.86Z" fill="#9E1F63"/>
<path fill-rule="evenodd" clip-rule="evenodd" d="M294.215 263.75C294.335 262.64 295.615 261.57 294.415 260.41C290.385 263.09 284.905 262.76 281.345 266.42C282.825 266.89 284.305 267.36 285.785 267.83C288.895 267.04 292.355 266.99 294.215 263.75Z" fill="#8155A2"/>
<path fill-rule="evenodd" clip-rule="evenodd" d="M377.695 249.57C374.095 250.73 370.495 251.9 365.945 253.37C368.845 255 370.795 256.1 372.745 257.2C376.425 255.84 378.405 253.49 377.695 249.57Z" fill="#64489C"/>
<path fill-rule="evenodd" clip-rule="evenodd" d="M339.435 237.8C339.975 239.4 340.515 241 341.055 242.6C341.515 243.13 342.025 243.17 342.595 242.72C344.195 240.33 347.145 238.61 346.765 235.23C344.555 234.73 342.325 234.22 340.105 233.71C339.875 235.07 339.655 236.43 339.435 237.8Z" fill="#9E1F63"/>
<path fill-rule="evenodd" clip-rule="evenodd" d="M377.695 249.57C376.925 252.63 374.575 254.76 372.745 257.19C374.235 258 375.685 259.19 377.045 256.85C378.555 254.26 380.235 251.75 381.885 249.15C380.115 247.79 378.935 248.85 377.695 249.57Z" fill="#B677B1"/>
<path fill-rule="evenodd" clip-rule="evenodd" d="M347.885 260.11C344.465 260.86 341.025 261.6 337.545 262.36C337.875 264.2 338.945 265.13 340.345 265.8C341.805 267.55 343.405 267.21 344.575 265.63C345.905 263.83 348.095 263.47 349.705 262.2H349.715C350.555 260.32 349.415 260.05 347.885 260.11Z" fill="#F48437"/>
<path fill-rule="evenodd" clip-rule="evenodd" d="M418.675 262.16C422.395 259.27 423.365 253.42 429.345 252.96C428.715 251.38 427.945 249.44 426.185 249.33C424.075 249.2 423.885 251.59 423.135 253C421.545 255.99 420.145 259.1 418.675 262.16Z" fill="#DAE03B"/>
<path fill-rule="evenodd" clip-rule="evenodd" d="M384.005 171.04C379.095 171.01 380.285 175.62 378.345 177.86C380.305 177.1 382.275 176.38 384.215 175.56C388.345 173.83 387.715 172.33 384.005 171.04Z" fill="#6ABD51"/>
<path fill-rule="evenodd" clip-rule="evenodd" d="M366.905 224.65C365.145 223.87 363.385 223.1 361.625 222.32C360.125 221.87 358.635 221.42 357.135 220.97C361.955 224.34 367.675 225.96 373.155 228.59C374.205 226.66 373.605 225.01 373.055 223.35C370.555 221.66 369.065 224.73 366.905 224.65Z" fill="#0E753C"/>
<path fill-rule="evenodd" clip-rule="evenodd" d="M306.505 245.47C305.975 240.52 301.655 244.6 299.745 242.94C298.945 243.24 298.035 242.4 297.285 243.19C297.155 243.4 297.105 243.61 297.115 243.84C299.025 245.25 300.935 246.65 302.835 248.06C305.225 248.73 305.505 246.63 306.505 245.47Z" fill="#EF512F"/>
<path fill-rule="evenodd" clip-rule="evenodd" d="M352.665 178.14C353.455 179.94 354.405 182.1 355.985 178.73C357.215 176.11 359.115 173.61 358.825 170.49C357.815 171.87 355.695 169.69 354.895 171.71C354.225 173.88 352.375 175.68 352.665 178.14Z" fill="#FBE692"/>
<path fill-rule="evenodd" clip-rule="evenodd" d="M294.215 263.75C291.275 264.86 288.045 265.4 285.785 267.83C288.215 269.28 291.105 269.2 293.755 269.92C294.605 267.9 294.515 265.83 294.215 263.75Z" fill="#8A5BA4"/>
<path fill-rule="evenodd" clip-rule="evenodd" d="M346.755 235.22C344.845 237.6 342.825 239.92 342.155 242.97C342.245 243.46 342.515 243.56 342.945 243.29C346.265 241.62 348.565 238.9 350.995 236.22C349.825 234.65 348.175 235.39 346.755 235.22Z" fill="#9E1F63"/>
<path fill-rule="evenodd" clip-rule="evenodd" d="M374.665 172.22C377.875 172.89 380.645 172.97 380.005 168.49C378.665 167.52 377.335 166.54 375.675 165.33C374.085 167.69 376.405 170.27 374.665 172.22Z" fill="#99CA45"/>
<path fill-rule="evenodd" clip-rule="evenodd" d="M355.305 269.43C352.175 269.84 351.865 273.53 349.115 274.38C349.645 275.86 350.955 276.63 352.485 277.71C354.245 275.12 354.915 272.32 355.305 269.43Z" fill="#FFCE4C"/>
<path fill-rule="evenodd" clip-rule="evenodd" d="M300.645 240.77C302.175 239.36 303.695 237.95 305.225 236.53C302.805 235.93 300.375 235.47 297.835 235.84C297.535 236.56 297.235 237.28 296.935 237.99C297.255 238.14 297.565 238.3 297.875 238.47C298.775 239.26 299.015 240.78 300.645 240.77Z" fill="#EE5089"/>
<path fill-rule="evenodd" clip-rule="evenodd" d="M366.905 224.65C369.355 226.12 370.945 223.5 373.055 223.35C373.355 221.61 373.175 219.93 372.465 218.31C369.275 219.35 368.725 222.51 366.905 224.65Z" fill="#1A703B"/>
<path fill-rule="evenodd" clip-rule="evenodd" d="M362.675 208.26C362.495 209.33 362.325 210.41 362.145 211.47C365.095 208.89 367.275 205.49 371.065 203.81C371.025 202.87 370.835 201.58 369.575 202.43C367.065 204.09 364.025 205.27 362.675 208.26Z" fill="#9FC03C"/>
<path fill-rule="evenodd" clip-rule="evenodd" d="M349.705 262.19C347.465 262.58 344.655 261.56 343.755 265.05C343.345 266.65 341.625 266.12 340.335 265.8C340.765 267 341.715 267.69 342.855 268.19C345.405 266.47 348.405 265.24 349.705 262.19Z" fill="#F6913A"/>
<path fill-rule="evenodd" clip-rule="evenodd" d="M396.685 261.18C396.275 258.56 393.715 258.83 391.985 257.99C391.455 259.14 390.925 260.28 390.355 261.51C392.685 262.06 394.695 261.83 396.685 261.18Z" fill="#9E1F63"/>
<path fill-rule="evenodd" clip-rule="evenodd" d="M347.885 260.11C348.765 260.58 349.625 261.08 349.715 262.19C352.325 262.01 354.365 261.04 355.255 258.48C352.595 258.12 350.215 259 347.885 260.11Z" fill="#F6913A"/>
<path fill-rule="evenodd" clip-rule="evenodd" d="M343.785 214.13C344.785 212 345.785 209.86 346.785 207.73C347.535 205.89 348.285 204.04 349.045 202.21C346.125 205.72 344.255 209.73 342.935 213.98C342.925 214.04 343.115 214.21 343.225 214.23C343.405 214.24 343.605 214.17 343.785 214.13Z" fill="#EF5164"/>
<path fill-rule="evenodd" clip-rule="evenodd" d="M356.105 170.81C356.465 171.42 356.815 172.03 357.165 172.64C357.715 171.93 358.265 171.21 358.825 170.49C359.025 169.66 359.665 168.5 359.325 168.09C358.745 167.39 357.675 167.87 356.905 168.44C356.005 169.04 355.625 169.8 356.105 170.81Z" fill="#DDE57C"/>
<path fill-rule="evenodd" clip-rule="evenodd" d="M356.105 170.81C356.375 170.02 356.635 169.24 356.905 168.45C356.545 168.27 356.165 168.24 355.765 168.36C354.435 171.4 353.115 174.43 351.795 177.47C352.015 177.77 352.305 178 352.665 178.14C353.815 175.7 354.955 173.25 356.105 170.81Z" fill="#EE4852"/>
<path fill-rule="evenodd" clip-rule="evenodd" d="M340.565 246.1C336.365 245.09 336.695 248.34 335.975 250.61C337.975 249.54 339.425 247.96 340.565 246.1Z" fill="#9E1F63"/>
<path fill-rule="evenodd" clip-rule="evenodd" d="M342.945 243.29C342.685 243.18 342.415 243.08 342.155 242.97C341.785 242.85 341.415 242.73 341.055 242.6C340.165 243.19 339.245 243.33 338.265 242.87C337.895 242.99 337.735 243.16 337.785 243.39C337.825 243.59 337.905 243.71 338.025 243.76C339.145 244.27 340.415 244.62 340.565 246.1C342.105 245.76 342.505 244.51 342.945 243.29Z" fill="#9E1F63"/>
<path fill-rule="evenodd" clip-rule="evenodd" d="M304.185 169.41C304.375 168.43 303.885 166.99 303.225 167.28C301.745 167.94 301.565 169.54 301.965 171.07C302.705 170.51 302.925 169.3 304.185 169.41Z" fill="#A8D6A7"/>
<path fill-rule="evenodd" clip-rule="evenodd" d="M281.025 258.73C281.385 258.82 281.735 258.9 282.095 258.98C285.255 257.42 288.365 255.83 288.075 251.68L288.015 251.53C287.205 252.21 285.795 248.18 285.395 251.86C285.155 254.08 282.075 254.34 281.955 256.59C281.655 257.29 281.335 258.01 281.025 258.73Z" fill="#D64F9C"/>
<path fill-rule="evenodd" clip-rule="evenodd" d="M400.745 224.34C399.095 225.11 397.605 226.03 396.915 227.78C399.225 227.7 400.145 226.19 400.745 224.34Z" fill="#64C3AB"/>
<path fill-rule="evenodd" clip-rule="evenodd" d="M294.925 255.75C295.625 252.28 296.545 248.84 295.915 245.28C292.725 246.55 290.975 249.2 289.155 251.78C287.625 253.51 286.835 255.65 288.945 257.01C290.865 258.25 293.365 258.18 294.925 255.75Z" fill="#7251A1"/>
<path fill-rule="evenodd" clip-rule="evenodd" d="M294.925 255.75C291.335 256.65 287.405 258 289.155 251.79C288.795 251.78 288.435 251.73 288.085 251.68C286.085 254.11 284.095 256.55 282.105 258.98C281.675 260.18 281.235 261.37 280.795 262.56C284.565 258.31 291.255 261.02 294.765 256.74C294.895 256.42 294.955 256.09 294.925 255.75Z" fill="#7553A1"/>
<path fill-rule="evenodd" clip-rule="evenodd" d="M300.645 240.77C299.465 240.28 300.175 237.72 297.875 238.47C297.765 238.8 297.645 239.13 297.525 239.46C297.875 240.3 297.645 241.6 299.235 241.46C299.705 241.23 300.175 241 300.645 240.77Z" fill="#EE487C"/>
<path fill-rule="evenodd" clip-rule="evenodd" d="M299.235 241.46C298.665 240.79 298.095 240.13 297.525 239.46C297.435 240.7 297.355 241.94 297.275 243.18C298.095 243.09 298.915 243.01 299.745 242.93C299.575 242.45 299.405 241.95 299.235 241.46Z" fill="#EE4A88"/>
<path fill-rule="evenodd" clip-rule="evenodd" d="M338.015 243.77C338.025 243.46 338.105 243.16 338.255 242.88C338.375 242.06 339.135 240.9 337.415 240.94C336.475 240.96 335.535 241.34 334.595 241.56C335.155 242.25 335.725 242.94 336.285 243.62C336.865 243.66 337.435 243.72 338.015 243.77Z" fill="#9E1F63"/>
<path fill-rule="evenodd" clip-rule="evenodd" d="M357.925 260.63C353.625 263.75 349.325 266.88 345.025 270C351.255 269.37 354.655 265.08 357.925 260.63Z" fill="#F9A53E"/>
<path fill-rule="evenodd" clip-rule="evenodd" d="M156.805 170.8C159.695 172.8 162.585 174.81 166.005 177.19C166.985 171.02 167.915 165.24 169.005 158.4C163.685 161 158.785 162.62 154.605 165.74C154.645 167.3 155.405 168.53 156.455 169.63C156.635 170 156.755 170.39 156.805 170.8Z" fill="#5D3B96"/>
<path fill-rule="evenodd" clip-rule="evenodd" d="M202.395 167.94C200.525 168.13 198.665 168.35 196.695 169.67C202.735 173.86 208.685 177.99 214.945 182.34C215.415 180.49 215.845 178.67 215.255 176.74C212.105 172.3 207.825 169.36 202.395 167.94Z" fill="#AA519E"/>
<path fill-rule="evenodd" clip-rule="evenodd" d="M202.395 167.94C206.685 170.87 210.975 173.81 215.255 176.75C215.405 174.01 215.545 171.28 215.685 168.55C215.115 166.46 215.195 163.78 211.615 164.48C208.455 165.4 205.025 165.65 202.395 167.94Z" fill="#B0529E"/>
<path fill-rule="evenodd" clip-rule="evenodd" d="M211.615 164.47C214.225 164.67 214.355 167.16 215.685 168.54C215.855 166.79 216.025 165.03 216.235 162.88C214.275 162.85 212.865 163.4 211.615 164.47Z" fill="#BC5DA2"/>
<path fill-rule="evenodd" clip-rule="evenodd" d="M156.805 170.8C156.935 170.67 157.065 170.54 157.175 170.4C156.605 168.59 155.335 167.32 153.735 166.33C152.515 166.19 150.915 166.08 152.445 167.78C153.595 169.04 155.335 169.8 156.805 170.8Z" fill="#1AAAD2"/>
<path fill-rule="evenodd" clip-rule="evenodd" d="M153.745 166.32C154.545 167.94 155.725 169.29 157.185 170.39C157.555 168.2 155.665 167.18 154.605 165.73C154.315 165.93 154.025 166.12 153.745 166.32Z" fill="#2D328A"/>
<path fill-rule="evenodd" clip-rule="evenodd" d="M0.755371 1.22015C1.00537 1.49015 1.37536 1.71014 1.49536 2.02014C4.44536 10.0101 4.44538 10.0102 11.6054 3.67017C7.96538 2.44017 4.56537 1.30015 1.16537 0.150146C1.02537 0.510146 0.885371 0.870154 0.755371 1.22015Z" fill="#AED039"/>
<path fill-rule="evenodd" clip-rule="evenodd" d="M188.375 199.17C187.245 194.35 188.785 191.3 194.275 190.33C196.925 189.86 199.445 188.63 202.635 187.53C197.015 182.65 191.765 178.08 186.455 173.46C184.445 174.68 184.775 176.77 184.005 178.36C183.755 179.44 184.345 181.45 181.905 180.15C178.485 179.08 178.335 182.51 176.835 183.85C174.215 186.2 172.185 189.17 169.905 191.89C169.505 192.63 169.525 193.45 170.215 193.86C175.235 196.85 180.525 199.31 186.335 200.61C187.265 200.82 188.185 200.32 188.375 199.17Z" fill="#42B54A"/>
<path fill-rule="evenodd" clip-rule="evenodd" d="M183.855 115.82C177.845 119.68 171.865 123.58 165.815 127.37C163.385 128.89 163.415 130.17 165.885 131.35C172.095 134.32 178.345 137.23 184.585 140.16C187.175 135.6 185.555 130.7 186.085 125.97C184.805 122.7 188.165 118.42 183.855 115.82Z" fill="#ED4488"/>
<path fill-rule="evenodd" clip-rule="evenodd" d="M185.035 126.02C184.195 130.72 184.425 135.44 184.575 140.16C185.295 140.49 186.025 140.82 186.755 141.15C188.265 140.47 189.065 138.65 191.555 139.69C193.755 140.62 196.425 139.9 198.085 137.63C198.325 132.54 197.575 127.54 196.825 122.55C191.935 121.26 187.415 122.59 185.035 126.02Z" fill="#C2559F"/>
<path fill-rule="evenodd" clip-rule="evenodd" d="M215.375 91.6701C217.105 90.1701 218.835 88.6701 221.415 86.4401C214.915 85.3801 209.605 83.3501 203.825 83.1401C200.795 84.2001 199.245 86.6301 197.795 89.1501C197.445 89.9501 197.245 90.7701 197.145 91.6101C197.165 97.5601 197.145 97.5201 202.505 95.3501C206.655 93.6801 211.435 94.0901 215.375 91.6701Z" fill="#E04D9A"/>
<path fill-rule="evenodd" clip-rule="evenodd" d="M185.035 126.02C188.655 123.82 192.655 122.9 196.825 122.54C196.645 118.14 196.465 113.74 196.275 109.34C192.835 107.82 189.625 109.59 186.395 110.29C184.735 110.65 184.095 112.1 184.755 113.78C185.745 114.98 184.045 115.1 183.855 115.82C186.155 118.98 182.835 122.84 185.035 126.02Z" fill="#CA549E"/>
<path fill-rule="evenodd" clip-rule="evenodd" d="M72.6954 159.95C72.2254 157.96 71.5054 156.1 69.5054 154.03C64.5854 161.67 59.8254 169.06 54.6954 177.04C57.2154 177.09 59.0954 177.83 61.1354 177.05C64.7654 176.47 66.7654 174.55 67.9254 171.04C69.1754 167.26 73.6154 164.64 72.6954 159.95Z" fill="#9E1F63"/>
<path fill-rule="evenodd" clip-rule="evenodd" d="M155.325 201.23C154.975 197.18 154.625 193.13 154.135 187.53C149.195 192.64 144.865 196.4 141.485 200.83C138.655 204.53 143.715 204.85 145.245 206.68C149.855 207.02 152.955 204.76 155.325 201.23Z" fill="#ED3087"/>
<path fill-rule="evenodd" clip-rule="evenodd" d="M188.375 199.17C181.325 198.75 175.725 195.07 169.895 191.89C168.565 192.31 167.995 193.35 167.595 194.52C166.785 200.08 171.325 200.77 175.105 202.15C178.455 202.78 181.785 203.57 185.165 204C189.575 204.57 191.255 203.17 188.375 199.17Z" fill="#73BE45"/>
<path fill-rule="evenodd" clip-rule="evenodd" d="M85.5654 128C85.5254 127.57 85.4954 127.13 85.4554 126.7C82.7954 123.34 79.0854 124.08 75.4554 124.48C72.2454 126.72 69.0354 128.96 65.1254 131.68C69.9354 133.3 73.6754 134.56 77.4054 135.82C80.3554 136.03 80.9654 133.48 82.4054 131.91C83.2754 130.77 84.1754 129.65 85.1454 128.6C85.2954 128.39 85.4354 128.19 85.5654 128Z" fill="#63C2A5"/>
<path fill-rule="evenodd" clip-rule="evenodd" d="M72.6954 159.95C69.3654 165.97 66.7054 172.4 61.1354 177.05C65.1854 177.75 69.2554 177.95 73.3754 177.49C73.4454 174.52 75.8254 172.69 77.2454 170.38C76.8654 166.43 74.5554 163.28 72.6954 159.95Z" fill="#9E1F63"/>
<path fill-rule="evenodd" clip-rule="evenodd" d="M200.075 105.78C202.905 103.15 205.715 100.52 208.545 97.8902C205.555 95.0102 202.155 96.5102 198.875 97.2702C196.885 97.7302 194.915 99.2702 193.085 97.0602C192.855 96.9102 192.625 96.7902 192.405 96.6502C191.885 96.4802 191.355 96.4702 190.835 96.6302C188.235 98.5002 186.755 101.37 184.355 103.42C183.985 103.8 183.685 104.23 183.415 104.69C183.165 105.16 183.005 105.66 182.885 106.17C182.675 107.47 182.625 108.78 182.755 110.09C182.865 110.62 183.115 111.07 183.535 111.42C184.085 111.61 184.575 111.53 185.005 111.14C188.415 105.03 194.345 105.67 200.075 105.78Z" fill="#D64F9C"/>
<path fill-rule="evenodd" clip-rule="evenodd" d="M88.1454 59.7401C82.5554 57.8501 78.0054 56.3201 72.6254 54.5001C73.5854 59.6601 74.4354 64.2801 75.4854 69.9401C80.0354 66.2701 83.8254 63.2201 88.1454 59.7401Z" fill="#6FBD46"/>
<path fill-rule="evenodd" clip-rule="evenodd" d="M91.2954 45.0301C91.8954 41.2201 92.0154 38.3801 92.8154 35.7301C94.6754 29.5801 91.5654 30.6401 87.8454 32.4001C84.9254 33.7801 81.5754 34.3701 78.7954 36.8201C82.8654 39.4801 86.7354 42.0301 91.2954 45.0301Z" fill="#5EBA57"/>
<path fill-rule="evenodd" clip-rule="evenodd" d="M154.475 145.23C158.945 147.78 162.755 149.95 167.455 152.63C167.625 147.26 167.765 142.55 167.925 137.36C163.085 139.59 158.925 141.92 154.475 145.23Z" fill="#EE498A"/>
<path fill-rule="evenodd" clip-rule="evenodd" d="M64.6954 85.2202C61.0854 84.9402 57.5954 85.6502 54.1454 86.6002C52.8754 91.5302 47.7354 93.9402 45.7154 98.3902C46.1354 99.8402 46.6554 101.22 48.4254 101.63C49.0554 102.14 49.9454 102.45 50.5154 101.95C56.0854 97.0402 63.0254 93.1602 64.6954 85.2202Z" fill="#C0D730"/>
<path fill-rule="evenodd" clip-rule="evenodd" d="M141.585 118.36C144.645 118.63 147.705 119.11 150.775 119.12C152.985 119.13 155.955 120.78 157.235 118.88C158.585 116.87 157.005 114.28 155.515 112.27C150.725 111.16 145.815 108.59 141.515 113.55C140.565 115.17 140.755 116.78 141.585 118.36Z" fill="#9E1F63"/>
<path fill-rule="evenodd" clip-rule="evenodd" d="M42.8054 135.03C48.9354 146.55 48.9354 146.55 61.3454 141.29C55.1054 139.17 49.2654 137.21 42.8054 135.03Z" fill="#7FCFD9"/>
<path fill-rule="evenodd" clip-rule="evenodd" d="M146.465 63.9402C142.745 66.0702 138.995 68.1402 135.345 70.3902C134.545 70.8802 135.125 71.6702 135.845 72.1402C136.955 72.8802 137.935 73.9402 139.155 74.3602C141.575 75.1802 143.735 79.3802 145.955 76.9802C148.255 74.4802 148.265 70.2302 147.915 66.5602C147.855 66.0002 147.925 65.4902 147.155 65.4102C146.925 64.9202 146.695 64.4302 146.465 63.9402Z" fill="#55B84A"/>
<path fill-rule="evenodd" clip-rule="evenodd" d="M126.335 132.42L125.955 132.09L125.435 132.13C124.305 131.21 122.875 130.97 121.515 130.54C120.105 136.32 112.835 138.5 111.975 144.63C112.245 146.46 111.295 148.46 112.705 150.14C117.555 149.45 119.005 144.82 122.395 142.43C122.935 141.75 123.385 141.02 123.785 140.27C124.205 139.52 124.565 138.74 125.015 138C125.915 136.23 127.585 134.62 126.335 132.42Z" fill="#225E31"/>
<path fill-rule="evenodd" clip-rule="evenodd" d="M111.985 144.63C114.125 142.99 114.955 140.35 117.325 138.72C119.815 137.01 122.175 134.65 120.875 131.08C120.025 129.2 117.875 129.57 116.405 128.77C112.275 129.43 111.675 132.9 110.315 135.78C110.305 138.82 110.965 141.76 111.985 144.63Z" fill="#166635"/>
<path fill-rule="evenodd" clip-rule="evenodd" d="M154.075 107.08C153.145 105.07 152.335 102.99 151.245 101.06C150.385 99.5302 150.645 96.5802 148.395 96.8202C146.625 97.0102 145.075 99.1402 144.535 101.24C143.285 102.98 142.895 105.42 140.265 106.03L140.275 106.01C139.155 108.22 141.125 108.34 142.385 108.94C143.275 109.15 144.185 109.17 145.085 109.33C148.365 109.69 151.875 110.94 154.075 107.08Z" fill="#9E1F63"/>
<path fill-rule="evenodd" clip-rule="evenodd" d="M192.365 97.2701C192.885 100.13 194.595 101.24 197.145 99.4502C200.785 96.8902 204.655 97.6802 208.555 97.8902C210.825 95.8202 213.105 93.7502 215.385 91.6702C209.695 92.7402 203.485 91.7601 198.645 96.0501C197.565 94.7001 199.395 93.0601 198.075 91.8401C194.905 92.4401 194.845 96.0301 192.365 97.2701Z" fill="#DB4E9B"/>
<path fill-rule="evenodd" clip-rule="evenodd" d="M64.6954 85.2202C60.7754 92.0702 54.6754 96.9202 48.4254 101.64C48.8554 103.07 49.9254 104.01 51.1054 104.87C55.0054 106.05 56.5854 103.43 58.1654 100.82C59.2954 98.9502 59.0554 96.4502 61.1354 95.0102C63.2054 92.0302 64.8854 88.8802 65.5454 85.3302C65.5554 85.2502 65.3654 85.0602 65.2654 85.0602C65.0754 85.0602 64.8854 85.1602 64.6954 85.2202Z" fill="#CBDB2F"/>
<path fill-rule="evenodd" clip-rule="evenodd" d="M126.335 132.42C125.375 134.21 124.415 136.01 123.455 137.81C126.735 142.55 128.805 148.21 134.475 151.11C134.795 150.93 134.915 150.68 134.825 150.33C136.195 148.91 136.455 147.03 137.155 145.33C137.305 143.5 136.555 141.55 134.985 141.16C130.645 140.08 130.245 136.36 128.635 133.41C127.865 133.08 127.095 132.75 126.335 132.42Z" fill="#EF5256"/>
<path fill-rule="evenodd" clip-rule="evenodd" d="M13.8454 106.14C16.7354 102.27 19.6354 98.4002 22.7054 94.3002C19.6454 93.2702 16.9554 92.3602 13.8454 91.3102C13.4354 96.3302 13.0554 101.04 12.6754 105.75C13.0654 105.89 13.4554 106.01 13.8454 106.14Z" fill="#9E1F63"/>
<path fill-rule="evenodd" clip-rule="evenodd" d="M198.095 137.62C195.325 138 192.745 139.53 189.685 138.21C186.875 136.99 187.835 140.22 186.755 141.14C190.545 143.22 194.345 145.29 198.845 147.77C199.225 143.87 199.015 140.73 198.095 137.62Z" fill="#BC5CA2"/>
<path fill-rule="evenodd" clip-rule="evenodd" d="M200.075 105.78C197.325 105.01 194.575 104.23 191.825 103.45C189.355 102.75 189.025 105.12 187.965 106.19C186.505 107.66 185.565 109.59 184.395 111.32C183.455 111.85 183.265 112.6 183.645 113.52C183.975 113.73 184.355 113.8 184.755 113.76C187.405 109.33 192.635 111.3 196.285 109.32C197.545 108.15 198.815 106.96 200.075 105.78Z" fill="#D2509C"/>
<path fill-rule="evenodd" clip-rule="evenodd" d="M183.815 105.52C184.185 105.01 184.545 104.5 184.905 104C186.385 100.82 185.885 97.4402 186.165 94.1402C186.185 93.6102 186.145 93.0901 186.055 92.5701C185.875 91.7801 185.505 91.0901 184.925 90.5001C184.215 90.0201 183.465 89.8001 182.635 90.2501C182.045 94.4401 176.845 96.8901 177.805 101.66C178.675 104.58 180.625 105.93 183.815 105.52Z" fill="#A8C93E"/>
<path fill-rule="evenodd" clip-rule="evenodd" d="M184.515 90.9002C184.775 91.4402 185.025 91.9702 185.285 92.5102C188.885 91.3002 192.785 90.8902 196.035 88.7002C197.045 88.0202 197.255 88.8602 197.565 89.5002C197.965 89.8702 198.385 89.9302 198.855 89.6502C200.515 87.4802 202.175 85.3202 203.835 83.1402C201.995 82.3302 200.165 81.4502 198.005 81.9902C194.155 85.1202 188.145 84.1502 184.945 88.5202C184.445 89.2602 184.295 90.0602 184.515 90.9002Z" fill="#7C55A2"/>
<path fill-rule="evenodd" clip-rule="evenodd" d="M122.565 139.92C122.075 140.59 121.585 141.25 121.085 141.92C120.925 143 119.675 144 120.775 145.16C124.635 147.87 126.955 151.81 129.635 155.47C130.715 156.94 131.855 158.66 132.725 155.28C132.205 149.58 127.705 145.69 125.635 140.67C125.275 139.78 123.855 139.29 122.565 139.92Z" fill="#F37B65"/>
<path fill-rule="evenodd" clip-rule="evenodd" d="M45.7154 98.3902C49.6354 97.0402 55.1754 89.3002 54.1454 86.6002C53.2554 86.3602 52.3854 86.1902 51.6154 86.9402C47.9654 88.9202 44.8654 91.4802 42.5854 94.9002C43.3054 96.3302 44.2354 97.5902 45.7154 98.3902Z" fill="#B3D236"/>
<path fill-rule="evenodd" clip-rule="evenodd" d="M42.5954 94.9002C46.5454 93.2302 49.2254 90.2402 51.6254 86.9402C47.0254 87.4402 42.4154 87.9502 37.5554 88.4802C38.9454 91.2202 40.6354 93.1602 42.5954 94.9002Z" fill="#42B14C"/>
<path fill-rule="evenodd" clip-rule="evenodd" d="M105.835 76.2602C101.125 70.4202 96.9554 71.2502 89.9854 79.4602C91.5854 81.2802 93.7254 78.8702 95.3954 79.9902C97.9854 79.4302 100.085 77.3002 102.965 77.6802C104.095 77.5302 105.145 77.2402 105.835 76.2602Z" fill="#5EBA47"/>
<path fill-rule="evenodd" clip-rule="evenodd" d="M174.325 104.49C171.475 106.48 171.965 110.21 169.075 112.44C171.775 113.41 173.945 113.72 176.225 113.31C178.205 112.54 179.705 111.17 181.145 109.7C181.705 109.15 182.195 108.55 182.475 107.81C182.535 106.99 182.155 106.37 181.495 105.9C179.265 104.72 176.515 105.82 174.325 104.49Z" fill="#F498AB"/>
<path fill-rule="evenodd" clip-rule="evenodd" d="M83.1554 94.5801C81.2654 94.8501 79.3754 95.1101 76.7454 95.4801C79.7854 98.3701 80.9854 102.69 84.7654 103.16C87.4554 103.5 87.1454 99.5401 88.0854 97.4701C86.7854 95.9601 84.8354 95.4801 83.1554 94.5801Z" fill="#9E1F63"/>
<path fill-rule="evenodd" clip-rule="evenodd" d="M123.925 83.7202C122.735 87.0102 121.025 90.1802 121.195 93.7902C121.745 93.6902 122.235 93.4502 122.665 93.1102C125.705 89.0402 129.465 85.7102 133.825 82.9802C134.005 82.7902 134.185 82.5902 134.375 82.3902C133.265 80.6002 131.635 79.3702 129.765 78.3802C125.125 77.4402 126.335 82.4102 123.925 83.7202Z" fill="#FBB33B"/>
<path fill-rule="evenodd" clip-rule="evenodd" d="M81.6354 131.55C80.2954 133.04 79.4454 134.96 77.4054 135.81C80.4254 136.83 83.4554 137.85 86.8154 138.98C87.0954 135.04 86.5354 131.5 85.5554 128L85.2254 127.88C83.8054 128.9 82.7854 130.29 81.6354 131.55Z" fill="#6ECCE2"/>
<path fill-rule="evenodd" clip-rule="evenodd" d="M154.075 107.08C151.135 109.08 147.865 108.27 144.685 108.24C144.355 110.1 143.435 109.35 142.525 108.71C141.455 108.31 140.465 108.18 139.825 109.41C139.535 111.44 139.715 113.27 141.955 114.24C145.075 111.94 148.195 110.35 151.905 113.19C153.215 114.19 154.455 113.21 155.505 112.27C155.025 110.54 154.555 108.81 154.075 107.08Z" fill="#9E1F63"/>
<path fill-rule="evenodd" clip-rule="evenodd" d="M122.565 139.92C127.275 142.68 127.005 148.56 130.665 152.01C131.585 152.88 132.055 154.18 132.725 155.28C133.305 153.89 133.885 152.5 134.465 151.1C130.795 146.67 128.455 141.2 123.445 137.8C123.155 138.51 122.865 139.21 122.565 139.92Z" fill="#F0635A"/>
<path fill-rule="evenodd" clip-rule="evenodd" d="M130.455 184.48C133.785 183.94 137.115 183.4 140.775 182.81C138.755 179.54 136.325 177.3 133.795 175.15C130.695 177.64 129.445 180.7 130.455 184.48Z" fill="#ED488B"/>
<path fill-rule="evenodd" clip-rule="evenodd" d="M184.515 90.9001C184.805 90.2101 185.075 89.5101 185.365 88.8301C186.025 87.6901 186.395 86.4901 186.415 85.2001C186.455 83.1701 186.645 81.1001 185.365 79.3101C183.775 78.7801 182.185 78.2301 180.235 77.5801C180.015 82.3001 181.665 86.2201 182.635 90.2601C183.255 90.4801 183.885 90.6901 184.515 90.9001Z" fill="#A3C941"/>
<path fill-rule="evenodd" clip-rule="evenodd" d="M175.105 202.16C172.335 199.86 168.735 198.3 167.595 194.53C165.165 196.12 163.615 198.4 161.645 201.07C166.395 201.55 170.665 202.53 175.105 202.16Z" fill="#92C445"/>
<path fill-rule="evenodd" clip-rule="evenodd" d="M128.635 133.41C127.435 139.76 134.095 140.86 136.695 144.67C138.605 142.85 139.365 140.63 139.245 138.1C136.585 137.26 133.995 138.82 130.955 138.45C134.585 134.7 132.015 133.85 128.635 133.41Z" fill="#EF545E"/>
<path fill-rule="evenodd" clip-rule="evenodd" d="M75.4554 124.47C78.5254 126.23 82.2754 125.33 85.4554 126.7C84.8354 124.11 86.0654 119.8 83.3454 119.32C80.4554 118.81 77.8854 122.33 75.4554 124.47Z" fill="#64C3AB"/>
<path fill-rule="evenodd" clip-rule="evenodd" d="M121.915 92.6501C121.675 93.0301 121.425 93.4001 121.185 93.7801C121.085 98.7001 123.855 93.2301 124.725 94.6301C126.295 93.3401 128.165 92.5101 129.895 91.4401C130.335 91.1601 130.725 90.8301 131.085 90.4801C132.835 88.3501 135.545 86.9501 136.435 84.1501C136.175 83.1001 135.315 82.7001 134.365 82.3801L134.155 82.4801C128.765 84.4301 125.805 89.0601 121.915 92.6501Z" fill="#F89D3A"/>
<path fill-rule="evenodd" clip-rule="evenodd" d="M111.305 181.84C111.895 179.33 111.695 176.85 111.295 174.32C109.465 174.41 108.425 175.59 107.235 176.46C105.055 178.55 103.465 181.03 102.055 183.62C103.015 185.1 104.645 185.46 106.225 185.9C107.515 184.08 109.145 182.65 111.305 181.84Z" fill="#A6D06A"/>
<path fill-rule="evenodd" clip-rule="evenodd" d="M77.2454 170.37C74.9954 172.28 70.2854 172.96 73.3754 177.48C81.4354 177.19 81.4354 177.19 77.2454 170.37Z" fill="#9E1F63"/>
<path fill-rule="evenodd" clip-rule="evenodd" d="M185.335 85.4901C185.285 86.6001 184.085 87.7501 185.365 88.8301C189.205 85.8901 194.705 85.8801 197.995 81.9901C196.485 81.6201 194.975 81.2501 193.465 80.8701C190.415 81.8501 186.955 82.1401 185.335 85.4901Z" fill="#8155A2"/>
<path fill-rule="evenodd" clip-rule="evenodd" d="M102.925 104.95C106.445 103.56 109.965 102.16 114.395 100.42C111.385 98.9802 109.365 98.0102 107.345 97.0402C103.765 98.6102 101.945 101.08 102.925 104.95Z" fill="#64489C"/>
<path fill-rule="evenodd" clip-rule="evenodd" d="M141.965 114.23C141.315 112.67 140.665 111.11 140.015 109.55C139.515 109.05 139.005 109.05 138.475 109.52C137.045 112.01 134.225 113.91 134.825 117.26C137.075 117.62 139.325 117.99 141.585 118.35C141.705 116.98 141.835 115.61 141.965 114.23Z" fill="#9E1F63"/>
<path fill-rule="evenodd" clip-rule="evenodd" d="M102.925 104.95C103.485 101.85 105.675 99.5802 107.345 97.0402C105.795 96.3302 104.275 95.2301 103.075 97.6501C101.745 100.33 100.235 102.93 98.7754 105.63C100.635 106.87 101.745 105.74 102.925 104.95Z" fill="#B677B1"/>
<path fill-rule="evenodd" clip-rule="evenodd" d="M131.975 92.5402C135.355 91.5802 138.725 90.6202 142.155 89.6402C141.685 87.8302 140.565 86.9602 139.125 86.3902C137.545 84.7402 135.965 85.1802 134.905 86.8302C133.695 88.7102 131.535 89.2102 130.015 90.5702V90.5802C129.295 92.5002 130.445 92.6902 131.975 92.5402Z" fill="#F48437"/>
<path fill-rule="evenodd" clip-rule="evenodd" d="M61.1254 95.0101C57.6154 98.1301 57.0454 104.02 51.1054 104.87C51.8454 106.4 52.7554 108.28 54.5154 108.28C56.6254 108.28 56.6454 105.89 57.2954 104.44C58.6854 101.34 59.8654 98.1601 61.1254 95.0101Z" fill="#DAE03B"/>
<path fill-rule="evenodd" clip-rule="evenodd" d="M102.055 183.62C106.965 183.33 105.455 178.82 107.235 176.46C105.335 177.34 103.405 178.19 101.535 179.12C97.5254 181.12 98.2653 182.57 102.055 183.62Z" fill="#6ABD51"/>
<path fill-rule="evenodd" clip-rule="evenodd" d="M115.435 129.09C117.245 129.75 119.065 130.41 120.875 131.07C122.405 131.42 123.925 131.77 125.445 132.13C120.395 129.08 114.575 127.83 108.915 125.56C108.005 127.55 108.715 129.16 109.375 130.78C111.985 132.3 113.275 129.16 115.435 129.09Z" fill="#0E753C"/>
<path fill-rule="evenodd" clip-rule="evenodd" d="M174.325 104.49C175.195 109.39 179.225 105.05 181.255 106.58C182.035 106.23 183.005 107.01 183.705 106.17C183.815 105.96 183.855 105.74 183.825 105.51C181.825 104.23 179.815 102.95 177.815 101.67C175.375 101.16 175.235 103.27 174.325 104.49Z" fill="#EF512F"/>
<path fill-rule="evenodd" clip-rule="evenodd" d="M132.865 174.54C131.945 172.8 130.845 170.7 129.505 174.17C128.465 176.86 126.735 179.47 127.245 182.56C128.155 181.12 130.425 183.16 131.085 181.1C131.605 178.88 133.325 176.97 132.865 174.54Z" fill="#FBE692"/>
<path fill-rule="evenodd" clip-rule="evenodd" d="M185.335 85.4902C188.195 84.1902 191.385 83.4502 193.465 80.8802C190.945 79.5902 188.055 79.8502 185.355 79.3102C184.655 81.3702 184.895 83.4302 185.335 85.4902Z" fill="#8A5BA4"/>
<path fill-rule="evenodd" clip-rule="evenodd" d="M134.825 117.27C136.565 114.78 138.415 112.34 138.885 109.25C138.765 108.76 138.485 108.7 138.075 108.98C134.875 110.86 132.775 113.71 130.525 116.55C131.795 118.03 133.395 117.2 134.825 117.27Z" fill="#9E1F63"/>
<path fill-rule="evenodd" clip-rule="evenodd" d="M111.305 181.84C108.045 181.38 105.275 181.49 106.225 185.91C107.625 186.79 109.025 187.68 110.765 188.78C112.185 186.32 109.705 183.89 111.305 181.84Z" fill="#99CA45"/>
<path fill-rule="evenodd" clip-rule="evenodd" d="M105.835 76.2601C104.865 76.3801 103.885 76.5201 102.905 76.6401C100.815 77.1101 99.4454 78.0601 100.205 80.4001C101.245 81.3701 102.445 80.4101 103.465 80.5801C109.545 81.6701 107.205 78.7501 105.835 76.2601Z" fill="#91C741"/>
<path fill-rule="evenodd" clip-rule="evenodd" d="M123.925 83.7202C127.015 83.1102 127.075 79.4202 129.755 78.3902C129.115 76.9502 127.765 76.2602 126.155 75.2802C124.585 77.9802 124.105 80.8102 123.925 83.7202Z" fill="#FFCE4C"/>
<path fill-rule="evenodd" clip-rule="evenodd" d="M180.505 108.8C179.075 110.31 177.655 111.82 176.225 113.32C178.685 113.76 181.145 114.07 183.655 113.53C183.905 112.8 184.155 112.06 184.405 111.33C184.075 111.2 183.745 111.06 183.425 110.92C182.465 110.19 182.125 108.68 180.505 108.8Z" fill="#EE5089"/>
<path fill-rule="evenodd" clip-rule="evenodd" d="M115.435 129.09C112.885 127.78 111.475 130.49 109.375 130.77C109.195 132.52 109.495 134.19 110.315 135.76C113.425 134.53 113.755 131.34 115.435 129.09Z" fill="#1A703B"/>
<path fill-rule="evenodd" clip-rule="evenodd" d="M120.785 145.17C120.885 144.09 120.995 143.01 121.095 141.93C118.325 144.69 116.385 148.22 112.725 150.14C112.835 151.08 113.105 152.34 114.305 151.42C116.695 149.59 119.655 148.22 120.785 145.17Z" fill="#9FC03C"/>
<path fill-rule="evenodd" clip-rule="evenodd" d="M130.015 90.5702C132.235 90.0302 135.105 90.8702 135.755 87.3502C136.055 85.7202 137.805 86.1402 139.125 86.3802C138.615 85.2102 137.615 84.5802 136.435 84.1602C134.005 86.0402 131.095 87.4602 130.015 90.5702Z" fill="#F6913A"/>
<path fill-rule="evenodd" clip-rule="evenodd" d="M83.1554 94.5801C83.7554 97.1701 86.2954 96.7301 88.0854 97.4601C88.5354 96.2801 88.9854 95.1101 89.4554 93.8401C87.0954 93.4601 85.1054 93.8101 83.1554 94.5801Z" fill="#9E1F63"/>
<path fill-rule="evenodd" clip-rule="evenodd" d="M131.975 92.5401C131.065 92.1201 130.175 91.6901 130.005 90.5801C127.405 90.9201 125.435 92.0201 124.725 94.6301C127.405 94.8201 129.725 93.7901 131.975 92.5401Z" fill="#F6913A"/>
<path fill-rule="evenodd" clip-rule="evenodd" d="M100.205 80.3901C100.645 78.8301 101.685 77.6801 102.905 76.6301C99.3154 75.4401 97.4354 77.8901 95.3954 79.9801C96.8554 81.4301 98.6954 79.4301 100.205 80.3901Z" fill="#7AC049"/>
<path fill-rule="evenodd" clip-rule="evenodd" d="M139.245 138.1C138.395 140.29 137.545 142.48 136.695 144.67C136.065 146.56 135.445 148.44 134.815 150.32C137.495 146.64 139.075 142.52 140.105 138.19C140.115 138.14 139.905 137.97 139.795 137.97C139.615 137.97 139.435 138.05 139.245 138.1Z" fill="#EF5164"/>
<path fill-rule="evenodd" clip-rule="evenodd" d="M129.945 182.07C129.545 181.48 129.155 180.9 128.765 180.31C128.265 181.06 127.755 181.81 127.255 182.55C127.115 183.39 126.555 184.59 126.925 184.98C127.545 185.64 128.585 185.08 129.315 184.48C130.155 183.82 130.485 183.04 129.945 182.07Z" fill="#DDE57C"/>
<path fill-rule="evenodd" clip-rule="evenodd" d="M129.945 182.07C129.735 182.87 129.515 183.67 129.315 184.47C129.685 184.63 130.065 184.63 130.455 184.49C131.565 181.38 132.675 178.27 133.785 175.16C133.545 174.86 133.245 174.66 132.875 174.54C131.895 177.05 130.915 179.55 129.945 182.07Z" fill="#EE4852"/>
<path fill-rule="evenodd" clip-rule="evenodd" d="M140.255 106.03C144.525 106.77 143.975 103.55 144.525 101.24C142.605 102.44 141.265 104.1 140.255 106.03Z" fill="#9E1F63"/>
<path fill-rule="evenodd" clip-rule="evenodd" d="M138.075 108.98C138.345 109.07 138.615 109.16 138.885 109.25C139.265 109.35 139.635 109.45 140.015 109.55C140.855 108.9 141.775 108.7 142.785 109.09C143.155 108.94 143.295 108.77 143.225 108.54C143.165 108.34 143.085 108.22 142.965 108.18C141.805 107.74 140.515 107.47 140.265 106C138.745 106.47 138.425 107.75 138.075 108.98Z" fill="#9E1F63"/>
<path fill-rule="evenodd" clip-rule="evenodd" d="M181.895 180.15C181.765 181.14 182.365 182.54 182.995 182.21C184.425 181.46 184.505 179.85 183.985 178.36C183.295 178.96 183.165 180.18 181.895 180.15Z" fill="#A8D6A7"/>
<path fill-rule="evenodd" clip-rule="evenodd" d="M198.855 89.6502C198.495 89.5902 198.135 89.5302 197.765 89.4802C194.715 91.2302 191.725 93.0102 192.305 97.1302L192.365 97.2802C193.135 96.5502 194.815 100.47 194.955 96.7902C195.045 94.5602 198.105 94.1102 198.065 91.8602C198.325 91.1202 198.595 90.3802 198.855 89.6502Z" fill="#D64F9C"/>
<path fill-rule="evenodd" clip-rule="evenodd" d="M81.6354 131.55C83.2354 130.69 84.6554 129.67 85.2354 127.88C82.9454 128.11 82.1154 129.68 81.6354 131.55Z" fill="#64C3AB"/>
<path fill-rule="evenodd" clip-rule="evenodd" d="M185.175 93.5002C184.725 97.0002 184.035 100.49 184.905 104C188.005 102.53 189.565 99.7701 191.215 97.0801C192.635 95.2501 193.265 93.0701 191.065 91.8601C189.055 90.7501 186.565 90.9802 185.175 93.5002Z" fill="#7251A1"/>
<path fill-rule="evenodd" clip-rule="evenodd" d="M185.175 93.5002C188.705 92.3702 192.535 90.7802 191.215 97.0802C191.575 97.0702 191.935 97.0902 192.295 97.1202C194.115 94.5702 195.935 92.0102 197.755 89.4702C198.115 88.2502 198.465 87.0302 198.815 85.8202C195.345 90.3002 188.475 88.0202 185.275 92.5102C185.165 92.8302 185.135 93.1702 185.175 93.5002Z" fill="#7553A1"/>
<path fill-rule="evenodd" clip-rule="evenodd" d="M180.505 108.8C181.715 109.22 181.185 111.82 183.425 110.92C183.515 110.58 183.605 110.24 183.705 109.91C183.295 109.09 183.425 107.78 181.855 108.02C181.405 108.28 180.955 108.54 180.505 108.8Z" fill="#EE487C"/>
<path fill-rule="evenodd" clip-rule="evenodd" d="M181.855 108.02C182.465 108.65 183.095 109.28 183.705 109.91C183.705 108.66 183.695 107.42 183.695 106.18C182.875 106.32 182.055 106.45 181.245 106.59C181.445 107.06 181.655 107.54 181.855 108.02Z" fill="#EE4A88"/>
<path fill-rule="evenodd" clip-rule="evenodd" d="M142.965 108.19C142.975 108.5 142.925 108.81 142.775 109.1C142.715 109.92 142.035 111.13 143.735 110.98C144.675 110.9 145.595 110.46 146.515 110.19C145.905 109.54 145.295 108.89 144.685 108.24C144.115 108.22 143.545 108.21 142.965 108.19Z" fill="#9E1F63"/>
<path fill-rule="evenodd" clip-rule="evenodd" d="M121.915 92.6501C125.995 89.2601 130.085 85.8701 134.155 82.4901C127.965 83.5201 124.865 88.0101 121.915 92.6501Z" fill="#F9A53E"/>
</svg>
