<svg width="390" height="340" viewBox="0 0 390 340" fill="none" xmlns="http://www.w3.org/2000/svg">
<g opacity="0.9">
<g opacity="0.9">
<path opacity="0.9" fill-rule="evenodd" clip-rule="evenodd" d="M171.075 133.41C170.465 128.64 169.875 123.87 169.155 118.21C161.715 123.26 154.735 128.01 146.495 133.61C154.255 136.27 160.575 139.46 167.805 140.5C169.415 138.94 170.005 137 170.165 134.9C170.385 134.37 170.685 133.87 171.075 133.41Z" fill="#5D3B96"/>
<path opacity="0.9" fill-rule="evenodd" clip-rule="evenodd" d="M125.115 91.7603C127.075 93.4003 129.065 94.9902 132.315 95.6302C131.055 85.6602 129.815 75.8302 128.505 65.4902C126.115 66.8402 123.775 68.1903 122.305 70.6403C120.575 78.0503 121.505 85.0903 125.115 91.7603Z" fill="#AA519E"/>
<path opacity="0.9" fill-rule="evenodd" clip-rule="evenodd" d="M217.155 68.1702C222.125 68.5302 227.095 68.8802 233.165 69.3202C230.065 62.5802 227.305 56.5502 224.335 50.1002C220.565 52.7202 219.055 56.3502 217.225 59.7402C217.165 61.8602 214.275 62.3602 214.245 64.5002C214.395 66.3302 215.445 67.5002 217.155 68.1702Z" fill="#245D2F"/>
<path opacity="0.9" fill-rule="evenodd" clip-rule="evenodd" d="M125.115 91.7601C124.185 84.7201 123.245 77.6801 122.305 70.6401C119.275 73.1701 116.255 75.6901 113.225 78.2201C111.555 80.8101 108.655 83.3501 112.755 86.1601C116.725 88.3301 120.225 91.4301 125.115 91.7601Z" fill="#B0529E"/>
<path opacity="0.9" fill-rule="evenodd" clip-rule="evenodd" d="M217.155 68.1702C216.435 66.9502 215.725 65.7402 215.015 64.5202C211.595 57.7802 205.665 53.2102 199.975 48.4502C199.115 49.0402 198.255 49.6402 197.405 50.2402C196.745 57.0202 200.305 61.9302 204.905 66.3902C208.795 68.0502 212.105 73.1302 217.155 68.1702Z" fill="#198140"/>
<path opacity="0.9" fill-rule="evenodd" clip-rule="evenodd" d="M199.975 48.4502C203.555 55.0502 209.675 59.4501 215.015 64.5201C215.785 62.9401 217.965 61.9501 217.225 59.7401C216.305 59.8501 214.635 62.2902 214.735 59.1702C214.845 55.8002 215.275 52.4201 214.405 49.0901C210.405 44.6301 205.735 45.6702 200.925 47.7902C200.525 47.8802 200.195 48.1002 199.975 48.4502Z" fill="#1E5E2F"/>
<path opacity="0.9" fill-rule="evenodd" clip-rule="evenodd" d="M204.905 66.3802C202.405 61.0002 199.905 55.6102 197.395 50.2302C193.865 52.5002 190.335 54.7902 185.965 57.6102C192.825 60.8002 198.865 63.5902 204.905 66.3802Z" fill="#45B54D"/>
<path opacity="0.9" fill-rule="evenodd" clip-rule="evenodd" d="M200.925 47.7902C205.545 47.2002 210.005 47.9702 214.405 49.0902C214.995 45.7302 215.325 42.3702 214.525 38.4802C209.295 41.0002 205.065 44.3202 200.925 47.7902Z" fill="#3FB251"/>
<path opacity="0.9" fill-rule="evenodd" clip-rule="evenodd" d="M196.425 31.1302C199.755 34.0102 202.655 35.8302 206.665 37.1802C206.845 33.1302 207.005 29.4502 207.215 24.8202C203.285 27.1202 200.105 28.9802 196.425 31.1302Z" fill="#84C44C"/>
<path opacity="0.9" fill-rule="evenodd" clip-rule="evenodd" d="M112.755 86.1602C110.495 83.4202 113.025 80.8602 113.225 78.2202C111.215 79.7602 109.205 81.3102 106.745 83.1902C108.565 85.1402 110.455 85.9702 112.755 86.1602Z" fill="#BC5DA2"/>
<path opacity="0.9" fill-rule="evenodd" clip-rule="evenodd" d="M171.075 133.41C170.815 133.4 170.555 133.41 170.295 133.44C168.925 135.76 168.775 138.23 169.225 140.77C170.235 142.08 171.625 143.75 171.975 140.62C172.245 138.27 171.415 135.82 171.075 133.41Z" fill="#1AAAD2"/>
<path opacity="0.9" fill-rule="evenodd" clip-rule="evenodd" d="M169.225 140.77C170.195 138.4 170.505 135.95 170.295 133.43C167.625 135.22 168.335 138.05 167.795 140.5C168.265 140.6 168.755 140.69 169.225 140.77Z" fill="#2D328A"/>
</g>
<g opacity="0.9">
<path opacity="0.9" fill-rule="evenodd" clip-rule="evenodd" d="M171.305 74.9802C167.275 80.7802 162.615 82.2502 156.415 77.8502C153.425 75.7202 149.755 74.4602 145.595 72.4302C145.725 82.6702 145.855 92.2302 145.975 101.92C149.155 102.69 151.055 100.33 153.455 99.5302C154.835 98.7202 156.395 96.1802 157.325 99.8402C159.415 104.2 163.185 101.02 166.015 101.17C170.975 101.44 176.025 100.52 181.035 100.1C182.195 99.7702 183.035 98.9502 182.815 97.8802C181.245 90.0702 178.865 82.5202 174.765 75.6002C174.085 74.4602 172.695 74.0502 171.305 74.9802Z" fill="#42B54A"/>
<path opacity="0.9" fill-rule="evenodd" clip-rule="evenodd" d="M87.5253 160.66C97.2553 162.75 107.005 164.78 116.715 166.98C120.615 167.86 121.935 166.59 120.855 163.04C118.135 154.08 115.325 145.16 112.555 136.23C105.295 138.15 101.645 144.5 96.1553 148.6C93.9053 153.01 86.2253 153.91 87.5253 160.66Z" fill="#ED4488"/>
<path opacity="0.9" fill-rule="evenodd" clip-rule="evenodd" d="M300.735 42.0701C308.455 37.5901 316.225 33.1501 323.895 28.5901C326.215 27.2201 328.315 25.5101 330.515 23.9501C331.035 21.9701 330.035 20.6301 328.555 19.5001C322.235 16.5401 315.945 13.5401 309.605 10.6401C306.585 9.26015 304.405 9.57013 304.815 13.5601C305.135 16.6301 303.375 19.1101 302.315 21.7901C299.715 28.4401 296.845 35.0701 300.735 42.0701Z" fill="#54479C"/>
<path opacity="0.9" fill-rule="evenodd" clip-rule="evenodd" d="M333.665 67.3902C342.885 69.2502 352.105 71.1102 361.325 72.9702C362.525 70.8202 361.585 68.7402 361.245 66.6302C361.055 65.9402 360.765 65.2802 360.385 64.6702C359.545 63.5302 358.485 62.5702 357.505 61.5602C355.515 59.6302 354.635 56.9902 352.985 54.8502C351.395 53.1302 351.065 50.8402 350.165 48.8102C349.575 47.7002 348.715 46.7502 348.015 45.7202C347.175 44.4102 346.965 42.8202 346.135 41.5002C345.285 40.4602 344.145 39.9002 342.785 39.7102C339.615 43.3102 336.435 46.9102 333.255 50.5202C332.455 56.1802 329.275 61.9202 333.665 67.3902Z" fill="#4B4199"/>
<path opacity="0.9" fill-rule="evenodd" clip-rule="evenodd" d="M289.335 72.9502C288.825 73.1602 288.305 73.3602 287.795 73.5702C285.415 75.9702 281.555 75.9102 279.205 78.3702C270.735 82.4202 261.765 85.5502 253.635 91.6102C259.885 95.8102 266.275 99.2302 273.005 102.1C278.245 102.64 280.475 98.7602 283.205 95.6102C286.185 90.6102 288.075 85.1702 290.105 79.8102C290.975 77.5602 292.585 74.8702 289.335 72.9502Z" fill="#D94096"/>
<path opacity="0.9" fill-rule="evenodd" clip-rule="evenodd" d="M339.295 138.96C341.435 137.69 342.955 135.94 343.745 133.63C343.995 132.22 343.775 130.56 342.175 130.59C334.965 130.7 339.635 127.7 339.815 127.23C338.975 128.74 338.995 131.03 343.545 129.49C346.355 128.53 348.125 125.79 350.525 124.05L350.625 124C349.945 122.06 352.085 122.09 352.825 121.15C354.975 119.65 357.885 117.88 357.105 115.37C356.415 113.17 352.945 114.1 350.705 113.83C345.155 113.15 339.555 112.76 333.975 112.24C332.265 114.09 329.785 114.5 327.585 115.46C325.805 116.32 325.105 117.93 324.485 119.59C324.855 120.33 325.205 121.07 325.575 121.82C326.425 127.04 329.285 131.5 331.465 136.19C332.905 139.26 335.455 141.14 339.295 138.96Z" fill="#9E1F63"/>
<path opacity="0.9" fill-rule="evenodd" clip-rule="evenodd" d="M97.1953 149.55C102.955 145.78 107.715 140.96 112.555 136.22C112.215 135.19 111.875 134.16 111.545 133.13C109.405 132.32 106.725 133.31 105.485 129.87C104.385 126.83 101.115 124.92 97.1453 125.51C91.5453 130.24 86.9753 135.85 82.4053 141.45C85.6653 147.47 91.3253 150.57 97.1953 149.55Z" fill="#C2559F"/>
<path opacity="0.9" fill-rule="evenodd" clip-rule="evenodd" d="M303.655 135.39C305.275 129.37 306.875 123.36 308.775 116.29C297.845 119.02 288.415 122.62 278.475 127.12C283.495 132.45 289.125 136.53 294.875 140.48C298.835 140.46 300.715 137.06 303.655 135.39Z" fill="#6D4F9F"/>
<path opacity="0.9" fill-rule="evenodd" clip-rule="evenodd" d="M32.3453 153.46C29.1353 153.24 25.9153 153.01 21.1253 152.68C26.1353 160.05 28.9853 167.21 34.2053 173.04C38.1853 174.96 42.2053 174.1 46.2453 173.06C47.4153 172.62 48.4753 172.01 49.4553 171.29C55.7253 165.46 55.6953 165.53 48.3553 162.42C42.6753 160.01 38.6053 154.95 32.3453 153.46Z" fill="#E04D9A"/>
<path opacity="0.9" fill-rule="evenodd" clip-rule="evenodd" d="M97.1953 149.55C91.4753 148.17 86.7253 145.16 82.4053 141.45C77.9253 145.92 73.4553 150.39 68.9753 154.86C70.6153 159.69 75.5053 161.1 79.2853 163.56C81.2353 164.83 83.3653 164.03 84.5153 161.76C84.8253 159.63 86.5853 161.17 87.5153 160.64C88.6953 155.32 95.9053 154.8 97.1953 149.55Z" fill="#CA549E"/>
<path opacity="0.9" fill-rule="evenodd" clip-rule="evenodd" d="M238.835 225.98C237.175 228.38 235.885 230.9 235.585 234.86C248.295 232.21 260.575 229.64 273.835 226.87C271.515 224.36 270.515 221.81 267.775 220.58C263.735 217.6 259.835 217.54 255.035 219.83C249.875 222.29 242.925 220.52 238.835 225.98Z" fill="#9E1F63"/>
<path opacity="0.9" fill-rule="evenodd" clip-rule="evenodd" d="M204.605 105.19C200.655 109.48 196.725 113.77 191.255 119.71C201.305 119.54 209.355 120.09 217.225 119.07C223.795 118.22 219.365 112.98 219.855 109.69C215.885 104.88 210.575 104.05 204.605 105.19Z" fill="#ED3087"/>
<path opacity="0.9" fill-rule="evenodd" clip-rule="evenodd" d="M289.335 72.9502C289.865 80.8202 283.805 86.8702 282.655 94.2802C281.145 97.8202 277.575 100.61 278.325 104.97C278.705 107.37 279.105 109.77 279.565 112.62C281.945 111.6 284.075 110.69 286.205 109.78C289.625 102.64 290.335 94.6302 294.185 87.6302C294.475 83.5702 294.655 79.4902 295.085 75.4402C295.795 69.0102 292.615 70.9602 289.335 72.9502Z" fill="#BF6EAC"/>
<path opacity="0.9" fill-rule="evenodd" clip-rule="evenodd" d="M171.305 74.9802C177.495 82.2602 178.895 91.3202 181.025 100.1C182.735 100.98 184.365 100.53 185.975 99.7802C192.625 95.1502 189.055 90.0402 186.965 85.0102C184.475 81.1402 182.175 77.1202 179.445 73.4102C175.875 68.5502 172.815 68.2702 171.305 74.9802Z" fill="#73BE45"/>
<path opacity="0.9" fill-rule="evenodd" clip-rule="evenodd" d="M238.835 225.98C248.335 223.36 257.625 219.68 267.775 220.59C264.705 215.96 261.075 211.79 256.705 208.23C253.505 211.05 249.325 210.52 245.555 211.39C241.745 215.6 240.605 220.93 238.835 225.98Z" fill="#9E1F63"/>
<path opacity="0.9" fill-rule="evenodd" clip-rule="evenodd" d="M61.6453 154.62C56.2153 154.44 50.7753 154.25 45.3353 154.06C45.1153 159.78 49.8953 161.64 53.7953 164.09C56.1653 165.58 59.6353 166.01 59.0253 169.94C59.0853 170.3 59.1653 170.65 59.2353 171C59.5453 171.68 60.0253 172.2 60.6953 172.55C65.1253 173.26 69.5353 171.91 73.9653 172.24C74.7153 172.23 75.4653 172.1 76.2053 171.92C76.9353 171.7 77.6153 171.38 78.2753 171C79.8453 169.94 81.2653 168.71 82.5253 167.3C82.9853 166.68 83.2153 165.99 83.1953 165.24C82.8753 164.53 82.3253 164.12 81.5153 164.08C71.8353 166.72 66.9253 160.32 61.6453 154.62Z" fill="#D64F9C"/>
<path opacity="0.9" fill-rule="evenodd" clip-rule="evenodd" d="M228.065 4.4502C223.605 5.2002 219.135 5.95019 212.625 7.04019C223.655 12.7802 232.915 17.6002 242.245 22.4502C244.775 18.9802 242.095 16.6402 241.645 14.0502C239.355 7.96017 233.765 6.1502 228.065 4.4502Z" fill="#ED438E"/>
<path opacity="0.9" fill-rule="evenodd" clip-rule="evenodd" d="M146.265 160.61C144.755 153.77 143.455 147.94 141.865 140.73C136.035 145.81 130.925 150.26 125.295 155.17C132.195 157.73 138.585 159.5 146.265 160.61Z" fill="#EE498A"/>
<path opacity="0.9" fill-rule="evenodd" clip-rule="evenodd" d="M130.025 199.39C127.435 196.14 125.055 192.69 122.175 189.69C120.095 187.53 119.045 183.02 115.835 183.63C112.445 184.27 111.195 188.34 110.475 191.75C113.825 197.5 115.725 204.8 125.015 204.15C127.625 203.47 129.135 201.73 130.025 199.39Z" fill="#9E1F63"/>
<path opacity="0.9" fill-rule="evenodd" clip-rule="evenodd" d="M159.245 200.54L159.255 201.23L159.785 201.69C159.875 203.68 160.975 205.33 161.795 207.06C169.235 202.79 178.375 207.75 185.665 202.62C187.335 200.56 190.355 199.55 190.785 196.54C185.495 192.48 179.235 195.58 173.515 194.61C172.295 194.74 171.105 195.01 169.925 195.36C168.735 195.68 167.575 196.09 166.375 196.37C163.665 197.24 160.385 197.18 159.245 200.54Z" fill="#225E31"/>
<path opacity="0.9" fill-rule="evenodd" clip-rule="evenodd" d="M204.605 105.19C209.695 106.69 214.775 108.19 219.865 109.69C220.615 102.83 220.875 96.0101 219.255 88.1301C213.335 94.1201 208.515 99.2901 204.605 105.19Z" fill="#EC2A90"/>
<path opacity="0.9" fill-rule="evenodd" clip-rule="evenodd" d="M185.655 202.62C181.895 202.13 178.325 203.89 174.375 203.18C170.225 202.42 165.505 202.42 162.965 207.17C161.785 209.83 164.195 211.56 164.725 213.78C169.315 217.15 173.545 214.36 177.865 212.88C181.105 209.91 183.585 206.42 185.655 202.62Z" fill="#166635"/>
<path opacity="0.9" fill-rule="evenodd" clip-rule="evenodd" d="M300.735 42.0702C299.535 35.2202 303.115 28.6402 302.315 21.8002C297.415 22.0102 292.525 22.2102 286.675 22.4602C291.245 29.5502 295.445 36.0702 299.665 42.5802C299.745 42.7002 300.145 42.8002 300.265 42.7202C300.475 42.5702 300.585 42.2902 300.735 42.0702Z" fill="#A65AA3"/>
<path opacity="0.9" fill-rule="evenodd" clip-rule="evenodd" d="M59.9353 170.44C62.4653 167.14 62.0253 164.4 57.7253 163.66C51.5953 162.6 48.7853 158.05 45.3353 154.06C41.0053 153.86 36.6753 153.66 32.3453 153.46C38.8253 157.97 43.6553 164.98 52.7453 165.52C52.3353 167.89 48.8853 167.7 48.8353 170.17C52.4253 172.68 56.2853 169.23 59.9353 170.44Z" fill="#DB4E9B"/>
<path opacity="0.9" fill-rule="evenodd" clip-rule="evenodd" d="M159.245 200.54C162.045 199.72 164.845 198.91 167.645 198.09C169.575 190.28 173.605 182.74 171.315 174.38C170.825 174.24 170.445 174.38 170.165 174.8C167.375 174.85 165.145 176.44 162.695 177.4C160.615 179.05 159.265 181.67 160.335 183.58C163.275 188.87 159.725 192.88 158.135 197.32C158.505 198.4 158.875 199.47 159.245 200.54Z" fill="#EF5256"/>
<path opacity="0.9" fill-rule="evenodd" clip-rule="evenodd" d="M342.805 39.7101C343.685 40.4801 344.575 41.2601 345.455 42.0301C347.855 44.5601 350.485 45.1201 352.995 42.2201C356.095 38.6401 360.015 35.4601 360.195 30.2701C360.195 27.9701 360.135 25.6701 357.885 23.1101C352.785 28.7201 347.795 34.2101 342.805 39.7101Z" fill="#107D9C"/>
<path opacity="0.9" fill-rule="evenodd" clip-rule="evenodd" d="M255.975 14.1402C262.685 13.3602 268.015 12.7502 273.845 12.0702C273.275 10.8002 273.145 9.99015 272.665 9.53015C269.325 6.37015 267.515 -0.849859 263.115 0.360141C258.905 1.51014 258.335 8.54017 255.975 14.1402Z" fill="#B363A7"/>
<path opacity="0.9" fill-rule="evenodd" clip-rule="evenodd" d="M360.185 30.2701C357.515 33.7101 354.585 36.9901 352.245 40.6201C350.245 43.7201 347.865 42.3701 345.445 42.0201C345.775 43.4601 346.095 44.8902 346.425 46.3202C349.295 46.8402 351.765 48.3701 354.495 49.2701C360.085 50.1901 362.495 47.0901 363.735 42.4901C363.515 38.1401 362.205 34.1001 360.185 30.2701Z" fill="#0A82A3"/>
<path opacity="0.9" fill-rule="evenodd" clip-rule="evenodd" d="M310.965 97.6002C309.435 94.1902 307.905 90.7702 306.305 87.2202C303.235 88.7102 301.715 91.0202 300.475 93.5702C298.945 95.5302 298.385 98.0702 296.385 99.7502C295.925 100.34 295.645 101 295.535 101.73C295.925 104.81 294.395 108.32 297.555 110.78C301.165 110.71 303.435 108.96 304.975 105.81C306.465 102.77 308.345 99.9102 310.965 97.6002Z" fill="#A968AA"/>
<path opacity="0.9" fill-rule="evenodd" clip-rule="evenodd" d="M97.1453 125.52C100.165 127.86 104.195 128.88 105.685 133.15C107.045 137.08 109.545 133 111.545 133.14C110.175 127.41 108.785 121.69 107.155 114.89C102.675 118.33 99.5553 121.59 97.1453 125.52Z" fill="#BC5CA2"/>
<path opacity="0.9" fill-rule="evenodd" clip-rule="evenodd" d="M61.6453 154.62C63.4253 158.06 65.1953 161.49 66.9653 164.93C68.5553 168.02 71.3653 166.03 73.4953 166.02C76.4153 166.01 79.3453 165.05 82.2753 164.49C83.7153 164.9 84.6953 164.35 85.3153 163.08C85.2153 162.55 84.9453 162.12 84.5253 161.77C77.3453 163.51 74.5053 156.48 68.9853 154.86C66.5353 154.78 64.0953 154.7 61.6453 154.62Z" fill="#D2509C"/>
<path opacity="0.9" fill-rule="evenodd" clip-rule="evenodd" d="M76.6953 170.73C75.8153 170.87 74.9453 171.01 74.0653 171.15C69.3253 172.8 66.2253 176.59 62.4753 179.53C61.8953 180.02 61.3953 180.57 60.9253 181.16C60.2653 182.11 59.8753 183.14 59.8153 184.28C59.9653 185.44 60.4353 186.38 61.7053 186.75C66.6853 183.25 74.1753 185.93 78.3053 180.33C80.5453 176.66 80.1353 173.44 76.6953 170.73Z" fill="#A8C93E"/>
<path opacity="0.9" fill-rule="evenodd" clip-rule="evenodd" d="M294.195 87.6301C289.675 91.4901 285.475 103.15 286.215 109.78C287.665 110.32 289.115 110.87 290.565 111.41C294.185 108.57 294.205 104 296.385 100.47C296.855 99.6501 296.635 99.1001 295.715 98.8401C293.045 95.4001 296.135 91.1601 294.195 87.6301Z" fill="#B96EAC"/>
<path opacity="0.9" fill-rule="evenodd" clip-rule="evenodd" d="M266.955 149.08C256.725 149.05 256.705 149.06 258.045 157.88C258.575 161.36 259.245 164.82 259.975 168.95C263.595 165.92 265.135 162.48 266.925 159.19C267.925 155.81 269.555 152.41 266.955 149.08Z" fill="#86C345"/>
<path opacity="0.9" fill-rule="evenodd" clip-rule="evenodd" d="M359.435 65.0301C359.585 65.5001 359.705 65.9801 359.795 66.4601C360.465 69.0401 361.165 71.6001 363.275 73.5001C364.275 74.7801 365.555 74.4201 366.845 74.0101C370.835 72.9701 369.435 69.1201 370.965 66.8101C370.135 62.6601 369.725 58.3701 367.385 54.6401C360.935 55.4601 359.615 59.8601 359.435 65.0301Z" fill="#1596B6"/>
<path opacity="0.9" fill-rule="evenodd" clip-rule="evenodd" d="M60.5953 184.29C60.9153 183.52 61.2453 182.75 61.5653 181.98C56.8953 179.65 52.7853 176.25 47.4153 175.22C45.7553 174.89 46.4253 173.87 46.8153 172.94C46.8353 172.2 46.5053 171.72 45.7653 171.54C41.9153 172.04 38.0553 172.54 34.2053 173.04C35.0853 175.63 35.8853 178.26 38.4853 179.83C45.4053 180.53 50.0553 187.33 57.6753 186.19C58.9353 185.97 59.9153 185.34 60.5953 184.29Z" fill="#7C55A2"/>
<path opacity="0.9" fill-rule="evenodd" clip-rule="evenodd" d="M170.715 196.9C171.885 196.73 173.055 196.56 174.225 196.39C175.515 195.5 177.745 195.75 177.945 193.53C177.175 187.12 179.145 181.02 180.485 174.84C181.025 172.36 181.755 169.57 177.375 172.01C171.845 178.08 171.975 186.27 168.615 193.16C168.015 194.39 168.845 196.25 170.715 196.9Z" fill="#F37B65"/>
<path opacity="0.9" fill-rule="evenodd" clip-rule="evenodd" d="M84.5453 180.99C89.3353 181.83 92.8053 177.72 97.8753 178.35C96.3653 174.77 94.6453 172.35 92.0753 170.53C89.4053 169.35 86.5353 169.23 83.6353 169.25C82.5153 169.24 81.4253 169.35 80.3853 169.8C79.4553 170.55 79.1753 171.52 79.2953 172.62C80.1353 175.94 83.8753 177.56 84.5453 180.99Z" fill="#F498AB"/>
<path opacity="0.9" fill-rule="evenodd" clip-rule="evenodd" d="M359.435 65.0302C362.085 61.5802 362.955 56.8702 367.385 54.6502C366.915 51.5002 366.725 48.2702 364.875 45.4802C361.245 49.7002 356.085 52.7002 353.845 58.0502C354.745 59.6902 354.885 61.7802 356.845 62.7802C357.715 63.5402 358.575 64.2802 359.435 65.0302Z" fill="#068CAE"/>
<path opacity="0.9" fill-rule="evenodd" clip-rule="evenodd" d="M354.385 56.8301C360.075 54.9101 363.245 50.8601 364.875 45.4901C364.495 44.4901 364.125 43.4901 363.755 42.4901C360.745 44.8801 358.815 48.9701 353.905 48.4101C352.275 47.8201 350.655 47.2601 349.265 48.9401C350.525 50.7801 347.785 54.0401 351.515 55.0001C352.905 54.9601 352.845 57.0501 354.385 56.8301Z" fill="#0585A7"/>
<path opacity="0.9" fill-rule="evenodd" clip-rule="evenodd" d="M333.665 67.3902C332.725 61.8002 335.555 56.0701 333.275 50.5201C329.435 53.5601 326.255 57.1701 323.475 61.1201C323.565 64.8401 327.045 64.8302 329.375 66.1002C330.815 66.5302 332.245 66.9602 333.665 67.3902Z" fill="#52459B"/>
<path opacity="0.9" fill-rule="evenodd" clip-rule="evenodd" d="M298.935 111.58C305.235 112.74 311.525 113.9 318.855 115.24C316.935 110.98 315.585 107.96 314.225 104.94C307.235 103.02 303.585 108.38 298.935 111.58Z" fill="#6F4F9F"/>
<path opacity="0.9" fill-rule="evenodd" clip-rule="evenodd" d="M106.355 198.19C111.235 199.11 113.455 203.09 116.415 206.22C118.695 204.73 118.775 206.34 118.945 207.86C119.525 209.3 120.335 210.37 122.225 209.81C124.645 208.12 126.395 206.15 125.325 203.03C119.955 202.24 115.335 200.73 114.835 194.36C114.655 192.11 112.465 191.84 110.485 191.75C109.105 193.9 107.725 196.04 106.355 198.19Z" fill="#9E1F63"/>
<path opacity="0.9" fill-rule="evenodd" clip-rule="evenodd" d="M170.715 196.9C169.185 189.62 175.655 184.15 175.855 177.22C175.905 175.47 176.845 173.74 177.375 172.01C175.355 172.81 173.335 173.6 171.315 174.4C170.085 182.3 166.525 189.9 167.645 198.1C168.665 197.7 169.695 197.29 170.715 196.9Z" fill="#F0635A"/>
<path opacity="0.9" fill-rule="evenodd" clip-rule="evenodd" d="M298.935 111.58C304.035 109.37 309.135 107.16 314.225 104.94C313.145 102.49 312.055 100.05 310.965 97.6002C309.395 97.7802 307.675 94.3402 306.165 98.5302C304.505 103.12 303.195 108.51 297.225 110.38C296.795 111.08 296.985 111.53 297.795 111.73C298.205 111.92 298.595 111.86 298.935 111.58Z" fill="#9E60A6"/>
<path opacity="0.9" fill-rule="evenodd" clip-rule="evenodd" d="M271.235 59.6801C274.835 62.3901 278.445 65.0902 282.545 68.1702C284.445 63.2402 284.315 58.6801 284.225 54.1301C278.945 53.8501 274.615 55.7201 271.235 59.6801Z" fill="#E14397"/>
<path opacity="0.9" fill-rule="evenodd" clip-rule="evenodd" d="M210.355 145.76C206.655 143.05 202.945 140.33 198.865 137.34C197.315 142.5 197.245 147.05 197.355 151.62C202.895 152.2 207.315 150.44 210.355 145.76Z" fill="#ED488B"/>
<path opacity="0.9" fill-rule="evenodd" clip-rule="evenodd" d="M186.955 85.0001C187.125 89.9501 188.875 94.9701 185.965 99.7701C189.925 100.58 193.805 99.8801 198.465 99.1901C194.515 94.0801 191.545 88.9801 186.955 85.0001Z" fill="#92C445"/>
<path opacity="0.9" fill-rule="evenodd" clip-rule="evenodd" d="M158.125 197.33C165.965 192.3 160.845 184.74 162.425 178.49C158.695 178.4 155.635 179.82 153.085 182.41C154.705 185.83 158.785 186.82 161.265 190.15C153.885 190.27 155.415 193.61 158.125 197.33Z" fill="#EF545E"/>
<path opacity="0.9" fill-rule="evenodd" clip-rule="evenodd" d="M350.535 124.05C346.735 124.23 344.715 127.66 341.345 129C341.015 125.73 345.525 124.64 344.405 120.39C339.085 123.46 336.685 127.9 334.505 133.67C337.945 133.71 341.305 129.03 343.755 133.62C346.155 130.53 349.145 127.81 350.535 124.05Z" fill="#9E1F63"/>
<path opacity="0.9" fill-rule="evenodd" clip-rule="evenodd" d="M225.605 167.01C222.395 168.89 219.955 171.5 217.675 174.35C219.495 176.04 221.715 175.9 223.775 176.21C228.025 176.31 232.145 175.42 236.205 174.28C236.875 171.9 235.715 169.96 234.675 167.99C231.535 168.52 228.485 168.33 225.605 167.01Z" fill="#A6D06A"/>
<path opacity="0.9" fill-rule="evenodd" clip-rule="evenodd" d="M228.065 4.45015C232.595 7.65015 237.125 10.8601 241.655 14.0601C241.665 13.0601 241.895 12.0001 241.665 11.0501C239.165 0.690123 239.145 0.690147 228.065 4.45015Z" fill="#BF69A9"/>
<path opacity="0.9" fill-rule="evenodd" clip-rule="evenodd" d="M245.565 211.39C249.685 211.72 254.855 215.66 256.715 208.23C248.815 200.66 248.815 200.66 245.565 211.39Z" fill="#9E1F63"/>
<path opacity="0.9" fill-rule="evenodd" clip-rule="evenodd" d="M54.1053 188.78C55.3253 187.74 57.6653 187.79 57.6053 185.49C50.8953 184.61 45.6853 179.26 38.4953 179.83C39.5253 181.67 40.5553 183.5 41.5853 185.33C45.4753 187.36 49.0353 190.47 54.1053 188.78Z" fill="#8155A2"/>
<path opacity="0.9" fill-rule="evenodd" clip-rule="evenodd" d="M125.315 203.03C124.275 205.19 123.245 207.34 122.205 209.49C122.155 210.46 122.625 210.97 123.635 211.02C127.615 209.99 132.275 210.89 135.245 207.04C133.505 204.49 131.765 201.94 130.025 199.39C128.455 200.61 126.895 201.82 125.315 203.03Z" fill="#9E1F63"/>
<path opacity="0.9" fill-rule="evenodd" clip-rule="evenodd" d="M236.195 174.29C231.265 169.78 227.915 175.66 223.765 176.22C226.485 177.21 229.185 178.27 231.935 179.18C237.805 181.15 238.645 179.01 236.195 174.29Z" fill="#6ABD51"/>
<path opacity="0.9" fill-rule="evenodd" clip-rule="evenodd" d="M166.005 214.41C164.985 212 163.985 209.58 162.975 207.17C161.905 205.34 160.845 203.51 159.785 201.68C161.325 209.58 165.475 216.48 168.415 224.2C171.375 223.15 172.405 220.88 173.495 218.67C172.635 214.63 168.105 216.46 166.005 214.41Z" fill="#0E753C"/>
<path opacity="0.9" fill-rule="evenodd" clip-rule="evenodd" d="M297.805 111.72C297.605 111.28 297.415 110.83 297.235 110.37C297.285 107.04 298.255 103.61 296.385 100.46C290.985 102.45 292.155 107.6 290.565 111.4C292.775 114.5 295.435 110.94 297.805 111.72Z" fill="#B26DAC"/>
<path opacity="0.9" fill-rule="evenodd" clip-rule="evenodd" d="M339.295 138.96C333.565 139.12 331.575 135.29 329.865 130.99C328.625 127.87 327.025 124.87 325.585 121.83C326.875 129.88 331.435 136.71 333.935 144.42C337.425 143.73 338.255 141.25 339.295 138.96Z" fill="#2F66B0"/>
<path opacity="0.9" fill-rule="evenodd" clip-rule="evenodd" d="M84.5453 180.99C88.9053 175.36 80.5153 175.66 80.2253 172.2C79.1253 171.78 79.0353 170.08 77.4953 170.21C77.1753 170.31 76.8953 170.48 76.6853 170.73C77.2253 173.93 77.7553 177.13 78.2853 180.33C80.0353 183.21 82.3953 181.29 84.5453 180.99Z" fill="#EF512F"/>
<path opacity="0.9" fill-rule="evenodd" clip-rule="evenodd" d="M197.565 153.1C196.595 155.69 195.415 158.81 200.345 156.74C204.175 155.13 208.565 154.27 211.325 150.76C208.965 151.28 208.965 147.08 206.165 148.45C203.345 150.1 199.705 150.3 197.565 153.1Z" fill="#FBE692"/>
<path opacity="0.9" fill-rule="evenodd" clip-rule="evenodd" d="M54.1053 188.78C50.0453 187.25 46.2553 184.87 41.5753 185.34C42.5853 189.07 45.5753 191.62 47.5453 194.78C50.3953 193.45 52.3453 191.21 54.1053 188.78Z" fill="#8A5BA4"/>
<path opacity="0.9" fill-rule="evenodd" clip-rule="evenodd" d="M266.955 149.08C267.225 152.45 264.185 155.86 266.925 159.19C271.545 156.9 272.315 151.95 275.905 148.4C272.315 147.62 269.585 147.72 266.955 149.08Z" fill="#7858A2"/>
<path opacity="0.9" fill-rule="evenodd" clip-rule="evenodd" d="M135.245 207.04C130.965 207.77 126.635 208.35 122.955 210.89C122.555 211.48 122.745 211.82 123.435 211.94C128.425 213.24 133.425 212.5 138.535 211.93C138.915 209.25 136.515 208.49 135.245 207.04Z" fill="#9E1F63"/>
<path opacity="0.9" fill-rule="evenodd" clip-rule="evenodd" d="M225.605 167.01C228.185 170.63 230.905 173.23 234.675 168C234.295 165.77 233.905 163.54 233.435 160.77C229.495 161.78 229.275 166.56 225.605 167.01Z" fill="#99CA45"/>
<path opacity="0.9" fill-rule="evenodd" clip-rule="evenodd" d="M303.655 135.39C299.645 135.33 297.295 137.95 294.875 140.48C296.815 142.14 298.745 143.8 301.175 145.89C302.745 142.16 303.735 138.91 303.655 135.39Z" fill="#386DB4"/>
<path opacity="0.9" fill-rule="evenodd" clip-rule="evenodd" d="M324.495 119.59C325.825 118.38 327.135 117.17 328.455 115.96C330.795 115.76 331.855 114.2 332.595 112.32C328.915 111.85 325.235 111.39 321.315 110.9C321.705 114.58 322.835 117.18 324.495 119.59Z" fill="#664A9D"/>
<path opacity="0.9" fill-rule="evenodd" clip-rule="evenodd" d="M271.235 59.6801C275.565 57.8301 279.895 55.9801 284.235 54.1301C284.275 53.6201 284.505 52.7601 284.315 52.6701C280.445 50.8001 271.875 55.4301 271.235 59.6801Z" fill="#EC298D"/>
<path opacity="0.9" fill-rule="evenodd" clip-rule="evenodd" d="M83.2753 170.77C86.2053 170.69 89.1453 170.62 92.0753 170.53C90.2353 167.7 88.2353 165 85.3153 163.08C84.2953 163.55 83.2853 164.02 82.2753 164.49C82.4453 164.94 82.6053 165.4 82.7553 165.85C82.8853 167.5 81.6253 169.29 83.2753 170.77Z" fill="#EE5089"/>
<path opacity="0.9" fill-rule="evenodd" clip-rule="evenodd" d="M166.005 214.41C167.025 218.17 171.205 216.9 173.485 218.67C175.505 217.13 176.985 215.22 177.865 212.89C173.625 211.07 169.945 213.85 166.005 214.41Z" fill="#1A703B"/>
<path opacity="0.9" fill-rule="evenodd" clip-rule="evenodd" d="M177.935 193.53C176.695 194.48 175.455 195.44 174.215 196.39C179.735 196.4 185.295 194.85 190.765 196.55C191.655 195.53 192.735 194.04 190.625 193.76C186.455 193.19 182.235 191.65 177.935 193.53Z" fill="#9FC03C"/>
<path opacity="0.9" fill-rule="evenodd" clip-rule="evenodd" d="M370.965 66.8202C366.415 67.5802 368.575 71.8002 366.845 74.0202C368.685 75.0102 371.455 76.4502 372.585 75.0602C374.895 72.2402 372.145 69.4902 370.965 66.8202Z" fill="#13A4C0"/>
<path opacity="0.9" fill-rule="evenodd" clip-rule="evenodd" d="M278.325 104.97C280.595 101.7 282.225 98.2102 282.645 94.2902C279.025 96.4302 277.265 100.71 273.005 102.12C274.475 103.58 276.175 104.66 278.325 104.97Z" fill="#D24798"/>
<path opacity="0.9" fill-rule="evenodd" clip-rule="evenodd" d="M153.085 182.41C156.195 181.11 159.315 179.8 162.425 178.49C165.005 177.26 167.575 176.03 170.155 174.8C163.745 175.78 157.905 178.25 152.375 181.47C152.305 181.51 152.325 181.88 152.425 181.98C152.595 182.18 152.865 182.28 153.085 182.41Z" fill="#EF5164"/>
<path opacity="0.9" fill-rule="evenodd" clip-rule="evenodd" d="M208.285 148.62C208.045 149.57 207.795 150.53 207.545 151.48C208.815 151.24 210.075 151 211.335 150.76C212.355 150.08 214.155 149.46 214.215 148.72C214.315 147.47 212.755 147 211.415 146.88C209.925 146.7 208.805 147.14 208.285 148.62Z" fill="#DDE57C"/>
<path opacity="0.9" fill-rule="evenodd" clip-rule="evenodd" d="M329.385 66.1001C327.415 64.4401 325.445 62.7901 323.485 61.1301C321.045 65.4601 321.125 65.5301 329.385 66.1001Z" fill="#9066AA"/>
<path opacity="0.9" fill-rule="evenodd" clip-rule="evenodd" d="M208.285 148.62C209.335 148.05 210.375 147.47 211.425 146.89C211.235 146.38 210.875 146 210.365 145.77C206.035 147.72 201.695 149.67 197.365 151.62C197.275 152.14 197.355 152.63 197.575 153.11C201.145 151.61 204.715 150.12 208.285 148.62Z" fill="#EE4852"/>
<path opacity="0.9" fill-rule="evenodd" clip-rule="evenodd" d="M123.435 211.94C123.275 211.59 123.115 211.24 122.955 210.89C122.705 210.43 122.455 209.96 122.205 209.49C120.725 209.31 119.655 208.61 119.115 207.23C118.615 207.02 118.285 207.06 118.115 207.34C117.955 207.59 117.915 207.79 117.985 207.94C118.615 209.49 119.545 211.02 118.225 212.68C120.145 213.75 121.785 212.81 123.435 211.94Z" fill="#9E1F63"/>
<path opacity="0.9" fill-rule="evenodd" clip-rule="evenodd" d="M352.835 121.15C351.125 121.68 349.395 118.54 348.055 120.83C347.105 122.48 349.625 123.01 350.635 124C351.775 123.34 352.775 122.57 352.835 121.15Z" fill="#9E1F63"/>
<path opacity="0.9" fill-rule="evenodd" clip-rule="evenodd" d="M332.605 112.32C331.225 113.54 329.845 114.75 328.465 115.96C332.275 117.46 333.325 115.12 333.985 112.24C333.515 112.04 333.055 112.06 332.605 112.32Z" fill="#3C479C"/>
<path opacity="0.9" fill-rule="evenodd" clip-rule="evenodd" d="M295.715 98.8302C295.945 99.3702 296.165 99.9202 296.385 100.46C299.375 99.0402 300.185 96.4402 300.485 93.5702C298.895 95.3302 297.305 97.0802 295.715 98.8302Z" fill="#B26DAC"/>
<path opacity="0.9" fill-rule="evenodd" clip-rule="evenodd" d="M279.205 78.3801C282.295 77.1601 285.865 76.7501 287.795 73.5801C284.625 74.6601 281.385 75.6201 279.205 78.3801Z" fill="#BF6EAC"/>
<path opacity="0.9" fill-rule="evenodd" clip-rule="evenodd" d="M363.275 73.5102C362.125 71.1602 360.955 68.8202 359.805 66.4602C358.745 68.9902 360.655 70.8402 361.335 72.9702C361.975 73.1502 362.625 73.3302 363.275 73.5102Z" fill="#2F3884"/>
<path opacity="0.9" fill-rule="evenodd" clip-rule="evenodd" d="M157.325 99.8402C158.485 99.0002 159.415 97.0402 158.455 96.7502C156.315 96.0902 154.545 97.5802 153.455 99.5402C154.735 99.6402 156.155 98.5702 157.325 99.8402Z" fill="#A8D6A7"/>
<path opacity="0.9" fill-rule="evenodd" clip-rule="evenodd" d="M328.555 19.5101C329.205 20.9901 329.855 22.4701 330.515 23.9601C331.605 23.5001 333.555 23.3501 332.995 21.8601C332.385 20.2101 330.465 19.5801 328.555 19.5101Z" fill="#2A4186"/>
<path opacity="0.9" fill-rule="evenodd" clip-rule="evenodd" d="M349.255 48.9301C350.805 48.7501 352.345 48.5801 353.895 48.4001C352.255 45.0301 349.525 45.0801 346.425 46.3301C347.375 47.1901 348.315 48.0601 349.255 48.9301Z" fill="#01779F"/>
<path opacity="0.9" fill-rule="evenodd" clip-rule="evenodd" d="M354.385 56.8301C353.605 55.9601 352.985 54.8502 351.495 54.9802C353.155 57.6602 353.005 61.4902 356.845 62.7802C356.025 60.8002 355.215 58.8101 354.385 56.8301Z" fill="#243E82"/>
<path opacity="0.9" fill-rule="evenodd" clip-rule="evenodd" d="M334.415 125.57C333.535 124.99 332.995 124.38 332.355 124.27C331.365 124.1 331.035 124.95 331.385 125.64C331.675 126.22 332.325 126.77 332.945 126.97C333.195 127.05 333.795 126.18 334.415 125.57Z" fill="#2F66B0"/>
<path opacity="0.9" fill-rule="evenodd" clip-rule="evenodd" d="M45.7653 171.54C46.0353 171.96 46.3153 172.37 46.6053 172.78C51.3253 174.04 56.0353 175.22 59.8453 170.65C59.8453 170.65 59.9353 170.45 59.9353 170.44C58.4453 170.4 61.0053 164.94 56.9653 168.39C54.5253 170.48 51.1753 167.94 48.8253 170.17C47.8053 170.63 46.7853 171.09 45.7653 171.54Z" fill="#D64F9C"/>
<path opacity="0.9" fill-rule="evenodd" clip-rule="evenodd" d="M62.7253 181.12C66.8453 178.15 71.1853 175.42 74.0653 171.15C69.5953 169.56 65.2053 170.73 60.8153 171.75C57.5553 172.14 54.6553 173.66 55.4453 176.99C56.1553 180.02 58.7453 182.22 62.7253 181.12Z" fill="#7251A1"/>
<path opacity="0.9" fill-rule="evenodd" clip-rule="evenodd" d="M62.7253 181.12C58.2053 178.78 52.9153 176.61 60.8153 171.75C60.4653 171.41 60.1453 171.04 59.8453 170.65C55.4353 171.36 51.0153 172.07 46.6053 172.79C44.9853 173.63 43.3653 174.47 41.7453 175.31C49.7453 174.33 53.8153 183.25 61.5653 181.99C62.0153 181.78 62.4053 181.49 62.7253 181.12Z" fill="#7553A1"/>
<path opacity="0.9" fill-rule="evenodd" clip-rule="evenodd" d="M83.2753 170.77C82.5753 169.19 85.8153 167.17 82.7553 165.86C82.3153 166.1 81.8653 166.34 81.4253 166.57C80.9453 167.77 79.4353 168.91 81.1753 170.21C81.8753 170.39 82.5753 170.58 83.2753 170.77Z" fill="#EE487C"/>
<path opacity="0.9" fill-rule="evenodd" clip-rule="evenodd" d="M81.1753 170.2C81.2553 168.99 81.3453 167.78 81.4253 166.56C80.1153 167.77 78.8053 168.99 77.4953 170.2C78.4053 170.87 79.3153 171.53 80.2253 172.19C80.5453 171.53 80.8653 170.87 81.1753 170.2Z" fill="#EE4A88"/>
<path opacity="0.9" fill-rule="evenodd" clip-rule="evenodd" d="M117.985 207.95C118.305 207.63 118.685 207.39 119.115 207.24C120.035 206.5 121.955 205.99 120.195 204.47C119.215 203.64 117.895 203.17 116.735 202.54C116.625 203.77 116.515 205 116.405 206.22C116.935 206.8 117.465 207.37 117.985 207.95Z" fill="#9E1F63"/>
</g>
</g>
<g opacity="0.3">
<g opacity="0.3">
<path opacity="0.3" fill-rule="evenodd" clip-rule="evenodd" d="M18.6753 186.66C19.8853 184.75 21.0853 182.84 22.8953 179.98C16.3153 180.79 10.6053 180.35 4.98531 181.77C2.39531 183.63 1.6353 186.37 1.0053 189.18C0.9153 190.03 0.975295 190.87 1.1253 191.7C2.9553 197.36 2.9253 197.33 7.4153 193.77C10.8953 191.01 15.6153 190.07 18.6753 186.66Z" fill="#E04D9A"/>
</g>
</g>
<g opacity="0.3">
<g opacity="0.3">
<path opacity="0.3" fill-rule="evenodd" clip-rule="evenodd" d="M368.115 152.4C368.205 152.24 368.285 152.08 368.345 151.91C367.255 150.35 365.645 149.49 363.805 148.99C362.605 149.21 361.025 149.54 363.005 150.74C364.485 151.63 366.395 151.87 368.115 152.4Z" fill="#1AAAD2"/>
<path opacity="0.3" fill-rule="evenodd" clip-rule="evenodd" d="M363.805 148.99C365.075 150.32 366.605 151.26 368.355 151.91C368.045 149.72 365.915 149.28 364.455 148.19C364.235 148.46 364.025 148.73 363.805 148.99Z" fill="#2D328A"/>
</g>
<g opacity="0.3">
<path opacity="0.3" fill-rule="evenodd" clip-rule="evenodd" d="M166.665 34.6602C166.985 34.8402 167.405 34.9502 167.615 35.2202C172.865 41.9902 172.865 42.0001 177.835 33.9601C173.965 33.8101 170.345 33.6702 166.725 33.5302C166.715 33.9002 166.685 34.2802 166.665 34.6602Z" fill="#AED039"/>
<path opacity="0.3" fill-rule="evenodd" clip-rule="evenodd" d="M336.935 220.55C331.715 222 327.145 224.21 322.605 226.54Z" fill="#6D4F9F"/>
<path opacity="0.3" fill-rule="evenodd" clip-rule="evenodd" d="M283.965 165.62C282.915 163.86 281.655 162.29 279.105 160.88C276.685 169.54 274.365 177.9 271.835 186.93C274.275 186.27 276.315 186.45 278.035 185.13C281.355 183.56 282.685 181.18 282.745 177.51C282.795 173.56 286.265 169.83 283.965 165.62Z" fill="#9E1F63"/>
<path opacity="0.3" fill-rule="evenodd" clip-rule="evenodd" d="M286.645 131.6C286.475 131.2 286.315 130.79 286.145 130.39C282.565 127.94 279.215 129.68 275.855 131.07C273.455 134.1 271.045 137.12 268.115 140.81C273.225 141.01 277.205 141.16 281.175 141.31C284.075 140.69 283.885 138.1 284.785 136.19C285.285 134.86 285.805 133.55 286.435 132.27C286.505 132.05 286.575 131.82 286.645 131.6Z" fill="#63C2A5"/>
<path opacity="0.3" fill-rule="evenodd" clip-rule="evenodd" d="M283.965 165.62C282.585 172.29 281.985 179.15 278.035 185.13C282.145 184.66 286.125 183.71 289.935 182.12C289.105 179.28 290.835 176.87 291.495 174.28C289.935 170.61 286.755 168.27 283.965 165.62Z" fill="#9E1F63"/>
<path opacity="0.3" fill-rule="evenodd" clip-rule="evenodd" d="M268.425 65.9102C262.485 65.6802 257.645 65.5001 251.925 65.2701C254.405 69.9101 256.635 74.0702 259.355 79.1602C262.615 74.3902 265.325 70.4302 268.425 65.9102Z" fill="#6FBD46"/>
<path opacity="0.3" fill-rule="evenodd" clip-rule="evenodd" d="M266.985 51.0201C266.405 47.2201 265.665 44.4901 265.635 41.7401C265.555 35.3601 262.885 37.2401 259.835 39.9601C257.455 42.1001 254.415 43.5901 252.475 46.7001C257.205 48.1001 261.695 49.4401 266.985 51.0201Z" fill="#5EBA57"/>
<path opacity="0.3" fill-rule="evenodd" clip-rule="evenodd" d="M358.115 128.72C363.185 129.9 367.505 130.9 372.845 132.14C371.375 126.98 370.085 122.46 368.665 117.47C364.685 120.94 361.385 124.32 358.115 128.72Z" fill="#EE498A"/>
<path opacity="0.3" fill-rule="evenodd" clip-rule="evenodd" d="M253.605 96.7202C250.055 97.4702 246.915 99.1202 243.885 100.99C244.155 106.04 239.945 109.78 239.355 114.57C240.205 115.83 241.125 117 242.945 116.91C243.705 117.22 244.655 117.26 245.045 116.62C248.915 110.38 254.415 104.75 253.605 96.7202Z" fill="#C0D730"/>
<path opacity="0.3" fill-rule="evenodd" clip-rule="evenodd" d="M337.565 106.75C340.595 106.15 343.685 105.75 346.635 104.9C348.755 104.29 352.115 105.03 352.775 102.86C353.465 100.57 351.155 98.5402 349.115 97.0502C344.175 97.3402 338.675 96.2502 336.045 102.19C335.635 104 336.295 105.47 337.565 106.75Z" fill="#9E1F63"/>
<path opacity="0.3" fill-rule="evenodd" clip-rule="evenodd" d="M247.675 150.27C257.055 159.52 257.055 159.52 267.395 151.04C260.745 150.77 254.535 150.53 247.675 150.27Z" fill="#7FCFD9"/>
<path opacity="0.3" fill-rule="evenodd" clip-rule="evenodd" d="M325.755 53.5801C322.825 56.6501 319.845 59.6701 317.025 62.8301C316.405 63.5201 317.205 64.1101 318.035 64.3501C319.335 64.7301 320.585 65.4901 321.895 65.5401C324.465 65.6401 327.825 69.0401 329.225 66.1301C330.685 63.1001 329.405 59.0601 327.945 55.6701C327.735 55.1501 327.635 54.6401 326.875 54.7801C326.505 54.3801 326.135 53.9801 325.755 53.5801Z" fill="#55B84A"/>
<path opacity="0.3" fill-rule="evenodd" clip-rule="evenodd" d="M327.175 124.4L326.715 124.19L326.235 124.37C324.865 123.81 323.415 123.98 321.985 123.95C322.385 129.85 316.055 133.96 317.085 140.03C317.915 141.7 317.595 143.87 319.465 145.07C323.915 143.06 323.905 138.24 326.435 135.02C326.755 134.22 326.965 133.41 327.115 132.58C327.295 131.75 327.405 130.91 327.605 130.08C327.925 128.14 329.055 126.14 327.175 124.4Z" fill="#225E31"/>
<path opacity="0.3" fill-rule="evenodd" clip-rule="evenodd" d="M317.085 140.04C318.645 137.88 318.645 135.13 320.435 132.91C322.305 130.59 323.855 127.68 321.525 124.65C320.135 123.1 318.185 124.05 316.525 123.7C312.755 125.49 313.225 128.96 312.795 132.07C313.715 134.98 315.235 137.59 317.085 140.04Z" fill="#166635"/>
<path opacity="0.3" fill-rule="evenodd" clip-rule="evenodd" d="M346.165 92.5201C344.665 90.8601 343.255 89.1101 341.615 87.5801C340.325 86.3701 339.675 83.4801 337.585 84.3501C335.945 85.0301 335.105 87.4901 335.215 89.6401C334.545 91.6501 334.895 94.0801 332.555 95.3901L332.565 95.3701C332.155 97.7901 334.085 97.3501 335.485 97.5701C336.395 97.5201 337.295 97.2801 338.195 97.1901C341.465 96.5901 345.225 96.8001 346.165 92.5201Z" fill="#9E1F63"/>
<path opacity="0.3" fill-rule="evenodd" clip-rule="evenodd" d="M253.605 96.7202C251.905 104.33 247.515 110.66 242.935 116.91C243.795 118.14 245.095 118.74 246.485 119.22C250.585 119.26 251.325 116.33 252.045 113.4C252.565 111.3 251.575 108.99 253.135 107.04C254.225 103.62 254.875 100.16 254.435 96.5802C254.425 96.5102 254.185 96.3802 254.085 96.4102C253.915 96.4602 253.775 96.6102 253.605 96.7202Z" fill="#CBDB2F"/>
<path opacity="0.3" fill-rule="evenodd" clip-rule="evenodd" d="M327.175 124.4C326.795 126.38 326.415 128.36 326.045 130.33C330.625 133.94 334.345 138.74 340.675 139.91C340.935 139.65 340.965 139.37 340.775 139.07C341.665 137.34 341.345 135.47 341.505 133.66C341.085 131.88 339.775 130.23 338.155 130.3C333.655 130.48 332.145 127.06 329.695 124.71C328.845 124.6 328.015 124.5 327.175 124.4Z" fill="#EF5256"/>
<path opacity="0.3" fill-rule="evenodd" clip-rule="evenodd" d="M211.065 130.87C212.675 126.38 214.285 121.88 215.985 117.12C212.735 117 209.865 116.88 206.565 116.75C207.695 121.64 208.755 126.23 209.815 130.82C210.235 130.85 210.655 130.86 211.065 130.87Z" fill="#9E1F63"/>
<path opacity="0.3" fill-rule="evenodd" clip-rule="evenodd" d="M389.995 78.4001C387.115 78.4301 384.235 78.4701 381.355 78.4901C378.765 78.5201 379.175 80.8701 378.475 82.1801C377.515 83.9901 377.195 86.0902 376.605 88.0702C375.855 88.8402 375.905 89.6102 376.545 90.3802C376.935 90.4702 377.315 90.4502 377.685 90.2902C378.885 85.3302 384.515 85.7501 387.415 82.8401C388.275 81.3701 389.135 79.8801 389.995 78.4001Z" fill="#D2509C"/>
<path opacity="0.3" fill-rule="evenodd" clip-rule="evenodd" d="M374.275 82.7001C374.465 82.1201 374.665 81.5401 374.865 80.9501C375.315 77.5101 373.815 74.4301 373.075 71.2201C372.935 70.7101 372.735 70.2301 372.495 69.7601C372.085 69.0501 371.525 68.5001 370.785 68.1101C369.955 67.8501 369.175 67.8501 368.515 68.5101C369.215 72.6701 364.955 76.4601 367.335 80.7301C369.045 83.2501 371.335 83.9901 374.275 82.7001Z" fill="#A8C93E"/>
<path opacity="0.3" fill-rule="evenodd" clip-rule="evenodd" d="M326.065 206.68C329.455 200.38 329.455 200.37 323.115 198.47C320.615 197.72 318.085 197.07 315.095 196.24C315.925 199.4 317.715 201.42 319.315 203.54C321.255 205.2 322.985 207.25 326.065 206.68Z" fill="#86C345"/>
<path opacity="0.3" fill-rule="evenodd" clip-rule="evenodd" d="M370.525 68.5901C370.935 69.0301 371.335 69.4701 371.755 69.9101C374.845 67.7401 378.475 66.2601 380.935 63.2801C381.705 62.3501 382.155 63.0901 382.645 63.6101C383.135 63.8601 383.555 63.8001 383.925 63.4001C384.865 60.8701 385.795 58.3401 386.735 55.8101C384.715 55.5501 382.695 55.2401 380.785 56.3501C378.035 60.4001 371.965 61.1701 370.205 66.2201C369.945 67.0501 370.055 67.8501 370.525 68.5901Z" fill="#7C55A2"/>
<path opacity="0.3" fill-rule="evenodd" clip-rule="evenodd" d="M325.825 132.59C325.555 133.36 325.285 134.14 325.015 134.91C325.185 135.98 324.285 137.28 325.705 138.09C330.235 139.59 333.665 142.69 337.345 145.42C338.825 146.52 340.445 147.83 340.265 144.37C338.025 139.09 332.525 136.65 329.025 132.45C328.395 131.7 326.875 131.64 325.825 132.59Z" fill="#F37B65"/>
<path opacity="0.3" fill-rule="evenodd" clip-rule="evenodd" d="M239.355 114.57C242.715 112.19 245.695 103.27 243.885 100.99C242.955 101 242.065 101.09 241.555 102.02C238.645 104.93 236.445 108.23 235.285 112.13C236.415 113.29 237.685 114.22 239.355 114.57Z" fill="#B3D236"/>
<path opacity="0.3" fill-rule="evenodd" clip-rule="evenodd" d="M235.295 112.12C238.585 109.43 240.255 105.82 241.565 102.01C237.295 103.78 233.015 105.55 228.505 107.42C230.675 109.65 232.875 111.02 235.295 112.12Z" fill="#42B14C"/>
<path opacity="0.3" fill-rule="evenodd" clip-rule="evenodd" d="M290.445 76.6802C284.145 72.4402 280.385 74.4002 276.175 84.1502C278.265 85.4402 279.585 82.5502 281.535 83.1502C283.845 81.8902 285.215 79.2802 288.115 78.8302C289.155 78.3802 290.085 77.8002 290.445 76.6802Z" fill="#5EBA47"/>
<path opacity="0.3" fill-rule="evenodd" clip-rule="evenodd" d="M364.835 84.3901C362.695 87.0801 364.305 90.4901 362.205 93.4201C365.095 93.5901 367.275 93.2801 369.335 92.2501C371.015 90.9701 372.035 89.2401 372.985 87.4501C373.355 86.7701 373.635 86.0501 373.685 85.2701C373.495 84.4601 372.945 83.9901 372.155 83.7201C369.665 83.2201 367.355 85.0301 364.835 84.3901Z" fill="#F498AB"/>
<path opacity="0.3" fill-rule="evenodd" clip-rule="evenodd" d="M274.195 100.47C272.455 101.25 270.725 102.03 268.295 103.13C272.085 105.03 274.565 108.8 278.335 108.19C281.015 107.75 279.515 104.08 279.805 101.84C278.095 100.77 276.075 100.85 274.195 100.47Z" fill="#9E1F63"/>
<path opacity="0.3" fill-rule="evenodd" clip-rule="evenodd" d="M310.085 78.7201C309.945 82.1901 309.265 85.6801 310.525 89.0701C311.025 88.8101 311.415 88.4501 311.735 88.0101C313.425 83.2901 316.025 79.0701 319.385 75.2501C319.505 75.0101 319.625 74.7701 319.735 74.5401C318.125 73.1501 316.185 72.4301 314.095 72.0101C309.345 72.4101 312.005 76.8001 310.085 78.7201Z" fill="#FBB33B"/>
<path opacity="0.3" fill-rule="evenodd" clip-rule="evenodd" d="M283.955 136.09C283.115 137.88 282.885 139.95 281.185 141.32C284.395 141.45 287.615 141.57 291.185 141.71C290.265 137.88 288.645 134.67 286.645 131.61L286.295 131.59C285.225 132.95 284.665 134.56 283.955 136.09Z" fill="#6ECCE2"/>
<path opacity="0.3" fill-rule="evenodd" clip-rule="evenodd" d="M346.165 92.5201C343.945 95.2401 340.555 95.3802 337.495 96.2502C337.745 98.1102 336.635 97.6701 335.565 97.3001C334.405 97.2201 333.425 97.3802 333.185 98.7202C333.515 100.74 334.245 102.43 336.685 102.73C338.985 99.6602 341.515 97.2802 345.935 98.9402C347.495 99.5202 348.405 98.2502 349.115 97.0602C348.135 95.5402 347.145 94.0301 346.165 92.5201Z" fill="#9E1F63"/>
<path opacity="0.3" fill-rule="evenodd" clip-rule="evenodd" d="M325.825 132.59C331.185 133.89 332.725 139.57 337.285 141.83C338.435 142.39 339.275 143.5 340.265 144.37C340.395 142.89 340.535 141.4 340.665 139.91C335.795 136.71 331.885 132.17 326.035 130.33C325.975 131.08 325.905 131.84 325.825 132.59Z" fill="#F0635A"/>
<path opacity="0.3" fill-rule="evenodd" clip-rule="evenodd" d="M346.925 172.81C349.955 171.36 352.995 169.92 356.335 168.32C353.405 165.77 350.385 164.33 347.305 162.99C345.085 166.22 344.805 169.49 346.925 172.81Z" fill="#ED488B"/>
<path opacity="0.3" fill-rule="evenodd" clip-rule="evenodd" d="M370.525 68.5901C370.585 67.8601 370.645 67.1101 370.715 66.3801C371.005 65.1201 370.995 63.8701 370.625 62.6301C370.045 60.6801 369.605 58.6701 367.825 57.3201C366.135 57.2601 364.435 57.1901 362.375 57.1101C363.585 61.6701 366.365 64.9401 368.525 68.5101C369.185 68.5401 369.855 68.5701 370.525 68.5901Z" fill="#A3C941"/>
<path opacity="0.3" fill-rule="evenodd" clip-rule="evenodd" d="M329.685 124.7C330.455 131.08 337.185 130.27 340.855 133.16C342.135 130.89 342.195 128.56 341.315 126.19C338.495 126.14 336.495 128.34 333.455 128.84C335.795 124.26 333.065 124.18 329.685 124.7Z" fill="#EF545E"/>
<path opacity="0.3" fill-rule="evenodd" clip-rule="evenodd" d="M275.855 131.07C279.335 131.89 282.675 129.98 286.145 130.39C284.765 128.1 284.645 123.66 281.885 123.96C278.935 124.28 277.525 128.35 275.855 131.07Z" fill="#64C3AB"/>
<path opacity="0.3" fill-rule="evenodd" clip-rule="evenodd" d="M310.865 87.7802C310.745 88.2102 310.635 88.6402 310.515 89.0702C311.905 93.7802 312.905 87.8002 314.175 88.8902C315.285 87.2202 316.845 85.9102 318.165 84.4102C318.495 84.0302 318.785 83.6002 319.035 83.1602C320.065 80.6402 322.245 78.5701 322.255 75.6501C321.685 74.7101 320.735 74.5802 319.725 74.5402L319.555 74.6902C314.965 78.0302 313.525 83.2702 310.865 87.7802Z" fill="#F89D3A"/>
<path opacity="0.3" fill-rule="evenodd" clip-rule="evenodd" d="M327.715 175.65C327.515 173.1 326.575 170.79 325.425 168.49C323.685 169.1 323.055 170.5 322.165 171.67C320.695 174.26 319.935 177.07 319.355 179.93C320.725 181.08 322.405 180.96 324.065 180.93C324.755 178.84 325.885 177.03 327.715 175.65Z" fill="#A6D06A"/>
<path opacity="0.3" fill-rule="evenodd" clip-rule="evenodd" d="M247.895 232.61C248.575 234.5 249.245 237.28 251.385 236.99C254.055 236.62 255.075 233.54 256.955 231.09C254.775 230.23 252.825 230.39 250.845 230.78C249.685 231.12 247.675 230.19 247.895 232.61Z" fill="#4780C1"/>
<path opacity="0.3" fill-rule="evenodd" clip-rule="evenodd" d="M291.495 174.26C289.915 176.7 285.585 178.67 289.935 182.1C297.585 179.58 297.585 179.58 291.495 174.26Z" fill="#9E1F63"/>
<path opacity="0.3" fill-rule="evenodd" clip-rule="evenodd" d="M369.665 63.2101C369.955 64.2801 369.145 65.7101 370.705 66.3801C373.505 62.5201 378.785 60.9601 380.785 56.3401C379.215 56.4101 377.655 56.4701 376.095 56.5401C373.455 58.3301 370.205 59.5701 369.665 63.2101Z" fill="#8155A2"/>
<path opacity="0.3" fill-rule="evenodd" clip-rule="evenodd" d="M296.345 104.8C299.305 102.49 302.275 100.18 306.005 97.2701C302.675 96.7401 300.435 96.3902 298.205 96.0302C295.235 98.5302 294.235 101.39 296.345 104.8Z" fill="#64489C"/>
<path opacity="0.3" fill-rule="evenodd" clip-rule="evenodd" d="M336.685 102.72C335.585 101.42 334.495 100.11 333.395 98.8102C332.765 98.4802 332.265 98.6102 331.905 99.2202C331.285 101.99 329.135 104.59 330.745 107.61C333.015 107.32 335.295 107.03 337.575 106.75C337.275 105.4 336.975 104.06 336.685 102.72Z" fill="#9E1F63"/>
<path opacity="0.3" fill-rule="evenodd" clip-rule="evenodd" d="M296.345 104.8C295.945 101.69 297.365 98.9102 298.205 96.0302C296.495 95.7802 294.705 95.1602 294.285 97.8002C293.815 100.72 293.155 103.62 292.565 106.61C294.715 107.27 295.445 105.88 296.345 104.8Z" fill="#B677B1"/>
<path opacity="0.3" fill-rule="evenodd" clip-rule="evenodd" d="M320.505 84.8601C323.455 82.9901 326.405 81.1402 329.415 79.2402C328.415 77.6502 327.075 77.1502 325.505 77.0002C323.485 75.8802 322.105 76.7302 321.585 78.6002C320.995 80.7302 319.065 81.8102 318.015 83.5402C317.925 85.5702 319.075 85.4401 320.505 84.8601Z" fill="#F48437"/>
<path opacity="0.3" fill-rule="evenodd" clip-rule="evenodd" d="M253.145 107.04C250.715 110.99 251.945 116.76 246.495 119.23C247.675 120.49 249.115 122.02 250.805 121.53C252.845 120.94 252.135 118.66 252.315 117.1C252.715 113.75 252.885 110.39 253.145 107.04Z" fill="#DAE03B"/>
<path opacity="0.3" fill-rule="evenodd" clip-rule="evenodd" d="M319.355 179.94C323.985 178.29 321.165 174.41 322.165 171.68C320.605 173.05 319.015 174.4 317.495 175.8C314.245 178.82 315.395 179.99 319.355 179.94Z" fill="#6ABD51"/>
<path opacity="0.3" fill-rule="evenodd" clip-rule="evenodd" d="M315.685 124.29C317.635 124.41 319.575 124.53 321.525 124.65C323.095 124.56 324.675 124.47 326.235 124.38C320.455 122.89 314.475 123.32 308.345 122.75C308.075 124.9 309.255 126.23 310.375 127.58C313.345 128.3 313.625 124.95 315.685 124.29Z" fill="#0E753C"/>
<path opacity="0.3" fill-rule="evenodd" clip-rule="evenodd" d="M364.835 84.3901C367.165 88.8101 369.715 83.5501 372.125 84.4401C372.775 83.8901 373.935 84.3701 374.365 83.3701C374.405 83.1401 374.375 82.9201 374.285 82.7101C371.965 82.0501 369.645 81.4001 367.345 80.7401C364.845 80.9201 365.355 82.9601 364.835 84.3901Z" fill="#EF512F"/>
<path opacity="0.3" fill-rule="evenodd" clip-rule="evenodd" d="M346.235 162.66C344.825 161.26 343.135 159.57 342.895 163.25C342.705 166.11 341.835 169.07 343.265 171.87C343.695 170.25 346.505 171.55 346.515 169.41C346.335 167.15 347.395 164.85 346.235 162.66Z" fill="#FBE692"/>
<path opacity="0.3" fill-rule="evenodd" clip-rule="evenodd" d="M369.665 63.2101C372.025 61.1801 374.855 59.5801 376.095 56.5501C373.265 56.0201 370.585 57.0801 367.815 57.3201C367.765 59.4901 368.615 61.3801 369.665 63.2101Z" fill="#8A5BA4"/>
<path opacity="0.3" fill-rule="evenodd" clip-rule="evenodd" d="M326.065 206.68C323.725 205.81 322.455 202.88 319.325 203.54C319.325 207.1 322.375 209.1 323.565 212.4C325.275 210.43 326.105 208.72 326.065 206.68Z" fill="#7858A2"/>
<path opacity="0.3" fill-rule="evenodd" clip-rule="evenodd" d="M330.745 107.6C331.665 104.74 332.705 101.89 332.225 98.8201C331.955 98.4001 331.665 98.4101 331.355 98.8001C328.855 101.47 327.685 104.79 326.395 108.11C328.055 109.18 329.355 107.93 330.745 107.6Z" fill="#9E1F63"/>
<path opacity="0.3" fill-rule="evenodd" clip-rule="evenodd" d="M327.715 175.65C324.435 176.13 321.815 177 324.065 180.94C325.685 181.39 327.295 181.83 329.305 182.4C329.915 179.67 326.795 178.05 327.715 175.65Z" fill="#99CA45"/>
<path opacity="0.3" fill-rule="evenodd" clip-rule="evenodd" d="M322.605 226.54C320.855 227.22 319.115 227.9 316.915 228.75Z" fill="#386DB4"/>
<path opacity="0.3" fill-rule="evenodd" clip-rule="evenodd" d="M290.445 76.6802C289.545 77.0802 288.645 77.4702 287.745 77.8602C285.885 78.8902 284.845 80.1802 286.285 82.1902C287.575 82.8202 288.435 81.5702 289.465 81.4502C295.645 80.7902 292.515 78.6702 290.445 76.6802Z" fill="#91C741"/>
<path opacity="0.3" fill-rule="evenodd" clip-rule="evenodd" d="M310.085 78.7202C312.875 77.2702 311.815 73.7402 314.085 72.0202C313.035 70.8202 311.535 70.5502 309.685 70.0702C308.995 73.0702 309.395 75.8902 310.085 78.7202Z" fill="#FFCE4C"/>
<path opacity="0.3" fill-rule="evenodd" clip-rule="evenodd" d="M372.085 86.7502C371.175 88.5802 370.255 90.4102 369.335 92.2502C371.835 91.9802 374.295 91.5902 376.545 90.3802C376.565 89.6102 376.585 88.8402 376.605 88.0702C376.255 88.0402 375.895 88.0002 375.535 87.9502C374.405 87.5202 373.615 86.1902 372.085 86.7502Z" fill="#EE5089"/>
<path opacity="0.3" fill-rule="evenodd" clip-rule="evenodd" d="M315.685 124.29C312.835 123.76 312.305 126.73 310.375 127.59C310.745 129.3 311.525 130.81 312.795 132.08C315.405 130.02 314.755 126.89 315.685 124.29Z" fill="#1A703B"/>
<path opacity="0.3" fill-rule="evenodd" clip-rule="evenodd" d="M325.705 138.09C325.475 137.03 325.245 135.97 325.015 134.91C323.195 138.31 322.395 142.22 319.455 145.07C319.845 145.93 320.485 147.06 321.365 145.85C323.115 143.44 325.545 141.31 325.705 138.09Z" fill="#9FC03C"/>
<path opacity="0.3" fill-rule="evenodd" clip-rule="evenodd" d="M318.015 83.5402C319.995 82.4102 323.005 82.4001 322.565 78.8701C322.355 77.2401 324.175 77.1402 325.515 77.0102C324.665 76.0402 323.525 75.7201 322.265 75.6501C320.495 78.1001 318.115 80.2702 318.015 83.5402Z" fill="#F6913A"/>
<path opacity="0.3" fill-rule="evenodd" clip-rule="evenodd" d="M274.195 100.47C275.545 102.77 277.855 101.64 279.805 101.83C279.875 100.59 279.955 99.3501 280.035 98.0001C277.645 98.2901 275.825 99.1901 274.195 100.47Z" fill="#9E1F63"/>
<path opacity="0.3" fill-rule="evenodd" clip-rule="evenodd" d="M320.505 84.8601C319.505 84.7201 318.515 84.5502 318.015 83.5402C315.635 84.6002 314.065 86.1902 314.175 88.8802C316.805 88.3102 318.725 86.6801 320.505 84.8601Z" fill="#F6913A"/>
<path opacity="0.3" fill-rule="evenodd" clip-rule="evenodd" d="M286.285 82.1902C286.235 80.5802 286.885 79.1802 287.745 77.8502C283.935 77.7202 282.875 80.5902 281.535 83.1502C283.375 84.1102 284.535 81.6902 286.285 82.1902Z" fill="#7AC049"/>
<path opacity="0.3" fill-rule="evenodd" clip-rule="evenodd" d="M341.305 126.2C341.155 128.53 341.005 130.85 340.845 133.17C340.815 135.13 340.785 137.11 340.755 139.07C342.205 134.82 342.485 130.45 342.155 126.05C342.145 125.99 341.905 125.89 341.805 125.92C341.625 125.96 341.475 126.1 341.305 126.2Z" fill="#EF5164"/>
<path opacity="0.3" fill-rule="evenodd" clip-rule="evenodd" d="M345.695 170.65C345.135 170.21 344.575 169.76 344.025 169.31C343.775 170.16 343.515 171.02 343.255 171.87C343.375 172.71 343.205 174.01 343.675 174.27C344.475 174.72 345.305 173.91 345.815 173.12C346.445 172.25 346.515 171.43 345.695 170.65Z" fill="#DDE57C"/>
<path opacity="0.3" fill-rule="evenodd" clip-rule="evenodd" d="M345.695 170.65C345.735 171.47 345.765 172.3 345.815 173.12C346.225 173.16 346.585 173.06 346.915 172.81C347.035 169.54 347.165 166.26 347.295 162.99C346.975 162.78 346.625 162.67 346.235 162.66C346.055 165.32 345.875 167.98 345.695 170.65Z" fill="#EE4852"/>
<path opacity="0.3" fill-rule="evenodd" clip-rule="evenodd" d="M332.565 95.3801C336.885 94.8901 335.385 91.9901 335.225 89.6301C333.735 91.3101 332.945 93.2601 332.565 95.3801Z" fill="#9E1F63"/>
<path opacity="0.3" fill-rule="evenodd" clip-rule="evenodd" d="M331.355 98.8101C331.645 98.8201 331.935 98.8301 332.225 98.8301C332.615 98.8201 333.005 98.8201 333.405 98.8101C334.015 97.9601 334.845 97.5101 335.925 97.6001C336.235 97.3601 336.315 97.1501 336.185 96.9501C336.065 96.7701 335.955 96.6901 335.825 96.6801C334.585 96.5901 333.255 96.6901 332.585 95.3601C331.235 96.2201 331.315 97.5201 331.355 98.8101Z" fill="#9E1F63"/>
<path opacity="0.3" fill-rule="evenodd" clip-rule="evenodd" d="M247.895 232.61C248.875 232 249.855 231.39 250.835 230.78C249.345 230.2 247.685 229.51 246.425 230.85C245.955 231.34 247.055 232.25 247.895 232.61Z" fill="#5BBA61"/>
<path opacity="0.3" fill-rule="evenodd" clip-rule="evenodd" d="M383.925 63.3901C383.555 63.4301 383.195 63.4701 382.815 63.5301C380.415 66.0601 378.085 68.5901 379.885 72.3401L379.985 72.4601C380.505 71.5601 383.305 74.8201 382.335 71.2701C381.745 69.1201 384.545 67.8401 383.825 65.7101C383.865 64.9301 383.885 64.1601 383.925 63.3901Z" fill="#D64F9C"/>
<path opacity="0.3" fill-rule="evenodd" clip-rule="evenodd" d="M283.955 136.09C285.225 134.82 286.285 133.45 286.295 131.59C284.155 132.45 283.835 134.17 283.955 136.09Z" fill="#64C3AB"/>
<path opacity="0.3" fill-rule="evenodd" clip-rule="evenodd" d="M371.945 70.8902C372.575 74.3402 372.975 77.8602 374.875 80.9602C377.415 78.6902 378.075 75.6302 378.835 72.6102C379.655 70.4802 379.595 68.2202 377.105 67.6802C374.835 67.1802 372.515 68.0902 371.945 70.8902Z" fill="#7251A1"/>
<g opacity="0.3">
<path opacity="0.3" fill-rule="evenodd" clip-rule="evenodd" d="M371.945 70.8901C374.995 68.8301 378.195 66.2401 378.845 72.6101C379.185 72.5001 379.545 72.4101 379.895 72.3501C380.875 69.4101 381.845 66.4701 382.825 63.5401C382.805 62.2801 382.775 61.0201 382.745 59.7601C380.765 65.0001 373.465 64.7501 371.755 69.9201C371.735 70.2501 371.795 70.5801 371.945 70.8901Z" fill="#7553A1"/>
</g>
<path opacity="0.3" fill-rule="evenodd" clip-rule="evenodd" d="M372.085 86.7501C373.365 86.8101 373.645 89.4301 375.535 87.9501C375.515 87.6001 375.505 87.2501 375.505 86.9001C374.865 86.2401 374.595 84.9601 373.155 85.6301C372.795 86.0101 372.445 86.3801 372.085 86.7501Z" fill="#EE487C"/>
<path opacity="0.3" fill-rule="evenodd" clip-rule="evenodd" d="M373.155 85.6401C373.935 86.0701 374.715 86.4901 375.505 86.9101C375.125 85.7301 374.745 84.5501 374.365 83.3701C373.625 83.7301 372.875 84.0801 372.125 84.4401C372.475 84.8301 372.815 85.2401 373.155 85.6401Z" fill="#EE4A88"/>
<path opacity="0.3" fill-rule="evenodd" clip-rule="evenodd" d="M335.815 96.6802C335.925 96.9702 335.965 97.2802 335.915 97.5902C336.105 98.3902 335.815 99.7302 337.415 99.1102C338.295 98.7702 339.035 98.1002 339.845 97.5702C339.055 97.1302 338.275 96.6802 337.495 96.2302C336.935 96.3902 336.375 96.5302 335.815 96.6802Z" fill="#9E1F63"/>
<path opacity="0.3" fill-rule="evenodd" clip-rule="evenodd" d="M310.865 87.7802C313.755 83.4202 316.655 79.0502 319.555 74.6802C313.915 77.4002 312.305 82.5302 310.865 87.7802Z" fill="#F9A53E"/>
</g>
</g>
<g opacity="0.9">
<g opacity="0.9">
<path opacity="0.9" fill-rule="evenodd" clip-rule="evenodd" d="M227.945 212.1C228.215 216.9 228.485 221.71 228.805 227.4C236.575 222.83 243.855 218.54 252.455 213.47C244.905 210.32 238.825 206.72 231.695 205.22C229.995 206.69 229.265 208.58 228.955 210.67C228.695 211.18 228.365 211.67 227.945 212.1Z" fill="#5D3B96"/>
<path opacity="0.9" fill-rule="evenodd" clip-rule="evenodd" d="M270.875 256.65C269.035 254.88 267.165 253.16 263.975 252.31C264.535 262.35 265.095 272.25 265.675 282.66C268.155 281.47 270.575 280.27 272.215 277.91C274.455 270.63 274.015 263.54 270.875 256.65Z" fill="#AA519E"/>
<path opacity="0.9" fill-rule="evenodd" clip-rule="evenodd" d="M177.505 274.32C172.575 273.65 167.645 272.98 161.625 272.16C164.245 279.09 166.585 285.29 169.095 291.92C173.035 289.54 174.785 286.01 176.845 282.74C177.045 280.64 179.975 280.31 180.145 278.18C180.125 276.34 179.165 275.11 177.505 274.32Z" fill="#245D2F"/>
<path opacity="0.9" fill-rule="evenodd" clip-rule="evenodd" d="M270.875 256.65C271.315 263.73 271.765 270.82 272.225 277.92C275.415 275.59 278.605 273.26 281.795 270.93C283.635 268.46 286.705 266.1 282.805 263.03C279.005 260.6 275.735 257.28 270.875 256.65Z" fill="#B0529E"/>
<path opacity="0.9" fill-rule="evenodd" clip-rule="evenodd" d="M177.505 274.32C178.125 275.59 178.755 276.85 179.385 278.11C182.325 285.06 187.915 290 193.265 295.12C194.155 294.58 195.055 294.04 195.955 293.5C197.075 286.77 193.865 281.64 189.595 276.89C185.825 274.98 182.885 269.69 177.505 274.32Z" fill="#198140"/>
<path opacity="0.9" fill-rule="evenodd" clip-rule="evenodd" d="M193.275 295.13C190.155 288.31 184.365 283.52 179.395 278.12C178.525 279.65 176.265 280.5 176.855 282.75C177.785 282.7 179.615 280.37 179.305 283.48C178.965 286.85 178.305 290.19 178.935 293.57C182.615 298.28 187.345 297.54 192.275 295.74C192.685 295.66 193.015 295.45 193.275 295.13Z" fill="#1E5E2F"/>
<path opacity="0.9" fill-rule="evenodd" clip-rule="evenodd" d="M189.605 276.89C191.725 282.43 193.845 287.97 195.965 293.5C199.635 291.46 203.315 289.4 207.875 286.86C201.245 283.24 195.425 280.07 189.605 276.89Z" fill="#45B54D"/>
<path opacity="0.9" fill-rule="evenodd" clip-rule="evenodd" d="M192.265 295.73C187.625 296.03 183.235 294.97 178.925 293.56C178.095 296.88 177.535 300.21 178.075 304.16C183.455 301.98 187.915 298.93 192.265 295.73Z" fill="#3FB251"/>
<path opacity="0.9" fill-rule="evenodd" clip-rule="evenodd" d="M195.605 312.65C192.475 309.56 189.735 307.56 185.815 305.96C185.355 309.99 184.945 313.66 184.415 318.27C188.495 316.22 191.795 314.56 195.605 312.65Z" fill="#84C44C"/>
<path opacity="0.9" fill-rule="evenodd" clip-rule="evenodd" d="M282.805 263.02C284.865 265.9 282.175 268.29 281.795 270.92C283.905 269.51 286.015 268.1 288.595 266.37C286.925 264.31 285.085 263.36 282.805 263.02Z" fill="#BC5DA2"/>
<path opacity="0.9" fill-rule="evenodd" clip-rule="evenodd" d="M227.945 212.1C228.205 212.13 228.465 212.13 228.725 212.12C230.255 209.89 230.575 207.44 230.295 204.87C229.385 203.5 228.115 201.74 227.545 204.85C227.115 207.18 227.775 209.68 227.945 212.1Z" fill="#1AAAD2"/>
<path opacity="0.9" fill-rule="evenodd" clip-rule="evenodd" d="M230.295 204.87C229.175 207.18 228.695 209.6 228.725 212.12C231.505 210.51 230.995 207.64 231.705 205.22C231.235 205.11 230.775 204.99 230.295 204.87Z" fill="#2D328A"/>
</g>
<g opacity="0.9">
<path opacity="0.9" fill-rule="evenodd" clip-rule="evenodd" d="M223.675 270.45C228.095 264.91 232.835 263.74 238.715 268.54C241.545 270.85 245.125 272.34 249.125 274.65C249.705 264.42 250.245 254.85 250.785 245.16C247.675 244.18 245.615 246.43 243.155 247.06C241.725 247.79 239.995 250.21 239.325 246.51C237.545 242.01 233.555 244.96 230.755 244.63C225.835 244.04 220.735 244.64 215.705 244.74C214.535 245 213.635 245.76 213.775 246.84C214.805 254.74 216.645 262.44 220.255 269.62C220.865 270.8 222.225 271.3 223.675 270.45Z" fill="#42B54A"/>
<path opacity="0.9" fill-rule="evenodd" clip-rule="evenodd" d="M313.105 190.22C303.545 187.51 293.965 184.86 284.455 182.03C280.625 180.9 279.225 182.09 280.065 185.71C282.145 194.83 284.335 203.92 286.485 213.03C293.845 211.57 297.925 205.46 303.675 201.72C306.215 197.45 313.935 197.04 313.105 190.22Z" fill="#ED4488"/>
<path opacity="0.9" fill-rule="evenodd" clip-rule="evenodd" d="M92.4053 295.07C84.3853 299.05 76.3453 302.99 68.3753 307.05C65.9753 308.27 63.7653 309.85 61.4553 311.26C60.8053 313.2 61.7053 314.6 63.1153 315.83C69.2053 319.19 75.2653 322.58 81.3853 325.88C84.2953 327.45 86.4953 327.28 86.3653 323.27C86.2653 320.18 88.1853 317.82 89.4253 315.21C92.4753 308.74 95.7853 302.31 92.4053 295.07Z" fill="#54479C"/>
<path opacity="0.9" fill-rule="evenodd" clip-rule="evenodd" d="M61.3253 267.67C52.2653 265.23 43.2053 262.78 34.1453 260.34C32.7953 262.41 33.5953 264.54 33.7853 266.67C33.9253 267.38 34.1653 268.04 34.5053 268.68C35.2653 269.87 36.2553 270.9 37.1653 271.97C39.0153 274.03 39.7153 276.71 41.2053 278.95C42.6653 280.78 42.8453 283.08 43.5953 285.17C44.1153 286.32 44.8953 287.32 45.5253 288.39C46.2753 289.75 46.3753 291.35 47.0953 292.72C47.8753 293.81 48.9653 294.44 50.3053 294.72C53.7153 291.33 57.1353 287.93 60.5453 284.53C61.7553 278.95 65.3153 273.41 61.3253 267.67Z" fill="#4B4199"/>
<path opacity="0.9" fill-rule="evenodd" clip-rule="evenodd" d="M105.895 264.94C106.425 264.77 106.945 264.59 107.475 264.42C110.015 262.17 113.855 262.48 116.365 260.17C125.085 256.66 134.235 254.1 142.765 248.57C136.825 243.98 130.695 240.16 124.185 236.85C118.995 235.97 116.505 239.71 113.575 242.68C110.265 247.48 108.005 252.8 105.605 258.03C104.585 260.24 102.785 262.82 105.895 264.94Z" fill="#D94096"/>
<path opacity="0.9" fill-rule="evenodd" clip-rule="evenodd" d="M60.6653 195.83C58.4353 196.96 56.8153 198.61 55.8553 200.87C55.5053 202.26 55.6153 203.94 57.2153 204.01C64.4153 204.36 59.5453 207.06 59.3253 207.52C60.2753 206.06 60.4153 203.77 55.7753 205.02C52.9053 205.8 50.9453 208.42 48.4353 210.01L48.3353 210.05C48.8753 212.03 46.7453 211.86 45.9453 212.76C43.7053 214.11 40.6653 215.7 41.2753 218.25C41.8153 220.49 45.3453 219.78 47.5453 220.2C53.0353 221.24 58.5853 221.99 64.1053 222.85C65.9453 221.12 68.4353 220.86 70.6953 220.05C72.5353 219.3 73.3353 217.74 74.0653 216.12C73.7553 215.35 73.4553 214.59 73.1453 213.82C72.6453 208.55 70.1153 203.92 68.2653 199.09C67.0553 195.93 64.6453 193.89 60.6653 195.83Z" fill="#9E1F63"/>
<path opacity="0.9" fill-rule="evenodd" clip-rule="evenodd" d="M302.705 200.69C296.705 204.09 291.625 208.6 286.475 213.03C286.735 214.08 286.995 215.13 287.265 216.18C289.345 217.12 292.085 216.3 293.075 219.81C293.955 222.92 297.085 225.03 301.085 224.7C306.995 220.33 311.935 215.02 316.875 209.72C314.055 203.51 308.615 200.05 302.705 200.69Z" fill="#C2559F"/>
<path opacity="0.9" fill-rule="evenodd" clip-rule="evenodd" d="M95.9453 201.67C93.9253 207.57 91.9053 213.48 89.5253 220.42C100.605 218.39 110.245 215.39 120.475 211.54C115.835 205.89 110.505 201.46 105.045 197.15C101.095 196.91 98.9953 200.19 95.9453 201.67Z" fill="#6D4F9F"/>
<path opacity="0.9" fill-rule="evenodd" clip-rule="evenodd" d="M367.605 200.93C370.795 201.36 373.985 201.79 378.745 202.43C374.255 194.74 371.915 187.42 367.115 181.26C363.285 179.08 359.215 179.68 355.125 180.46C353.935 180.82 352.835 181.36 351.795 182.02C345.145 187.44 345.185 187.38 352.275 190.96C357.765 193.73 361.465 199.04 367.605 200.93Z" fill="#E04D9A"/>
<path opacity="0.9" fill-rule="evenodd" clip-rule="evenodd" d="M302.705 200.69C308.305 202.44 312.835 205.74 316.875 209.73C321.645 205.55 326.415 201.37 331.185 197.19C329.885 192.25 325.115 190.53 321.505 187.83C319.655 186.44 317.475 187.09 316.165 189.3C315.695 191.41 314.075 189.76 313.095 190.22C311.565 195.48 304.355 195.54 302.705 200.69Z" fill="#CA549E"/>
<path opacity="0.9" fill-rule="evenodd" clip-rule="evenodd" d="M166.805 115.31C168.625 113.02 170.075 110.59 170.655 106.65C157.805 108.48 145.385 110.26 131.975 112.18C134.115 114.83 134.935 117.45 137.585 118.85C141.395 122.08 145.285 122.39 150.235 120.41C155.555 118.29 162.355 120.51 166.805 115.31Z" fill="#9E1F63"/>
<path opacity="0.9" fill-rule="evenodd" clip-rule="evenodd" d="M192.575 238.16C196.805 234.12 201.035 230.09 206.875 224.51C196.855 224.04 188.865 222.97 180.955 223.49C174.345 223.92 178.405 229.44 177.675 232.69C181.305 237.75 186.545 238.91 192.575 238.16Z" fill="#ED3087"/>
<path opacity="0.9" fill-rule="evenodd" clip-rule="evenodd" d="M105.895 264.94C105.905 257.05 112.375 251.39 114.025 244.06C115.775 240.62 119.525 238.06 119.085 233.66C118.865 231.24 118.645 228.82 118.375 225.94C115.935 226.8 113.745 227.58 111.555 228.35C107.665 235.27 106.385 243.22 102.065 249.97C101.495 254.01 101.035 258.07 100.315 262.09C99.1853 268.47 102.495 266.72 105.895 264.94Z" fill="#BF6EAC"/>
<path opacity="0.9" fill-rule="evenodd" clip-rule="evenodd" d="M223.675 270.45C218.015 262.79 217.245 253.65 215.715 244.74C214.085 243.75 212.425 244.1 210.765 244.75C203.825 248.95 207.025 254.28 208.765 259.44C210.975 263.47 212.995 267.63 215.465 271.51C218.685 276.59 221.705 277.06 223.675 270.45Z" fill="#73BE45"/>
<path opacity="0.9" fill-rule="evenodd" clip-rule="evenodd" d="M166.805 115.31C157.155 117.32 147.635 120.4 137.585 118.86C140.325 123.68 143.665 128.08 147.755 131.91C151.135 129.29 155.265 130.08 159.085 129.46C163.195 125.49 164.695 120.25 166.805 115.31Z" fill="#9E1F63"/>
<path opacity="0.9" fill-rule="evenodd" clip-rule="evenodd" d="M338.485 197.9C343.885 198.43 349.295 198.97 354.695 199.5C355.315 193.8 350.675 191.64 346.955 188.95C344.705 187.31 341.265 186.65 342.145 182.78C342.105 182.42 342.055 182.06 342.015 181.7C341.755 181.01 341.305 180.46 340.655 180.06C336.295 179.08 331.805 180.14 327.415 179.52C326.655 179.49 325.905 179.56 325.165 179.7C324.425 179.87 323.715 180.15 323.035 180.49C321.395 181.45 319.905 182.59 318.545 183.91C318.045 184.5 317.765 185.17 317.735 185.93C318.005 186.66 318.515 187.1 319.325 187.2C329.165 185.16 333.605 191.87 338.485 197.9Z" fill="#D64F9C"/>
<path opacity="0.9" fill-rule="evenodd" clip-rule="evenodd" d="M162.225 337.28C166.735 336.82 171.225 336.36 177.785 335.69C167.195 329.25 158.295 323.85 149.325 318.39C146.565 321.69 149.075 324.2 149.335 326.83C151.215 333.05 156.665 335.23 162.225 337.28Z" fill="#ED438E"/>
<path opacity="0.9" fill-rule="evenodd" clip-rule="evenodd" d="M254.555 186.51C255.595 193.44 256.475 199.35 257.565 206.65C263.735 201.95 269.125 197.83 275.085 193.29C268.375 190.3 262.135 188.11 254.555 186.51Z" fill="#EE498A"/>
<path opacity="0.9" fill-rule="evenodd" clip-rule="evenodd" d="M273.415 148.82C275.775 152.23 277.905 155.83 280.575 159.01C282.495 161.31 283.235 165.88 286.475 165.47C289.895 165.05 291.425 161.06 292.375 157.7C289.435 151.75 288.055 144.33 278.735 144.39C276.105 144.89 274.475 146.54 273.415 148.82Z" fill="#9E1F63"/>
<path opacity="0.9" fill-rule="evenodd" clip-rule="evenodd" d="M244.375 145.8L244.425 145.11L243.925 144.62C243.975 142.62 242.995 140.91 242.295 139.12C234.585 142.91 225.815 137.37 218.195 142.03C216.385 143.98 213.315 144.8 212.675 147.78C217.675 152.17 224.125 149.47 229.755 150.8C230.985 150.75 232.195 150.55 233.385 150.27C234.595 150.03 235.775 149.7 236.995 149.48C239.745 148.82 243.015 149.1 244.375 145.8Z" fill="#225E31"/>
<path opacity="0.9" fill-rule="evenodd" clip-rule="evenodd" d="M192.575 238.16C187.605 236.33 182.645 234.51 177.685 232.69C176.455 239.49 175.735 246.29 176.805 254.26C183.105 248.65 188.265 243.8 192.575 238.16Z" fill="#EC2A90"/>
<path opacity="0.9" fill-rule="evenodd" clip-rule="evenodd" d="M218.195 142.04C221.915 142.77 225.585 141.24 229.485 142.2C233.565 143.22 238.275 143.53 241.125 138.94C242.485 136.35 240.205 134.47 239.825 132.22C235.485 128.56 231.075 131.08 226.675 132.28C223.235 135.05 220.525 138.39 218.195 142.04Z" fill="#166635"/>
<path opacity="0.9" fill-rule="evenodd" clip-rule="evenodd" d="M92.4053 295.07C93.1253 301.99 89.0953 308.34 89.4253 315.21C94.3153 315.32 99.2153 315.42 105.055 315.55C100.985 308.18 97.2553 301.4 93.4953 294.63C93.4253 294.5 93.0353 294.38 92.9153 294.46C92.6853 294.58 92.5653 294.85 92.4053 295.07Z" fill="#A65AA3"/>
<path opacity="0.9" fill-rule="evenodd" clip-rule="evenodd" d="M341.285 182.21C338.535 185.34 338.785 188.11 343.005 189.13C349.055 190.58 351.535 195.3 354.695 199.5C359.005 199.97 363.305 200.45 367.605 200.93C361.465 196.01 357.135 188.7 348.105 187.58C348.675 185.24 352.115 185.65 352.325 183.19C348.915 180.45 344.835 183.65 341.285 182.21Z" fill="#DB4E9B"/>
<path opacity="0.9" fill-rule="evenodd" clip-rule="evenodd" d="M244.375 145.8C241.535 146.43 238.675 147.07 235.835 147.71C233.375 155.39 228.835 162.67 230.535 171.15C231.015 171.33 231.415 171.21 231.715 170.8C234.495 170.93 236.835 169.49 239.345 168.68C241.525 167.17 243.055 164.63 242.125 162.65C239.565 157.18 243.385 153.4 245.265 149.07C244.975 147.99 244.675 146.9 244.375 145.8Z" fill="#EF5256"/>
<path opacity="0.9" fill-rule="evenodd" clip-rule="evenodd" d="M50.2953 294.74C49.4653 293.91 48.6453 293.08 47.8153 292.25C45.5953 289.58 43.0253 288.85 40.3253 291.58C36.9853 294.96 32.8553 297.89 32.3153 303.06C32.1653 305.36 32.0653 307.66 34.1253 310.36C39.5953 305.08 44.9453 299.91 50.2953 294.74Z" fill="#107D9C"/>
<path opacity="0.9" fill-rule="evenodd" clip-rule="evenodd" d="M135.075 325.83C128.335 326.18 122.975 326.45 117.125 326.75C117.605 328.05 117.665 328.88 118.125 329.37C121.235 332.74 122.535 340.07 127.005 339.15C131.285 338.26 132.345 331.27 135.075 325.83Z" fill="#B363A7"/>
<path opacity="0.9" fill-rule="evenodd" clip-rule="evenodd" d="M32.3153 303.06C35.2153 299.8 38.3653 296.7 40.9453 293.23C43.1553 290.25 45.4253 291.76 47.8153 292.25C47.5853 290.8 47.3653 289.35 47.1353 287.9C44.3053 287.19 41.9453 285.51 39.2953 284.44C33.7953 283.16 31.1653 286.11 29.6153 290.62C29.5553 294.98 30.5753 299.1 32.3153 303.06Z" fill="#0A82A3"/>
<path opacity="0.9" fill-rule="evenodd" clip-rule="evenodd" d="M86.0353 238.94C87.3253 242.45 88.6253 245.95 89.9653 249.61C93.1253 248.32 94.7953 246.1 96.2053 243.63C97.8653 241.77 98.5953 239.27 100.705 237.72C101.205 237.16 101.535 236.52 101.695 235.8C101.515 232.7 103.285 229.29 100.305 226.64C96.7053 226.48 94.3153 228.08 92.5653 231.13C90.8853 234.07 88.8253 236.8 86.0353 238.94Z" fill="#A968AA"/>
<path opacity="0.9" fill-rule="evenodd" clip-rule="evenodd" d="M301.085 224.71C298.235 222.19 294.285 220.9 293.105 216.55C292.015 212.54 289.245 216.46 287.265 216.19C288.245 221.99 289.215 227.8 290.375 234.7C295.085 231.54 298.415 228.48 301.085 224.71Z" fill="#BC5CA2"/>
<path opacity="0.9" fill-rule="evenodd" clip-rule="evenodd" d="M338.485 197.9C336.955 194.36 335.415 190.81 333.895 187.26C332.535 184.06 329.585 185.88 327.465 185.75C324.545 185.58 321.565 186.35 318.605 186.72C317.195 186.22 316.195 186.71 315.485 187.94C315.545 188.48 315.785 188.93 316.185 189.31C323.465 188.03 325.805 195.23 331.195 197.2C333.625 197.43 336.055 197.66 338.485 197.9Z" fill="#D2509C"/>
<path opacity="0.9" fill-rule="evenodd" clip-rule="evenodd" d="M324.595 180.85C325.475 180.77 326.365 180.69 327.245 180.6C332.095 179.25 335.435 175.66 339.385 172.97C339.995 172.51 340.535 171.99 341.045 171.44C341.775 170.54 342.225 169.53 342.375 168.4C342.295 167.23 341.895 166.26 340.665 165.81C335.455 168.99 328.185 165.84 323.675 171.16C321.175 174.68 321.365 177.92 324.595 180.85Z" fill="#A8C93E"/>
<path opacity="0.9" fill-rule="evenodd" clip-rule="evenodd" d="M102.075 249.97C106.845 246.4 111.845 235.02 111.565 228.35C110.155 227.72 108.755 227.08 107.355 226.45C103.535 229.06 103.205 233.62 100.785 237.01C100.255 237.8 100.445 238.36 101.335 238.68C103.755 242.28 100.365 246.32 102.075 249.97Z" fill="#B96EAC"/>
<path opacity="0.9" fill-rule="evenodd" clip-rule="evenodd" d="M133.465 190.34C143.655 191.02 143.685 191.02 142.955 182.12C142.665 178.61 142.235 175.11 141.805 170.94C137.985 173.73 136.205 177.07 134.195 180.24C132.975 183.56 131.115 186.84 133.465 190.34Z" fill="#86C345"/>
<path opacity="0.9" fill-rule="evenodd" clip-rule="evenodd" d="M35.4753 268.38C35.3653 267.9 35.2753 267.42 35.2153 266.93C34.7253 264.31 34.2053 261.71 32.2353 259.67C31.3253 258.33 30.0253 258.61 28.7153 258.93C24.6653 259.72 25.7953 263.64 24.1153 265.86C24.6553 270.07 24.7653 274.37 26.8353 278.25C33.3253 277.85 34.9353 273.55 35.4753 268.38Z" fill="#1596B6"/>
<path opacity="0.9" fill-rule="evenodd" clip-rule="evenodd" d="M341.585 168.33C341.215 169.08 340.825 169.83 340.455 170.58C344.955 173.21 348.805 176.86 354.085 178.24C355.725 178.67 354.975 179.65 354.525 180.55C354.445 181.29 354.745 181.79 355.475 182.02C359.355 181.76 363.225 181.51 367.105 181.27C366.415 178.62 365.785 175.94 363.305 174.2C356.455 173.06 352.285 165.97 344.625 166.62C343.355 166.76 342.335 167.33 341.585 168.33Z" fill="#7C55A2"/>
<path opacity="0.9" fill-rule="evenodd" clip-rule="evenodd" d="M232.695 148.71C231.525 148.81 230.345 148.91 229.165 149C227.815 149.8 225.615 149.42 225.265 151.62C225.595 158.06 223.205 164.04 221.435 170.12C220.725 172.56 219.805 175.3 224.335 173.15C230.265 167.44 230.695 159.26 234.535 152.58C235.215 151.39 234.515 149.47 232.695 148.71Z" fill="#F37B65"/>
<path opacity="0.9" fill-rule="evenodd" clip-rule="evenodd" d="M317.485 170.1C312.775 168.95 309.015 172.85 304.005 171.88C305.265 175.56 306.815 178.08 309.245 180.07C311.835 181.42 314.685 181.73 317.575 181.89C318.685 181.97 319.785 181.92 320.855 181.55C321.835 180.87 322.185 179.91 322.135 178.8C321.535 175.43 317.915 173.57 317.485 170.1Z" fill="#F498AB"/>
<path opacity="0.9" fill-rule="evenodd" clip-rule="evenodd" d="M35.4753 268.38C32.5853 271.66 31.3953 276.3 26.8353 278.25C27.0853 281.43 27.0453 284.67 28.7053 287.56C32.6153 283.57 37.9653 280.91 40.5753 275.71C39.7853 274.01 39.7853 271.92 37.9053 270.79C37.0853 269.99 36.2853 269.18 35.4753 268.38Z" fill="#068CAE"/>
<path opacity="0.9" fill-rule="evenodd" clip-rule="evenodd" d="M39.9353 276.9C34.1353 278.45 30.6953 282.3 28.7053 287.56C29.0153 288.59 29.3153 289.6 29.6153 290.63C32.7853 288.43 34.9853 284.47 39.8453 285.35C41.4353 286.05 43.0053 286.71 44.5053 285.12C43.3753 283.2 46.3353 280.12 42.6853 278.92C41.2853 278.86 41.4953 276.78 39.9353 276.9Z" fill="#0585A7"/>
<path opacity="0.9" fill-rule="evenodd" clip-rule="evenodd" d="M61.3253 267.67C61.8853 273.32 58.6553 278.87 60.5453 284.55C64.5853 281.75 68.0053 278.36 71.0553 274.59C71.2253 270.87 67.7453 270.66 65.5153 269.24C64.1053 268.72 62.7153 268.19 61.3253 267.67Z" fill="#52459B"/>
<path opacity="0.9" fill-rule="evenodd" clip-rule="evenodd" d="M98.9953 225.75C92.8053 224.19 86.6153 222.64 79.3953 220.83C81.0053 225.21 82.1453 228.31 83.2953 231.41C90.1253 233.76 94.1453 228.65 98.9953 225.75Z" fill="#6F4F9F"/>
<path opacity="0.9" fill-rule="evenodd" clip-rule="evenodd" d="M296.935 151.53C292.135 150.3 290.195 146.18 287.455 142.87C285.085 144.21 285.115 142.59 285.045 141.07C284.555 139.6 283.835 138.47 281.915 138.91C279.385 140.45 277.495 142.3 278.355 145.48C283.645 146.62 288.155 148.41 288.205 154.81C288.225 157.07 290.395 157.47 292.365 157.7C293.905 155.64 295.415 153.58 296.935 151.53Z" fill="#9E1F63"/>
<path opacity="0.9" fill-rule="evenodd" clip-rule="evenodd" d="M232.695 148.71C233.715 156.08 226.895 161.14 226.215 168.05C226.045 169.79 224.995 171.45 224.345 173.15C226.405 172.49 228.475 171.83 230.545 171.16C232.315 163.35 236.395 155.98 235.845 147.71C234.795 148.04 233.745 148.38 232.695 148.71Z" fill="#F0635A"/>
<path opacity="0.9" fill-rule="evenodd" clip-rule="evenodd" d="M98.9953 225.75C93.7653 227.63 88.5353 229.52 83.2953 231.41C84.2053 233.92 85.1153 236.44 86.0353 238.95C87.6153 238.88 89.0853 242.41 90.8853 238.33C92.8653 233.84 94.5353 228.54 100.615 227.06C101.085 226.39 100.925 225.93 100.135 225.68C99.7453 225.47 99.3653 225.49 98.9953 225.75Z" fill="#9E60A6"/>
<path opacity="0.9" fill-rule="evenodd" clip-rule="evenodd" d="M123.025 279.36C119.615 276.43 116.205 273.5 112.335 270.15C110.095 274.95 109.915 279.52 109.685 284.07C114.925 284.69 119.365 283.1 123.025 279.36Z" fill="#E14397"/>
<path opacity="0.9" fill-rule="evenodd" clip-rule="evenodd" d="M189.645 197.26C193.155 200.21 196.655 203.16 200.515 206.41C202.425 201.35 202.795 196.81 203.005 192.24C197.535 191.3 193.005 192.79 189.645 197.26Z" fill="#ED488B"/>
<path opacity="0.9" fill-rule="evenodd" clip-rule="evenodd" d="M208.765 259.44C208.935 254.48 207.535 249.36 210.765 244.75C206.875 243.68 202.955 244.14 198.255 244.52C201.855 249.89 204.485 255.18 208.765 259.44Z" fill="#92C445"/>
<path opacity="0.9" fill-rule="evenodd" clip-rule="evenodd" d="M245.275 149.08C237.115 153.6 241.685 161.48 239.685 167.62C243.395 167.94 246.545 166.72 249.265 164.3C247.885 160.78 243.895 159.53 241.645 156.05C249.015 156.4 247.715 152.98 245.275 149.08Z" fill="#EF545E"/>
<path opacity="0.9" fill-rule="evenodd" clip-rule="evenodd" d="M48.4353 210C52.2353 210.06 54.4853 206.76 57.9353 205.64C58.0353 208.93 53.4753 209.72 54.2953 214.04C59.8153 211.31 62.5153 207.04 65.0853 201.41C61.6453 201.16 57.9853 205.61 55.8653 200.87C53.2453 203.81 50.0853 206.34 48.4353 210Z" fill="#9E1F63"/>
<path opacity="0.9" fill-rule="evenodd" clip-rule="evenodd" d="M175.925 175.07C179.255 173.39 181.865 170.94 184.335 168.24C182.645 166.43 180.425 166.43 178.395 165.98C174.155 165.61 170.005 166.23 165.865 167.12C165.025 169.45 166.055 171.47 166.945 173.5C170.115 173.18 173.135 173.57 175.925 175.07Z" fill="#A6D06A"/>
<path opacity="0.9" fill-rule="evenodd" clip-rule="evenodd" d="M162.225 337.28C157.935 333.8 153.635 330.31 149.345 326.83C149.255 327.83 148.955 328.87 149.125 329.83C150.915 340.33 150.925 340.33 162.225 337.28Z" fill="#BF69A9"/>
<path opacity="0.9" fill-rule="evenodd" clip-rule="evenodd" d="M159.095 129.46C155.015 128.86 150.125 124.61 147.765 131.91C155.115 139.97 155.115 139.97 159.095 129.46Z" fill="#9E1F63"/>
<path opacity="0.9" fill-rule="evenodd" clip-rule="evenodd" d="M348.365 164.26C347.075 165.22 344.745 165.02 344.645 167.32C351.275 168.62 356.095 174.3 363.305 174.19C362.405 172.29 361.515 170.4 360.615 168.5C356.865 166.23 353.535 162.91 348.365 164.26Z" fill="#8155A2"/>
<path opacity="0.9" fill-rule="evenodd" clip-rule="evenodd" d="M278.375 145.48C279.555 143.39 280.735 141.31 281.915 139.22C282.045 138.25 281.595 137.72 280.595 137.61C276.565 138.38 271.975 137.18 268.755 140.85C270.315 143.51 271.875 146.16 273.425 148.82C275.065 147.71 276.715 146.59 278.375 145.48Z" fill="#9E1F63"/>
<path opacity="0.9" fill-rule="evenodd" clip-rule="evenodd" d="M165.865 167.12C170.465 171.93 174.205 166.27 178.395 165.98C175.745 164.81 173.135 163.59 170.455 162.5C164.735 160.16 163.745 162.24 165.865 167.12Z" fill="#6ABD51"/>
<path opacity="0.9" fill-rule="evenodd" clip-rule="evenodd" d="M238.605 131.52C239.455 133.99 240.285 136.47 241.135 138.95C242.075 140.85 243.005 142.75 243.935 144.63C242.945 136.64 239.285 129.48 236.895 121.59C233.875 122.45 232.695 124.65 231.455 126.79C232.015 130.87 236.655 129.34 238.605 131.52Z" fill="#0E753C"/>
<path opacity="0.9" fill-rule="evenodd" clip-rule="evenodd" d="M100.135 225.67C100.295 226.13 100.465 226.59 100.615 227.05C100.335 230.38 99.1253 233.74 100.775 237.01C106.295 235.37 105.475 230.16 107.345 226.45C105.335 223.23 102.445 226.61 100.135 225.67Z" fill="#B26DAC"/>
<path opacity="0.9" fill-rule="evenodd" clip-rule="evenodd" d="M60.6653 195.83C66.3853 196.04 68.0953 199.98 69.5053 204.39C70.5253 207.6 71.9153 210.68 73.1453 213.82C72.4053 205.7 68.3253 198.59 66.3653 190.72C62.8453 191.17 61.8553 193.61 60.6653 195.83Z" fill="#2F66B0"/>
<path opacity="0.9" fill-rule="evenodd" clip-rule="evenodd" d="M317.485 170.1C312.755 175.45 321.135 175.68 321.175 179.15C322.245 179.64 322.215 181.35 323.765 181.31C324.085 181.23 324.375 181.08 324.605 180.84C324.285 177.61 323.975 174.38 323.675 171.15C322.135 168.18 319.645 169.94 317.485 170.1Z" fill="#EF512F"/>
<path opacity="0.9" fill-rule="evenodd" clip-rule="evenodd" d="M202.905 190.74C204.055 188.22 205.445 185.17 200.385 186.93C196.465 188.29 192.025 188.87 189.015 192.2C191.405 191.84 191.115 196.03 193.995 194.85C196.935 193.38 200.575 193.41 202.905 190.74Z" fill="#FBE692"/>
<path opacity="0.9" fill-rule="evenodd" clip-rule="evenodd" d="M348.365 164.26C352.305 166.04 355.915 168.67 360.615 168.5C359.865 164.71 357.055 161.97 355.315 158.69C352.385 159.83 350.285 161.94 348.365 164.26Z" fill="#8A5BA4"/>
<path opacity="0.9" fill-rule="evenodd" clip-rule="evenodd" d="M133.465 190.34C133.425 186.96 136.695 183.75 134.195 180.24C129.435 182.23 128.315 187.12 124.495 190.43C128.025 191.45 130.755 191.52 133.465 190.34Z" fill="#7858A2"/>
<path opacity="0.9" fill-rule="evenodd" clip-rule="evenodd" d="M268.745 140.85C273.055 140.39 277.405 140.09 281.265 137.78C281.705 137.21 281.535 136.86 280.855 136.7C275.975 135.09 270.935 135.51 265.805 135.75C265.255 138.41 267.585 139.31 268.745 140.85Z" fill="#9E1F63"/>
<path opacity="0.9" fill-rule="evenodd" clip-rule="evenodd" d="M175.925 175.07C173.605 171.28 171.075 168.51 166.945 173.5C167.175 175.75 167.405 178 167.685 180.81C171.685 180.04 172.235 175.27 175.925 175.07Z" fill="#99CA45"/>
<path opacity="0.9" fill-rule="evenodd" clip-rule="evenodd" d="M95.9453 201.67C99.9353 201.99 102.465 199.52 105.045 197.14C103.235 195.36 101.425 193.58 99.1453 191.34C97.3153 194.96 96.1053 198.15 95.9453 201.67Z" fill="#386DB4"/>
<path opacity="0.9" fill-rule="evenodd" clip-rule="evenodd" d="M74.0653 216.12C72.6653 217.25 71.2653 218.37 69.8653 219.5C67.5153 219.55 66.3553 221.03 65.4853 222.87C69.1253 223.57 72.7553 224.27 76.6253 225.02C76.5053 221.3 75.5653 218.63 74.0653 216.12Z" fill="#664A9D"/>
<path opacity="0.9" fill-rule="evenodd" clip-rule="evenodd" d="M123.025 279.36C118.575 280.93 114.125 282.5 109.685 284.07C109.615 284.57 109.325 285.42 109.505 285.52C113.215 287.64 122.085 283.56 123.025 279.36Z" fill="#EC298D"/>
<path opacity="0.9" fill-rule="evenodd" clip-rule="evenodd" d="M318.045 180.4C315.115 180.29 312.185 180.18 309.255 180.08C310.905 183.02 312.705 185.85 315.485 187.95C316.525 187.55 317.565 187.14 318.605 186.73C318.475 186.27 318.345 185.81 318.225 185.35C318.205 183.69 319.585 181.97 318.045 180.4Z" fill="#EE5089"/>
<path opacity="0.9" fill-rule="evenodd" clip-rule="evenodd" d="M238.605 131.52C237.845 127.69 233.595 128.7 231.445 126.79C229.325 128.2 227.715 130.01 226.675 132.28C230.775 134.37 234.625 131.83 238.605 131.52Z" fill="#1A703B"/>
<path opacity="0.9" fill-rule="evenodd" clip-rule="evenodd" d="M225.265 151.62C226.565 150.74 227.865 149.87 229.165 149C223.665 148.64 218.015 149.83 212.675 147.79C211.715 148.75 210.545 150.18 212.615 150.59C216.755 151.41 220.865 153.22 225.265 151.62Z" fill="#9FC03C"/>
<path opacity="0.9" fill-rule="evenodd" clip-rule="evenodd" d="M24.1153 265.86C28.6953 265.39 26.8353 261.04 28.7153 258.93C26.9453 257.82 24.2853 256.21 23.0553 257.52C20.5653 260.19 23.1153 263.12 24.1153 265.86Z" fill="#13A4C0"/>
<path opacity="0.9" fill-rule="evenodd" clip-rule="evenodd" d="M119.085 233.67C116.595 236.79 114.735 240.17 114.025 244.06C117.785 242.16 119.835 237.99 124.185 236.86C122.825 235.3 121.215 234.11 119.085 233.67Z" fill="#D24798"/>
<path opacity="0.9" fill-rule="evenodd" clip-rule="evenodd" d="M249.265 164.31C246.075 165.42 242.875 166.52 239.685 167.63C237.035 168.69 234.385 169.75 231.725 170.81C238.175 170.24 244.175 168.15 249.915 165.28C249.985 165.24 249.995 164.88 249.895 164.77C249.745 164.57 249.485 164.46 249.265 164.31Z" fill="#EF5164"/>
<path opacity="0.9" fill-rule="evenodd" clip-rule="evenodd" d="M191.915 194.54C192.225 193.6 192.535 192.67 192.855 191.73C191.585 191.89 190.305 192.05 189.025 192.2C187.965 192.81 186.125 193.32 186.015 194.06C185.825 195.3 187.345 195.88 188.665 196.07C190.145 196.35 191.295 195.98 191.915 194.54Z" fill="#DDE57C"/>
<path opacity="0.9" fill-rule="evenodd" clip-rule="evenodd" d="M65.5053 269.24C67.3453 271.02 69.1953 272.8 71.0453 274.58C73.7653 270.41 73.6953 270.33 65.5053 269.24Z" fill="#9066AA"/>
<path opacity="0.9" fill-rule="evenodd" clip-rule="evenodd" d="M191.915 194.54C190.825 195.05 189.745 195.56 188.665 196.07C188.825 196.6 189.155 197 189.645 197.26C194.105 195.59 198.555 193.92 203.005 192.25C203.125 191.74 203.085 191.24 202.895 190.75C199.245 192.01 195.575 193.27 191.915 194.54Z" fill="#EE4852"/>
<path opacity="0.9" fill-rule="evenodd" clip-rule="evenodd" d="M280.855 136.7C280.985 137.06 281.125 137.42 281.265 137.78C281.475 138.26 281.695 138.74 281.905 139.22C283.375 139.5 284.385 140.27 284.825 141.67C285.305 141.91 285.645 141.9 285.835 141.63C286.005 141.39 286.065 141.19 286.005 141.04C285.495 139.45 284.665 137.87 286.095 136.28C284.265 135.11 282.565 135.94 280.855 136.7Z" fill="#9E1F63"/>
<path opacity="0.9" fill-rule="evenodd" clip-rule="evenodd" d="M45.9453 212.76C47.6853 212.33 49.1953 215.58 50.6853 213.38C51.7553 211.79 49.2753 211.11 48.3353 210.04C47.1453 210.63 46.0953 211.33 45.9453 212.76Z" fill="#9E1F63"/>
<path opacity="0.9" fill-rule="evenodd" clip-rule="evenodd" d="M65.4853 222.86C66.9453 221.74 68.4053 220.61 69.8653 219.49C66.1653 217.75 64.9653 220.02 64.0953 222.85C64.5653 223.08 65.0253 223.09 65.4853 222.86Z" fill="#3C479C"/>
<path opacity="0.9" fill-rule="evenodd" clip-rule="evenodd" d="M101.325 238.69C101.145 238.13 100.955 237.57 100.775 237.02C97.6953 238.25 96.7153 240.79 96.2153 243.64C97.9153 241.99 99.6253 240.34 101.325 238.69Z" fill="#B26DAC"/>
<path opacity="0.9" fill-rule="evenodd" clip-rule="evenodd" d="M116.365 260.17C113.195 261.19 109.605 261.37 107.475 264.42C110.705 263.55 114.005 262.79 116.365 260.17Z" fill="#BF6EAC"/>
<path opacity="0.9" fill-rule="evenodd" clip-rule="evenodd" d="M32.2353 259.67C33.2253 262.09 34.2253 264.51 35.2153 266.93C36.4453 264.47 34.6653 262.51 34.1353 260.34C33.5053 260.12 32.8753 259.89 32.2353 259.67Z" fill="#2F3884"/>
<path opacity="0.9" fill-rule="evenodd" clip-rule="evenodd" d="M239.335 246.52C238.115 247.29 237.065 249.18 237.985 249.53C240.075 250.33 241.945 248.96 243.165 247.07C241.895 246.88 240.415 247.85 239.335 246.52Z" fill="#A8D6A7"/>
<path opacity="0.9" fill-rule="evenodd" clip-rule="evenodd" d="M63.1153 315.83C62.5653 314.31 62.0153 312.78 61.4653 311.26C60.3453 311.64 58.3953 311.68 58.8453 313.19C59.3353 314.88 61.2053 315.63 63.1153 315.83Z" fill="#2A4186"/>
<path opacity="0.9" fill-rule="evenodd" clip-rule="evenodd" d="M44.5053 285.12C42.9453 285.2 41.3953 285.27 39.8453 285.35C41.2453 288.83 43.9653 288.94 47.1453 287.9C46.2653 286.98 45.3853 286.05 44.5053 285.12Z" fill="#01779F"/>
<path opacity="0.9" fill-rule="evenodd" clip-rule="evenodd" d="M39.9353 276.9C40.6653 277.81 41.1953 278.97 42.6953 278.92C41.2253 276.14 41.6353 272.31 37.9053 270.79C38.5753 272.83 39.2553 274.87 39.9353 276.9Z" fill="#243E82"/>
<path opacity="0.9" fill-rule="evenodd" clip-rule="evenodd" d="M64.6053 209.52C65.4453 210.15 65.9353 210.8 66.5753 210.95C67.5453 211.18 67.9353 210.36 67.6453 209.65C67.4053 209.05 66.7853 208.45 66.1753 208.22C65.9253 208.11 65.2653 208.94 64.6053 209.52Z" fill="#2F66B0"/>
<path opacity="0.9" fill-rule="evenodd" clip-rule="evenodd" d="M355.475 182.01C355.235 181.58 354.985 181.15 354.725 180.72C350.105 179.16 345.495 177.68 341.385 182L341.275 182.2C342.755 182.33 339.835 187.62 344.095 184.44C346.665 182.51 349.835 185.26 352.325 183.18C353.375 182.8 354.435 182.4 355.475 182.01Z" fill="#D64F9C"/>
<path opacity="0.9" fill-rule="evenodd" clip-rule="evenodd" d="M339.245 171.37C334.935 174.07 330.415 176.52 327.255 180.6C331.605 182.48 336.045 181.59 340.495 180.86C343.765 180.67 346.765 179.34 346.215 175.96C345.705 172.88 343.285 170.52 339.245 171.37Z" fill="#7251A1"/>
<path opacity="0.9" fill-rule="evenodd" clip-rule="evenodd" d="M339.245 171.37C343.585 173.99 348.695 176.51 340.495 180.86C340.815 181.22 341.115 181.61 341.385 182.01C345.835 181.58 350.285 181.15 354.725 180.72C356.395 179.99 358.075 179.25 359.745 178.51C351.695 178.98 348.265 169.81 340.445 170.57C339.985 170.75 339.575 171.01 339.245 171.37Z" fill="#7553A1"/>
<path opacity="0.9" fill-rule="evenodd" clip-rule="evenodd" d="M318.045 180.4C318.625 182.02 315.255 183.83 318.215 185.34C318.675 185.13 319.135 184.92 319.595 184.71C320.155 183.55 321.745 182.5 320.095 181.09C319.405 180.86 318.725 180.63 318.045 180.4Z" fill="#EE487C"/>
<path opacity="0.9" fill-rule="evenodd" clip-rule="evenodd" d="M320.095 181.09C319.925 182.3 319.765 183.51 319.595 184.71C320.985 183.59 322.385 182.45 323.765 181.32C322.915 180.59 322.045 179.88 321.185 179.15C320.815 179.8 320.455 180.45 320.095 181.09Z" fill="#EE4A88"/>
<path opacity="0.9" fill-rule="evenodd" clip-rule="evenodd" d="M286.015 141.04C285.675 141.34 285.285 141.55 284.835 141.67C283.865 142.35 281.915 142.73 283.575 144.37C284.485 145.27 285.765 145.81 286.885 146.52C287.075 145.3 287.275 144.08 287.465 142.86C286.975 142.26 286.495 141.65 286.015 141.04Z" fill="#9E1F63"/>
</g>
</g>
</svg>
